<svg xmlns="http://www.w3.org/2000/svg" width="75" height="75" viewBox="0 0 75 75">
  <g id="Grupo_1099391" data-name="Grupo 1099391" transform="translate(-763 -1765)">
    <circle id="Elipse_9665" data-name="Elipse 9665" cx="37.5" cy="37.5" r="37.5" transform="translate(763 1765)" fill="#2cfedf"/>
    <g id="Computer-Network-Intranet-Communication-Technology" transform="translate(774 1776)">
      <path id="Trazado_873662" data-name="Trazado 873662" d="M57.607,49v1.661a1.666,1.666,0,0,1-1.661,1.661H42.661A1.666,1.666,0,0,1,41,50.661V49Z" transform="translate(-6.616 -7.973)" fill="#d8d7da"/>
      <path id="Trazado_873663" data-name="Trazado 873663" d="M57.607,40.661V47.3H41V40.661A1.666,1.666,0,0,1,42.661,39H55.947a1.652,1.652,0,0,1,1.52,1,1.578,1.578,0,0,1,.141.656Z" transform="translate(-6.616 -6.276)" fill="#5aaae7"/>
      <path id="Trazado_873664" data-name="Trazado 873664" d="M57.607,13v1.661a1.666,1.666,0,0,1-1.661,1.661H42.661A1.666,1.666,0,0,1,41,14.661V13Z" transform="translate(-6.616 -1.866)" fill="#d8d7da"/>
      <path id="Trazado_873665" data-name="Trazado 873665" d="M57.607,4.661V11.3H41V4.661A1.666,1.666,0,0,1,42.661,3H55.947a1.652,1.652,0,0,1,1.52,1,1.578,1.578,0,0,1,.141.656Z" transform="translate(-6.616 -0.17)" fill="#5aaae7"/>
      <path id="Trazado_873666" data-name="Trazado 873666" d="M54.3,58.661v1.661H46V58.661A1.666,1.666,0,0,1,47.661,57h4.982A1.666,1.666,0,0,1,54.3,58.661Z" transform="translate(-7.464 -9.33)" fill="#898890"/>
      <path id="Trazado_873667" data-name="Trazado 873667" d="M54.3,22.661v1.661H46V22.661A1.666,1.666,0,0,1,47.661,21h4.982A1.666,1.666,0,0,1,54.3,22.661Z" transform="translate(-7.464 -3.223)" fill="#898890"/>
      <path id="Trazado_873668" data-name="Trazado 873668" d="M48,53h4.982v3.321H48Z" transform="translate(-7.803 -8.651)" fill="#acabb1"/>
      <path id="Trazado_873669" data-name="Trazado 873669" d="M48,17h4.982v3.321H48Z" transform="translate(-7.803 -2.544)" fill="#acabb1"/>
      <circle id="Elipse_11484" data-name="Elipse 11484" cx="2" cy="2" r="2" transform="translate(24.911 24.911)" fill="#ff9811"/>
      <path id="Trazado_873670" data-name="Trazado 873670" d="M19.607,49v1.661a1.666,1.666,0,0,1-1.661,1.661H4.661A1.666,1.666,0,0,1,3,50.661V49Z" transform="translate(-0.17 -7.973)" fill="#d8d7da"/>
      <path id="Trazado_873671" data-name="Trazado 873671" d="M19.607,40.661V47.3H3V40.661A1.666,1.666,0,0,1,4.661,39H17.947a1.652,1.652,0,0,1,1.52,1,1.578,1.578,0,0,1,.141.656Z" transform="translate(-0.17 -6.276)" fill="#5aaae7"/>
      <path id="Trazado_873672" data-name="Trazado 873672" d="M19.607,13v1.661a1.666,1.666,0,0,1-1.661,1.661H4.661A1.666,1.666,0,0,1,3,14.661V13Z" transform="translate(-0.17 -1.866)" fill="#d8d7da"/>
      <path id="Trazado_873673" data-name="Trazado 873673" d="M19.607,4.661V11.3H3V4.661A1.666,1.666,0,0,1,4.661,3H17.947a1.652,1.652,0,0,1,1.52,1A1.578,1.578,0,0,1,19.607,4.661Z" transform="translate(-0.17 -0.17)" fill="#5aaae7"/>
      <path id="Trazado_873674" data-name="Trazado 873674" d="M16.3,58.661v1.661H8V58.661A1.666,1.666,0,0,1,9.661,57h4.982A1.666,1.666,0,0,1,16.3,58.661Z" transform="translate(-1.018 -9.33)" fill="#898890"/>
      <path id="Trazado_873675" data-name="Trazado 873675" d="M16.3,22.661v1.661H8V22.661A1.666,1.666,0,0,1,9.661,21h4.982A1.666,1.666,0,0,1,16.3,22.661Z" transform="translate(-1.018 -3.223)" fill="#898890"/>
      <path id="Trazado_873676" data-name="Trazado 873676" d="M10,53h4.982v3.321H10Z" transform="translate(-1.357 -8.651)" fill="#acabb1"/>
      <path id="Trazado_873677" data-name="Trazado 873677" d="M10,17h4.982v3.321H10Z" transform="translate(-1.357 -2.544)" fill="#acabb1"/>
      <path id="Trazado_873678" data-name="Trazado 873678" d="M59.343,40.866v6.643H51.23c2.267-1.154,6.037-3.529,7.972-7.3a1.578,1.578,0,0,1,.141.656Z" transform="translate(-8.351 -6.482)" fill="#3d9ae2"/>
      <path id="Trazado_873679" data-name="Trazado 873679" d="M59.343,4.866v6.643H51.23C53.5,10.355,57.267,7.98,59.2,4.21a1.578,1.578,0,0,1,.141.656Z" transform="translate(-8.351 -0.375)" fill="#3d9ae2"/>
      <path id="Trazado_873680" data-name="Trazado 873680" d="M21.343,40.866v6.643H13.23c2.267-1.154,6.037-3.529,7.972-7.3a1.578,1.578,0,0,1,.141.656Z" transform="translate(-1.905 -6.482)" fill="#3d9ae2"/>
      <path id="Trazado_873681" data-name="Trazado 873681" d="M21.343,4.866v6.643H13.23C15.5,10.355,19.267,7.98,21.2,4.21A1.578,1.578,0,0,1,21.343,4.866Z" transform="translate(-1.905 -0.375)" fill="#3d9ae2"/>
      <g id="Grupo_1099390" data-name="Grupo 1099390" transform="translate(8.643 14.456)">
        <path id="Trazado_873682" data-name="Trazado 873682" d="M10,17h4.982v1.661H10Z" transform="translate(-10 -17)" fill="#898890"/>
        <path id="Trazado_873683" data-name="Trazado 873683" d="M48,17h4.982v1.661H48Z" transform="translate(-16.446 -17)" fill="#898890"/>
        <path id="Trazado_873684" data-name="Trazado 873684" d="M48,53h4.982v1.661H48Z" transform="translate(-16.446 -23.107)" fill="#898890"/>
        <path id="Trazado_873685" data-name="Trazado 873685" d="M10,53h4.982v1.661H10Z" transform="translate(-10 -23.107)" fill="#898890"/>
      </g>
      <path id="Trazado_873686" data-name="Trazado 873686" d="M55.777,38H42.491A2.491,2.491,0,0,0,40,40.491v8.3a2.491,2.491,0,0,0,2.491,2.491h3.321V53.1a2.491,2.491,0,0,0-1.661,2.338V57.1a.83.83,0,0,0,.83.83h8.3a.83.83,0,0,0,.83-.83V55.438A2.491,2.491,0,0,0,52.456,53.1V51.286h3.321a2.491,2.491,0,0,0,2.491-2.491v-8.3A2.491,2.491,0,0,0,55.777,38ZM42.491,39.661H55.777a.83.83,0,0,1,.83.83V46.3H41.661V40.491A.83.83,0,0,1,42.491,39.661Zm9.964,16.607H45.813v-.83a.83.83,0,0,1,.83-.83h4.982a.83.83,0,0,1,.83.83Zm-1.661-3.321H47.473V51.286h3.321Zm4.982-3.321H42.491a.83.83,0,0,1-.83-.83v-.83H56.607v.83A.83.83,0,0,1,55.777,49.625Z" transform="translate(-6.446 -6.107)"/>
      <path id="Trazado_873687" data-name="Trazado 873687" d="M55.777,2H42.491A2.491,2.491,0,0,0,40,4.491v8.3a2.491,2.491,0,0,0,2.491,2.491h3.321V17.1a2.491,2.491,0,0,0-1.661,2.338V21.1a.83.83,0,0,0,.83.83h8.3a.83.83,0,0,0,.83-.83V19.438A2.491,2.491,0,0,0,52.456,17.1V15.286h3.321a2.491,2.491,0,0,0,2.491-2.491v-8.3A2.491,2.491,0,0,0,55.777,2ZM42.491,3.661H55.777a.83.83,0,0,1,.83.83V10.3H41.661V4.491A.83.83,0,0,1,42.491,3.661Zm9.964,16.607H45.813v-.83a.83.83,0,0,1,.83-.83h4.982a.83.83,0,0,1,.83.83Zm-1.661-3.321H47.473V15.286h3.321Zm4.982-3.321H42.491a.83.83,0,0,1-.83-.83v-.83H56.607v.83A.83.83,0,0,1,55.777,13.625Z" transform="translate(-6.446)"/>
      <path id="Trazado_873688" data-name="Trazado 873688" d="M17.777,38H4.491A2.491,2.491,0,0,0,2,40.491v8.3a2.491,2.491,0,0,0,2.491,2.491H7.813V53.1a2.491,2.491,0,0,0-1.661,2.338V57.1a.83.83,0,0,0,.83.83h8.3a.83.83,0,0,0,.83-.83V55.438A2.491,2.491,0,0,0,14.456,53.1V51.286h3.321a2.491,2.491,0,0,0,2.491-2.491v-8.3A2.491,2.491,0,0,0,17.777,38ZM4.491,39.661H17.777a.83.83,0,0,1,.83.83V46.3H3.661V40.491A.83.83,0,0,1,4.491,39.661Zm9.964,16.607H7.813v-.83a.83.83,0,0,1,.83-.83h4.982a.83.83,0,0,1,.83.83Zm-1.661-3.321H9.473V51.286h3.321Zm4.982-3.321H4.491a.83.83,0,0,1-.83-.83v-.83H18.607v.83A.83.83,0,0,1,17.777,49.625Z" transform="translate(0 -6.107)"/>
      <path id="Trazado_873689" data-name="Trazado 873689" d="M4.491,15.286H7.813V17.1a2.491,2.491,0,0,0-1.661,2.338V21.1a.83.83,0,0,0,.83.83h8.3a.83.83,0,0,0,.83-.83V19.438A2.491,2.491,0,0,0,14.456,17.1V15.286h3.321a2.491,2.491,0,0,0,2.491-2.491v-8.3A2.491,2.491,0,0,0,17.777,2H4.491A2.491,2.491,0,0,0,2,4.491v8.3a2.491,2.491,0,0,0,2.491,2.491Zm9.964,4.982H7.813v-.83a.83.83,0,0,1,.83-.83h4.982a.83.83,0,0,1,.83.83Zm-1.661-3.321H9.473V15.286h3.321Zm4.982-3.321H4.491a.83.83,0,0,1-.83-.83v-.83H18.607v.83A.83.83,0,0,1,17.777,13.625ZM4.491,3.661H17.777a.83.83,0,0,1,.83.83V10.3H3.661V4.491A.83.83,0,0,1,4.491,3.661Z" transform="translate(0)"/>
      <path id="Trazado_873690" data-name="Trazado 873690" d="M30.152,24.116h1.661V11.661h4.152V10H26v1.661h4.152Z" transform="translate(-4.071 -1.357)"/>
      <path id="Trazado_873691" data-name="Trazado 873691" d="M31.813,37H30.152V49.456H26v1.661h9.964V49.456H31.813Z" transform="translate(-4.071 -5.937)"/>
      <path id="Trazado_873692" data-name="Trazado 873692" d="M29,31.491A2.491,2.491,0,1,0,31.491,29,2.491,2.491,0,0,0,29,31.491Zm3.321,0a.83.83,0,1,1-.83-.83A.83.83,0,0,1,32.321,31.491Z" transform="translate(-4.58 -4.58)"/>
      <path id="Trazado_873693" data-name="Trazado 873693" d="M49.456,34.643V28H47.795v2.491H37v1.661H47.795v2.491Z" transform="translate(-5.937 -4.41)"/>
      <path id="Trazado_873694" data-name="Trazado 873694" d="M12,28v6.643h1.661V32.152H24.456V30.491H13.661V28Z" transform="translate(-1.696 -4.41)"/>
    </g>
  </g>
</svg>
