<svg xmlns="http://www.w3.org/2000/svg" width="75" height="75" viewBox="0 0 75 75">
  <g id="Grupo_1099366" data-name="Grupo 1099366" transform="translate(-1078 -1765)">
    <circle id="Elipse_9665" data-name="Elipse 9665" cx="37.5" cy="37.5" r="37.5" transform="translate(1078 1765)" fill="#2cfedf"/>
    <g id="conexion" transform="translate(1090 1777)">
      <g id="Grupo_1099365" data-name="Grupo 1099365" transform="translate(1.804 1.804)">
        <g id="Grupo_1099337" data-name="Grupo 1099337" transform="translate(14.477 43.753)">
          <path id="Trazado_873609" data-name="Trazado 873609" d="M34.477,56.4c2.887.418,4.826,1.2,4.826,2.091,0,1.335-4.319,2.413-9.651,2.413S20,59.826,20,58.491c0-.893,1.938-1.673,4.826-2.091v.483a.807.807,0,0,0,.8.8h8.043a.807.807,0,0,0,.8-.8Z" transform="translate(-20 -56.4)" fill="#969faa"/>
        </g>
        <g id="Grupo_1099338" data-name="Grupo 1099338" transform="translate(19.303 40.214)">
          <path id="Trazado_873610" data-name="Trazado 873610" d="M35.651,55.539v.483a.807.807,0,0,1-.8.8H26.8a.807.807,0,0,1-.8-.8V52h9.651Z" transform="translate(-26 -52)" fill="#aab2bd"/>
        </g>
        <g id="Grupo_1099339" data-name="Grupo 1099339" transform="translate(6.434 35.389)">
          <path id="Trazado_873611" data-name="Trazado 873611" d="M10,46H45.389v3.217a1.613,1.613,0,0,1-1.609,1.609H11.609A1.613,1.613,0,0,1,10,49.217Z" transform="translate(-10 -46)" fill="#ccd1d9"/>
        </g>
        <g id="Grupo_1099340" data-name="Grupo 1099340" transform="translate(6.434 16.086)">
          <path id="Trazado_873612" data-name="Trazado 873612" d="M45.389,41.3H10V23.609A1.608,1.608,0,0,1,11.609,22H43.78a1.608,1.608,0,0,1,1.609,1.609Z" transform="translate(-10 -22)" fill="#69d6f4"/>
        </g>
        <g id="Grupo_1099341" data-name="Grupo 1099341" transform="translate(0 19.303)">
          <circle id="Elipse_11468" data-name="Elipse 11468" cx="6.5" cy="6.5" r="6.5" transform="translate(0.196 -0.242)" fill="#e6e9ed"/>
        </g>
        <g id="Grupo_1099342" data-name="Grupo 1099342" transform="translate(0 0)">
          <circle id="Elipse_11469" data-name="Elipse 11469" cx="6.5" cy="6.5" r="6.5" transform="translate(0.196 0.061)" fill="#e6e9ed"/>
        </g>
        <g id="Grupo_1099343" data-name="Grupo 1099343" transform="translate(35.389 19.303)">
          <circle id="Elipse_11470" data-name="Elipse 11470" cx="6.5" cy="6.5" r="6.5" transform="translate(-0.193 -0.242)" fill="#e6e9ed"/>
        </g>
        <g id="Grupo_1099344" data-name="Grupo 1099344" transform="translate(13.673 6.434)">
          <circle id="Elipse_11471" data-name="Elipse 11471" cx="10.5" cy="10.5" r="10.5" transform="translate(-0.477 -0.373)" fill="#e6e9ed"/>
        </g>
        <g id="Grupo_1099345" data-name="Grupo 1099345" transform="translate(35.389 0)">
          <circle id="Elipse_11472" data-name="Elipse 11472" cx="6.5" cy="6.5" r="6.5" transform="translate(-0.193 0.061)" fill="#e6e9ed"/>
        </g>
        <g id="Grupo_1099346" data-name="Grupo 1099346" transform="translate(37.842 27.346)">
          <path id="Trazado_873613" data-name="Trazado 873613" d="M57.012,39.442v.008a6.45,6.45,0,0,1-7.962,0v-.008a4.023,4.023,0,0,1,7.962,0Z" transform="translate(-49.05 -36)" fill="#fcd770"/>
        </g>
        <g id="Grupo_1099347" data-name="Grupo 1099347" transform="translate(37.842 8.043)">
          <path id="Trazado_873614" data-name="Trazado 873614" d="M57.012,15.442v.008a6.45,6.45,0,0,1-7.962,0v-.008a4.023,4.023,0,0,1,7.962,0Z" transform="translate(-49.05 -12)" fill="#b4dd7f"/>
        </g>
        <g id="Grupo_1099348" data-name="Grupo 1099348" transform="translate(2.453 8.043)">
          <path id="Trazado_873615" data-name="Trazado 873615" d="M13.012,15.442v.008a6.45,6.45,0,0,1-7.962,0v-.008a4.023,4.023,0,0,1,7.962,0Z" transform="translate(-5.05 -12)" fill="#4fc1e9"/>
        </g>
        <g id="Grupo_1099349" data-name="Grupo 1099349" transform="translate(2.453 27.346)">
          <path id="Trazado_873616" data-name="Trazado 873616" d="M13.012,39.442v.008a6.45,6.45,0,0,1-7.962,0v-.008a4.023,4.023,0,0,1,7.962,0Z" transform="translate(-5.05 -36)" fill="#ff826e"/>
        </g>
        <g id="Grupo_1099350" data-name="Grupo 1099350" transform="translate(17.694 6.434)">
          <path id="Trazado_873617" data-name="Trazado 873617" d="M33.161,16.434A6.379,6.379,0,0,1,29.2,15.067a9.746,9.746,0,0,1-2.533,1.279l-.257.088h-.8a1.618,1.618,0,0,0-.965.322l-.434-1.295A4.22,4.22,0,0,1,24,14.15a4.134,4.134,0,0,1,.861-2.534,10.417,10.417,0,0,1,11.147,0,4.134,4.134,0,0,1,.861,2.533,4.22,4.22,0,0,1-.209,1.311l-.434,1.295a1.618,1.618,0,0,0-.965-.322h-2.1Z" transform="translate(-24 -10)" fill="#656d78"/>
        </g>
        <g id="Grupo_1099351" data-name="Grupo 1099351" transform="translate(22.552 24.129)">
          <path id="Trazado_873618" data-name="Trazado 873618" d="M30.812,32h1.609l.772,3.1a10.359,10.359,0,0,1-3.153,0Z" transform="translate(-30.04 -32)" fill="#ff826e"/>
        </g>
        <g id="Grupo_1099352" data-name="Grupo 1099352" transform="translate(22.52 21.716)">
          <path id="Trazado_873619" data-name="Trazado 873619" d="M32.413,31.413H30.8L30,29.8l1.609-.8,1.609.8Z" transform="translate(-30 -29)" fill="#fc6e51"/>
        </g>
        <g id="Grupo_1099353" data-name="Grupo 1099353" transform="translate(24.933 20.598)">
          <path id="Trazado_873620" data-name="Trazado 873620" d="M39.619,31.261a10.385,10.385,0,0,1-5.847,2.976L33,31.141l.8-1.609,1.609.8,1.15-2.727a8.022,8.022,0,0,1,3.056,3.651Z" transform="translate(-33 -27.61)" fill="#fcd770"/>
        </g>
        <g id="Grupo_1099354" data-name="Grupo 1099354" transform="translate(16.705 20.477)">
          <path id="Trazado_873621" data-name="Trazado 873621" d="M28.585,29.5l.8,1.609-.772,3.1a10.385,10.385,0,0,1-5.847-2.976,8.046,8.046,0,0,1,2.912-3.563,2.2,2.2,0,0,1,.346-.209l.949,2.847Z" transform="translate(-22.77 -27.46)" fill="#fcd770"/>
        </g>
        <g id="Grupo_1099355" data-name="Grupo 1099355" transform="translate(24.129 19.592)">
          <path id="Trazado_873622" data-name="Trazado 873622" d="M36.367,27.365l-1.15,2.727-1.609-.8L32,28.483l2.123-2.123A7.549,7.549,0,0,1,36.367,27.365Z" transform="translate(-32 -26.36)" fill="#ffc729"/>
        </g>
        <g id="Grupo_1099356" data-name="Grupo 1099356" transform="translate(19.962 19.592)">
          <path id="Trazado_873623" data-name="Trazado 873623" d="M30.986,28.483l-1.609.8-1.609.8-.949-2.847v-.008l2.043-.877Z" transform="translate(-26.82 -26.36)" fill="#ffc729"/>
        </g>
        <g id="Grupo_1099357" data-name="Grupo 1099357" transform="translate(39.41 22.52)">
          <circle id="Elipse_11473" data-name="Elipse 11473" cx="2.5" cy="2.5" r="2.5" transform="translate(-0.214 -0.458)" fill="#f0d0b4"/>
        </g>
        <g id="Grupo_1099358" data-name="Grupo 1099358" transform="translate(39.41 3.217)">
          <circle id="Elipse_11474" data-name="Elipse 11474" cx="2.5" cy="2.5" r="2.5" transform="translate(-0.214 -0.156)" fill="#f0d0b4"/>
        </g>
        <g id="Grupo_1099359" data-name="Grupo 1099359" transform="translate(27.748 12.869)">
          <path id="Trazado_873624" data-name="Trazado 873624" d="M38.672,18.322a1.63,1.63,0,0,1,.643,1.287,1.62,1.62,0,0,1-1.609,1.609H36.5L36.9,18h.8A1.618,1.618,0,0,1,38.672,18.322Z" transform="translate(-36.5 -18)" fill="#f0d0b4"/>
        </g>
        <g id="Grupo_1099360" data-name="Grupo 1099360" transform="translate(22.005 19.303)">
          <path id="Trazado_873625" data-name="Trazado 873625" d="M33.607,26.29l-2.123,2.123L29.36,26.29a7.93,7.93,0,0,1,4.247,0Z" transform="translate(-29.36 -26)" fill="#f0d0b4"/>
        </g>
        <g id="Grupo_1099361" data-name="Grupo 1099361" transform="translate(20.107 11.501)">
          <path id="Trazado_873626" data-name="Trazado 873626" d="M35.043,17.667l-.4,3.217-.137,1.1a2.421,2.421,0,0,1-2.4,2.115H29.936a2.421,2.421,0,0,1-2.4-2.115l-.137-1.1L27,17.667l.257-.088A9.746,9.746,0,0,0,29.791,16.3a6.379,6.379,0,0,0,3.957,1.367Z" transform="translate(-27 -16.3)" fill="#f0d0b4"/>
        </g>
        <g id="Grupo_1099362" data-name="Grupo 1099362" transform="translate(17.694 12.869)">
          <path id="Trazado_873627" data-name="Trazado 873627" d="M26.413,18l.4,3.217H25.609A1.62,1.62,0,0,1,24,19.609,1.609,1.609,0,0,1,25.609,18Z" transform="translate(-24 -18)" fill="#f0d0b4"/>
        </g>
        <g id="Grupo_1099363" data-name="Grupo 1099363" transform="translate(4.021 22.52)">
          <circle id="Elipse_11475" data-name="Elipse 11475" cx="2.5" cy="2.5" r="2.5" transform="translate(0.174 -0.458)" fill="#f0d0b4"/>
        </g>
        <g id="Grupo_1099364" data-name="Grupo 1099364" transform="translate(4.021 3.217)">
          <circle id="Elipse_11476" data-name="Elipse 11476" cx="2.5" cy="2.5" r="2.5" transform="translate(0.174 -0.156)" fill="#f0d0b4"/>
        </g>
      </g>
      <path id="Trazado_873628" data-name="Trazado 873628" d="M44.431,20.35V19.5a2.416,2.416,0,0,0-2.413-2.413H37.064A11.153,11.153,0,0,0,36,13.68l1.852-1.095A7.231,7.231,0,1,0,37.03,11.2l-1.845,1.091a11.238,11.238,0,0,0-18.5,0L14.836,11.2a7.288,7.288,0,1,0-.823,1.383l1.852,1.095A11.168,11.168,0,0,0,14.8,17.086H9.847A2.416,2.416,0,0,0,7.434,19.5v.852a7.236,7.236,0,0,0,0,14.382V40.41a2.416,2.416,0,0,0,2.413,2.413H20.3v2.057c-3.189.549-4.826,1.476-4.826,2.769,0,2.54,6.573,3.217,10.456,3.217s10.456-.677,10.456-3.217c0-1.293-1.637-2.22-4.826-2.769V42.823H42.019a2.416,2.416,0,0,0,2.413-2.413V34.733a7.236,7.236,0,0,0,0-14.382Zm-3.879-7.4a3.206,3.206,0,0,1,6.15,0,5.6,5.6,0,0,1-6.15,0Zm1.466-5.515a1.609,1.609,0,1,1,1.609,1.609A1.61,1.61,0,0,1,42.019,7.434Zm1.609-4.826a5.627,5.627,0,0,1,4.346,9.205,4.851,4.851,0,0,0-2.028-2.159,3.217,3.217,0,1,0-4.634,0,4.852,4.852,0,0,0-2.028,2.159,5.627,5.627,0,0,1,4.346-9.206ZM5.164,12.949a3.206,3.206,0,0,1,6.15,0,5.6,5.6,0,0,1-6.15,0ZM6.63,7.434A1.609,1.609,0,1,1,8.239,9.043,1.61,1.61,0,0,1,6.63,7.434Zm5.954,4.379a4.851,4.851,0,0,0-2.028-2.159,3.217,3.217,0,1,0-4.634,0,4.852,4.852,0,0,0-2.028,2.159,5.63,5.63,0,1,1,8.691,0Zm29.434,6.881a.805.805,0,0,1,.8.8v.852a7.243,7.243,0,0,0-5.264,3.257L36.335,23a11.185,11.185,0,0,0,.858-4.3Zm0,8.043a1.609,1.609,0,1,1,1.609,1.609A1.61,1.61,0,0,1,42.019,26.737Zm1.609,3.217a3.229,3.229,0,0,1,3.075,2.3,5.6,5.6,0,0,1-6.15,0A3.229,3.229,0,0,1,43.627,29.954Zm-.8,4.778v1.656H9.043V34.733a7.214,7.214,0,0,0,5.982-9.685l1.235-.618a11.229,11.229,0,0,0,19.345,0l1.235.618a7.214,7.214,0,0,0,5.982,9.685Zm-36.193-8a1.609,1.609,0,1,1,1.609,1.609A1.61,1.61,0,0,1,6.63,26.737Zm1.609,3.217a3.229,3.229,0,0,1,3.075,2.3,5.6,5.6,0,0,1-6.15,0A3.229,3.229,0,0,1,8.239,29.954ZM24.845,20.3a1.61,1.61,0,0,1-1.6-1.409l-.46-3.681a10.407,10.407,0,0,0,1.885-.933,7.18,7.18,0,0,0,3.98,1.2h.388l-.427,3.417a1.611,1.611,0,0,1-1.6,1.409Zm-3.738-4.826H21.2l.2,1.609h-.3a.8.8,0,0,1,0-1.609Zm9.651,0a.8.8,0,0,1,0,1.609h-.3l.2-1.609Zm-4.826,6.434c.149,0,.292.023.439.033l-.439.438-.439-.439C25.641,21.935,25.784,21.911,25.933,21.911Zm0,2.508.529.265-.222.445h-.614l-.222-.445Zm-.177,2.318h.353l.395,1.58c-.19.011-.378.029-.571.029s-.381-.018-.571-.029Zm2.349,1.353-.516-2.063L27.9,25.4l1.658.828,1.082-2.572a7.21,7.21,0,0,1,1.724,2.21,9.621,9.621,0,0,1-4.26,2.22Zm.636-4.065L27.29,23.3l.987-.987a7.189,7.189,0,0,1,1,.431Zm-5.153-1.712.987.987-1.39.695-.446-1.338a7.215,7.215,0,0,1,.849-.344Zm-2.242,1.252.9,2.7,1.719-.859.312.623-.516,2.063a9.63,9.63,0,0,1-4.26-2.221,7.2,7.2,0,0,1,1.846-2.3Zm14.237-4.871a9.594,9.594,0,0,1-2.051,5.928,8.811,8.811,0,0,0-4.25-3.659,3.188,3.188,0,0,0,.928-1.869l.05-.4h.5a2.416,2.416,0,0,0,2.413-2.413,2.388,2.388,0,0,0-.532-1.492l.277-.832a4.951,4.951,0,0,0,.254-1.567c0-.022,0-.043-.006-.064a9.6,9.6,0,0,1,2.418,6.368Zm-4.646-8.236a3.305,3.305,0,0,1,.624,1.932,3.36,3.36,0,0,1-.171,1.058l-.156.467a2.454,2.454,0,0,0-.372-.038l0-.01h-.791a4.71,4.71,0,0,1-3.362-3.413l-1.56.39A6.316,6.316,0,0,0,26.5,13.425a5.555,5.555,0,0,1-3.036-3.073l-1.494.6a7.2,7.2,0,0,0,1.415,2.21,8.866,8.866,0,0,1-1.472.664l-.133.044h-.673a2.392,2.392,0,0,0-.477.048l-.155-.466a3.356,3.356,0,0,1-.172-1.06,3.3,3.3,0,0,1,.626-1.933,9.559,9.559,0,0,1,10.01,0ZM18.7,12.326c0,.022-.006.043-.006.064a4.96,4.96,0,0,0,.254,1.568l.277.831a2.4,2.4,0,0,0,1.881,3.906h.5l.05.4a3.2,3.2,0,0,0,.928,1.869,8.811,8.811,0,0,0-4.25,3.66,9.593,9.593,0,0,1,.368-12.3ZM9.847,18.694h4.826a11.185,11.185,0,0,0,.858,4.3l-1.224.612A7.239,7.239,0,0,0,9.043,20.35V19.5A.805.805,0,0,1,9.847,18.694ZM2.609,27.541a5.63,5.63,0,1,1,9.976,3.575,4.851,4.851,0,0,0-2.028-2.159,3.217,3.217,0,1,0-4.634,0,4.852,4.852,0,0,0-2.028,2.159A5.609,5.609,0,0,1,2.609,27.541ZM25.933,49.257c-5.192,0-8.36-1-8.82-1.606.2-.23,1.062-.754,3.263-1.157a1.606,1.606,0,0,0,1.535,1.154h8.043A1.606,1.606,0,0,0,31.49,46.5c2.2.4,3.067.927,3.263,1.157C34.293,48.258,31.125,49.257,25.933,49.257Zm4.021-3.217H21.911V42.823h8.043Zm12.064-4.826h-.8V39.606H39.606v1.609H38V39.606H36.389v1.609H34.78V39.606H33.171v1.609H9.847a.805.805,0,0,1-.8-.8V38h33.78V40.41A.805.805,0,0,1,42.019,41.214Zm5.954-10.1a4.851,4.851,0,0,0-2.028-2.159,3.217,3.217,0,1,0-4.634,0,4.852,4.852,0,0,0-2.028,2.159,5.63,5.63,0,1,1,8.691,0Z" transform="translate(0)"/>
    </g>
  </g>
</svg>
