<svg xmlns="http://www.w3.org/2000/svg" width="36" height="36" viewBox="0 0 36 36">
  <g id="Grupo_1099278" data-name="Grupo 1099278" transform="translate(-0.5)">
    <circle id="Elipse_11467" data-name="Elipse 11467" cx="18" cy="18" r="18" transform="translate(0.5)" fill="#3a1d71"/>
    <path id="Trazado_884276" data-name="Trazado 884276" d="M-3.48-5.594l.656-5.781H3.551v1.883H-.973l-.281,2.445a3.58,3.58,0,0,1,1.711-.43A3.279,3.279,0,0,1,3-6.469a4.026,4.026,0,0,1,.922,2.82,4.124,4.124,0,0,1-.465,1.973A3.281,3.281,0,0,1,2.129-.324,4.158,4.158,0,0,1,.082.156,4.416,4.416,0,0,1-1.832-.262,3.4,3.4,0,0,1-3.227-1.437,3.2,3.2,0,0,1-3.77-3.164h2.234a1.669,1.669,0,0,0,.5,1.105,1.573,1.573,0,0,0,1.113.395,1.388,1.388,0,0,0,1.18-.551,2.551,2.551,0,0,0,.414-1.559,2.11,2.11,0,0,0-.477-1.484A1.749,1.749,0,0,0-.16-5.773a1.954,1.954,0,0,0-1.3.422l-.219.2Z" transform="translate(18.5 24)" fill="#fff"/>
  </g>
</svg>
