<svg xmlns="http://www.w3.org/2000/svg" xmlns:xlink="http://www.w3.org/1999/xlink" width="400" height="203.008" viewBox="0 0 400 203.008">
  <defs>
    <clipPath id="clip-path">
      <rect id="Rectángulo_382919" data-name="Rectángulo 382919" width="384.999" height="192.008" transform="translate(0 0)" fill="none"/>
    </clipPath>
    <clipPath id="clip-path-2">
      <rect id="Rectángulo_382920" data-name="Rectángulo 382920" width="93.633" height="101.319" fill="none"/>
    </clipPath>
    <clipPath id="clip-path-3">
      <rect id="Rectángulo_382922" data-name="Rectángulo 382922" width="152.999" height="64.832" transform="translate(0 0)" fill="none"/>
    </clipPath>
  </defs>
  <g id="Grupo_1099575" data-name="Grupo 1099575" transform="translate(-180 -651)">
    <rect id="Rectángulo_401309" data-name="Rectángulo 401309" width="400" height="203" rx="10" transform="translate(180 651)" fill="#a854f3"/>
    <g id="Grupo_1073693" data-name="Grupo 1073693" transform="translate(188 661.999)">
      <g id="Grupo_1073692" data-name="Grupo 1073692" transform="translate(0 0.001)" clip-path="url(#clip-path)">
        <path id="Trazado_823970" data-name="Trazado 823970" d="M43.4,156.768s-28.18,11.81-33.506,19.5,52.715,21.984,54.087,20.615,13.705-35.609,13.164-37.425S43.4,156.768,43.4,156.768" transform="translate(-2.672 -43.853)" fill="#361524"/>
        <path id="Trazado_823971" data-name="Trazado 823971" d="M110.61,123,56.548,147.323l10.2,27.5,58.958-14.27,8.782-32.893Z" transform="translate(-15.818 -34.409)" fill="#52a1a1"/>
        <path id="Trazado_823972" data-name="Trazado 823972" d="M293.8,98.53s-32.791,35.063-33.614,35.2-20.854,2.47-24.427.964-24.146-36.892-24.146-36.892,3.49-.519,8.908-1.078c3.441-.354,7.649-.733,12.234-1,5.442-.329,11.395-.51,17.207-.346,18.425.519,43.84,3.153,43.84,3.153" transform="translate(-59.196 -26.663)" fill="#ffa6a6"/>
        <path id="Trazado_823973" data-name="Trazado 823973" d="M260.294,115.61s-8.581,6.616-18.394,3.735c-13.272-3.895-16.506-17.931-17.915-22.459,3.441-.354,7.649-.733,12.234-1,6.529,5.146,18.788,15.634,18.788,15.634Z" transform="translate(-62.655 -26.822)" fill="#361524"/>
        <path id="Trazado_823974" data-name="Trazado 823974" d="M282.993,35.152a13.588,13.588,0,0,0-1.654-4.99,9.346,9.346,0,0,1-1.159-4.773,18.927,18.927,0,0,0,.059-2.831,7.348,7.348,0,0,0-2.942-4.981A11.512,11.512,0,0,0,273.734,7.15,9.2,9.2,0,0,0,262.5,6.292C259.279-1.2,250.469-1.9,246.119,3.656a8.937,8.937,0,0,0-6.24-2.926,8.839,8.839,0,0,0-4.765,1.33c-1.589.972-2.571,3.021-4.286,3.483-3.47.934-6.423,2.069-8.348,5.707a12.509,12.509,0,0,0-1.266,7.464,20.543,20.543,0,0,0-4.6,20.786,18.453,18.453,0,0,0,7.126,9.469,10.272,10.272,0,0,0,1.745,4.819c2,2.658,5.4,3,8.288,3.477a90.768,90.768,0,0,0,24.419.878c6.351-.683,13.691-1.655,18.821-6.251a14.2,14.2,0,0,0,4.693-9.636,13.116,13.116,0,0,0,1.283-7.1" transform="translate(-60.29 -0.001)" fill="#361524"/>
        <path id="Trazado_823975" data-name="Trazado 823975" d="M238.269,89.322c6.205,9.281,17.271,11.712,27.091,6.8,8.146-4.077,12.021-11.7,13.7-20.437a67.213,67.213,0,0,0,.723-23.206c-1.219-7.31-14.683-22.864-24.56-20.686s-20.39,9.643-22.828,11.665-4.229,30.758,5.872,45.866" transform="translate(-64.478 -8.836)" fill="#ffa6a6"/>
        <path id="Trazado_823976" data-name="Trazado 823976" d="M230.074,62.621s-4.193-4.839-7.419-1.613,1.41,13.694,3.71,16.129c3.655,3.871,7.1,2.517,7.1,2.517Z" transform="translate(-61.974 -16.756)" fill="#ffa6a6"/>
        <path id="Trazado_823977" data-name="Trazado 823977" d="M253.245,82.186a2.408,2.408,0,0,0-.834-2.069,1.22,1.22,0,0,0-1.388-.063,1.669,1.669,0,0,0-.547.966,5.684,5.684,0,0,0,.046,3,1.635,1.635,0,0,0,.393.746,1.216,1.216,0,0,0,1.562-.045,2.275,2.275,0,0,0,.7-1.514,8.817,8.817,0,0,0,.066-1.021" transform="translate(-70.015 -22.341)" fill="#361524"/>
        <path id="Trazado_823978" data-name="Trazado 823978" d="M277.927,82.275a2.236,2.236,0,0,0-.774-1.922,1.134,1.134,0,0,0-1.289-.058,1.545,1.545,0,0,0-.508.9,5.265,5.265,0,0,0,.043,2.785,1.508,1.508,0,0,0,.364.692,1.127,1.127,0,0,0,1.45-.041,2.112,2.112,0,0,0,.653-1.406,8.379,8.379,0,0,0,.061-.947" transform="translate(-76.979 -22.413)" fill="#361524"/>
        <path id="Trazado_823979" data-name="Trazado 823979" d="M265.507,93.324a.632.632,0,0,1-.1-.009c-1.745-.31-3.823-.918-3.823-2.061,0-.908.869-6.55.969-7.19a.6.6,0,0,1,.675-.495.591.591,0,0,1,.494.675c-.383,2.481-.954,6.392-.954,7.01a9,9,0,0,0,2.846.9.592.592,0,0,1-.1,1.174" transform="translate(-73.172 -23.375)" fill="#361524"/>
        <path id="Trazado_823980" data-name="Trazado 823980" d="M261.79,101.879a9.11,9.11,0,0,1-7.749-3.889.592.592,0,1,1,.994-.642,8.012,8.012,0,0,0,7.286,3.333,7.3,7.3,0,0,0,6.332-3.794.592.592,0,1,1,1.058.529,8.475,8.475,0,0,1-7.325,4.447c-.2.01-.4.016-.6.016" transform="translate(-71.037 -27.011)" fill="#361524"/>
        <path id="Trazado_823981" data-name="Trazado 823981" d="M253.969,72.022a1.769,1.769,0,0,0-.068-.182,2.582,2.582,0,0,0-.974-1.052,7.06,7.06,0,0,0-3.356-.972,9.124,9.124,0,0,0-3.023.2c-1.175.308-3.995,1.843-2.475,3.356a3.2,3.2,0,0,0,1.819.722,16.707,16.707,0,0,0,6.7-.2,2.089,2.089,0,0,0,1.224-.666,1.365,1.365,0,0,0,.156-1.2" transform="translate(-68.152 -19.519)" fill="#361524"/>
        <path id="Trazado_823982" data-name="Trazado 823982" d="M270.9,73.224a2.088,2.088,0,0,0,1.224.666,16.694,16.694,0,0,0,6.7.2,3.194,3.194,0,0,0,1.819-.722c1.52-1.513-1.3-3.048-2.475-3.356a9.1,9.1,0,0,0-3.023-.2,7.06,7.06,0,0,0-3.356.972,2.581,2.581,0,0,0-.974,1.052,1.806,1.806,0,0,0-.068.181,1.368,1.368,0,0,0,.156,1.2" transform="translate(-75.715 -19.519)" fill="#361524"/>
        <path id="Trazado_823983" data-name="Trazado 823983" d="M281.991,46.129a3.757,3.757,0,0,1,1.44-3.01,29.425,29.425,0,0,0-8.276-6.067,26.15,26.15,0,0,0-1.68-2.386,22.425,22.425,0,0,0-16.541-8.19c-12.255-.719-29.231,5.877-32.252,19.034a.577.577,0,0,0,.39.689,8.658,8.658,0,0,0,7.664,10.426c3.562.292,6.307-1.368,8.472-3.783A7.06,7.06,0,0,0,247.47,55.3c3.757-.423,6.279-3.081,7.671-6.3,2.263,1.211,5.2.31,7.512-1.095a16,16,0,0,0,5.326-5.352c-.4.65,1.51,3.705,1.872,4.3a20.148,20.148,0,0,0,4.088,4.08,8.9,8.9,0,0,0,5.547,1.629c1.064-2.089,2.464-4.218,2.505-6.436" transform="translate(-62.846 -7.392)" fill="#361524"/>
        <path id="Trazado_823984" data-name="Trazado 823984" d="M295.02,61.184s4.193-4.839,7.419-1.613-1.41,13.694-3.71,16.129c-3.655,3.871-7.1,2.517-7.1,2.517Z" transform="translate(-81.579 -16.354)" fill="#ffa6a6"/>
        <path id="Trazado_823985" data-name="Trazado 823985" d="M221.659,96.944s5.228,27.675,25.871,29.115S276.3,97.5,276.3,97.5l16.227,1.483-2.33,93.245H207.045l10.077-94.883Z" transform="translate(-57.917 -27.119)" fill="#fff"/>
        <path id="Trazado_823986" data-name="Trazado 823986" d="M196.02,97.5V201.992H145.053l-13.447-86.121s16.191-7.876,28.678-11.852S196.02,97.5,196.02,97.5" transform="translate(-36.814 -27.276)" fill="#52a1a1"/>
        <path id="Trazado_823987" data-name="Trazado 823987" d="M140.782,162a.411.411,0,0,1-.39-.28L128.379,126.04a.411.411,0,0,1,.78-.262l12.014,35.684a.412.412,0,0,1-.259.521.416.416,0,0,1-.131.022" transform="translate(-35.905 -35.106)" fill="#361524"/>
        <path id="Trazado_823988" data-name="Trazado 823988" d="M204.21,147.171a.413.413,0,0,1-.374-.237l-7.073-15.094a.407.407,0,0,1-.019-.3l10.315-32.051a.411.411,0,1,1,.783.253l-10.265,31.9,7.005,14.947a.411.411,0,0,1-.2.547.406.406,0,0,1-.174.039" transform="translate(-55.03 -27.751)" fill="#361524"/>
        <path id="Trazado_823989" data-name="Trazado 823989" d="M312.014,98.526l1.062,103.752h50.967l13.447-86.121A220.23,220.23,0,0,0,348.812,104.3c-15.12-4.88-36.8-5.779-36.8-5.779" transform="translate(-87.28 -27.561)" fill="#52a1a1"/>
        <path id="Trazado_823990" data-name="Trazado 823990" d="M325.476,147.171a.4.4,0,0,1-.174-.039.412.412,0,0,1-.2-.547l7.005-14.947-10.265-31.9a.411.411,0,0,1,.783-.253l10.315,32.051a.407.407,0,0,1-.019.3l-7.073,15.094a.413.413,0,0,1-.373.237" transform="translate(-90.024 -27.751)" fill="#361524"/>
        <path id="Trazado_823991" data-name="Trazado 823991" d="M351.168,251.443H76.522a2.472,2.472,0,0,1-1.992-3.936L79,241.423l.609-.823,6.685-9.106.609-.823,6.693-9.106.6-.823,5.343-7.27a2.469,2.469,0,0,1,1.992-1H326.157a2.469,2.469,0,0,1,1.993,1l5.343,7.27.6.823,6.693,9.106.609.823,6.686,9.106.609.823,4.47,6.084a2.472,2.472,0,0,1-1.992,3.936" transform="translate(-20.713 -59.435)" fill="#361524"/>
        <path id="Trazado_823992" data-name="Trazado 823992" d="M350.615,241.3l-.609-.823H327l-5.146-9.106h21.463l-.609-.823H321.389l-5.146-9.1h19.775l-.6-.824H315.773l-2.182-3.877a.425.425,0,0,0-.568-.156.416.416,0,0,0-.157.56l1.96,3.474H294.146l-2.89-8.274-.017-.041a.411.411,0,0,0-.79.041.366.366,0,0,0,.009.23l2.816,8.043H267.719l-1.5-7.031a.4.4,0,0,0-.485-.313.413.413,0,0,0-.321.485l1.466,6.858H243.226l-.617-8.274h-.823l.617,8.274H216.568v-8.274h-.823v8.274H189.9l.617-8.274H189.7l-.617,8.274H165.426l1.466-6.858a.413.413,0,0,0-.321-.485.406.406,0,0,0-.486.313l-1.5,7.031H139.032l2.816-8.043a.366.366,0,0,0,.008-.23.412.412,0,0,0-.263-.3.417.417,0,0,0-.527.255l-.017.041-2.89,8.274h-20.68l1.959-3.474a.416.416,0,0,0-.156-.56.425.425,0,0,0-.568.156l-2.182,3.877H96.123l-.6.824h20.541l-5.146,9.1H88.829l-.609.823h22.229l-5.146,9.106H81.534l-.609.823h23.916l-5.663,10.019h.946l5.664-10.019h25.143l-3.5,10.019h.872l3.5-10.019h28.379l-2.132,10.019h.839l2.133-10.019h26.51l-.749,10.019h.831l.749-10.019h27.383v10.019h.823V241.3h27.374l.75,10.019h.831l-.749-10.019h26.51l2.132,10.019h.84L272.124,241.3H300.5l3.5,10.019h.873l-3.5-10.019h25.143l5.664,10.019h.946L327.464,241.3ZM138.744,221.443h25.67l-1.943,9.1h-26.9Zm-21.735,0h20.862l-3.178,9.1h-22.83Zm14.21,19.034h-24.97l5.146-9.106h23.01Zm29.136,0H132.092l3.186-9.106H162.3Zm27.242,0h-26.4l1.943-9.106h25.135Zm.741-9.929H163.31l1.943-9.1h23.76Zm27.407,9.929H188.42l.684-9.106h26.641Zm0-9.929H189.161l.675-9.1h25.909Zm99.551-9.1,5.146,9.1h-22.83l-3.178-9.1Zm-21.734,0,3.178,9.1h-26.9l-1.943-9.1Zm-76.993,0h25.9l.676,9.1H216.568Zm0,19.034v-9.106H243.2l.683,9.106Zm26.723-19.034h23.76l1.943,9.1H243.967Zm1.416,19.034-.675-9.106h25.135l1.943,9.106Zm27.243,0-1.943-9.106h27.02l3.186,9.106Zm29.136,0-3.186-9.106h23.011l5.145,9.106Z" transform="translate(-22.637 -59.311)" fill="#f0dcd8"/>
        <path id="Trazado_823993" data-name="Trazado 823993" d="M121.137,153.036S39.828,158.384,20.423,166.7c-17.289,7.409-23.6,19.758-18.935,34.578,6.025,19.135,37.677,17.29,52.69,14.544,22.5-4.116,101.812-26.071,101.812-26.071Z" transform="translate(0 -42.81)" fill="#ffa6a6"/>
        <path id="Trazado_823994" data-name="Trazado 823994" d="M166.851,153.03s28.814-.387,38.969,2.688c6.031,1.827,10.777,4.864,16.112,8.159,8.651,5.345,12.977,19.588,12.977,29.22,0,3.8,1.067,11.627-4.171,12.585-6.348,1.163-6.7-9.761-8.864-13.684-2.2-3.979-3.979-3.843-11.663-3.019s-12.075.823-12.075.823l-34.714-11.526Z" transform="translate(-45.714 -42.803)" fill="#ffa6a6"/>
        <path id="Trazado_823995" data-name="Trazado 823995" d="M464.86,156.768s28.18,11.81,33.5,19.5-52.714,21.984-54.086,20.615-13.705-35.609-13.164-37.425,33.746-2.695,33.746-2.695" transform="translate(-120.591 -43.853)" fill="#361524"/>
        <path id="Trazado_823996" data-name="Trazado 823996" d="M393.643,123,447.7,147.323l-10.2,27.5-58.958-14.27-8.782-32.893Z" transform="translate(-103.435 -34.409)" fill="#52a1a1"/>
        <path id="Trazado_823997" data-name="Trazado 823997" d="M387.964,162a.417.417,0,0,1-.131-.022.411.411,0,0,1-.259-.521l12.013-35.684a.412.412,0,0,1,.78.262l-12.014,35.684a.411.411,0,0,1-.39.28" transform="translate(-108.41 -35.106)" fill="#361524"/>
        <path id="Trazado_823998" data-name="Trazado 823998" d="M352.8,153.036s81.309,5.348,100.715,13.665c17.289,7.409,23.6,19.758,18.935,34.578-6.025,19.135-37.677,17.29-52.69,14.544-22.5-4.116-101.812-26.071-101.812-26.071Z" transform="translate(-88.941 -42.81)" fill="#ffa6a6"/>
        <path id="Trazado_823999" data-name="Trazado 823999" d="M306.977,179.353a90.98,90.98,0,0,0,9.062,10.038l33.567-11.145L346.175,153s-25.408-1.1-37.895,4.278c-4.363,1.878-10.566,4.641-14.021,8.895,4.3,5.915,8.3,7.347,12.718,13.181" transform="translate(-82.313 -42.774)" fill="#ffa6a6"/>
        <path id="Trazado_824000" data-name="Trazado 824000" d="M211.178,201.01s1.166,19.141-1.407,25.007-8.027,3.808-9.879-3.6-2.6-23.08-2.6-23.08Z" transform="translate(-55.189 -55.761)" fill="#ffa6a6"/>
        <path id="Trazado_824001" data-name="Trazado 824001" d="M141.352,215.656a4.5,4.5,0,0,0,1.715,4.871,8.28,8.28,0,0,0,5.488,1.853s-.617,6.861,5.283,7.472c5.28.547,8.644-5.071,10.634-8.021s4.116-6.5,4.116-6.5,1.166,10.612,7.821,10.474,7.959-16.328,7.959-16.328-.344-5.488-1.3-5.831-22.846-1.372-24.9-.617-16.808,12.623-16.808,12.623" transform="translate(-39.493 -56.72)" fill="#ffa6a6"/>
        <path id="Trazado_824002" data-name="Trazado 824002" d="M293.413,167.317s-10.96,7.345-12.709,19.489c-.724,5.022.937,10.345,3.242,14.761,1.415,2.71,3.341,5.5,6.119,6.956a5.454,5.454,0,0,0,5.74-.1c2.4-1.818,1.729-4.765,1.044-7.252-.5-1.822-.984-3.664-1.433-5.5a13.662,13.662,0,0,1,.313-7.834c1.132-2.881,9.262-7.1,9.262-7.1s-1.853-9.365-3.19-9.365-8.388-4.052-8.388-4.052" transform="translate(-78.473 -46.804)" fill="#ffa6a6"/>
        <path id="Trazado_824003" data-name="Trazado 824003" d="M299.487,192.711s9.413,4.116,13.3,5.146a34.358,34.358,0,0,0,6.871,1.132s-.511,11.065,0,18.524c.445,6.518,7.169,8.4,9.433,3.156s4.871-22.915,4.871-23.224-3.7-15.128-4.116-15.539-17.334-7.012-19.039-5.352-6.894,3.808-8.233,4.94-3.086,11.217-3.086,11.217" transform="translate(-83.776 -49.313)" fill="#ffa6a6"/>
        <path id="Trazado_824004" data-name="Trazado 824004" d="M343.089,212.183s-1.92,13.007,6.38,12.829c5.591-.12,5.9-10.514,5.9-10.514s.338,12.725,4.888,16.757c3.911,3.465,7.718-.549,7.718-.549s6.024,3.536,9.389-4.185,3.732-11.938,3.663-12.212-8.851-7.89-11.115-8.713-18.935-4.459-22.3-3.225-9.124,4.322-9.124,5.009,4.6,4.8,4.6,4.8" transform="translate(-94.686 -56.54)" fill="#ffa6a6"/>
        <path id="Trazado_824005" data-name="Trazado 824005" d="M198.6,211.049a.411.411,0,0,1-.4-.339c-.107-.595-2.569-14.652.114-22.08,2.754-7.626,17.8-6.1,18.441-6.032a.412.412,0,1,1-.089.818c-.148-.016-15.044-1.526-17.578,5.493-2.608,7.223-.1,21.512-.078,21.656a.413.413,0,0,1-.333.478.43.43,0,0,1-.073.006" transform="translate(-55.124 -51.032)" fill="#361524"/>
        <path id="Trazado_824006" data-name="Trazado 824006" d="M178.851,207.87a.413.413,0,0,1-.412-.4c0-.131-.308-13.115-.257-16.379l0-.25c.048-3.408.176-12.458,7.759-14.542,6.822-1.869,11.277,6.621,11.32,6.706a.412.412,0,0,1-.732.377c-.042-.081-4.193-7.99-10.37-6.288-6.987,1.92-7.1,10.216-7.154,13.759l0,.251c-.05,3.248.254,16.215.258,16.346a.412.412,0,0,1-.4.421Z" transform="translate(-49.841 -49.241)" fill="#361524"/>
        <path id="Trazado_824007" data-name="Trazado 824007" d="M151.587,216.034a.407.407,0,0,1-.179-.041.411.411,0,0,1-.192-.549c.033-.068,3.321-6.917,5.035-11.093,2.746-6.686,8.872-23.35,8.933-23.518a.412.412,0,0,1,.773.285c-.062.168-6.191,16.846-8.943,23.548-1.724,4.2-5.023,11.066-5.056,11.135a.412.412,0,0,1-.371.233" transform="translate(-42.288 -50.51)" fill="#361524"/>
        <path id="Trazado_824008" data-name="Trazado 824008" d="M140.253,213.874a.412.412,0,0,1-.407-.354c-.869-6.091,2.51-22.032,9.732-23.377a5.371,5.371,0,0,1,4.617,1.018c2.841,2.357,2.883,7.486,2.883,7.7a.412.412,0,0,1-.411.413h0a.413.413,0,0,1-.412-.411c0-.049-.042-4.963-2.586-7.073a4.589,4.589,0,0,0-3.938-.841c-6.655,1.24-9.882,16.751-9.068,22.452a.412.412,0,0,1-.35.466.523.523,0,0,1-.058,0" transform="translate(-39.082 -53.154)" fill="#361524"/>
        <path id="Trazado_824009" data-name="Trazado 824009" d="M337.265,210.842a.369.369,0,0,1-.068-.006.412.412,0,0,1-.339-.473,69.676,69.676,0,0,0,.887-9.129c.185-5.746-.05-11.153-4.886-14.169-3.376-2.1-7.983-3.049-14.091-2.874a.406.406,0,0,1-.423-.4.412.412,0,0,1,.4-.423c6.268-.167,11.032.805,14.549,3,5.2,3.245,5.459,9.136,5.274,14.893a70.574,70.574,0,0,1-.9,9.238.412.412,0,0,1-.405.344" transform="translate(-89.051 -51.289)" fill="#361524"/>
        <path id="Trazado_824010" data-name="Trazado 824010" d="M355.625,207.009a.38.38,0,0,1-.063-.005.411.411,0,0,1-.344-.469c.02-.129,1.953-12.92-.062-21.454-1.964-8.312-15.474-9.212-15.61-9.22a.412.412,0,0,1,.048-.822c.582.035,14.259.944,16.362,9.853,2.054,8.691.1,21.639.075,21.769a.412.412,0,0,1-.406.349" transform="translate(-94.873 -48.964)" fill="#361524"/>
        <path id="Trazado_824011" data-name="Trazado 824011" d="M374.859,226.217l-.044,0a.412.412,0,0,1-.366-.453l.042-.4c.646-6.052,2.362-22.131-2.533-31.2a12.164,12.164,0,0,0-10.489-6.05.413.413,0,0,1-.395-.429.42.42,0,0,1,.429-.395,12.981,12.981,0,0,1,11.18,6.482c5.017,9.293,3.281,25.556,2.627,31.678l-.042.395a.411.411,0,0,1-.408.368" transform="translate(-101.003 -52.393)" fill="#361524"/>
        <path id="Trazado_824012" data-name="Trazado 824012" d="M391.7,217.087a.44.44,0,0,1-.075-.006.413.413,0,0,1-.332-.478c.018-.091,1.611-9.2-2.137-13.9-3.652-4.58-10.086-.974-10.151-.939a.411.411,0,1,1-.408-.714c.069-.042,7.117-3.989,11.2,1.14,3.981,5,2.375,14.175,2.3,14.563a.41.41,0,0,1-.4.339" transform="translate(-105.848 -55.822)" fill="#361524"/>
        <path id="Trazado_824013" data-name="Trazado 824013" d="M281.691,115.073a.412.412,0,0,1-.17-.787c8.079-3.661,10.051-13.946,10.524-18.2l.412.012.408.058c-.49,4.413-2.539,15.041-11,18.877a.418.418,0,0,1-.17.037" transform="translate(-78.682 -26.88)" fill="#361524"/>
      </g>
    </g>
    <g id="Grupo_1073696" data-name="Grupo 1073696" transform="translate(-96.999 -4145.938)">
      <g id="Grupo_1073695" data-name="Grupo 1073695" transform="translate(328 4807)">
        <g id="Grupo_1073694" data-name="Grupo 1073694" clip-path="url(#clip-path-2)">
          <path id="Trazado_824014" data-name="Trazado 824014" d="M70.41,88.523v7.73a5.126,5.126,0,0,1-5.126,5.126H5.7A5.126,5.126,0,0,1,.572,96.253V5.7A5.126,5.126,0,0,1,5.7.572H65.285A5.126,5.126,0,0,1,70.41,5.7V75.78L93.692,94.468Z" transform="translate(-0.315 -0.315)" fill="#fff"/>
          <path id="Trazado_824015" data-name="Trazado 824015" d="M64.969,101.319H5.382A5.388,5.388,0,0,1,0,95.937V5.382A5.388,5.388,0,0,1,5.382,0H64.969a5.388,5.388,0,0,1,5.382,5.382V75.341L93.537,93.953a.256.256,0,0,1-.224.448L70.351,88.538v7.4a5.388,5.388,0,0,1-5.382,5.382M5.382.513a4.875,4.875,0,0,0-4.87,4.87V95.937a4.875,4.875,0,0,0,4.87,4.87H64.969a4.875,4.875,0,0,0,4.87-4.87V88.208a.257.257,0,0,1,.32-.248l22.134,5.652L69.935,75.664a.254.254,0,0,1-.1-.2V5.382a4.875,4.875,0,0,0-4.87-4.87Z" fill="#361524"/>
          <path id="Trazado_824016" data-name="Trazado 824016" d="M118.185,69.471a.256.256,0,0,1-.253-.22q-.053-.377-.121-.749a.256.256,0,0,1,.206-.3.261.261,0,0,1,.3.206c.047.255.088.51.124.769a.255.255,0,0,1-.217.289l-.037,0" transform="translate(-64.976 -37.616)" fill="#e95a73"/>
          <path id="Trazado_824017" data-name="Trazado 824017" d="M87.952,35.63a.255.255,0,0,1-.075-.011q-.362-.111-.73-.208a.256.256,0,0,1,.13-.5c.252.066.5.137.75.213a.256.256,0,0,1-.075.5" transform="translate(-47.96 -19.253)" fill="#e95a73"/>
          <path id="Trazado_824018" data-name="Trazado 824018" d="M53.132,71.972A19.222,19.222,0,1,1,58.02,34.155l-.13.5a18.712,18.712,0,1,0,13.951,18.1,18.961,18.961,0,0,0-.182-2.623l.508-.071a19.579,19.579,0,0,1,.187,2.695A19.244,19.244,0,0,1,53.132,71.972" transform="translate(-18.703 -18.492)" fill="#e95a73"/>
          <path id="Trazado_824019" data-name="Trazado 824019" d="M60,70.841a2.23,2.23,0,0,1-1.093-1.949,2.025,2.025,0,0,1,.681-1.645,2.455,2.455,0,0,1,1.633-.571,2.543,2.543,0,0,1,1.779.6,2.085,2.085,0,0,1,.653,1.621,2.25,2.25,0,0,1-1.093,1.949,2.1,2.1,0,0,1,1.323,2.089,2.385,2.385,0,0,1-.688,1.788,2.547,2.547,0,0,1-1.857.671,2.7,2.7,0,0,1-1.987-.671,2.407,2.407,0,0,1-.675-1.788A2.1,2.1,0,0,1,60,70.841m-.25,2.04a1.579,1.579,0,0,0,.417,1.1,1.605,1.605,0,0,0,2.268-.062,1.649,1.649,0,0,0-.032-2.139,1.561,1.561,0,0,0-2.653,1.1M59.906,69a1.348,1.348,0,0,0,.44,1.039,1.436,1.436,0,0,0,1.736.094,1.458,1.458,0,0,0,.493-1.672,1.214,1.214,0,0,0-.4-.537,1.438,1.438,0,0,0-.739-.243,1.342,1.342,0,0,0-1.405.723,1.607,1.607,0,0,0-.124.6" transform="translate(-32.362 -36.774)"/>
          <path id="Trazado_824020" data-name="Trazado 824020" d="M72.985,71.035a5.623,5.623,0,0,1,.786-3.224,2.478,2.478,0,0,1,2.147-1.135,2.433,2.433,0,0,1,2.168,1.178,5.824,5.824,0,0,1,.758,3.182,5.628,5.628,0,0,1-.783,3.215,2.468,2.468,0,0,1-2.144,1.139A2.431,2.431,0,0,1,73.741,74.2a5.829,5.829,0,0,1-.756-3.17m1.239,0a5.62,5.62,0,0,0,.437,2.59,1.4,1.4,0,0,0,2.514,0,5.626,5.626,0,0,0,.437-2.587,5.566,5.566,0,0,0-.443-2.605,1.379,1.379,0,0,0-1.251-.771,1.338,1.338,0,0,0-1.3.877,6.318,6.318,0,0,0-.391,2.5" transform="translate(-40.255 -36.774)"/>
          <path id="Trazado_824021" data-name="Trazado 824021" d="M89.661,75.468a.452.452,0,0,1-.179-.036.463.463,0,0,1-.247-.606L92.491,67.1a.463.463,0,0,1,.853.359l-3.256,7.726a.463.463,0,0,1-.426.283" transform="translate(-49.197 -36.853)"/>
          <path id="Trazado_824022" data-name="Trazado 824022" d="M89.223,66.816a.617.617,0,0,0,0,1.233.617.617,0,0,0,0-1.233" transform="translate(-48.882 -36.852)"/>
          <path id="Trazado_824023" data-name="Trazado 824023" d="M97.382,83.357a.617.617,0,0,0,0,1.233.617.617,0,0,0,0-1.233" transform="translate(-53.382 -45.975)"/>
          <path id="Trazado_824024" data-name="Trazado 824024" d="M31.719,162.834l9.654-13,15.055,11.391,15.7-20.682Z" transform="translate(-17.495 -77.516)" fill="#fff"/>
          <path id="Trazado_824025" data-name="Trazado 824025" d="M31.4,162.776a.257.257,0,0,1-.206-.409l9.654-13a.256.256,0,0,1,.36-.052l14.851,11.236,15.546-20.478a.257.257,0,1,1,.409.31l-15.7,20.682a.257.257,0,0,1-.359.049L41.11,149.879l-9.5,12.793a.255.255,0,0,1-.206.1" transform="translate(-17.179 -77.201)" fill="#361524"/>
          <path id="Trazado_824026" data-name="Trazado 824026" d="M121.257,136.228a2.477,2.477,0,1,0-2.477,2.478,2.477,2.477,0,0,0,2.477-2.478" transform="translate(-64.146 -73.77)" fill="#434194"/>
          <path id="Trazado_824027" data-name="Trazado 824027" d="M31.15,187.2a2.477,2.477,0,1,0-2.478,2.478A2.478,2.478,0,0,0,31.15,187.2" transform="translate(-14.448 -101.885)" fill="#434194"/>
        </g>
      </g>
    </g>
    <g id="Grupo_1073700" data-name="Grupo 1073700" transform="translate(409.001 679.307)">
      <g id="Grupo_1073699" data-name="Grupo 1073699" transform="translate(0 0)" clip-path="url(#clip-path-3)">
        <path id="Trazado_824034" data-name="Trazado 824034" d="M57.6,40.2V56.638a7.969,7.969,0,0,0,7.969,7.969h79.239a7.969,7.969,0,0,0,7.968-7.969V8.541A7.968,7.968,0,0,0,144.805.572H65.567A7.968,7.968,0,0,0,57.6,8.541v8.753L.572,45.382Z" transform="translate(-0.173 -0.173)" fill="#fff"/>
        <path id="Trazado_824035" data-name="Trazado 824035" d="M144.632,64.832H65.393a8.377,8.377,0,0,1-8.367-8.367v-16L.434,45.606a.4.4,0,0,1-.419-.289.4.4,0,0,1,.208-.465l56.8-27.98V8.367A8.376,8.376,0,0,1,65.393,0h79.239A8.375,8.375,0,0,1,153,8.367v48.1a8.376,8.376,0,0,1-8.367,8.367m-87.207-25.2a.392.392,0,0,1,.268.1.4.4,0,0,1,.13.294V56.465a7.579,7.579,0,0,0,7.57,7.57h79.239a7.579,7.579,0,0,0,7.57-7.57V8.367A7.578,7.578,0,0,0,144.632.8H65.393a7.578,7.578,0,0,0-7.57,7.57V17.12a.4.4,0,0,1-.223.357L2.5,44.619l54.889-4.986h.036" transform="translate(0 0)" fill="#361524"/>
        <path id="Trazado_824036" data-name="Trazado 824036" d="M180.855,31.034,168.368,49.46,157.6,65.353,146.837,49.46,134.358,31.034Z" transform="translate(-40.689 -9.398)" fill="#88cbf7"/>
        <path id="Trazado_824037" data-name="Trazado 824037" d="M180.855,31.034l-6.24,9.208-6.247,9.218H146.837l-6.24-9.218-6.24-9.208Z" transform="translate(-40.689 -9.398)" fill="#5dace1"/>
        <path id="Trazado_824038" data-name="Trazado 824038" d="M180.855,31.034l-6.24,9.208H140.6l-6.24-9.208Z" transform="translate(-40.689 -9.398)" fill="#3c94cf"/>
        <path id="Trazado_824039" data-name="Trazado 824039" d="M100.586,18.842h0Z" transform="translate(-30.462 -5.706)" fill="#fff"/>
        <path id="Trazado_824040" data-name="Trazado 824040" d="M170.454,19.068H100.413a.4.4,0,0,1,0-.8h70.041a.4.4,0,0,1,0,.8" transform="translate(-30.289 -5.533)" fill="#361524"/>
        <path id="Trazado_824041" data-name="Trazado 824041" d="M100.586,54.275h0Z" transform="translate(-30.462 -16.437)" fill="#fff"/>
        <path id="Trazado_824042" data-name="Trazado 824042" d="M117.81,54.5h-17.4a.4.4,0,1,1,0-.8h17.4a.4.4,0,1,1,0,.8" transform="translate(-30.289 -16.264)" fill="#361524"/>
        <path id="Trazado_824043" data-name="Trazado 824043" d="M100.586,63.8h0Z" transform="translate(-30.462 -19.321)" fill="#fff"/>
        <path id="Trazado_824044" data-name="Trazado 824044" d="M123.957,64.026H100.412a.4.4,0,0,1,0-.8h23.545a.4.4,0,1,1,0,.8" transform="translate(-30.289 -19.148)" fill="#361524"/>
        <path id="Trazado_824045" data-name="Trazado 824045" d="M100.586,73.325h0Z" transform="translate(-30.462 -22.206)" fill="#fff"/>
        <path id="Trazado_824046" data-name="Trazado 824046" d="M131.357,73.55H100.412a.4.4,0,0,1,0-.8h30.945a.4.4,0,1,1,0,.8" transform="translate(-30.289 -22.033)" fill="#361524"/>
      </g>
    </g>
  </g>
</svg>
