<svg xmlns="http://www.w3.org/2000/svg" width="70" height="70" viewBox="0 0 70 70">
  <g id="Grupo_1099675" data-name="Grupo 1099675" transform="translate(-1007 -3185)">
    <rect id="Rectángulo_402232" data-name="Rectángulo 402232" width="70" height="70" rx="8" transform="translate(1007 3185)" fill="#0b47db"/>
    <g id="ios" transform="translate(1016.5 3194.5)">
      <path id="Trazado_877067" data-name="Trazado 877067" d="M44.2,50.513H6.314A6.314,6.314,0,0,1,0,44.2V6.314A6.314,6.314,0,0,1,6.314,0H44.2a6.314,6.314,0,0,1,6.314,6.314V44.2A6.314,6.314,0,0,1,44.2,50.513ZM6.314,2.525A3.789,3.789,0,0,0,2.525,6.314V44.2a3.788,3.788,0,0,0,3.788,3.788H44.2A3.788,3.788,0,0,0,47.987,44.2V6.314A3.788,3.788,0,0,0,44.2,2.525Zm0,0" fill="#fff"/>
      <path id="Trazado_877068" data-name="Trazado 877068" d="M263.577,123.782h-1.263A6.314,6.314,0,0,1,256,117.468h2.525a3.788,3.788,0,0,0,3.788,3.788h1.263a3.788,3.788,0,0,0,3.788-3.788v-2.525a3.789,3.789,0,0,0-3.788-3.788h-1.263A6.314,6.314,0,0,1,256,104.84v-2.526A6.314,6.314,0,0,1,262.314,96h1.263a6.314,6.314,0,0,1,6.314,6.314h-2.525a3.789,3.789,0,0,0-3.788-3.788h-1.263a3.789,3.789,0,0,0-3.788,3.788v2.526a3.789,3.789,0,0,0,3.788,3.788h1.263a6.314,6.314,0,0,1,6.314,6.314v2.525A6.314,6.314,0,0,1,263.577,123.782Zm0,0" transform="translate(-225.692 -84.635)" fill="#fff"/>
      <path id="Trazado_877069" data-name="Trazado 877069" d="M114.245,123.782h-1.263a6.314,6.314,0,0,1-6.314-6.314V102.314A6.314,6.314,0,0,1,112.982,96h1.263a6.314,6.314,0,0,1,6.314,6.314v15.154A6.314,6.314,0,0,1,114.245,123.782Zm-1.263-25.257a3.789,3.789,0,0,0-3.788,3.788v15.154a3.788,3.788,0,0,0,3.788,3.788h1.263a3.788,3.788,0,0,0,3.788-3.788V102.314a3.789,3.789,0,0,0-3.788-3.788Zm0,0" transform="translate(-94.04 -84.635)" fill="#fff"/>
      <path id="Trazado_877070" data-name="Trazado 877070" d="M53.332,213.332h2.526v13.891H53.332Zm0,0" transform="translate(-47.018 -188.076)" fill="#fff"/>
      <path id="Trazado_877071" data-name="Trazado 877071" d="M55.858,170.668H53.332v2.525h2.526Zm0,0" transform="translate(-47.018 -150.463)" fill="#fff"/>
    </g>
  </g>
</svg>
