<svg xmlns="http://www.w3.org/2000/svg" width="36" height="36" viewBox="0 0 36 36">
  <g id="Grupo_1099275" data-name="Grupo 1099275" transform="translate(-0.5)">
    <circle id="Elipse_11467" data-name="Elipse 11467" cx="18" cy="18" r="18" transform="translate(0.5)" fill="#3a1d71"/>
    <path id="Trazado_884273" data-name="Trazado 884273" d="M3.98,0h-7.8V-1.547l3.68-3.922A9.078,9.078,0,0,0,.984-6.914a2.322,2.322,0,0,0,.363-1.172A1.738,1.738,0,0,0,.965-9.277,1.382,1.382,0,0,0-.129-9.711a1.49,1.49,0,0,0-1.207.527A2.089,2.089,0,0,0-1.777-7.8H-4.043a3.729,3.729,0,0,1,.5-1.9,3.5,3.5,0,0,1,1.4-1.348A4.262,4.262,0,0,1-.09-11.531a4.036,4.036,0,0,1,2.73.844A2.985,2.985,0,0,1,3.613-8.3a3.825,3.825,0,0,1-.437,1.719,9.551,9.551,0,0,1-1.5,2.039L-.91-1.82H3.98Z" transform="translate(18.5 24)" fill="#fff"/>
  </g>
</svg>
