<svg id="Grupo_1073201" data-name="Grupo 1073201" xmlns="http://www.w3.org/2000/svg" width="86" height="90" viewBox="0 0 86 90">
  <g id="Grupo_1073070" data-name="Grupo 1073070">
    <rect id="Rectángulo_382263" data-name="Rectángulo 382263" width="86" height="90" rx="8" fill="#f0c52c"/>
  </g>
  <g id="banda-ancha" transform="translate(12 16)">
    <g id="Grupo_1073198" data-name="Grupo 1073198" transform="translate(0.625 0.624)">
      <g id="Grupo_1073195" data-name="Grupo 1073195" transform="translate(0 12.755)">
        <g id="Grupo_1073192" data-name="Grupo 1073192">
          <path id="Trazado_820521" data-name="Trazado 820521" d="M66.6,209.943v1.363a5.769,5.769,0,0,1-5.769,5.769H10.939a5.769,5.769,0,0,1-5.769-5.769v-1.363a1.076,1.076,0,0,1,1.075-1.078H65.521A1.076,1.076,0,0,1,66.6,209.943Z" transform="translate(-5.17 -172.969)" fill="#72c2e9"/>
          <path id="Trazado_820522" data-name="Trazado 820522" d="M116.012,208.865v1.5a2,2,0,0,1-2,2H106.02a2,2,0,0,1-2-2v-1.5Z" transform="translate(-79.303 -172.969)" fill="#4ba5c8"/>
          <path id="Trazado_820523" data-name="Trazado 820523" d="M73.105,67.894V101.2H18.19V67.894a2.586,2.586,0,0,1,2.585-2.585H32.24L35.5,69.8l2,2.751,2-2.751,3.256-4.491h8.2V72.55h5.724V65.309H70.52a2.586,2.586,0,0,1,2.585,2.585Z" transform="translate(-14.934 -65.309)" fill="#72c2e9"/>
          <g id="Grupo_1073191" data-name="Grupo 1073191" transform="translate(15.143)">
            <path id="Trazado_820524" data-name="Trazado 820524" d="M67.893,65.309,71.149,69.8H68.986L65.73,65.309Z" transform="translate(-65.73 -65.309)" fill="#4ba5c8"/>
            <path id="Trazado_820525" data-name="Trazado 820525" d="M108.776,65.309,105.52,69.8h-2.16l3.256-4.491Z" transform="translate(-93.951 -65.309)" fill="#4ba5c8"/>
            <path id="Trazado_820526" data-name="Trazado 820526" d="M142.18,65.309h1.75V69.8h-1.75Z" transform="translate(-123.064 -65.309)" fill="#4ba5c8"/>
            <path id="Trazado_820527" data-name="Trazado 820527" d="M172.07,65.309h1.75V69.8h-1.75Z" transform="translate(-145.48 -65.309)" fill="#4ba5c8"/>
          </g>
          <path id="Trazado_820528" data-name="Trazado 820528" d="M80.854,83.269V110.8H33.69V83.269H47.12l2,2.751,2-2.751H62.568V86.02h5.724V83.269Z" transform="translate(-26.559 -78.778)" fill="#efefef"/>
          <path id="Trazado_820529" data-name="Trazado 820529" d="M87.067,83.269l-2.741,3.778a1.752,1.752,0,0,1-2.836,0L78.75,83.269h2.163l2,2.751,2-2.751Z" transform="translate(-60.352 -78.778)" fill="#afafaf"/>
          <path id="Trazado_820530" data-name="Trazado 820530" d="M151.4,83.269V86.02a1.749,1.749,0,0,1-1.75,1.75H143.93a1.749,1.749,0,0,1-1.75-1.75V83.269h1.75V86.02h5.724V83.269Z" transform="translate(-107.921 -78.778)" fill="#afafaf"/>
        </g>
        <g id="Grupo_1073194" data-name="Grupo 1073194" transform="translate(12.629 11.045)">
          <path id="Trazado_820531" data-name="Trazado 820531" d="M101.38,139.108a13.106,13.106,0,0,1,.128,6.311H75.973a13.09,13.09,0,0,1,22.022-12.155l0,0a13.043,13.043,0,0,1,2.618,3.746v0Z" transform="translate(-70.654 -124.441)" fill="#efefef"/>
          <path id="Trazado_820532" data-name="Trazado 820532" d="M179.132,130.649v0l0,0Z" transform="translate(-148.26 -125.356)" fill="#fc5d3d"/>
          <path id="Trazado_820533" data-name="Trazado 820533" d="M173.621,146.342H168.54a13.106,13.106,0,0,0-.128-6.311l1.983-.723a1.117,1.117,0,0,0-.765-2.1l-1.983.723v0a13.042,13.042,0,0,0-2.618-3.746l3.528-3.526A18.053,18.053,0,0,1,173.621,146.342Z" transform="translate(-137.686 -125.363)" fill="#fc5d3d"/>
          <path id="Trazado_820534" data-name="Trazado 820534" d="M76.881,130.649l0,0v0Z" transform="translate(-71.578 -125.356)" fill="#13bf6d"/>
          <path id="Trazado_820535" data-name="Trazado 820535" d="M61,146.342H55.915a18.035,18.035,0,0,1,5.063-15.683l3.528,3.528A13.082,13.082,0,0,0,61,146.342Z" transform="translate(-55.677 -125.363)" fill="#13bf6d"/>
          <path id="Trazado_820536" data-name="Trazado 820536" d="M102.449,114.775,98.921,118.3l0,0a13.084,13.084,0,0,0-18.511,0l-3.528-3.528,0,0a18.08,18.08,0,0,1,25.565,0Z" transform="translate(-71.578 -109.479)" fill="#f0c020"/>
          <path id="Trazado_820537" data-name="Trazado 820537" d="M119.37,175.163h-7a4.046,4.046,0,0,1,3.5-6.074,3.952,3.952,0,0,1,2.678,1.01,4.13,4.13,0,0,1,1.21,1.938A3.962,3.962,0,0,1,119.37,175.163Z" transform="translate(-97.783 -154.184)" fill="#7d7b79"/>
          <path id="Trazado_820538" data-name="Trazado 820538" d="M150.664,158.755l-1.983.723-8.752,3.186a4.13,4.13,0,0,0-1.21-1.938l9.2-3.346,1.983-.723a1.117,1.117,0,0,1,.765,2.1Z" transform="translate(-117.955 -144.81)" fill="#72c2e9"/>
          <g id="Grupo_1073193" data-name="Grupo 1073193" transform="translate(1.635 6.257)">
            <path id="Trazado_820539" data-name="Trazado 820539" d="M62.238,147.274q-.015-.26-.021-.519a.625.625,0,1,1,1.25-.033q.006.24.02.48a.625.625,0,0,1-1.248.072Zm.652-2.41a.625.625,0,0,1-.538-.7,16.526,16.526,0,0,1,4.676-9.476.625.625,0,0,1,.884.884,15.268,15.268,0,0,0-4.321,8.755A.625.625,0,0,1,62.889,144.864Z" transform="translate(-62.216 -134.503)" fill="#76ffbb"/>
          </g>
        </g>
      </g>
      <g id="Grupo_1073197" data-name="Grupo 1073197" transform="translate(15.618)">
        <path id="Trazado_820540" data-name="Trazado 820540" d="M81.505,24.728,79.82,27.054l-3.256,4.491-2,2.751-2-2.751-3.256-4.491L67.63,24.728h4.076V14.3h5.724V24.728Z" transform="translate(-67.63 -14.299)" fill="#13bf6d"/>
        <g id="Grupo_1073196" data-name="Grupo 1073196" transform="translate(16.316)">
          <path id="Trazado_820541" data-name="Trazado 820541" d="M146.755,23.866h-4.076V34.3h-5.724V23.866H132.88l6.936-9.567Z" transform="translate(-132.88 -14.299)" fill="#fc5d3d"/>
        </g>
      </g>
    </g>
    <g id="Grupo_1073199" data-name="Grupo 1073199" transform="translate(41.911 30.68)">
      <path id="Trazado_820542" data-name="Trazado 820542" d="M174.9,147.174a15.111,15.111,0,0,0-4.429-11.6.625.625,0,1,1,.884-.884,16.356,16.356,0,0,1,4.793,12.558A.625.625,0,0,1,174.9,147.174Z" transform="translate(-170.283 -134.503)" fill="#ffcbc3"/>
    </g>
    <g id="Grupo_1073200" data-name="Grupo 1073200" transform="translate(19.509 26.037)">
      <path id="Trazado_820543" data-name="Trazado 820543" d="M103.277,121.644a15.2,15.2,0,0,0-21.511,0,.625.625,0,0,1-.884-.884,16.448,16.448,0,0,1,23.279,0,.625.625,0,1,1-.885.884Z" transform="translate(-80.69 -115.933)" fill="#f8e5b0"/>
    </g>
    <circle id="Elipse_9733" data-name="Elipse 9733" cx="0.625" cy="0.625" r="0.625" transform="translate(58.171 24.93)"/>
    <circle id="Elipse_9734" data-name="Elipse 9734" cx="0.625" cy="0.625" r="0.625" transform="translate(17.326 56.859)"/>
    <path id="Trazado_820544" data-name="Trazado 820544" d="M9.064,69.913H18.12a.625.625,0,0,0,0-1.25H9.064A5.163,5.163,0,0,1,3.92,63.519V62.157a.452.452,0,0,1,.45-.453H27.387v.873A2.628,2.628,0,0,0,30.013,65.2H38a2.628,2.628,0,0,0,2.625-2.625V61.7H63.646a.452.452,0,0,1,.45.453v1.363a5.163,5.163,0,0,1-5.143,5.143H23.121a.625.625,0,0,0,0,1.25H58.953a6.391,6.391,0,0,0,6.394-6.394V62.157a1.706,1.706,0,0,0-1.7-1.7H62.091V39.86a.625.625,0,0,0-1.25,0V60.454H7.176V27.769a1.963,1.963,0,0,1,1.96-1.96H20.282l2.35,3.241H10.426a.625.625,0,0,0-.625.625V57.207a.625.625,0,0,0,.625.625H57.59a.625.625,0,0,0,.625-.625V29.674a.625.625,0,0,0-.625-.625H45.653V25.807H58.88a1.97,1.97,0,0,1,1.96,1.963v7.089a.625.625,0,0,0,1.25,0V27.77a3.214,3.214,0,0,0-3.211-3.211H45.653V22.621H49.1a.626.626,0,0,0,.506-.992l-6.939-9.567a.626.626,0,0,0-1.012,0l-6.936,9.567a.626.626,0,0,0,.506.992h3.451v1.938H32.328l.968-1.334a.625.625,0,0,0-.508-.99H29.337v-9.8a.625.625,0,0,0-1.25,0V22.859a.628.628,0,0,0,.625.625h2.851l-5.711,7.876-5.714-7.876h2.851a.626.626,0,0,0,.625-.625V19.816a.625.625,0,0,0-1.25,0v2.418H18.913a.623.623,0,0,0-.505.99l.968,1.334H9.136a3.214,3.214,0,0,0-3.211,3.211V60.453H4.37a1.706,1.706,0,0,0-1.7,1.7v1.363a6.391,6.391,0,0,0,6.394,6.394ZM51.319,56.581h-3.78a13.754,13.754,0,0,0-.149-5.291l1.458-.531a1.742,1.742,0,0,0-1.193-3.273l-1.454.529a13.6,13.6,0,0,0-2.058-2.957l2.645-2.644a17.528,17.528,0,0,1,4.531,14.166ZM25.2,45.493a12.469,12.469,0,0,1,19.818,2.955l-8.205,2.986a4.665,4.665,0,0,0-6.843,1.418,4.613,4.613,0,0,0-.409,3.729h-7.8A12.387,12.387,0,0,1,25.2,45.493ZM46.263,56.581h-7.8a4.553,4.553,0,0,0,.156-2.1l7.582-2.76a12.5,12.5,0,0,1,.058,4.859ZM31.05,53.474a3.42,3.42,0,0,1,6.083,3.107H30.894A3.374,3.374,0,0,1,31.05,53.474Zm7.222-.195h0a5.273,5.273,0,0,0-.5-.865l10.309-3.751a.491.491,0,0,1,.339.923h0Zm4.984-9.1a13.7,13.7,0,0,0-18.492,0l-2.646-2.646a17.445,17.445,0,0,1,23.786,0ZM21.234,42.415l2.646,2.646a13.623,13.623,0,0,0-3.4,11.52H16.7A17.452,17.452,0,0,1,21.234,42.415ZM38.679,25.809v3.241H29.071l2.35-3.241ZM26.357,32.791,28.164,30.3H38.679v2.125a.625.625,0,0,0,1.25,0V22a.625.625,0,0,0-.625-.625H36.454l5.711-7.877,5.713,7.877h-2.85A.625.625,0,0,0,44.4,22V32.425a.625.625,0,0,0,1.25,0V30.3H56.965V56.582H52.577c2.141-17.605-19.253-28.041-31.793-15.5a18.711,18.711,0,0,0-5.342,15.5H11.052V30.3H23.54l1.807,2.491A.621.621,0,0,0,26.357,32.791ZM39.379,61.7v.873A1.383,1.383,0,0,1,38,63.952H30.013a1.381,1.381,0,0,1-1.375-1.375V61.7Z" transform="translate(-2.67 -11.804)"/>
    <circle id="Elipse_9735" data-name="Elipse 9735" cx="0.625" cy="0.625" r="0.625" transform="translate(19.694 4.887)"/>
    <path id="Trazado_820545" data-name="Trazado 820545" d="M82.68,12.448a.625.625,0,0,0-1.25,0v2.385a.625.625,0,0,0,1.25,0Z" transform="translate(-61.736 -11.822)"/>
  </g>
</svg>
