<svg xmlns="http://www.w3.org/2000/svg" xmlns:xlink="http://www.w3.org/1999/xlink" width="131.189" height="131.189" viewBox="0 0 131.189 131.189">
  <defs>
    <filter id="Trazado_849170" x="0" y="0" width="131.189" height="131.189" filterUnits="userSpaceOnUse">
      <feOffset dy="3" input="SourceAlpha"/>
      <feGaussianBlur stdDeviation="3" result="blur"/>
      <feFlood flood-opacity="0.161"/>
      <feComposite operator="in" in2="blur"/>
      <feComposite in="SourceGraphic"/>
    </filter>
    <filter id="Elipse_9683" x="5.755" y="6.715" width="117.76" height="117.76" filterUnits="userSpaceOnUse">
      <feOffset dy="3" input="SourceAlpha"/>
      <feGaussianBlur stdDeviation="3" result="blur-2"/>
      <feFlood flood-opacity="0.161"/>
      <feComposite operator="in" in2="blur-2"/>
      <feComposite in="SourceGraphic"/>
    </filter>
    <clipPath id="clip-path">
      <path id="path3529" d="M0-682.665H64.6v64.6H0Z" transform="translate(0 682.665)"/>
    </clipPath>
  </defs>
  <g id="Grupo_1099540" data-name="Grupo 1099540" transform="translate(-425 -723)">
    <g id="Grupo_1099256" data-name="Grupo 1099256" transform="translate(0.298 0.067)">
      <g transform="matrix(1, 0, 0, 1, 424.7, 722.93)" filter="url(#Trazado_849170)">
        <path id="Trazado_849170-2" data-name="Trazado 849170" d="M56.594,0A56.594,56.594,0,1,1,0,56.594,56.594,56.594,0,0,1,56.594,0Z" transform="translate(9 6)" fill="#fff"/>
      </g>
      <g id="Grupo_1098208" data-name="Grupo 1098208" transform="translate(439.457 735.647)">
        <g transform="matrix(1, 0, 0, 1, -14.76, -12.71)" filter="url(#Elipse_9683)">
          <circle id="Elipse_9683-2" data-name="Elipse 9683" cx="49.88" cy="49.88" r="49.88" transform="translate(14.76 12.71)" fill="#debefb"/>
        </g>
      </g>
    </g>
    <g id="g3519" transform="translate(458 1435.665)">
      <g id="g3521" transform="translate(23.237 -634.797)">
        <path id="path3523" d="M-162.919,0h-15.93l-1.1,7.373h18.127Z" transform="translate(179.948)" fill="#495560"/>
      </g>
      <g id="g3525" transform="translate(0 -682.665)">
        <g id="g3527" transform="translate(0 0)" clip-path="url(#clip-path)">
          <g id="g3533" transform="translate(18.704 55.242)">
            <path id="path3535" d="M-245.141-47.643h-24.053a1.569,1.569,0,0,1-1.5-2.012l.219-.743a3.1,3.1,0,0,1,2.974-2.225h20.677a3.1,3.1,0,0,1,2.974,2.225l.219.743a1.569,1.569,0,0,1-1.505,2.012" transform="translate(270.763 52.623)" fill="#c7c7c7"/>
          </g>
          <g id="g3537" transform="translate(18.704 55.241)">
            <path id="path3539" d="M-109.815,0h-8.22a3.1,3.1,0,0,0-2.974,2.225l-.219.743a1.569,1.569,0,0,0,1.5,2.012h11.14A5.73,5.73,0,0,1-109.815,0" transform="translate(121.293)" fill="#98a5b3"/>
          </g>
          <g id="g3541" transform="translate(0.946 4.379)">
            <path id="path3543" d="M-528.4-416.078h-47.749a7.479,7.479,0,0,1-7.479-7.479v-28.53a7.479,7.479,0,0,1,7.479-7.479H-528.4a7.479,7.479,0,0,1,7.479,7.479v28.53a7.479,7.479,0,0,1-7.479,7.479" transform="translate(583.628 459.567)" fill="#495560"/>
          </g>
          <g id="g3545" transform="translate(0.946 4.379)">
            <path id="path3547" d="M-193.768,0h-12.773a7.479,7.479,0,0,0-7.479,7.479V36.01a7.479,7.479,0,0,0,7.479,7.479h18.422c-7.109-7.44-10.238-28.325-5.648-43.489" transform="translate(214.021)" fill="#333941"/>
          </g>
          <g id="g3549" transform="translate(6.062 9.495)">
            <path id="path3551" d="M0-286.553V-313.2A3.307,3.307,0,0,1,3.307-316.5H49.17a3.307,3.307,0,0,1,3.307,3.307v26.644a3.307,3.307,0,0,1-3.307,3.307H3.307A3.307,3.307,0,0,1,0-286.553" transform="translate(0 316.503)" fill="#faef81"/>
          </g>
          <g id="g3553" transform="translate(6.062 9.495)">
            <path id="path3555" d="M-166.5-318.191c-3.987-8.288-5.605-21.7-3.492-33.258h-10.6a3.307,3.307,0,0,0-3.307,3.307V-321.5a3.307,3.307,0,0,0,3.307,3.307Z" transform="translate(183.906 351.448)" fill="#fad271"/>
          </g>
          <g id="g3557" transform="translate(32.3 9.495)">
            <path id="path3559" d="M-219.4,0h-22.932V33.258H-219.4a3.307,3.307,0,0,0,3.307-3.307V3.307A3.307,3.307,0,0,0-219.4,0" transform="translate(242.329)" fill="#333941"/>
          </g>
          <g id="g3561" transform="translate(0.946 38.296)">
            <path id="path3563" d="M0,0V2.093A7.479,7.479,0,0,0,7.479,9.572h47.75a7.479,7.479,0,0,0,7.479-7.479V0Z" fill="#c7c7c7"/>
          </g>
          <g id="g3565" transform="translate(0.946 38.296)">
            <path id="path3567" d="M0,0V2.093A7.479,7.479,0,0,0,7.479,9.572H25.9A25.3,25.3,0,0,1,20.754,0Z" fill="#98a5b3"/>
          </g>
          <g id="g3569" transform="translate(29.566 40.348)">
            <path id="path3571" d="M-52.325-26.163a2.734,2.734,0,0,1-2.735,2.735,2.734,2.734,0,0,1-2.735-2.735A2.734,2.734,0,0,1-55.06-28.9a2.734,2.734,0,0,1,2.735,2.735" transform="translate(57.795 28.897)" fill="#fff"/>
          </g>
          <g id="g3573" transform="translate(48.126 26.422)">
            <path id="path3575" d="M-5.292-8.107H-9.054A.946.946,0,0,1-10-9.054.946.946,0,0,1-9.054-10h3.761a.946.946,0,0,1,.946.946A.946.946,0,0,1-5.292-8.107Z" transform="translate(10 10)" fill="#fff"/>
          </g>
          <g id="g3577" transform="translate(37.059 26.422)">
            <path id="path3579" d="M-1.381-8.107H-9.054A.946.946,0,0,1-10-9.054.946.946,0,0,1-9.054-10h7.673a.946.946,0,0,1,.946.946A.946.946,0,0,1-1.381-8.107Z" transform="translate(10 10)" fill="#84dfff"/>
          </g>
          <g id="g3581" transform="translate(43.877 29.863)">
            <path id="path3583" d="M-4.374-8.107h-4.68A.946.946,0,0,1-10-9.054.946.946,0,0,1-9.054-10h4.68a.946.946,0,0,1,.946.946A.946.946,0,0,1-4.374-8.107Z" transform="translate(10 10)" fill="#84dfff"/>
          </g>
          <g id="g3585" transform="translate(37.059 29.863)">
            <path id="path3587" d="M-5.63-8.107H-9.054A.946.946,0,0,1-10-9.054.946.946,0,0,1-9.054-10H-5.63a.946.946,0,0,1,.946.946A.946.946,0,0,1-5.63-8.107Z" transform="translate(10 10)" fill="#fff"/>
          </g>
          <g id="g3589" transform="translate(43.638 22.981)">
            <path id="path3591" d="M-2.111-8.107H-9.054A.946.946,0,0,1-10-9.054.946.946,0,0,1-9.054-10h6.943a.946.946,0,0,1,.946.946A.946.946,0,0,1-2.111-8.107Z" transform="translate(10 10)" fill="#55d57b"/>
          </g>
          <g id="g3593" transform="translate(37.059 22.981)">
            <path id="path3595" d="M-5.869-8.107H-9.054A.946.946,0,0,1-10-9.054.946.946,0,0,1-9.054-10h3.185a.946.946,0,0,1,.946.946A.946.946,0,0,1-5.869-8.107Z" transform="translate(10 10)" fill="#ff8aa0"/>
          </g>
          <g id="g3597" transform="translate(47.915 19.539)">
            <path id="path3599" d="M-5.082-8.107H-9.054A.946.946,0,0,1-10-9.054.946.946,0,0,1-9.054-10h3.972a.946.946,0,0,1,.946.946A.946.946,0,0,1-5.082-8.107Z" transform="translate(10 10)" fill="#ff8aa0"/>
          </g>
          <g id="g3601" transform="translate(37.059 19.539)">
            <path id="path3603" d="M-1.592-8.107H-9.054A.946.946,0,0,1-10-9.054.946.946,0,0,1-9.054-10h7.462a.946.946,0,0,1,.946.946A.946.946,0,0,1-1.592-8.107Z" transform="translate(10 10)" fill="#fff"/>
          </g>
          <g id="g3605" transform="translate(43.877 16.098)">
            <path id="path3607" d="M-4.824-8.107H-9.054A.946.946,0,0,1-10-9.054.946.946,0,0,1-9.054-10h4.229a.946.946,0,0,1,.946.946A.946.946,0,0,1-4.824-8.107Z" transform="translate(10 10)" fill="#55d57b"/>
          </g>
          <g id="g3609" transform="translate(37.059 16.098)">
            <path id="path3611" d="M-5.63-8.107H-9.054A.946.946,0,0,1-10-9.054.946.946,0,0,1-9.054-10H-5.63a.946.946,0,0,1,.946.946A.946.946,0,0,1-5.63-8.107Z" transform="translate(10 10)" fill="#84dfff"/>
          </g>
          <g id="g3613" transform="translate(5.116 8.549)">
            <path id="path3615" d="M43.423-283.66a.946.946,0,0,1-.946-.946V-310.1a2.363,2.363,0,0,0-2.361-2.361H-5.747a2.363,2.363,0,0,0-2.36,2.361v25.494a.946.946,0,0,1-.946.946.946.946,0,0,1-.946-.946V-310.1a4.258,4.258,0,0,1,4.253-4.253H40.116a4.258,4.258,0,0,1,4.253,4.253v25.494A.946.946,0,0,1,43.423-283.66Z" transform="translate(10 314.354)"/>
          </g>
          <g id="g3617" transform="translate(0 3.433)">
            <path id="path3619" d="M-448.595,34.743a.943.943,0,0,1-.383-.081,8.436,8.436,0,0,1-5.013-7.706V-1.574A8.435,8.435,0,0,1-445.565-10h34.536a.946.946,0,0,1,.946.946.946.946,0,0,1-.946.946h-34.536A6.54,6.54,0,0,0-452.1-1.574v28.53a6.542,6.542,0,0,0,3.888,5.976.946.946,0,0,1,.481,1.249A.947.947,0,0,1-448.595,34.743Z" transform="translate(453.991 10)"/>
          </g>
          <g id="g3621" transform="translate(8.865 3.433)">
            <path id="path3623" d="M37.31-424.185H-9.054a.946.946,0,0,1-.946-.946.946.946,0,0,1,.946-.946H37.31a6.54,6.54,0,0,0,6.533-6.533v-28.53a6.54,6.54,0,0,0-6.533-6.533H28.858a.946.946,0,0,1-.946-.946.946.946,0,0,1,.946-.946H37.31a8.435,8.435,0,0,1,8.426,8.426v28.53A8.435,8.435,0,0,1,37.31-424.185Z" transform="translate(10 469.567)"/>
          </g>
          <g id="g3625" transform="translate(0 37.35)">
            <path id="path3627" d="M53.654-8.107H-9.054A.946.946,0,0,1-10-9.054.946.946,0,0,1-9.054-10H53.654a.946.946,0,0,1,.946.946A.946.946,0,0,1,53.654-8.107Z" transform="translate(10 10)"/>
          </g>
          <g id="g3629" transform="translate(22.29 46.922)">
            <path id="path3631" d="M-9.054-78.652a.955.955,0,0,1-.141-.01.946.946,0,0,1-.8-1.075l1.1-7.373a.946.946,0,0,1,1.075-.8.946.946,0,0,1,.8,1.075l-1.1,7.373A.947.947,0,0,1-9.054-78.652Z" transform="translate(10.001 87.918)"/>
          </g>
          <g id="g3633" transform="translate(39.319 46.922)">
            <path id="path3635" d="M-7.957-.735a.947.947,0,0,1-.935-.807l-1.1-7.373a.946.946,0,0,1,.8-1.075.946.946,0,0,1,1.075.8l1.1,7.373a.946.946,0,0,1-.8,1.075A.954.954,0,0,1-7.957-.735Z" transform="translate(10.001 10.001)"/>
          </g>
          <g id="g3637" transform="translate(17.757 54.295)">
            <path id="path3639" d="M-.029-55.75H-24.081A2.494,2.494,0,0,1-26.1-56.759a2.494,2.494,0,0,1-.4-2.217l.219-.743a4.069,4.069,0,0,1,3.882-2.9H-1.717a4.069,4.069,0,0,1,3.882,2.9l.219.743a2.494,2.494,0,0,1-.4,2.217A2.494,2.494,0,0,1-.029-55.75Zm-22.365-4.98a2.166,2.166,0,0,0-2.066,1.546l-.219.743a.617.617,0,0,0,.1.549.611.611,0,0,0,.5.25H-.029a.611.611,0,0,0,.5-.25.617.617,0,0,0,.1-.549L.35-59.184A2.166,2.166,0,0,0-1.717-60.73Z" transform="translate(26.598 62.623)"/>
          </g>
          <g id="g3641" transform="translate(10.18 19.004)">
            <path id="path3643" d="M-46.357-.309a.943.943,0,0,1-.669-.277l-3.9-3.9a.946.946,0,0,1,0-1.338l3.9-3.9a.946.946,0,0,1,1.338,0,.946.946,0,0,1,0,1.338l-3.23,3.23,3.23,3.23a.946.946,0,0,1,0,1.338A.944.944,0,0,1-46.357-.309Z" transform="translate(51.203 10)"/>
          </g>
          <g id="g3645" transform="translate(22.391 19.004)">
            <path id="path3647" d="M-9.054-.309a.943.943,0,0,1-.669-.277.946.946,0,0,1,0-1.338l3.23-3.23-3.23-3.23a.946.946,0,0,1,0-1.338.946.946,0,0,1,1.338,0l3.9,3.9a.946.946,0,0,1,0,1.338l-3.9,3.9A.943.943,0,0,1-9.054-.309Z" transform="translate(10 10)"/>
          </g>
          <g id="g3649" transform="translate(16.045 16.887)">
            <path id="path3651" d="M-9.056-123.236a.944.944,0,0,1-.324-.057.946.946,0,0,1-.566-1.213l4.38-12.033a.946.946,0,0,1,1.213-.566.946.946,0,0,1,.566,1.213l-4.38,12.033A.947.947,0,0,1-9.056-123.236Z" transform="translate(10.003 137.162)"/>
          </g>
        </g>
      </g>
    </g>
  </g>
</svg>
