<svg xmlns="http://www.w3.org/2000/svg" xmlns:xlink="http://www.w3.org/1999/xlink" width="393.365" height="176.941" viewBox="0 0 393.365 176.941">
  <defs>
    <filter id="Elipse_11428" x="333.244" y="116.125" width="60.121" height="60.121" filterUnits="userSpaceOnUse">
      <feOffset dy="1" input="SourceAlpha"/>
      <feGaussianBlur stdDeviation="5.5" result="blur"/>
      <feFlood flood-color="#fff" flood-opacity="0.902"/>
      <feComposite operator="in" in2="blur"/>
      <feComposite in="SourceGraphic"/>
    </filter>
    <linearGradient id="linear-gradient" x1="0.35" y1="0.433" x2="0.935" y2="0.848" gradientUnits="objectBoundingBox">
      <stop offset="0" stop-color="#f0c518"/>
      <stop offset="0.371" stop-color="#d1ae1f"/>
      <stop offset="1" stop-color="#78630c"/>
    </linearGradient>
    <clipPath id="clip-path">
      <path id="Trazado_884271" data-name="Trazado 884271" d="M5.381,0H138.106c2.972,0,5.381,1.9,5.381,4.244V170.6c0,2.344-2.409,4.244-5.381,4.244H5.381c-2.972,0-5.381-1.9-5.381-4.244V4.244C0,1.9,2.409,0,5.381,0Z" fill="#beb4d0"/>
    </clipPath>
    <clipPath id="clip-path-2">
      <rect id="Rectángulo_403452" data-name="Rectángulo 403452" width="142.737" height="555.767" fill="none"/>
    </clipPath>
    <clipPath id="clip-path-4">
      <rect id="Rectángulo_403449" data-name="Rectángulo 403449" width="3.482" height="2.792" fill="none"/>
    </clipPath>
    <clipPath id="clip-path-5">
      <rect id="Rectángulo_403450" data-name="Rectángulo 403450" width="8.829" height="2.896" fill="none"/>
    </clipPath>
  </defs>
  <g id="Grupo_1102284" data-name="Grupo 1102284" transform="translate(-197 -4284.903)">
    <g id="Grupo_1099581" data-name="Grupo 1099581" transform="translate(17 -8.4)">
      <path id="Trazado_873979" data-name="Trazado 873979" d="M13.485,0H346.121c7.448,0,13.485,1.478,13.485,3.3V132.733c0,1.824-6.038,3.3-13.485,3.3H13.485c-7.448,0-13.485-1.478-13.485-3.3V3.3C0,1.478,6.038,0,13.485,0Z" transform="translate(180 4333.914)" fill="#beb4d0"/>
      <g id="Grupo_1099579" data-name="Grupo 1099579" transform="translate(185.332 4321.104)">
        <g id="Grupo_1098199" data-name="Grupo 1098199" transform="translate(0 0)">
          <path id="Trazado_114171" data-name="Trazado 114171" d="M307.11,388.03l40.924,70.59a40.789,40.789,0,0,0-40.924-70.57Z" transform="translate(-307.11 -382.53)" fill="#fff"/>
          <path id="Trazado_114170" data-name="Trazado 114170" d="M368.536,443.889,327.612,373.3a40.789,40.789,0,1,0,40.924,70.57Z" transform="translate(-306.949 -354.708)" fill="#3a1d71"/>
        </g>
      </g>
      <g id="Grupo_1099580" data-name="Grupo 1099580" transform="translate(488.144 4295.4)">
        <g id="Grupo_1098291" data-name="Grupo 1098291" transform="translate(0 0)">
          <path id="Trazado_849160" data-name="Trazado 849160" d="M15.579,53.932,0,26.955,15.579,0H46.715L62.272,26.955,46.715,53.932Z" transform="translate(53.932 8.925) rotate(90)" fill="none" stroke="#3a1d71" stroke-miterlimit="10" stroke-width="9"/>
          <path id="Trazado_849161" data-name="Trazado 849161" d="M334.162,328.016a10.2,10.2,0,1,1-10.2-10.2A10.2,10.2,0,0,1,334.162,328.016Z" transform="translate(-282.294 -310.597)" fill="none" stroke="#a653f1" stroke-miterlimit="10" stroke-width="2.5"/>
          <line id="Línea_552" data-name="Línea 552" x1="26.14" y2="35.77" transform="translate(28.603)" fill="none" stroke="#00ffdf" stroke-linecap="round" stroke-linejoin="round" stroke-width="3"/>
        </g>
      </g>
      <g id="Grupo_1099578" data-name="Grupo 1099578" transform="translate(529.744 4418.307)">
        <g transform="matrix(1, 0, 0, 1, -349.74, -125)" filter="url(#Elipse_11428)">
          <g id="Elipse_11428-2" data-name="Elipse 11428" transform="translate(349.74 131.63)" fill="none" stroke="#a854f3" stroke-width="6">
            <circle cx="13.56" cy="13.56" r="13.56" stroke="none"/>
            <circle cx="13.56" cy="13.56" r="10.56" fill="none"/>
          </g>
        </g>
        <circle id="Elipse_11427" data-name="Elipse 11427" cx="10.092" cy="10.092" r="10.092" transform="translate(13.56)" fill="url(#linear-gradient)"/>
      </g>
    </g>
    <g id="Enmascarar_grupo_1098748" data-name="Enmascarar grupo 1098748" transform="translate(317 4287)" clip-path="url(#clip-path)">
      <g id="Grupo_1102283" data-name="Grupo 1102283" transform="translate(0 -0.359)">
        <g id="Grupo_1102282" data-name="Grupo 1102282" clip-path="url(#clip-path-2)">
          <g id="Grupo_1102281" data-name="Grupo 1102281" transform="translate(0)">
            <g id="Grupo_1102280" data-name="Grupo 1102280" clip-path="url(#clip-path-2)">
              <path id="Trazado_884189" data-name="Trazado 884189" d="M33.239,410c-2.839-4.577-28.28-28.981-28.28-28.981s-5.2,4.077-4.95,8.566c.241,4.275.06,26.775.123,29.145H3.219l1.74-10.265s7.033,11.253,12.315,15.107,23.124,3.161,27.406,2.59-8.6-11.585-11.44-16.162" transform="translate(97.194 128.455)" fill="#171612"/>
              <path id="Trazado_884190" data-name="Trazado 884190" d="M8.327,372.264l.409,11.013a12.754,12.754,0,0,0,0,8.135c1.427,4.852,6.83,12.553,11.987,18.268,4.45,4.93,13.986,9.848,16.841,8.563s-5.423-11.132-7.849-16.269A88.206,88.206,0,0,1,24.46,387.51c-1.33-4.9-1.515-16.432-1.515-16.432Z" transform="translate(93.748 125.102)" fill="#b1614f"/>
              <path id="Trazado_884191" data-name="Trazado 884191" d="M18.806,295.409s-5.874,18.715-2.823,51.961c2.291,24.959,2.522,59.554,2.5,75.244,0,.476,0,.931,0,1.369,0,1.171-.005,2.749,0,4.433,0,.449,0,.907,0,1.367,0,4.26,0,8.675,0,8.675L41.859,440.8s.393-3.775.837-7.733q.076-.676.152-1.347c.178-1.564.36-3.091.521-4.363.056-.431.114-.88.172-1.344C47.083,398.193,57.926,318.2,57.98,294.672c0-.739-.008-1.423-.027-2.048l-.008-.2C57.363,276.729,51.7,205.7,45.9,182.8c-4.134-16.306-41.957-6.8-41.957-6.8S12,246.126,16.372,265.163c5.732,24.952,2.434,30.246,2.434,30.246" transform="translate(79.488 58.408)" fill="#314fa5"/>
              <path id="Trazado_884192" data-name="Trazado 884192" d="M4.785,264.285a73.272,73.272,0,0,0,10.845.854,43.918,43.918,0,0,0,6.778-.479c0-.741-.008-1.424-.027-2.049-7.5,1.261-17.15-.312-17.264-.328a1.014,1.014,0,0,0-.333,2" transform="translate(115.059 88.419)" fill="#1c2b74"/>
              <path id="Trazado_884193" data-name="Trazado 884193" d="M15.256,365.448l24.226,3.28.152-1.346-24.376-3.3c0,.451,0,.908,0,1.368" transform="translate(82.704 122.743)" fill="#171612"/>
              <path id="Trazado_884194" data-name="Trazado 884194" d="M27.994,191.584a.745.745,0,0,1,.856.614c.114.7,11.506,70.074,16.024,87.2a.733.733,0,0,1,.013.314c-.041.251-4.225,25.383-3.624,42.8.579,16.782.889,94.24.919,100.733-.5-.012-.923.027-1.419,0-.032-6.884-.412-83.975-.989-100.682-.58-16.836,3.261-40.754,3.618-42.937-4.562-17.456-15.9-86.49-16.013-87.188a.744.744,0,0,1,.615-.854" transform="translate(61.244 64.585)" fill="#171612"/>
              <path id="Trazado_884195" data-name="Trazado 884195" d="M65.118,222.289q-1.627.409-3.268.785c-13.989,3.2-28.673,4.5-38.951,2.038-5.072-1.211-8.316-7.43-10.38-14.377a26.943,26.943,0,0,1-1.44-5.767c-1.258-19.3,3.489-27.49,3.489-27.49l75.65-8.452s2.515,4.639,5.306,10.685a126.718,126.718,0,0,1,5.651,14.117l.007.013a36.814,36.814,0,0,1,1.681,7.509c.6,6.878-17.385,15.812-37.743,20.938" transform="translate(25.331 56.984)" fill="#314fa5"/>
              <path id="Trazado_884196" data-name="Trazado 884196" d="M89.484,378.05S83.7,380.4,83.49,388.54s-.128,32.27-.128,32.27l2.377.084,2.3-10.638s1.018,8.04,5.085,13.179,12.844,5.351,18.625,4.5,1.5-11.561-.857-17.554-7.281-20.338-7.281-20.338Z" transform="translate(-83.344 127.452)" fill="#171612"/>
              <path id="Trazado_884197" data-name="Trazado 884197" d="M94.684,364.84s-3.053,14.068-4.516,17.663c-.912,2.244-4.068,7.278-2.355,14.13s2.855,16.841,6.851,21.123,14.414,4.423,15.27,1-5.28-16.127-5.566-22.693,3.535-27.544,3.535-27.544Z" transform="translate(-84.028 122.999)" fill="#b1614f"/>
              <path id="Trazado_884198" data-name="Trazado 884198" d="M45.383,430.724l21.831,5.53s1.249-3.8,2.375-7.118c.152-.443.3-.873.443-1.289.207-.606.4-1.169.578-1.662.144-.405.3-.834.453-1.282,8.108-22.906,34.822-99,39.132-118.952.235-1.1.481-2.291.735-3.576.124-.654.257-1.329.388-2.028,4.169-22.1,9.907-65.911,10.452-90.227a96.041,96.041,0,0,0-.382-13.53,9.062,9.062,0,0,0-1.1-3.276c-7.19-12.7-44.469-8.412-44.469-8.412s-.06,2.049-.168,5.544c-.5,17.319-1.758,68.836-2.776,85.055-1.233,19.584-4.36,26.7-4.36,26.7s-7.037,18.374-11.172,51.5c-3.075,24.637-8.741,52.635-10.264,65.462-.059.473-.108.927-.163,1.357-.064.526-.139,1.118-.227,1.742-.057.435-.124.888-.19,1.346-.493,3.379-1.121,7.112-1.121,7.112" transform="translate(-39.769 62.101)" fill="#314fa5"/>
              <path id="Trazado_884199" data-name="Trazado 884199" d="M53.928,270.7a73.383,73.383,0,0,0,10.571,2.57,44.247,44.247,0,0,0,6.636.606c.127-.653.258-1.33.389-2.028-7.6.042-16.84-3.035-16.949-3.069a1.014,1.014,0,0,0-.647,1.921" transform="translate(0.024 90.596)" fill="#1c2b74"/>
              <path id="Trazado_884200" data-name="Trazado 884200" d="M84.118,363.591l1.306.313,1.24.3,20.54,4.917c.154-.443.3-.874.443-1.289l-20.524-4.911-1.491-.356-1.321-.316c-.059.435-.124.888-.193,1.347" transform="translate(-77.386 122.124)" fill="#1c2b74"/>
              <path id="Trazado_884201" data-name="Trazado 884201" d="M60.215,215.895a.729.729,0,0,1-.164-1.439,23.294,23.294,0,0,0,8.443-4.5c5.675-4.664,8.817-11.335,9.339-19.827a.729.729,0,1,1,1.455.09c-.685,11.137-5.775,17.518-9.924,20.909a24.281,24.281,0,0,1-8.983,4.747.77.77,0,0,1-.164.019" transform="translate(-16.093 63.868)" fill="#171612"/>
              <path id="Trazado_884202" data-name="Trazado 884202" d="M74.787,418.059c-.1.558-.15.87-.156.912-.029.156-.611,3.4-.55,3.533l1.313.345c.095-.1.674-3.479.7-3.625.007-.04.063-.368.162-.941,1.336-7.749,10.474-60.912,12.91-77.834,2.252-15.6,11.015-45.325,11.1-45.623a.87.87,0,0,0,.028-.156c2.069-29.481,6.761-105.1,6.807-105.862a.744.744,0,0,0-1.484-.092c-.047.761-4.732,76.238-6.8,105.767-.507,1.72-8.917,30.442-11.125,45.753-2.442,16.931-11.594,70.19-12.909,77.825" transform="translate(-63.422 63.387)" fill="#171612"/>
              <path id="Trazado_884203" data-name="Trazado 884203" d="M33.277,213.146a.745.745,0,0,1-.346-1.4A20.264,20.264,0,0,0,42.5,198.124a.745.745,0,1,1,1.468.249A21.405,21.405,0,0,1,33.622,213.06a.744.744,0,0,1-.345.086" transform="translate(55.264 66.585)" fill="#171612"/>
              <path id="Trazado_884204" data-name="Trazado 884204" d="M25.989,145.608c2.353,15.734,1.653,13.811-5.327,45.027,0,0-1.38,9.643-2.9,21.993-1.685,13.676-6.942,31.413,3.447,34.026,7.233,1.816,19.109,2.994,32.467,2.7l1.355-17.569,42.022-7.017a159.592,159.592,0,0,1,1.641,17.149l.164-.057c9.175-3.283,15.662-7.3,16.548-11.2,1.634-7.182-1.518-24.575-6.259-44.789-.086-.2-.751-2.784-.956-3.347-.128-.35-.278-.766-.441-1.246-.956-2.76-2.5-7.565-4.12-13.379-.341-1.229-.689-2.5-1.03-3.812-.9-3.427-1.8-7.1-2.6-10.837q-.451-2.114-.857-4.243c-.255-1.348-.5-2.7-.715-4.041-.235-1.415-.416-2.664-.546-3.713-.011-.087-.02-.17-.031-.25-.02-.183-.044-.365-.057-.536a.923.923,0,0,1-.012-.1s.23-.227.623-.646c.055-.057.112-.122.17-.187,1.833-1.986,6.311-7.285,7.932-13.131s-3.2-15.8-6.735-27.217c-.14-.456-.282-.919-.42-1.38a83.716,83.716,0,0,1-2.018-8.163c-2.884-15.258-2.163-21.284-26.121-25.567l-1.039-.095L43.9,61.625s-1.452.508-3.74,1.3c-4.732,1.642-13.041,4.509-19.394,6.627C6.346,74.36,7.313,90.1,13.306,104.066c1.377,3.2,2.689,6.521,3.911,9.856.167.448.333.9.491,1.346,4.09,11.351,7.147,22.745,8.281,30.34" transform="translate(14.62 20.776)" fill="#171612"/>
              <path id="Trazado_884205" data-name="Trazado 884205" d="M19.629,84.828q3.781,11.378,7.563,22.758c.164.5-.62.713-.786.217L18.844,85.045c-.166-.5.62-.713.785-.217" transform="translate(90.357 28.503)" fill="#5a554d"/>
              <path id="Trazado_884206" data-name="Trazado 884206" d="M58.542,151.415a33.826,33.826,0,0,0,15.116,18.938.611.611,0,0,0,.616-1.054A32.552,32.552,0,0,1,59.719,151.09c-.235-.746-1.415-.427-1.177.325" transform="translate(-10.069 50.794)" fill="#5a554d"/>
              <path id="Trazado_884207" data-name="Trazado 884207" d="M21.106,152.742a20.77,20.77,0,0,1-6.059,14.605c-.564.55.3,1.412.862.864a22.019,22.019,0,0,0,6.417-15.469.611.611,0,0,0-1.221,0" transform="translate(100.535 51.295)" fill="#5a554d"/>
              <path id="Trazado_884208" data-name="Trazado 884208" d="M25.89,65.159c4.276,3.886,8.769,7.517,13,11.447.027-.211.055-.423.082-.634q-5.506,3.061-10.749,6.561a.41.41,0,0,0-.082.634Q35.121,90.7,42.091,98.232v-.571c-2.863,2.436-5.866,4.708-8.6,7.291-.38.357.193.928.57.571,2.734-2.583,5.738-4.856,8.6-7.291a.408.408,0,0,0,0-.571L28.717,82.6c-.027.21-.055.421-.082.634q5.237-3.5,10.748-6.563a.407.407,0,0,0,.082-.634c-4.235-3.93-8.729-7.561-13-11.447-.384-.349-.957.221-.572.571" transform="translate(65.511 21.738)" fill="#5a554d"/>
              <path id="Trazado_884209" data-name="Trazado 884209" d="M37.037,227.42a.539.539,0,0,1-.536-.493C32.956,184.671,19.165,96.071,19.026,95.181a.539.539,0,1,1,1.064-.166c.138.891,13.936,89.528,17.484,131.822a.54.54,0,0,1-.492.582h-.045" transform="translate(79.729 31.879)" fill="#5a554d"/>
              <path id="Trazado_884210" data-name="Trazado 884210" d="M77.711,108.86a.51.51,0,0,1-.154-.023l-13.846-4.13a.537.537,0,0,1-.344-.719l6.787-16.642L57.014,79.086a.537.537,0,0,1-.132-.793L67.087,65.6a.538.538,0,1,1,.838.674L58.1,78.5,71.11,86.675a.538.538,0,0,1,.213.659l-6.734,16.512,13.276,3.961a.538.538,0,0,1-.154,1.054" transform="translate(-11.41 22.049)" fill="#5a554d"/>
              <path id="Trazado_884211" data-name="Trazado 884211" d="M56.556,232.319a.6.6,0,0,1-.483-.251.539.539,0,0,1,.11-.753l.031-.021c.773-2.852,1.74-30.449,2.225-63.876.415-28.516.456-63.872-.79-69.669a.538.538,0,0,1,1.052-.226c1.284,5.972,1.231,42.045.8,71.122-.241,16.036-.618,31.868-1.035,43.435-.714,19.753-1.2,19.973-1.665,20.185a.578.578,0,0,1-.242.053" transform="translate(8.126 32.735)" fill="#5a554d"/>
              <path id="Trazado_884212" data-name="Trazado 884212" d="M10.073,197.771A.538.538,0,0,1,10,196.7c7.545-1.016,15.079-10.844,15.154-10.943a.538.538,0,0,1,.857.65c-.317.42-7.877,10.284-15.868,11.36a.658.658,0,0,1-.072,0" transform="translate(103.864 62.553)" fill="#5a554d"/>
              <path id="Trazado_884213" data-name="Trazado 884213" d="M81.242,200.189c-7.283,0-16.745-1.036-24.913-5.29a.538.538,0,1,1,.5-.955c15.513,8.078,35.881,4.291,36.084,4.251a.539.539,0,0,1,.2,1.058,70.807,70.807,0,0,1-11.872.936" transform="translate(-25.746 65.364)" fill="#5a554d"/>
              <path id="Trazado_884214" data-name="Trazado 884214" d="M23.235,62.926c1.853,2.212,4.684,7.7,7.729,17.2.114.345.225.7.334,1.056,1.24,3.967,2.508,8.6,3.759,13.953.076.329.154.661.229.995q.979,4.264,1.931,9.126c.163.84.317,1.792.461,2.839.039.279.078.567.114.864.635,5.034,1.067,12.105,1.341,20.439l.024.826c.111,3.515.2,7.245.255,11.136.005.321.008.644.013.968.122,8.643.127,18.045.055,27.6l-.008.916c-.031,3.693-.072,7.408-.124,11.108,0,.251-.005.5-.011.751-.049,3.573-.111,7.126-.181,10.636l-.016.86q-.066,3.5-.144,6.924c-.008.306-.013.611-.021.919-.15,6.567-.321,12.863-.5,18.664-.012.3-.02.592-.028.885-.114,3.617-.23,7.032-.342,10.192A145.957,145.957,0,0,0,68.335,228q5.959-1.374,11.792-3.233c-.257-2.4-.531-4.953-.824-7.632v0c-.041-.394-.086-.79-.127-1.191-.639-5.859-1.346-12.295-2.1-19.021-.041-.374-.086-.747-.127-1.123-.677-6.022-1.393-12.267-2.131-18.535v0c-.064-.547-.127-1.1-.194-1.645v0c-.7-5.942-1.419-11.89-2.137-17.684-.033-.274-.07-.547-.1-.821-.727-5.843-1.457-11.514-2.176-16.842-.045-.337-.09-.671-.136-1.007-.927-6.843-1.828-13.093-2.674-18.373-.058-.36-.115-.717-.171-1.068-.039-.223-.075-.444-.111-.663-.959-5.823-1.937-11.138-2.911-15.983-.055-.265-.108-.531-.163-.793-1.7-8.357-3.39-15.281-4.969-20.966-.07-.251-.139-.5-.21-.749a149.467,149.467,0,0,0-5.605-16.679L26.976,61.626l-3.741,1.3" transform="translate(31.542 20.776)" fill="#fff"/>
              <path id="Trazado_884215" data-name="Trazado 884215" d="M38.984,75.464c.114.346.225.7.334,1.056A37.737,37.737,0,0,0,58.5,79.5a23.581,23.581,0,0,0,8.586-2.753c-.07-.25-.139-.5-.21-.749-7,4.029-16.1,3.451-23.559,1.111a39.658,39.658,0,0,1-4.336-1.645" transform="translate(23.522 25.441)" fill="#dbccc1"/>
              <path id="Trazado_884216" data-name="Trazado 884216" d="M35.146,86.689c.078.329.155.661.23,1a95.815,95.815,0,0,0,25.8,6.86c1.012.106,2.054.168,3.11.176-.055-.265-.107-.531-.163-.793a50.169,50.169,0,0,1-7.41-.883,107.6,107.6,0,0,1-13.728-3.478q-3.977-1.286-7.842-2.879" transform="translate(31.452 29.226)" fill="#dbccc1"/>
              <path id="Trazado_884217" data-name="Trazado 884217" d="M32.758,96.382c.039.279.078.567.114.862a108.851,108.851,0,0,1,29.6,11.923q-.086-.54-.171-1.067A110,110,0,0,0,32.758,96.382" transform="translate(36.461 32.493)" fill="#dbccc1"/>
              <path id="Trazado_884218" data-name="Trazado 884218" d="M30.656,112.313q.012.411.025.826a108.923,108.923,0,0,1,31.047,10.038q-.066-.505-.136-1.007a110.067,110.067,0,0,0-30.936-9.857" transform="translate(40.018 37.864)" fill="#dbccc1"/>
              <path id="Trazado_884219" data-name="Trazado 884219" d="M55.565,140.192c1.225,2.353,3.045,5.544,2.387,8.285-.747,3.124-4.406,3.644-7.1,3.771a26.36,26.36,0,0,1-12.288-2.419l-.008.915A25.636,25.636,0,0,0,53.5,152.8c12.989-2.392-1.415-20.271-5.972-24.682A47.591,47.591,0,0,0,38.5,121.26c.005.321.008.644.013.968a45.949,45.949,0,0,1,17.052,17.964" transform="translate(32.454 40.881)" fill="#dbccc1"/>
              <path id="Trazado_884220" data-name="Trazado 884220" d="M28.274,142.5a67,67,0,0,0,5.381,8.21q.866,1.244,1.748,2.478-.094-.822-.194-1.646v0q-2.487-3.534-4.852-7.144c-1.548-2.361-3.475-5.75-1.51-8.44a5.785,5.785,0,0,1,4.225-2.1c-.033-.274-.07-.548-.1-.822-.171.02-.345.041-.519.07a6.306,6.306,0,0,0-4.494,2.693c-1.3,2.107-.713,4.624.318,6.7" transform="translate(70.953 44.85)" fill="#dbccc1"/>
              <path id="Trazado_884221" data-name="Trazado 884221" d="M25.52,152.369c11.4,1.585,22.6,4.906,32.532,10.8,1.782,1.059,3.522,2.2,5.2,3.412-.041-.373-.086-.746-.127-1.122C52.03,157.651,39,153.5,25.531,151.618c0,.251-.005.5-.011.751" transform="translate(45.359 51.115)" fill="#dbccc1"/>
              <path id="Trazado_884222" data-name="Trazado 884222" d="M23.851,160.993q.834.3,1.665.611a135.436,135.436,0,0,1,38.5,22.321c-.041-.4-.086-.792-.127-1.193a136.527,136.527,0,0,0-40.02-22.6l-.016.86" transform="translate(46.831 53.986)" fill="#dbccc1"/>
              <path id="Trazado_884223" data-name="Trazado 884223" d="M38.894,186.422a66.391,66.391,0,0,0,7.967,2.589,28.168,28.168,0,0,0,7.369,1.252c1.737-.032,3.719-.451,4.762-1.984,1.375-2.024.3-4.434-.921-6.239a49.658,49.658,0,0,0-18.629-16.084c-.008.308-.013.611-.021.919a50.638,50.638,0,0,1,7.25,4.576A49.534,49.534,0,0,1,57.088,182.08c1.558,2.188,2.887,5.685-.433,6.954-2.011.766-4.311.333-6.343-.082a66.13,66.13,0,0,1-11.39-3.415c-.012.294-.02.591-.028.884" transform="translate(31.097 55.948)" fill="#dbccc1"/>
              <path id="Trazado_884224" data-name="Trazado 884224" d="M86,154.828a372.32,372.32,0,0,0-11.563,67.292.8.8,0,0,1-.793.733.527.527,0,0,1-.066,0,.8.8,0,0,1-.731-.861,374.147,374.147,0,0,1,11.612-67.576,30.692,30.692,0,0,0,.428-9.6c-.1-1.336-.246-2.745-.431-4.208-.159-1.266-.348-2.575-.562-3.919-.068-.436-.138-.874-.214-1.318C80.02,113.539,70.263,83.847,70.13,83.44a.8.8,0,1,1,1.516-.5c.551,1.67,10.129,30.82,13.675,52.525.075.443.143.881.211,1.317.3,1.972.552,3.875.738,5.68.19,1.873.31,3.642.346,5.278a25.935,25.935,0,0,1-.62,7.089" transform="translate(-37.611 27.776)" fill="#5a554d"/>
              <path id="Trazado_884225" data-name="Trazado 884225" d="M99.279,20.207S101.312,1.689,82.947.061C68.24-1.242,60.979,18.646,70.474,35.509s-1.3,26.12-11.915,20.655c0,0,3.955,9.984,18.918,6.076s21.8-42.033,21.8-42.033" transform="translate(-34.909 0)" fill="#171612"/>
              <path id="Trazado_884226" data-name="Trazado 884226" d="M34.912,49.868a32.641,32.641,0,0,0,9.257,10.918C55.4,69.595,64.992,75.851,78.02,69.377c3.934-2.043,6.743-6.941,6.818-7.076,2-3.64,3.355-10.884,3.521-17.155.163-6.19-.658-4.052,1.805-13.14,3.743-13.8-14.231-20.659-14.231-20.659-6.54-4.065-25.065-7.083-37.474,6.461-7.639,8.337-9.347,17.689-4.1,30.029a10.529,10.529,0,0,1,.551,2.031" transform="translate(10.166 2.666)" fill="#171612"/>
              <path id="Trazado_884227" data-name="Trazado 884227" d="M80.185,9.6A28.544,28.544,0,0,0,60.677,29.321a.5.5,0,0,1-.967-.267A29.575,29.575,0,0,1,79.919,8.631a.5.5,0,0,1,.266.967" transform="translate(-17.614 2.903)" fill="#e59f3f"/>
              <path id="Trazado_884228" data-name="Trazado 884228" d="M79.518,14.774c-1.423-3.781-5.107-6.7-9.3-6.337-.848.074-1.8.4-1.465,1.5.132.443.913,1.087,1.27,1.4a12.383,12.383,0,0,0,2.752,1.825,12.947,12.947,0,0,0,6.679,1.24c.645-.045.642.957,0,1A13.844,13.844,0,0,1,70.669,13.1C69.337,12.19,66.1,9.64,68.3,7.974c1.821-1.377,5.311-.345,7.106.582a10.8,10.8,0,0,1,5.084,5.954c.227.6-.741.865-.967.265" transform="translate(-28.105 2.463)" fill="#e59f3f"/>
              <path id="Trazado_884229" data-name="Trazado 884229" d="M64.433,15.961c-.722-2.837-1.492-5.944-.571-8.832.6-1.893,2.252-3.838,4.462-3.281,2.083.524,2.42,2.918,1.8,4.668A17.611,17.611,0,0,1,65.3,15.194c-.477.435-1.187-.273-.71-.71,1.55-1.423,7.709-8.389,3.386-9.437a1.959,1.959,0,0,0-2.281.735,3.841,3.841,0,0,0-.7,1.2,8.09,8.09,0,0,0-.542,3.006A22.658,22.658,0,0,0,65.4,15.7a.5.5,0,0,1-.968.266" transform="translate(-12.493 1.265)" fill="#e59f3f"/>
              <path id="Trazado_884230" data-name="Trazado 884230" d="M36.7,34.585s2.627.214,3.153,3.562-1.125,8.951-4.521,8.285S36.7,34.585,36.7,34.585" transform="translate(57.168 11.66)" fill="#632829"/>
              <path id="Trazado_884231" data-name="Trazado 884231" d="M37.624,50.03a4.622,4.622,0,1,0-4.43-4.807,4.628,4.628,0,0,0,4.43,4.807m.321-7.886a3.271,3.271,0,1,1-3.4,3.134,3.273,3.273,0,0,1,3.4-3.134" transform="translate(55.924 13.751)" fill="#e59f3f"/>
              <line id="Línea_791" data-name="Línea 791" y2="0.003" transform="translate(84.754 72.325)" fill="#b1614f"/>
              <path id="Trazado_884232" data-name="Trazado 884232" d="M42.917,68.818A24.758,24.758,0,0,0,58.035,76.9C70.506,78.634,71.9,73.256,71.9,73.256A23.586,23.586,0,0,1,70.884,68.1c-.059-.681-.1-1.38-.108-2.1a57.131,57.131,0,0,1,.329-6.625c.057-.583.12-1.19.193-1.816l.007-.075c-8.642-2-15.725-5.8-20.589-12.14l-1.3-.765-.876-.52-.158.5.172,1.6c.836,7.539-1.659,16.1-5.639,22.659" transform="translate(13.45 14.851)" fill="#b1614f"/>
              <path id="Trazado_884233" data-name="Trazado 884233" d="M41.6,62.007c2.662,4.576,5.537,9.03,8.631,13.325,2.947,4.093,6.155,8.873,10.253,11.914,2.274,1.687,5.323,2.946,8.115,1.776,2.93-1.229,3.285-4.53,3.315-7.31.063-5.953-.5-12.029-2.942-17.52-.261-.586.6-1.1.865-.507a39.061,39.061,0,0,1,3.029,14.453c.148,3.756.65,9.232-3.162,11.466-3.558,2.086-7.89.154-10.72-2.27C55.6,84.43,52.841,80.572,50.212,77a161.642,161.642,0,0,1-9.476-14.484.5.5,0,0,1,.866-.507" transform="translate(15.39 20.823)" fill="#1e1d12"/>
              <path id="Trazado_884234" data-name="Trazado 884234" d="M43.369,49.953C45.213,54.063,49.48,61.329,57.417,64a57.14,57.14,0,0,1,.329-6.625c.056-.583.12-1.19.193-1.816-.171.021-.345.036-.52.048-4.7.334-9.823-2.065-14.049-5.657" transform="translate(26.809 16.841)" fill="#171612"/>
              <path id="Trazado_884235" data-name="Trazado 884235" d="M34.114,41.312c-.271,4.68,3.356,10.641,9.467,11.165l.032,0h0l.13.012c.083.275.182.546.286.822.044.119.091.241.138.36a.257.257,0,0,0,.016.033c3.35,8.171,14.4,13.508,20.521,14.031a14.009,14.009,0,0,0,4.161-.3c6.576-1.032,8.3-9.736,7.674-16.5a25.671,25.671,0,0,0-.417-2.792c-.013-.06-.025-.12-.039-.179,0,0,2.722-9.256,3.47-13.318,1.445-7.876-2.635-16.2-19.939-18.8s-22.1,7.957-23.658,13.615c-.262.941-.4,6.639.5,7.611-1.7.745-2.249,2.66-2.34,4.232" transform="translate(17.321 5.209)" fill="#b1614f"/>
              <path id="Trazado_884236" data-name="Trazado 884236" d="M44.872,47.429a5.377,5.377,0,0,1-.642-.151,6.37,6.37,0,0,1-3.363-3.12.7.7,0,1,1,1.257-.6,5.034,5.034,0,0,0,2.51,2.388,2.468,2.468,0,0,0,2.5-.394.7.7,0,0,1,.983-.021.693.693,0,0,1,.036.975,3.7,3.7,0,0,1-3.283.928" transform="translate(39.847 14.55)" fill="#632829"/>
              <path id="Trazado_884237" data-name="Trazado 884237" d="M45.062,48.93a2.611,2.611,0,0,1-1.393-1.038.439.439,0,0,1,.75-.457,1.785,1.785,0,0,0,1.867.691.439.439,0,1,1,.16.862,2.852,2.852,0,0,1-1.384-.059" transform="translate(37.626 15.921)" fill="#632829"/>
              <path id="Trazado_884238" data-name="Trazado 884238" d="M41.506,37.51c-.163,1.147-.778,2.007-1.373,1.923s-.947-1.082-.784-2.228.778-2.008,1.373-1.924.947,1.083.784,2.229" transform="translate(48.63 11.893)" fill="#171612"/>
              <path id="Trazado_884239" data-name="Trazado 884239" d="M37.5,36.429a.307.307,0,0,1-.039-.546c.122-.072,3-1.768,5.334.1a.307.307,0,0,1-.384.479c-2.006-1.606-4.608-.071-4.633-.055a.311.311,0,0,1-.278.02" transform="translate(49.939 11.836)" fill="#171612"/>
              <path id="Trazado_884240" data-name="Trazado 884240" d="M49,36.575c-.163,1.146-.778,2.007-1.373,1.923s-.947-1.083-.784-2.229.778-2.007,1.375-1.923.945,1.083.782,2.229" transform="translate(31.125 11.577)" fill="#171612"/>
              <path id="Trazado_884241" data-name="Trazado 884241" d="M45.46,35.854a.306.306,0,0,1-.107-.536c.111-.087,2.748-2.134,5.3-.574a.306.306,0,0,1-.32.523c-2.194-1.34-4.58.513-4.6.532a.308.308,0,0,1-.273.055" transform="translate(31.448 11.516)" fill="#171612"/>
              <path id="Trazado_884242" data-name="Trazado 884242" d="M64.328,39.707a.917.917,0,0,1-.056,1.364,3.275,3.275,0,1,0,2.451.713l.064-1.566a4.617,4.617,0,1,1-2.459-.511" transform="translate(-6.822 13.386)" fill="#e59f3f"/>
              <path id="Trazado_884243" data-name="Trazado 884243" d="M35.5,37.414a10.087,10.087,0,0,1,1.4.246,10.333,10.333,0,0,1,5.976,4.485c.229-1.593,1.855-8.9,12.485-10.208.154-.017.316-.035.488-.049a9.091,9.091,0,0,0,1.125-4.58c-1.106-4.315,19.748-2.336,20.517,4.3.322,2.78.5,4.592.592,5.766v0a11.274,11.274,0,0,1,.1,2.159s1.859,1.9,1.917-7.251a12.417,12.417,0,0,0-3.173-8.127c-4.209-5.009-12.141-8.551-20.881-9.578C43.1,13.059,33.824,26.736,33.257,31.7S35.5,37.414,35.5,37.414" transform="translate(18.273 4.875)" fill="#171612"/>
              <g id="Grupo_1102276" data-name="Grupo 1102276" transform="translate(90.378 53.357)" opacity="0.5">
                <g id="Grupo_1102275" data-name="Grupo 1102275">
                  <g id="Grupo_1102274" data-name="Grupo 1102274" clip-path="url(#clip-path-4)">
                    <path id="Trazado_884244" data-name="Trazado 884244" d="M36.554,41.146c-.027.7,1.468,1.336,3.482,1.55a25.663,25.663,0,0,0-.419-2.792c-1.754.12-3.039.607-3.063,1.242" transform="translate(-36.554 -39.904)" fill="#632829"/>
                  </g>
                </g>
              </g>
              <path id="Trazado_884245" data-name="Trazado 884245" d="M52.815,32.617a1.29,1.29,0,0,0,1.851-1.729,3.741,3.741,0,0,0-2.137-1.523,9.35,9.35,0,0,0-8.19,1.484s4.967.005,7.227,1.04a7.2,7.2,0,0,1,1.249.727" transform="translate(28.571 9.768)" fill="#171612"/>
              <path id="Trazado_884246" data-name="Trazado 884246" d="M36.235,33.372a1.289,1.289,0,0,1-1.4-2.111,3.741,3.741,0,0,1,2.432-.985c4.855-.3,6.051,2.9,6.051,2.9a17.1,17.1,0,0,0-5.7-.219,7.271,7.271,0,0,0-1.384.417" transform="translate(53.371 10.2)" fill="#171612"/>
              <g id="Grupo_1102279" data-name="Grupo 1102279" transform="translate(70.735 52.434)" opacity="0.5">
                <g id="Grupo_1102278" data-name="Grupo 1102278">
                  <g id="Grupo_1102277" data-name="Grupo 1102277" clip-path="url(#clip-path-5)">
                    <path id="Trazado_884247" data-name="Trazado 884247" d="M56.074,40.84c-.032.793-2.034,1.357-4.471,1.26s-4.388-.822-4.356-1.615,2.034-1.357,4.471-1.26,4.388.821,4.356,1.615" transform="translate(-47.245 -39.214)" fill="#632829"/>
                  </g>
                </g>
              </g>
              <path id="Trazado_884248" data-name="Trazado 884248" d="M57.868,43.6l.032,0h0l.13.012c.082.274.181.546.285.822.044.119.092.241.139.36a.182.182,0,0,0,.015.033,5.621,5.621,0,0,0,2.419-.8,4.468,4.468,0,0,0,1.326-1.278.633.633,0,0,0-1.046-.715,3.409,3.409,0,0,1-1.583,1.232,4.594,4.594,0,0,1-1.123.279,5.373,5.373,0,0,1-.6.049" transform="translate(3.033 14.081)" fill="#632829"/>
              <path id="Trazado_884249" data-name="Trazado 884249" d="M66.691,42.563a.631.631,0,0,1-.488-.535c-.587-4.451-5.728-6.663-5.78-6.686a.632.632,0,0,1,.488-1.166c.239.1,5.865,2.507,6.547,7.686a.633.633,0,0,1-.546.71.609.609,0,0,1-.221-.009" transform="translate(-5 11.505)" fill="#632829"/>
              <path id="Trazado_884250" data-name="Trazado 884250" d="M62.031,39.03a.62.62,0,0,1-.222-.1.633.633,0,0,1-.159-.881,4.347,4.347,0,0,1,3.923-1.663.633.633,0,0,1-.124,1.26,3.082,3.082,0,0,0-2.76,1.126.632.632,0,0,1-.658.257" transform="translate(-5.688 12.259)" fill="#632829"/>
              <path id="Trazado_884251" data-name="Trazado 884251" d="M56.351,56.257c3.473,2.51,7.005,3.816,10.775.439.344-5.5-.972-11.755-2.856-15.353-3.094-5.913,2.122-13.3,2.122-13.3-3.359,1.432-7.092,1.431-9.055,5.4,3.384,3.824,1.405,14.326-.985,22.814" transform="translate(0.208 9.455)" fill="#171612"/>
              <path id="Trazado_884252" data-name="Trazado 884252" d="M50.192,43.659a6.352,6.352,0,1,1,6.132-6.565,6.36,6.36,0,0,1-6.132,6.565m5.248-6.544a3.461,3.461,0,0,0-.058-.6,5.233,5.233,0,0,0-.353-1.314A5.318,5.318,0,0,0,53.9,33.5a5.52,5.52,0,0,0-2.748-1.54,6.057,6.057,0,0,0-1.365-.114,5.461,5.461,0,0,0-5.28,5.649,4.266,4.266,0,0,0,.047.547,5.4,5.4,0,0,0,2.91,4.125,5.545,5.545,0,0,0,1.281.481,5.79,5.79,0,0,0,1.423.127,5.463,5.463,0,0,0,5.27-5.66" transform="translate(28.079 10.437)" fill="#fff"/>
              <path id="Trazado_884253" data-name="Trazado 884253" d="M39.382,44.761a6.352,6.352,0,1,1,6.131-6.567,6.36,6.36,0,0,1-6.131,6.567m5.247-6.544a3.461,3.461,0,0,0-.057-.6,5.233,5.233,0,0,0-.353-1.314A5.3,5.3,0,0,0,43.092,34.6a5.521,5.521,0,0,0-2.746-1.54,6,6,0,0,0-1.367-.114A5.461,5.461,0,0,0,33.7,38.6a4.264,4.264,0,0,0,.047.547,5.547,5.547,0,0,0,4.191,4.606,5.8,5.8,0,0,0,1.423.127,5.463,5.463,0,0,0,5.27-5.66" transform="translate(53.348 10.808)" fill="#fff"/>
              <path id="Trazado_884254" data-name="Trazado 884254" d="M61.209,35.412a.526.526,0,0,1-.262-.083,13.1,13.1,0,0,0-8.08-2.074.522.522,0,1,1-.143-1.035,13.955,13.955,0,0,1,8.79,2.23.523.523,0,0,1-.3.961" transform="translate(11.09 10.842)" fill="#fff"/>
              <path id="Trazado_884255" data-name="Trazado 884255" d="M37.351,38.342a.527.527,0,0,1-.219-.059,7.161,7.161,0,0,0-3.686-.7.513.513,0,0,1-.582-.457.522.522,0,0,1,.457-.58,8.185,8.185,0,0,1,4.3.809.522.522,0,0,1-.266.984" transform="translate(60.904 12.307)" fill="#fff"/>
              <path id="Trazado_884256" data-name="Trazado 884256" d="M41.725,43.747a.524.524,0,0,0,.291-.056l2.466-1.256a.531.531,0,0,0,.055-.913,7.647,7.647,0,0,1-3.257-5.581.531.531,0,0,0-1.048.166,8.833,8.833,0,0,0,3.009,5.771l-1.7.868a.531.531,0,0,0,.19,1" transform="translate(44.179 11.966)" fill="#632829"/>
              <path id="Trazado_884257" data-name="Trazado 884257" d="M44.567,36.988a.523.523,0,0,1-.342-.147,1.487,1.487,0,0,0-1.749-.237.523.523,0,0,1-.511-.912,2.548,2.548,0,0,1,2.987.4.523.523,0,0,1-.385.9" transform="translate(41.868 11.928)" fill="#fff"/>
              <path id="Trazado_884258" data-name="Trazado 884258" d="M9.493,128.731c.706.263,17.474,6.533,35.243,11.8a215.315,215.315,0,0,0,26.319,6.379,60.624,60.624,0,0,0,9.242.833q1.179,0,2.254-.074a20.541,20.541,0,0,0,7-1.626q.628-.277,1.189-.586a13.691,13.691,0,0,0,5.136-4.8,14.213,14.213,0,0,0,1.938-9.19c-.024-.3-.059-.6-.1-.9a46.987,46.987,0,0,0-3.4-11.182c-2.135-5.171-5.365-11.78-9.6-19.638C77.66,86.661,70.25,74.579,69.937,74.072c-1.06-1.729-4.487-4.308-6.156-5.2,2.085,6.533,4.859,14.437,6.738,21.046,1.511,5.311,3.641,10.287,4.564,15.733.7,4.148,2.135,8.812,1.364,13-.469,2.558-1.777,4.764-4.124,5.291.155.336.306.667.448.984a232.772,232.772,0,0,1-26.653-6.944c-15.194-4.7-28.775-9.784-28.91-9.835a10.989,10.989,0,1,0-7.714,20.58" transform="translate(41.685 23.22)" fill="#171612"/>
              <path id="Trazado_884259" data-name="Trazado 884259" d="M2.538,129.68a13.717,13.717,0,0,0,5.137-4.8,14.229,14.229,0,0,0,1.936-9.19c-3.9,3.039-8.187,7.888-7.073,13.993" transform="translate(129.885 39.002)" fill="#5a554d"/>
              <path id="Trazado_884260" data-name="Trazado 884260" d="M18.787,117.227Z" transform="translate(98.83 39.521)" fill="#171612"/>
              <path id="Trazado_884261" data-name="Trazado 884261" d="M20.834,126.457c.023-1.519.078-2.968.151-4.4.144-2.844.362-5.587.608-8.3.5-5.423,1.125-10.725,1.809-16.005q.509-3.955,1.076-7.9l.575-3.942.611-3.994c.027-.174.064-.4.1-.575a13.652,13.652,0,0,1,26.787,5.284l-.028.15L51.8,90.474l-.711,3.749q-.7,3.753-1.355,7.511c-.866,5-1.674,10-2.335,14.914-.31,2.3-.59,4.581-.808,6.781,1.7-.116,3.463-.282,5.234-.469,2.435-.259,4.906-.57,7.392-.908,4.974-.682,10-1.482,15.032-2.34s10.077-1.785,15.118-2.753q3.783-.728,7.557-1.487l3.771-.772,3.728-.778.15-.032A10.991,10.991,0,0,1,109.5,135.3l-3.872.983-3.836.952q-3.833.945-7.678,1.853-7.694,1.819-15.448,3.5c-5.179,1.113-10.39,2.173-15.685,3.128-2.649.477-5.322.931-8.042,1.338s-5.49.776-8.407,1.05c-1.465.132-2.962.247-4.576.3-.8.031-1.637.044-2.53.033s-1.837-.047-2.928-.15c-.547-.052-1.127-.119-1.784-.229-.259-.043-.527-.092-.816-.148-.436-.087-.909-.2-1.437-.345a16.92,16.92,0,0,1-3.3-1.286,15,15,0,0,1-2.41-1.562,14.155,14.155,0,0,1-2.918-3.148,13.7,13.7,0,0,1-1.289-2.4c-.124-.3-.239-.6-.349-.9l-.156-.456-.111-.358c-.071-.235-.14-.475-.2-.713l-.048-.176-.035-.147-.067-.29-.074-.333-.053-.253c-.072-.35-.127-.667-.183-1-.191-1.24-.274-2.222-.338-3.158-.114-1.835-.123-3.411-.1-4.933" transform="translate(-2.896 23.712)" fill="#171612"/>
              <path id="Trazado_884262" data-name="Trazado 884262" d="M83.561,119.3l.074.334.067.29.036.146.045.176c.063.239.131.477.2.714l.111.358.158.456c.108.3.225.6.346.9a13.7,13.7,0,0,0,1.292,2.4,14.123,14.123,0,0,0,2.916,3.148,14.928,14.928,0,0,0,2.41,1.563,16.888,16.888,0,0,0,3.3,1.286c.53.146,1,.257,1.437.344-.733-6.932-7.624-10.475-12.391-12.112" transform="translate(-64.947 40.219)" fill="#5a554d"/>
              <path id="Trazado_884263" data-name="Trazado 884263" d="M8.527,111.249c-1.1-2.165-.913-4.311-.759-6.577,1.294-1.175,2.47-2.159,3.031-2.721a45.326,45.326,0,0,1,7.488-5.326c3.062-1.871,5.116-1.959,7.888-2.4s7.261.758,6.065,2.273c-1.167,1.48-5.01.267-7.85,1.637a25.709,25.709,0,0,0-4.35,2.555,15.359,15.359,0,0,1,9.094-.521c4.756.968,5.845,3.578,4.5,3.987s-2.665.584-6.052-.2-7.211.828-7.211.828c2.059-.428,9.375.011,11.338,1.947s.1,3.3-2.383,2.641-8.921.286-8.921.286a44.447,44.447,0,0,1,6.045,1.051c.386.107,3.323,1.38.6,2.573-1.841.808-6.472.374-10.269.9a13.8,13.8,0,0,0-4.017,1.395,10.6,10.6,0,0,1-4.239-4.33" transform="translate(98.341 31.734)" fill="#b1614f"/>
              <path id="Trazado_884264" data-name="Trazado 884264" d="M20.648,103.9c1-1.907,2.662-4.818,3.891-5.667,1.873-1.3,4.013-4.247,4.988-3.062s-1.756,4.741-1.756,4.741l-7.2,5.149c.024-.384.052-.772.076-1.162" transform="translate(85.493 31.991)" fill="#b1614f"/>
              <path id="Trazado_884265" data-name="Trazado 884265" d="M16.9,110.6a22.307,22.307,0,0,1,5.772,7.512c.262.584-.6,1.1-.866.507a21.7,21.7,0,0,0-5.615-7.31c-.48-.433.23-1.141.709-.709" transform="translate(98.587 37.242)" fill="#5a554d"/>
              <path id="Trazado_884266" data-name="Trazado 884266" d="M78.018,125.245a189.008,189.008,0,0,0-29.906-11.925.5.5,0,0,1,.267-.967,190.55,190.55,0,0,1,30.144,12.025c.578.29.071,1.155-.505.866" transform="translate(0.098 37.87)" fill="#5a554d"/>
              <path id="Trazado_884267" data-name="Trazado 884267" d="M81.476,115.277a13.644,13.644,0,0,0-5.252,5.105.5.5,0,0,1-.865-.507,14.639,14.639,0,0,1,5.612-5.465c.566-.31,1.072.555.505.866" transform="translate(-39.653 38.549)" fill="#5a554d"/>
              <path id="Trazado_884268" data-name="Trazado 884268" d="M44.945,110.928a140.581,140.581,0,0,0-16.019-4.733c-.63-.147-.362-1.114.266-.968a140.853,140.853,0,0,1,16.019,4.735c.6.218.344,1.187-.266.967" transform="translate(58.986 35.47)" fill="#5a554d"/>
              <path id="Trazado_884269" data-name="Trazado 884269" d="M101.02,107.514a7.553,7.553,0,0,1-7.929,6.829,18.524,18.524,0,0,0-6.252.677c-4.264,1.481-8.889,4.417-11.255,4.556-3.49.206-1.091-2.7-.743-3.023a52.243,52.243,0,0,1,5.779-4.34s-7.265,2.462-9.514,4.479-4.935,1.589-3.912-1.495,8.461-7.46,10.849-8.115c0,0-4.872.361-8.008,2.994s-4.61,3.156-6.243,3.447-1.888-3.029,2.583-6.591a18.074,18.074,0,0,1,9.817-4.324,30.219,30.219,0,0,0-5.932-.352c-3.712.084-7.093,3.416-9.111,2.488-2.065-.948,2-4.614,5.144-5.633s5.347-2.027,9.562-1.7a53.4,53.4,0,0,1,10.708,1.575c2.476.8,11.657,2.483,13.822,5.548a4.632,4.632,0,0,1,.635,2.984" transform="translate(-39.314 32.818)" fill="#b1614f"/>
              <path id="Trazado_884270" data-name="Trazado 884270" d="M82.654,101.736S76.36,96.883,73.7,96.529s-6.484-2.305-6.872-.542,4.38,4.035,4.38,4.035Z" transform="translate(-29.243 32.115)" fill="#b1614f"/>
            </g>
          </g>
        </g>
      </g>
    </g>
  </g>
</svg>
