<svg xmlns="http://www.w3.org/2000/svg" width="70" height="70" viewBox="0 0 70 70">
  <g id="Grupo_1099681" data-name="Grupo 1099681" transform="translate(-1249 -3185)">
    <rect id="Rectángulo_402233" data-name="Rectángulo 402233" width="70" height="70" rx="8" transform="translate(1249 3185)" fill="#0b47db"/>
    <g id="Icons8_flat_linux" transform="translate(1251.116 3184.085)">
      <path id="Trazado_877072" data-name="Trazado 877072" d="M22.5,18.36l.153,3.525-2.452,4.6-3.831,7.509L15.6,40.275l2.759,8.889,6.283,3.525h9.5l8.889-6.743,3.985-10.575-9.2-11.188L35.217,17.9Z" transform="translate(3.576 5.317)" fill="#eceff1"/>
      <path id="Trazado_877073" data-name="Trazado 877073" d="M45.19,32.413c-2.452-3.525-4.444-5.67-5.517-10.115s.307-3.218-.613-7.05A12.037,12.037,0,0,0,37.068,10.8a5.817,5.817,0,0,0-2.605-1.839,8.705,8.705,0,0,0-8.582.153c-4.138,2.146-3.678,6.743-2.912,16.092a4.719,4.719,0,0,1-.46,1.992A15.927,15.927,0,0,1,19.9,30.88a30.378,30.378,0,0,0-2.912,4.751c-1.839,3.525-3.525,7.969-3.065,9.655.766-.153,10.421,14.559,10.421,14.866A48.163,48.163,0,0,1,29.865,60c3.218-.153,5.057-.307,7.663.307,0-.46-.153-.92-.153-1.379a18.953,18.953,0,0,1,.307-2.759c.153-.766.307-1.533.46-2.452a15.341,15.341,0,0,1-6.9,3.372c-2.3.46-6.13-.307-7.969-2.605a.921.921,0,0,0,.613-.153c.46-.153.92-.307,1.073-.613a1.826,1.826,0,0,0-.153-1.992c-.307-.46-2.605-2.146-3.678-3.065s-1.686-1.379-2.3-1.992L17.6,45.439c-.307-.307-.46-.613-.613-.766a5.689,5.689,0,0,1-.307-2.912,12.544,12.544,0,0,1,1.533-4.6c.307-.613,1.073-1.839,1.073-1.839s-2.605,6.437-1.226,8.429a20.8,20.8,0,0,1,.766-3.985,14.935,14.935,0,0,1,2.146-4.444c.92-1.073,3.218-5.057,3.372-7.509,0-1.073.153-2.146.153-2.912-.613-.613,10.115-2.146,10.728-.46.153.613,2.3,6.13,3.525,9.042a33.821,33.821,0,0,1,1.839,4.138,25.165,25.165,0,0,1,.766,6.283,10.173,10.173,0,0,1-.153,1.992c.307,0,6.283-6.437-.766-11.8,0,0,4.291,1.992,4.444,5.977a11.791,11.791,0,0,1-1.533,6.283c.153,0,3.218,1.379,3.372,1.379a7.642,7.642,0,0,0,1.839-.46,11.289,11.289,0,0,0,.613-2.146C50.248,41.608,47.643,35.938,45.19,32.413Z" transform="translate(2.644)" fill="#263238"/>
      <g id="Grupo_1099677" data-name="Grupo 1099677" transform="translate(26.379 15.555)">
        <ellipse id="Elipse_11592" data-name="Elipse 11592" cx="1.992" cy="3.065" rx="1.992" ry="3.065" transform="translate(0 0.613)" fill="#eceff1"/>
        <ellipse id="Elipse_11593" data-name="Elipse 11593" cx="2.605" cy="3.525" rx="2.605" ry="3.525" transform="translate(6.283)" fill="#eceff1"/>
      </g>
      <g id="Grupo_1099678" data-name="Grupo 1099678" transform="translate(27.125 17.618)">
        <ellipse id="Elipse_11594" data-name="Elipse 11594" cx="1.839" cy="1.073" rx="1.839" ry="1.073" transform="translate(0.461 3.918) rotate(-97.204)" fill="#212121"/>
        <ellipse id="Elipse_11595" data-name="Elipse 11595" cx="1.533" cy="1.992" rx="1.533" ry="1.992" transform="translate(6.457 0.082)" fill="#212121"/>
      </g>
      <g id="Grupo_1099679" data-name="Grupo 1099679" transform="translate(8.885 20.306)">
        <path id="Trazado_877074" data-name="Trazado 877074" d="M44.785,40.05A5.875,5.875,0,0,1,42.18,37.9c-.46-.766-.307-2.912-1.073-3.831a1.062,1.062,0,0,0-1.226-.307c-1.379.307-4.6,2.452-6.743,0A2.1,2.1,0,0,0,31.605,33a1.34,1.34,0,0,0-1.379.92,5.307,5.307,0,0,0-.307,2.605,28.326,28.326,0,0,1-.153,3.678C29.46,42.808,29,44.341,29,45.873c0,1.686.46,2.759,1.073,3.218.46.46,1.226.766,2.912.766a4.981,4.981,0,0,0,3.831-1.686,29.241,29.241,0,0,1,3.525-2.605c1.686-1.073,4.291-2.452,4.751-2.912.307-.307.766-.46.766-1.379A1.316,1.316,0,0,0,44.785,40.05Z" transform="translate(1.828 -6.947)" fill="#ffc107"/>
        <path id="Trazado_877075" data-name="Trazado 877075" d="M24.693,40.989c-1.533-2.452-1.686-2.912-2.759-4.444-.92-1.533-2.912-4.444-4.138-4.444A2.62,2.62,0,0,0,15.8,33.173c-.613.613-1.226,1.992-2.3,2.759-.92.766-3.525.613-4.138,1.533s.613,2.3.613,4.6c0,.92-.766,1.533-.92,2.146a2.529,2.529,0,0,0,0,1.839c.613.92,1.379,1.226,6.59,2.3,2.759.613,5.364,2.146,7.05,2.3s4.6,0,4.6-4.138C27.452,44.054,26.073,43.441,24.693,40.989Z" transform="translate(-8.885 -7.426)" fill="#ffc107"/>
        <path id="Trazado_877076" data-name="Trazado 877076" d="M21.686,21.824C20.766,21.211,20,20.6,20,19.678s.613-1.226,1.533-1.992A6.129,6.129,0,0,1,25.057,16,12.673,12.673,0,0,1,29.5,17.379c1.379.307,2.759.613,2.605,1.686C31.954,20.6,31.8,20.9,30.268,21.67c-1.073.307-3.065,1.992-4.444,1.992a10.118,10.118,0,0,1-2.146-.153A8.188,8.188,0,0,1,21.686,21.824Z" transform="translate(-2.965 -16)" fill="#ffc107"/>
      </g>
      <g id="Grupo_1099680" data-name="Grupo 1099680" transform="translate(26.336 21.378)">
        <path id="Trazado_877077" data-name="Trazado 877077" d="M21.234,19.712a3.337,3.337,0,0,0,1.226.766,7.216,7.216,0,0,0,.766.307h1.379a6.322,6.322,0,0,0,2.912-.92c1.073-.46,1.226-.766,1.992-1.073.766-.46,1.533-.92,1.226-1.073s-.613,0-1.686.613a21.4,21.4,0,0,1-2.605,1.379,5.838,5.838,0,0,1-1.533.46H23.533a3.607,3.607,0,0,1-1.226-.307c-.307-.153-.46-.307-.613-.307-.307-.153-.92-.766-1.226-.92,0,0-.307,0-.153.153Z" transform="translate(-20.272 -16.187)" fill="#634703"/>
        <path id="Trazado_877078" data-name="Trazado 877078" d="M23.9,16.835c.153.307.46.307.613.46a.475.475,0,0,0,.307.153.294.294,0,0,0-.153-.46C24.666,16.682,23.9,16.682,23.9,16.835Z" transform="translate(-18.34 -16.682)" fill="#634703"/>
        <path id="Trazado_877079" data-name="Trazado 877079" d="M22.3,17.16c0,.153.307.307.307.153.153-.153.307-.307.46-.307.307-.153.153-.307-.307-.307C22.453,16.853,22.453,17.007,22.3,17.16Z" transform="translate(-19.192 -16.7)" fill="#634703"/>
      </g>
      <path id="Trazado_877080" data-name="Trazado 877080" d="M32.213,35.669v.46A1.8,1.8,0,0,0,33.9,36.9a3.127,3.127,0,0,0,2.3-1.226c0-.153.153-.307.307-.46a9.077,9.077,0,0,1,.613-.92.535.535,0,0,1-.153-.307,1.891,1.891,0,0,0-1.226-.766,6.745,6.745,0,0,0-1.533-.307,2.96,2.96,0,0,0-2.605.766.15.15,0,0,1,.153.153,1.391,1.391,0,0,1,.46,1.073C32.366,35.209,32.213,35.363,32.213,35.669Z" transform="translate(12.097 13.295)" fill="#455a64"/>
    </g>
  </g>
</svg>
