<svg xmlns="http://www.w3.org/2000/svg" width="70" height="70" viewBox="0 0 70 70">
  <g id="Grupo_1099671" data-name="Grupo 1099671" transform="translate(-522 -3185)">
    <rect id="Rectángulo_402230" data-name="Rectángulo 402230" width="70" height="70" rx="8" transform="translate(522 3185)" fill="#0b47db"/>
    <g id="logotipo-de-mac-os" transform="translate(538.718 3199)">
      <g id="Grupo_1099670" data-name="Grupo 1099670" transform="translate(1.282)">
        <path id="Trazado_877061" data-name="Trazado 877061" d="M29.557,15.393a9.4,9.4,0,0,1,4.489-7.917,9.7,9.7,0,0,0-7.6-4.115c-3.232-.331-6.314,1.9-7.959,1.9s-4.175-1.859-6.859-1.811a10.185,10.185,0,0,0-8.6,5.212c-3.666,6.362-.94,15.786,2.633,20.952,1.747,2.524,3.832,5.359,6.564,5.26,2.633-.105,3.627-1.705,6.811-1.705s4.079,1.705,6.862,1.654c2.835-.054,4.627-2.576,6.359-5.106a23.137,23.137,0,0,0,2.883-5.914A9.2,9.2,0,0,1,29.557,15.393Z" transform="translate(-1.282 6.697)" fill="#fff"/>
        <path id="Trazado_877062" data-name="Trazado 877062" d="M13.084,6.64A9.161,9.161,0,0,0,15.247,0,9.307,9.307,0,0,0,9.122,3.148,8.715,8.715,0,0,0,6.917,9.58,7.708,7.708,0,0,0,13.084,6.64Z" transform="translate(9.955)" fill="#fff"/>
      </g>
    </g>
  </g>
</svg>
