<svg xmlns="http://www.w3.org/2000/svg" width="70" height="70" viewBox="0 0 70 70">
  <g id="Grupo_1102265" data-name="Grupo 1102265" transform="translate(-280 -3185)">
    <rect id="Rectángulo_400970" data-name="Rectángulo 400970" width="70" height="70" rx="8" transform="translate(280 3185)" fill="#0b47db"/>
    <g id="logotipo-de-windows" transform="translate(287.234 3193.566)">
      <g id="Grupo_1099667" data-name="Grupo 1099667" transform="translate(0 0.934)">
        <path id="Trazado_877057" data-name="Trazado 877057" d="M27.886,3.514l-4.778,19.1c-5.814-2.432-13.582-3.494-20.466-1.364,1.393-6.12,4.78-17.739,4.78-17.739C12.484-.631,22.332.857,27.886,3.514Z" transform="translate(3.769 -0.934)" fill="#fc9a28"/>
        <path id="Trazado_877058" data-name="Trazado 877058" d="M17.014,3.145C22.224,6.2,31.436,7.137,38.126,5.14L32.664,23.556C27.051,26.526,16.32,26.3,12.2,22.189Z" transform="translate(17.405 2.221)" fill="#80b901"/>
        <path id="Trazado_877059" data-name="Trazado 877059" d="M25.232,13.112l-4.773,19.1C14.446,29.443,6.78,27.594,0,30.843c0,0,3.147-12.3,4.771-18.413C10.024,9.171,20.491,10.134,25.232,13.112Z" transform="translate(0 12.561)" fill="#00b2dd"/>
        <path id="Trazado_877060" data-name="Trazado 877060" d="M14.869,12.641c5.21,3.684,14.065,4.281,20.61,1.747L30.026,32.811c-5.28,3.589-15.611,3.038-20.469-.682Z" transform="translate(13.634 15.769)" fill="#eabe07"/>
      </g>
    </g>
  </g>
</svg>
