<svg xmlns="http://www.w3.org/2000/svg" width="70" height="70" viewBox="0 0 70 70">
  <g id="Grupo_1099673" data-name="Grupo 1099673" transform="translate(-765 -3185)">
    <rect id="Rectángulo_402231" data-name="Rectángulo 402231" width="70" height="70" rx="8" transform="translate(765 3185)" fill="#0b47db"/>
    <g id="simbolo-de-caracter-de-android" transform="translate(741.461 3194.001)">
      <g id="Grupo_1099672" data-name="Grupo 1099672" transform="translate(36.539 -0.001)">
        <path id="Trazado_877063" data-name="Trazado 877063" d="M39.735,153.884a3.082,3.082,0,0,0-2.265.931,3.048,3.048,0,0,0-.931,2.234v13.343a3.178,3.178,0,0,0,3.2,3.2,3.031,3.031,0,0,0,2.25-.931,3.109,3.109,0,0,0,.916-2.265V157.049a3.178,3.178,0,0,0-3.165-3.165Z" transform="translate(-36.539 -137.16)" fill="#80b922"/>
        <path id="Trazado_877064" data-name="Trazado 877064" d="M106.494,179.974a3.389,3.389,0,0,0,3.413,3.412h2.3l.031,7.044a3.083,3.083,0,0,0,.931,2.265,3.046,3.046,0,0,0,2.234.931,3.178,3.178,0,0,0,3.2-3.2v-7.044h4.282v7.044a3.2,3.2,0,1,0,6.391,0v-7.044H131.6a3.256,3.256,0,0,0,2.389-.992,3.293,3.293,0,0,0,.993-2.42V159.308H106.494Z" transform="translate(-98.891 -141.994)" fill="#80b922"/>
        <path id="Trazado_877065" data-name="Trazado 877065" d="M126.757,4.747l2.2-4.065a.408.408,0,0,0-.155-.62.43.43,0,0,0-.62.186l-2.234,4.1a15.575,15.575,0,0,0-12.474,0l-2.234-4.1a.43.43,0,0,0-.62-.186.408.408,0,0,0-.155.62l2.2,4.065a13.591,13.591,0,0,0-5.337,4.763,12.029,12.029,0,0,0-1.986,6.687h28.7a12.028,12.028,0,0,0-1.986-6.687A13.644,13.644,0,0,0,126.757,4.747Zm-12.738,5.911a1.163,1.163,0,0,1-.853.357,1.114,1.114,0,0,1-.838-.357,1.238,1.238,0,0,1,0-1.707,1.114,1.114,0,0,1,.838-.357,1.207,1.207,0,0,1,.853,2.063Zm13.079,0a1.116,1.116,0,0,1-.838.357,1.21,1.21,0,0,1,0-2.42,1.115,1.115,0,0,1,.838.357,1.238,1.238,0,0,1,0,1.707Z" transform="translate(-97.869 0.001)" fill="#80b922"/>
        <path id="Trazado_877066" data-name="Trazado 877066" d="M385.434,154.8a3.109,3.109,0,0,0-2.265-.915,3.072,3.072,0,0,0-2.234.915,3.033,3.033,0,0,0-.931,2.25v13.343a3.083,3.083,0,0,0,.931,2.265,3.045,3.045,0,0,0,2.234.931,3.178,3.178,0,0,0,3.2-3.2V157.049A3.031,3.031,0,0,0,385.434,154.8Z" transform="translate(-342.676 -137.16)" fill="#80b922"/>
      </g>
    </g>
  </g>
</svg>
