<svg xmlns="http://www.w3.org/2000/svg" width="75" height="75" viewBox="0 0 75 75">
  <g id="Grupo_1099389" data-name="Grupo 1099389" transform="translate(-448 -1765)">
    <circle id="Elipse_9665" data-name="Elipse 9665" cx="37.5" cy="37.5" r="37.5" transform="translate(448 1765)" fill="#2cfedf"/>
    <g id="red-global" transform="translate(459.998 1767.77)">
      <g id="Grupo_1099388" data-name="Grupo 1099388" transform="translate(0.747 10.979)">
        <g id="Grupo_1099386" data-name="Grupo 1099386" transform="translate(2.147 0)">
          <g id="Grupo_1099385" data-name="Grupo 1099385">
            <g id="Grupo_1099383" data-name="Grupo 1099383" transform="translate(0.161 0)">
              <ellipse id="Elipse_11479" data-name="Elipse 11479" cx="24.002" cy="24.119" rx="24.002" ry="24.119" fill="#c9f0ff"/>
            </g>
            <path id="Trazado_873649" data-name="Trazado 873649" d="M253.778,17.626q-.765,0-1.518.048a24.128,24.128,0,0,1,0,48.143q.753.047,1.518.048a24.12,24.12,0,0,0,0-48.238Z" transform="translate(-229.616 -17.626)" fill="#b5eaff"/>
            <g id="Grupo_1099384" data-name="Grupo 1099384" transform="translate(0 3.246)">
              <path id="Trazado_873650" data-name="Trazado 873650" d="M130.9,49.709a.759.759,0,0,0-.812,1.119q.726-.513,1.489-.973Q131.243,49.779,130.9,49.709Z" transform="translate(-119.724 -49.693)" fill="#3498ac"/>
              <path id="Trazado_873651" data-name="Trazado 873651" d="M28.6,216.766a.757.757,0,0,0,.287.42q.075-.669.186-1.327A.759.759,0,0,0,28.6,216.766Z" transform="translate(-28.573 -199.039)" fill="#3498ac"/>
              <path id="Trazado_873652" data-name="Trazado 873652" d="M125.9,447.557a.76.76,0,0,0,.03.21q.009.032.021.063v0a.759.759,0,0,0,1.339.328l.019-.006q-.763-.486-1.487-1.027Q125.863,447.342,125.9,447.557Z" transform="translate(-115.981 -406.894)" fill="#3498ac"/>
              <path id="Trazado_873653" data-name="Trazado 873653" d="M394.56,448.429a.758.758,0,0,0,.89-.6q.069-.353.13-.706-.719.538-1.478,1.022A.757.757,0,0,0,394.56,448.429Z" transform="translate(-357.099 -406.891)" fill="#3498ac"/>
              <path id="Trazado_873654" data-name="Trazado 873654" d="M390.405,50.3a.759.759,0,0,0-.9-.591q-.34.07-.677.146.764.459,1.489.973A.756.756,0,0,0,390.405,50.3Z" transform="translate(-352.363 -49.693)" fill="#3498ac"/>
              <path id="Trazado_873655" data-name="Trazado 873655" d="M452.2,105.249a.759.759,0,0,0-1.129-.823q.526.648,1.008,1.333Q452.139,105.5,452.2,105.249Z" transform="translate(-408.3 -98.789)" fill="#3498ac"/>
            </g>
          </g>
        </g>
        <g id="Grupo_1099387" data-name="Grupo 1099387" transform="translate(0 1.686)">
          <ellipse id="Elipse_11480" data-name="Elipse 11480" cx="2.308" cy="2.32" rx="2.308" ry="2.32" transform="translate(24.002 5.564)" fill="#ff815c"/>
          <ellipse id="Elipse_11481" data-name="Elipse 11481" cx="2.308" cy="2.32" rx="2.308" ry="2.32" transform="translate(15.019 15.756)" fill="#ff815c"/>
          <ellipse id="Elipse_11482" data-name="Elipse 11482" cx="2.308" cy="2.32" rx="2.308" ry="2.32" transform="translate(36.012 21.676)" fill="#ff815c"/>
          <path id="Trazado_873656" data-name="Trazado 873656" d="M113.594,433.083a2.32,2.32,0,1,1,2.308-2.319A2.316,2.316,0,0,1,113.594,433.083Z" transform="translate(-100.765 -388.542)" fill="#ff815c"/>
          <path id="Trazado_873657" data-name="Trazado 873657" d="M381.257,434.386a2.32,2.32,0,1,1,2.308-2.319A2.316,2.316,0,0,1,381.257,434.386Z" transform="translate(-341.333 -389.714)" fill="#ff815c"/>
          <path id="Trazado_873658" data-name="Trazado 873658" d="M434.418,92.726a2.32,2.32,0,1,1,2.308-2.32A2.316,2.316,0,0,1,434.418,92.726Z" transform="translate(-389.112 -82.64)" fill="#ff815c"/>
          <path id="Trazado_873659" data-name="Trazado 873659" d="M376.534,38.92a2.32,2.32,0,1,1,2.308-2.32A2.316,2.316,0,0,1,376.534,38.92Z" transform="translate(-337.088 -34.281)" fill="#ff815c"/>
          <path id="Trazado_873660" data-name="Trazado 873660" d="M113.594,38.92A2.32,2.32,0,1,1,115.9,36.6,2.316,2.316,0,0,1,113.594,38.92Z" transform="translate(-100.765 -34.281)" fill="#ff815c"/>
          <ellipse id="Elipse_11483" data-name="Elipse 11483" cx="2.308" cy="2.32" rx="2.308" ry="2.32" transform="translate(0 16.951)" fill="#ff815c"/>
        </g>
      </g>
      <path id="Trazado_873661" data-name="Trazado 873661" d="M49.8,44.941a.75.75,0,0,0,.039-.095,25.1,25.1,0,0,0-1.466-22.407,3.077,3.077,0,0,0-3.659-4.778c-.531-.543-1.089-1.063-1.667-1.555a3.076,3.076,0,0,0-5.01-3.31,24.788,24.788,0,0,0-22.2.117,3.072,3.072,0,0,0-5.029,3.41,25.046,25.046,0,0,0-2.371,2.369c-.634.725.514,1.719,1.144,1a23.526,23.526,0,0,1,2.2-2.205,3.094,3.094,0,0,0,4.53-1.129A33.052,33.052,0,0,1,24.1,19.724a3.126,3.126,0,0,0,.229,2.234,34.932,34.932,0,0,0-5.374,5.834,3.1,3.1,0,0,0-3.669,1.664,47.357,47.357,0,0,0-9.53,1.024A3.1,3.1,0,0,0,4.55,29.248a23.246,23.246,0,0,1,2.784-6.515.76.76,0,0,0-1.289-.8,24.759,24.759,0,0,0-2.962,6.926A3.082,3.082,0,0,0,2.3,34.918a25.08,25.08,0,0,0,8.414,18.867,3.073,3.073,0,0,0,4.916,3.387,24.781,24.781,0,0,0,22.857,0,3.072,3.072,0,0,0,4.975-3.438A24.863,24.863,0,0,0,49.8,44.941Zm-.957-1.7A47.631,47.631,0,0,0,41.988,37.6a3.112,3.112,0,0,0-.769-3.128,47.446,47.446,0,0,0,4.827-10.96,3.037,3.037,0,0,0,1.083-.2A23.575,23.575,0,0,1,48.845,43.243ZM13.908,51.826a33.3,33.3,0,0,1,3.257-18.145,3.1,3.1,0,0,0,3.922-2.365A45.457,45.457,0,0,1,36.1,35.891a3.12,3.12,0,0,0,.5,2.6A45.833,45.833,0,0,1,16.168,53.243a3.069,3.069,0,0,0-2.26-1.417Zm23.61-15.165a1.56,1.56,0,1,1,1.549,1.56A1.556,1.556,0,0,1,37.518,36.661ZM47.6,20.431a1.56,1.56,0,1,1-1.549-1.56A1.556,1.556,0,0,1,47.6,20.431Zm-4.046-1.785a3.116,3.116,0,0,0,1.02,4.482A45.935,45.935,0,0,1,39.91,33.7a3.116,3.116,0,0,0-1.308-.084,35.216,35.216,0,0,0-8.82-11.659,3.122,3.122,0,0,0,.229-2.234,33.05,33.05,0,0,1,7.482-3.28,3.071,3.071,0,0,0,4.668.9q.723.622,1.395,1.3Zm-18.048,1.9a1.56,1.56,0,1,1,1.549,1.56A1.556,1.556,0,0,1,25.508,20.549Zm14.685-7.125a1.549,1.549,0,1,1-1.549,1.56A1.556,1.556,0,0,1,40.193,13.424Zm-26.618,3.12a1.549,1.549,0,1,1,1.549-1.56A1.556,1.556,0,0,1,13.576,16.545Zm3.065-1.677a3.082,3.082,0,0,0-.085-.614,23.264,23.264,0,0,1,20.7-.153,3.078,3.078,0,0,0-.129.868,34.573,34.573,0,0,0-7.869,3.438,3.092,3.092,0,0,0-4.4,0,34.575,34.575,0,0,0-8.217-3.539Zm8.7,8.228a3.078,3.078,0,0,0,3.441,0,33.689,33.689,0,0,1,8.428,11.119,3.1,3.1,0,0,0-.378.344,46.967,46.967,0,0,0-15.842-4.786,3.083,3.083,0,0,0-.725-1.19A33.4,33.4,0,0,1,25.336,23.1ZM18.074,29.18a1.549,1.549,0,1,1-1.549,1.56A1.556,1.556,0,0,1,18.074,29.18ZM1.506,31.935A1.56,1.56,0,1,1,3.055,33.5a1.556,1.556,0,0,1-1.549-1.56Zm2.31,2.983a3.015,3.015,0,0,0,2.306-2.963,85.615,85.615,0,0,1,8.895-.979,3.073,3.073,0,0,0,.852,1.9A34.82,34.82,0,0,0,12.4,52.041a3.072,3.072,0,0,0-.809.5,25.362,25.362,0,0,1-7.779-17.62Zm9.76,21.528a1.56,1.56,0,0,1,0-3.121,1.584,1.584,0,0,1,1.549,1.56A1.556,1.556,0,0,1,13.576,56.446Zm13.481,2.012A23.187,23.187,0,0,1,16.471,55.9a3.158,3.158,0,0,0,.165-1.213A47.346,47.346,0,0,0,37.772,39.451a3.061,3.061,0,0,0,1.456.284,33.526,33.526,0,0,1,.793,3.806.759.759,0,0,0,1.5-.222,35.044,35.044,0,0,0-.845-4.041,3.082,3.082,0,0,0,.5-.392,46.1,46.1,0,0,1,7.036,5.88,23.349,23.349,0,0,1-5.713,7.785,3.06,3.06,0,0,0-.8-.433,35.287,35.287,0,0,0,.192-4.246.759.759,0,0,0-1.518.023,33.766,33.766,0,0,1-.186,4.082,3.112,3.112,0,0,0-2.468,3.882,23.183,23.183,0,0,1-10.664,2.6Zm13.615-1.88a1.549,1.549,0,1,1,1.549-1.56A1.556,1.556,0,0,1,40.671,56.578Z" transform="translate(0)"/>
    </g>
  </g>
</svg>
