<svg xmlns="http://www.w3.org/2000/svg" width="36" height="36" viewBox="0 0 36 36">
  <g id="Grupo_1099276" data-name="Grupo 1099276" transform="translate(-0.5)">
    <circle id="Elipse_11467" data-name="Elipse 11467" cx="18" cy="18" r="18" transform="translate(0.5)" fill="#3a1d71"/>
    <path id="Trazado_884274" data-name="Trazado 884274" d="M-1.52-6.687h1.2a1.7,1.7,0,0,0,1.273-.43,1.574,1.574,0,0,0,.414-1.141,1.392,1.392,0,0,0-.41-1.07A1.59,1.59,0,0,0-.168-9.711a1.666,1.666,0,0,0-1.086.355,1.137,1.137,0,0,0-.437.926H-3.949a2.777,2.777,0,0,1,.48-1.6,3.2,3.2,0,0,1,1.344-1.105,4.485,4.485,0,0,1,1.9-.4,4.253,4.253,0,0,1,2.828.863A2.945,2.945,0,0,1,3.629-8.289a2.394,2.394,0,0,1-.477,1.438A3.1,3.1,0,0,1,1.9-5.844,2.826,2.826,0,0,1,3.336-4.812a2.8,2.8,0,0,1,.473,1.625A2.994,2.994,0,0,1,2.7-.758,4.445,4.445,0,0,1-.223.156a4.214,4.214,0,0,1-2.785-.9A2.934,2.934,0,0,1-4.09-3.117h2.258a1.308,1.308,0,0,0,.48,1.047,1.771,1.771,0,0,0,1.184.406A1.779,1.779,0,0,0,1.094-2.09a1.47,1.47,0,0,0,.457-1.129q0-1.7-1.875-1.7h-1.2Z" transform="translate(18.5 24)" fill="#fff"/>
  </g>
</svg>
