<svg xmlns="http://www.w3.org/2000/svg" xmlns:xlink="http://www.w3.org/1999/xlink" width="131.189" height="131.189" viewBox="0 0 131.189 131.189">
  <defs>
    <filter id="Trazado_849170" x="0" y="0" width="131.189" height="131.189" filterUnits="userSpaceOnUse">
      <feOffset dy="3" input="SourceAlpha"/>
      <feGaussianBlur stdDeviation="3" result="blur"/>
      <feFlood flood-opacity="0.161"/>
      <feComposite operator="in" in2="blur"/>
      <feComposite in="SourceGraphic"/>
    </filter>
    <filter id="Elipse_9683" x="5.755" y="6.715" width="117.76" height="117.76" filterUnits="userSpaceOnUse">
      <feOffset dy="3" input="SourceAlpha"/>
      <feGaussianBlur stdDeviation="3" result="blur-2"/>
      <feFlood flood-opacity="0.161"/>
      <feComposite operator="in" in2="blur-2"/>
      <feComposite in="SourceGraphic"/>
    </filter>
  </defs>
  <g id="Grupo_1099542" data-name="Grupo 1099542" transform="translate(-1045 -723)">
    <g id="Grupo_1099257" data-name="Grupo 1099257" transform="translate(620.298 0.067)">
      <g transform="matrix(1, 0, 0, 1, 424.7, 722.93)" filter="url(#Trazado_849170)">
        <path id="Trazado_849170-2" data-name="Trazado 849170" d="M56.594,0A56.594,56.594,0,1,1,0,56.594,56.594,56.594,0,0,1,56.594,0Z" transform="translate(9 6)" fill="#fff"/>
      </g>
      <g id="Grupo_1098208" data-name="Grupo 1098208" transform="translate(439.457 735.647)">
        <g transform="matrix(1, 0, 0, 1, -14.76, -12.71)" filter="url(#Elipse_9683)">
          <circle id="Elipse_9683-2" data-name="Elipse 9683" cx="49.88" cy="49.88" r="49.88" transform="translate(14.76 12.71)" fill="#debefb"/>
        </g>
      </g>
    </g>
    <g id="Page-1" transform="translate(1081 756)">
      <g id="_016---PC-and-Monitor" data-name="016---PC-and-Monitor">
        <path id="Shape" d="M45,19V44H1V19a4,4,0,0,1,4-4H41A4,4,0,0,1,45,19Z" fill="#02a9f4"/>
        <path id="Shape-2" data-name="Shape" d="M45,19V44H1V39.32C28.48,41.68,35.69,22.57,37.46,15H41A4,4,0,0,1,45,19Z" fill="#0377bc"/>
        <path id="Shape-3" data-name="Shape" d="M45,44v1a4,4,0,0,1-4,4H5a4,4,0,0,1-4-4V44Z" fill="#607d8b"/>
        <path id="Shape-4" data-name="Shape" d="M42,44v1a4,4,0,0,1-4,4h3a4,4,0,0,0,4-4V44Z" fill="#37474f"/>
        <path id="Rectangle-path" d="M17,49H29v6H17Z" fill="#607d8b"/>
        <path id="Rectangle-path-2" data-name="Rectangle-path" d="M26,49h3v6H26Z" fill="#37474f"/>
        <path id="Shape-5" data-name="Shape" d="M35,57a2,2,0,0,1-2,2H13a2,2,0,0,1,0-4H33A2,2,0,0,1,35,57Z" fill="#607d8b"/>
        <path id="Shape-6" data-name="Shape" d="M33,55H30a2,2,0,0,1,0,4h3a2,2,0,0,0,0-4Z" fill="#37474f"/>
        <path id="Shape-7" data-name="Shape" d="M5,24a1,1,0,0,1-.71-1.71l4-4a1,1,0,1,1,1.42,1.42l-4,4A1,1,0,0,1,5,24Z" fill="#f5f5f5"/>
        <path id="Shape-8" data-name="Shape" d="M5,30a1,1,0,0,1-.71-1.71l10-10a1,1,0,1,1,1.42,1.42l-10,10A1,1,0,0,1,5,30Z" fill="#f5f5f5"/>
        <path id="Shape-9" data-name="Shape" d="M59,3V57a2,2,0,0,1-2,2H33a2,2,0,0,0,0-4H29V49H41a4,4,0,0,0,4-4V19a4,4,0,0,0-4-4H29V3a2,2,0,0,1,2-2H57A2,2,0,0,1,59,3Z" fill="#3f51b5"/>
        <path id="Shape-10" data-name="Shape" d="M57,1H54a2,2,0,0,1,2,2V57a2,2,0,0,1-2,2h3a2,2,0,0,0,2-2V3A2,2,0,0,0,57,1Z" fill="#283593"/>
        <rect id="Rectangle-path-3" data-name="Rectangle-path" width="22" height="4" rx="1" transform="translate(33 6)" fill="#283593"/>
        <circle id="Oval" cx="2" cy="2" r="2" transform="translate(50 15)" fill="#ffeb3a"/>
        <circle id="Oval-2" data-name="Oval" cx="2" cy="2" r="2" transform="translate(50 23)" fill="#ffeb3a"/>
        <g id="Grupo_1099541" data-name="Grupo 1099541">
          <path id="Shape-11" data-name="Shape" d="M57,0H31a3,3,0,0,0-3,3V14H5a5,5,0,0,0-5,5V45a5,5,0,0,0,5,5H16v4H13a3,3,0,0,0,0,6H57a3,3,0,0,0,3-3V3A3,3,0,0,0,57,0ZM5,16H41a3,3,0,0,1,3,3V43H2V19A3,3,0,0,1,5,16ZM2,45H44a3,3,0,0,1-3,3H5A3,3,0,0,1,2,45Zm16,5H28v4H18Zm13,8H13a1,1,0,0,1,0-2H33a1,1,0,0,1,0,2Zm27-1a1,1,0,0,1-1,1H35.82A3,3,0,0,0,33,54H30V50H41a5,5,0,0,0,5-5V19a5,5,0,0,0-5-5H30V3a1,1,0,0,1,1-1H57a1,1,0,0,1,1,1Z"/>
          <path id="Shape-12" data-name="Shape" d="M54,5H34a2,2,0,0,0-2,2V9a2,2,0,0,0,2,2H54a2,2,0,0,0,2-2V7A2,2,0,0,0,54,5ZM34,9V7H54V9Z"/>
          <path id="Shape-13" data-name="Shape" d="M52,20a3,3,0,1,0-3-3A3,3,0,0,0,52,20Zm0-4a1,1,0,1,1-1,1A1,1,0,0,1,52,16Z"/>
          <path id="Shape-14" data-name="Shape" d="M55,25a3,3,0,1,0-3,3A3,3,0,0,0,55,25Zm-3,1a1,1,0,1,1,1-1A1,1,0,0,1,52,26Z"/>
          <path id="Shape-15" data-name="Shape" d="M39,52a1,1,0,0,0-1,1v2a1,1,0,0,0,2,0V53A1,1,0,0,0,39,52Z"/>
          <path id="Shape-16" data-name="Shape" d="M43,52a1,1,0,0,0-1,1v2a1,1,0,0,0,2,0V53A1,1,0,0,0,43,52Z"/>
          <path id="Shape-17" data-name="Shape" d="M47,52a1,1,0,0,0-1,1v2a1,1,0,0,0,2,0V53A1,1,0,0,0,47,52Z"/>
          <path id="Shape-18" data-name="Shape" d="M51,52a1,1,0,0,0-1,1v2a1,1,0,0,0,2,0V53A1,1,0,0,0,51,52Z"/>
          <path id="Shape-19" data-name="Shape" d="M55,52a1,1,0,0,0-1,1v2a1,1,0,0,0,2,0V53A1,1,0,0,0,55,52Z"/>
        </g>
      </g>
    </g>
  </g>
</svg>
