<svg xmlns="http://www.w3.org/2000/svg" width="76" height="76" viewBox="0 0 76 76">
  <g id="Grupo_1074185" data-name="Grupo 1074185" transform="translate(-2534 5800)">
    <circle id="Elipse_9665" data-name="Elipse 9665" cx="38" cy="38" r="38" transform="translate(2534 -5800)" fill="#f0c52c"/>
    <g id="pruebas" transform="translate(2543 -5785)">
      <path id="Trazado_826037" data-name="Trazado 826037" d="M133.017,126.193v-.927l.2-.039a.574.574,0,0,0,.469-.565v-2.008l.166-.048a10.578,10.578,0,0,0,2.12-.878l.151-.083,1.419,1.419a.575.575,0,0,0,.735.066,13.026,13.026,0,0,0,3.271-3.271.575.575,0,0,0-.065-.735l-1.419-1.421.083-.151a10.364,10.364,0,0,0,.878-2.118l.048-.166h2.007a.575.575,0,0,0,.566-.472,12.975,12.975,0,0,0,0-4.63.575.575,0,0,0-.566-.472h-2.008l-.048-.166a10.5,10.5,0,0,0-.877-2.117l-.083-.151,1.419-1.419a.575.575,0,0,0,.066-.735,12.991,12.991,0,0,0-3.271-3.274.575.575,0,0,0-.735.066l-1.419,1.419-.151-.083a10.574,10.574,0,0,0-2.12-.878l-.166-.048V100.3a.575.575,0,0,0-.472-.566l-.2-.038V98.322h39.128v27.871ZM149.9,113.544a.576.576,0,0,0-.575.575v9.187a.576.576,0,0,0,.575.575h9.187a.576.576,0,0,0,.575-.575v-9.187a.576.576,0,0,0-.575-.575Zm20.387,4.73v-1.151H161.9v1.151Zm0-3.58v-1.151H161.9v1.151ZM149.9,100.634a.576.576,0,0,0-.575.575v9.19a.576.576,0,0,0,.575.575h9.187a.576.576,0,0,0,.575-.575v-9.19a.576.576,0,0,0-.575-.575Zm20.387,4.73v-1.151H161.9v1.151Zm0-3.58v-1.151H161.9v1.151Z" transform="translate(-117.719 -93.864)" fill="#e9e9ff"/>
      <path id="Trazado_826038" data-name="Trazado 826038" d="M271.007,377.421h7.384v2.2h-7.384Z" transform="translate(-239.839 -340.864)" fill="#445ea0"/>
      <path id="Trazado_826039" data-name="Trazado 826039" d="M107.851,105.588A1.6,1.6,0,0,1,106.258,104v-2.276l.243.013c.249.014.491.021.721.021s.472-.007.721-.021l.243-.013v1.366a.576.576,0,0,0,.575.575h40.279a.576.576,0,0,0,.575-.575V74.064a.576.576,0,0,0-.575-.575H108.76a.576.576,0,0,0-.575.575v1.814l-.243-.013c-.24-.013-.483-.02-.723-.02s-.481.007-.719.02l-.243.013V73.155a1.6,1.6,0,0,1,1.593-1.593h42.1a1.6,1.6,0,0,1,1.593,1.593V104a1.6,1.6,0,0,1-1.593,1.593Z" transform="translate(-94.038 -70.182)" fill="#445ea0"/>
      <path id="Trazado_826040" data-name="Trazado 826040" d="M211.763,410.433v-1.948a1.954,1.954,0,0,1,1.951-1.951h17.112a1.953,1.953,0,0,1,1.951,1.951v1.948Z" transform="translate(-187.409 -366.629)" fill="#293d7c"/>
      <path id="Trazado_826041" data-name="Trazado 826041" d="M66.406,179.48a6.266,6.266,0,1,1,6.265-6.264A6.273,6.273,0,0,1,66.406,179.48Zm-.388-2.593,1.885-7.045-1.111-.3-1.885,7.045Zm-4.811-4.075a.575.575,0,0,0,0,.814l2.324,2.32.813-.814-1.917-1.913,1.917-1.917-.813-.813Zm8.075,3.127,2.32-2.324a.576.576,0,0,0,0-.813l-2.32-2.32-.813.813,1.914,1.914-1.914,1.917Z" transform="translate(-53.222 -154.597)" fill="#e9e9ff"/>
      <path id="Trazado_826042" data-name="Trazado 826042" d="M23.808,142.4a11.877,11.877,0,0,1-1.435-.087l-.2-.025v-1.97a.572.572,0,0,0-.447-.561,9.408,9.408,0,0,1-2.919-1.211.575.575,0,0,0-.713.08L16.7,140.016l-.16-.125a11.85,11.85,0,0,1-2.03-2.028l-.125-.16,1.393-1.4a.572.572,0,0,0,.079-.713,9.353,9.353,0,0,1-1.21-2.918.572.572,0,0,0-.561-.447H12.115l-.024-.2a12.174,12.174,0,0,1,0-2.868l.024-.2h1.969a.572.572,0,0,0,.561-.447,9.407,9.407,0,0,1,1.211-2.919.572.572,0,0,0-.08-.713l-1.392-1.392.125-.16a11.812,11.812,0,0,1,2.03-2.031l.16-.125,1.392,1.392a.575.575,0,0,0,.713.08,9.4,9.4,0,0,1,2.919-1.211.572.572,0,0,0,.447-.561V118.9l.2-.025a11.879,11.879,0,0,1,2.869,0l.2.025v1.97a.572.572,0,0,0,.447.561,9.413,9.413,0,0,1,2.922,1.211.575.575,0,0,0,.713-.08l1.392-1.392.16.126a11.856,11.856,0,0,1,2.027,2.03l.125.16-1.392,1.392a.572.572,0,0,0-.08.714,9.328,9.328,0,0,1,1.21,2.918.572.572,0,0,0,.561.447H35.5l.025.2a11.832,11.832,0,0,1,0,2.869l-.025.2h-1.97a.572.572,0,0,0-.561.449,9.2,9.2,0,0,1-1.209,2.915.572.572,0,0,0,.079.714l1.393,1.4-.125.16a11.885,11.885,0,0,1-2.027,2.027l-.16.126-1.392-1.392a.575.575,0,0,0-.713-.08,9.413,9.413,0,0,1-2.922,1.211.572.572,0,0,0-.447.561v1.97l-.2.025a11.843,11.843,0,0,1-1.435.087Zm0-19.221a7.417,7.417,0,1,0,7.415,7.418A7.427,7.427,0,0,0,23.809,123.175Z" transform="translate(-10.626 -111.975)" fill="#0cb4fb"/>
      <path id="Trazado_826043" data-name="Trazado 826043" d="M284.84,136.466v-8.04h8.036v8.04Zm2.527-1.835a.573.573,0,0,0,.436.227h.022a.576.576,0,0,0,.43-.194l3.638-4.1-.861-.763-3.173,3.58-1.114-1.468-.916.7Z" transform="translate(-252.081 -120.506)" fill="#43cb8e"/>
      <path id="Trazado_826044" data-name="Trazado 826044" d="M284.84,248.714v-8.036h8.036v8.036Zm2.46-1.646,1.558-1.558,1.558,1.558.813-.813-1.558-1.558,1.558-1.558-.813-.813-1.558,1.558-1.558-1.558-.813.813,1.558,1.558-1.558,1.558Z" transform="translate(-252.081 -219.848)" fill="#ed524e"/>
      <path id="Trazado_826045" data-name="Trazado 826045" d="M20.832,78.177a7.647,7.647,0,1,0-7.645,7.645A7.655,7.655,0,0,0,20.832,78.177Zm-13.683,0a6.036,6.036,0,1,1,6.038,6.034A6.045,6.045,0,0,1,7.149,78.177ZM52.8,67.709H43.949V66.1H52.8Zm3.11-8.15h-42.1a2.977,2.977,0,0,0-2.973,2.973V65.2l-.014,0a.805.805,0,0,0-.661.792V67.83a10.765,10.765,0,0,0-2.163.9l-1.3-1.3a.805.805,0,0,0-1.028-.092,13.181,13.181,0,0,0-3.333,3.333A.805.805,0,0,0,2.439,71.7l1.3,1.3a10.753,10.753,0,0,0-.9,2.163H1a.805.805,0,0,0-.792.661,13.415,13.415,0,0,0,0,4.712A.805.805,0,0,0,1,81.193H2.839a10.719,10.719,0,0,0,.9,2.164l-1.3,1.3a.805.805,0,0,0-.091,1.028A13.213,13.213,0,0,0,5.68,89.014a.8.8,0,0,0,1.028-.092l1.3-1.3a10.764,10.764,0,0,0,2.163.9v1.836a.805.805,0,0,0,.661.792l.014,0v2.221a2.977,2.977,0,0,0,2.973,2.973H29.79v1.738H26.309a3.336,3.336,0,0,0-3.332,3.332v2.523a.805.805,0,0,0,.805.805H45.948a.805.805,0,0,0,.805-.805v-2.523a3.336,3.336,0,0,0-3.332-3.332H39.936V96.346H55.914a2.977,2.977,0,0,0,2.973-2.973V62.532a2.976,2.976,0,0,0-2.973-2.973ZM11.152,87.114A9.171,9.171,0,0,1,8.3,85.933a.805.805,0,0,0-1,.112L6.058,87.294A11.593,11.593,0,0,1,4.068,85.3l1.249-1.251a.805.805,0,0,0,.111-1,9.128,9.128,0,0,1-1.181-2.846.805.805,0,0,0-.785-.626H1.7a11.941,11.941,0,0,1,0-2.813H3.462a.805.805,0,0,0,.785-.626A9.172,9.172,0,0,1,5.428,73.3a.805.805,0,0,0-.112-1L4.067,71.049a11.553,11.553,0,0,1,1.991-1.991l1.248,1.248a.805.805,0,0,0,1,.112,9.176,9.176,0,0,1,2.848-1.181.805.805,0,0,0,.626-.785V66.686a11.653,11.653,0,0,1,2.813,0v1.766a.805.805,0,0,0,.626.785,9.185,9.185,0,0,1,2.851,1.181.805.805,0,0,0,1-.112l1.248-1.248a11.6,11.6,0,0,1,1.988,1.99L21.055,72.3a.805.805,0,0,0-.111,1,9.1,9.1,0,0,1,1.18,2.846.805.805,0,0,0,.785.626h1.766a11.6,11.6,0,0,1,0,2.813H22.908a.805.805,0,0,0-.786.628,8.973,8.973,0,0,1-1.179,2.843.805.805,0,0,0,.11,1L22.3,85.3a11.631,11.631,0,0,1-1.988,1.988l-1.248-1.248a.805.805,0,0,0-1-.112,9.182,9.182,0,0,1-2.851,1.181.805.805,0,0,0-.626.785v1.766a11.653,11.653,0,0,1-2.813,0V87.9A.8.8,0,0,0,11.152,87.114Zm12.779-2.457-1.3-1.3a10.57,10.57,0,0,0,.9-2.165h1.834a.805.805,0,0,0,.792-.661,13.207,13.207,0,0,0,0-4.712.805.805,0,0,0-.792-.661H23.531a10.7,10.7,0,0,0-.9-2.163l1.3-1.3a.805.805,0,0,0,.092-1.028,13.22,13.22,0,0,0-3.328-3.332.805.805,0,0,0-1.029.092l-1.3,1.3a10.779,10.779,0,0,0-2.166-.9V65.994a.805.805,0,0,0-.661-.792l-.01,0v-.953H54.2V91.658H15.531v-.507l.01,0a.805.805,0,0,0,.661-.792V88.521a10.775,10.775,0,0,0,2.166-.9l1.3,1.3a.805.805,0,0,0,1.029.092,13.253,13.253,0,0,0,3.328-3.328A.8.8,0,0,0,23.932,84.657ZM43.421,99.694a1.723,1.723,0,0,1,1.721,1.721v1.718H24.587v-1.718a1.723,1.723,0,0,1,1.721-1.721H43.421ZM31.4,98.084V96.346h6.924v1.738Zm25.875-4.711a1.364,1.364,0,0,1-1.363,1.363h-42.1a1.364,1.364,0,0,1-1.363-1.363V91.34c.244.014.489.021.734.021s.489-.008.734-.021v1.123a.805.805,0,0,0,.805.805H55a.805.805,0,0,0,.805-.805V63.442A.805.805,0,0,0,55,62.636H14.726a.805.805,0,0,0-.805.805v1.571a13.365,13.365,0,0,0-1.467,0v-2.48a1.364,1.364,0,0,1,1.363-1.363h42.1a1.364,1.364,0,0,1,1.363,1.363V93.373ZM14.965,74.641l-2,7.489-1.556-.416,2-7.489ZM11.45,80.093l-1.138,1.14L7.826,78.751a.805.805,0,0,1,0-1.139l2.486-2.486,1.139,1.139L9.534,78.18Zm3.473-3.836,1.139-1.139L18.545,77.6a.805.805,0,0,1,0,1.138l-2.483,2.487-1.14-1.138,1.914-1.917Zm17.263.642h9.187a.805.805,0,0,0,.805-.805V66.9a.805.805,0,0,0-.805-.805H32.187a.805.805,0,0,0-.805.805v9.19A.805.805,0,0,0,32.187,76.9Zm.805-9.19h7.576v7.58H32.992ZM52.8,71.289H43.949V69.678H52.8ZM32.187,89.806h9.187A.805.805,0,0,0,42.179,89V79.814a.805.805,0,0,0-.805-.805H32.187a.805.805,0,0,0-.805.805V89A.805.805,0,0,0,32.187,89.806Zm.805-9.187h7.576V88.2H32.992Zm6.485,2.23-1.558,1.558,1.558,1.558L38.338,87.1,36.78,85.546,35.222,87.1l-1.139-1.139,1.558-1.558-1.558-1.558,1.139-1.139,1.558,1.558,1.558-1.558ZM52.8,80.619H43.949V79.009H52.8Zm0,3.58H43.949V82.588H52.8ZM38.935,68.525l1.205,1.068L36.349,73.87a.805.805,0,0,1-.6.271h-.031a.805.805,0,0,1-.611-.318l-1.677-2.21,1.283-.974,1.083,1.428Z" transform="translate(-0.003 -59.559)"/>
    </g>
  </g>
</svg>
