<svg xmlns="http://www.w3.org/2000/svg" width="36" height="36" viewBox="0 0 36 36">
  <g id="Grupo_1099279" data-name="Grupo 1099279" transform="translate(-0.5)">
    <circle id="Elipse_11467" data-name="Elipse 11467" cx="18" cy="18" r="18" transform="translate(0.5)" fill="#3a1d71"/>
    <path id="Trazado_884277" data-name="Trazado 884277" d="M2.309-11.492v1.859H2.09a3.836,3.836,0,0,0-2.465.8A3.238,3.238,0,0,0-1.5-6.687,3.075,3.075,0,0,1,.793-7.609,2.9,2.9,0,0,1,3.152-6.547a4.259,4.259,0,0,1,.875,2.8,4.19,4.19,0,0,1-.48,2.008,3.446,3.446,0,0,1-1.359,1.4A3.949,3.949,0,0,1,.2.156a3.689,3.689,0,0,1-2.9-1.25A4.852,4.852,0,0,1-3.809-4.43v-.812a7.3,7.3,0,0,1,.7-3.27,5.127,5.127,0,0,1,2.008-2.2,5.884,5.884,0,0,1,3.035-.785Zm-2.2,5.7A1.8,1.8,0,0,0-.887-5.5a1.715,1.715,0,0,0-.656.753v.686A3.04,3.04,0,0,0-1.1-2.3a1.439,1.439,0,0,0,1.25.635,1.423,1.423,0,0,0,1.176-.573,2.337,2.337,0,0,0,.449-1.485,2.333,2.333,0,0,0-.453-1.5A1.477,1.477,0,0,0,.105-5.789Z" transform="translate(18.5 24)" fill="#fff"/>
  </g>
</svg>
