<svg xmlns="http://www.w3.org/2000/svg" xmlns:xlink="http://www.w3.org/1999/xlink" width="315" height="290.466" viewBox="0 0 315 290.466">
  <defs>
    <clipPath id="clip-path">
      <rect id="Rectángulo_401474" data-name="Rectángulo 401474" width="102.297" height="190.248" fill="#f0c52c"/>
    </clipPath>
    <clipPath id="clip-path-2">
      <rect id="Rectángulo_401483" data-name="Rectángulo 401483" width="37.24" height="176.991" fill="#3a1d71" stroke="#3a1d71" stroke-width="1"/>
    </clipPath>
  </defs>
  <g id="Grupo_1099558" data-name="Grupo 1099558" transform="translate(-600 -1147)">
    <rect id="Rectángulo_401232" data-name="Rectángulo 401232" width="315" height="290" transform="translate(600 1147)" fill="#aec4fa"/>
    <g id="Grupo_1099554" data-name="Grupo 1099554" transform="translate(41 324.835)">
      <g id="Grupo_1099553" data-name="Grupo 1099553" transform="translate(570 845)">
        <g id="Grupo_1099555" data-name="Grupo 1099555">
          <g id="Grupo_1099547" data-name="Grupo 1099547">
            <g id="Grupo_1099556" data-name="Grupo 1099556">
              <g id="Grupo_1099545" data-name="Grupo 1099545" transform="translate(140.659 75.071)">
                <g id="Grupo_1099544" data-name="Grupo 1099544">
                  <g id="Grupo_1099543" data-name="Grupo 1099543" clip-path="url(#clip-path)">
                    <path id="Trazado_873870" data-name="Trazado 873870" d="M323.3,308.2h-102.3V117.954h91.715A10.581,10.581,0,0,1,323.3,128.536Z" transform="translate(-221.007 -117.953)" fill="#f0c52c"/>
                  </g>
                </g>
              </g>
              <path id="Trazado_873871" data-name="Trazado 873871" d="M49.293,311.57c-1.578-2.341-5.7-4.439-10.779-6.438-2.993-.991-5.995-1.875-8.862-2.781a158.635,158.635,0,0,1-15.469-5.808c.511.8.995,1.6,1.465,2.417,2.857,4.934,5.064,10.68,7.2,16.139,2.123,5.436,3.677,12.329,8.716,15.908,3.048,2.165,6.816,2.994,9.581,5.62a11.962,11.962,0,0,1,2.893,5.627,4.717,4.717,0,0,1,.291,1.056c.791,2.932,1.525,5.872,3.908,7.564,3.091,2.194,7.492,1.137,10.933,2.727,3.97,1.834,5.543,6.506,7.364,10.482s5.36,8.18,9.656,7.359l6.068-6.069.643-.643,6.068-6.069c.821-4.3-3.383-7.833-7.359-9.655s-8.647-3.394-10.482-7.364c-1.59-3.442-.533-7.842-2.727-10.933-3.128-4.407-10.526-3.174-14.247-7.093-3.01-3.171-2.415-8.421-4.858-12.047" transform="translate(-5.156 -107.81)" fill="#ecf2ff"/>
              <path id="Trazado_873872" data-name="Trazado 873872" d="M23.911,386.072c-2.236-.2-5.277-2.277-8.613-5.053-1.836-1.708-3.6-3.462-5.33-5.115A125.954,125.954,0,0,0,0,367.338c.751.052,1.5.08,2.246.1a94.7,94.7,0,0,0,14.006-1.157c4.6-.6,10-2.152,14.427-.008,2.676,1.3,4.7,3.607,7.585,4.53a9.513,9.513,0,0,0,5.031-.136,3.74,3.74,0,0,0,.848-.2c2.347-.57,4.678-1.183,6.769-.169,2.713,1.316,3.659,4.789,6.084,6.58,2.8,2.066,6.657,1.375,10.126,1.125s7.754.608,8.826,3.917l-1.91,6.553-.2.695-1.909,6.553c-2.681,2.215-6.757.638-9.548-1.438s-5.676-4.731-9.146-4.491c-3.008.207-5.672,2.629-8.667,2.282-4.269-.5-6.24-6.125-10.4-7.221-3.362-.886-6.8,1.538-10.259,1.222" transform="translate(0 -132.76)" fill="#d6e1fd"/>
              <path id="Trazado_873873" data-name="Trazado 873873" d="M283.35,300.254c1.829-2.714,6.609-5.146,12.5-7.462,3.469-1.149,6.948-2.173,10.272-3.224a183.616,183.616,0,0,0,17.932-6.732c-.592.923-1.153,1.859-1.7,2.8-3.311,5.719-5.869,12.38-8.341,18.708-2.461,6.3-4.263,14.291-10.1,18.44-3.534,2.509-7.9,3.471-11.107,6.515-1.79,1.7-2.652,4.063-3.353,6.524a5.43,5.43,0,0,0-.338,1.224c-.917,3.4-1.768,6.807-4.53,8.768-3.584,2.543-8.685,1.317-12.674,3.161-4.6,2.126-6.425,7.542-8.537,12.15s-6.213,9.482-11.192,8.531l-7.035-7.035-.746-.746-7.035-7.035c-.951-4.98,3.922-9.081,8.53-11.193s10.024-3.935,12.151-8.537c1.844-3.989.617-9.09,3.161-12.674,3.626-5.108,12.2-3.679,16.515-8.222,3.49-3.675,2.8-9.762,5.631-13.965" transform="translate(-86.25 -102.826)" fill="#7bd1cc"/>
              <path id="Trazado_873874" data-name="Trazado 873874" d="M303.415,389.5c2.236-.2,5.277-2.277,8.613-5.053,1.835-1.708,3.6-3.462,5.33-5.115a125.941,125.941,0,0,1,9.968-8.565c-.751.052-1.5.08-2.246.1a94.709,94.709,0,0,1-14.006-1.157c-4.6-.6-10-2.152-14.427-.008-2.676,1.3-4.7,3.607-7.585,4.53a9.513,9.513,0,0,1-5.031-.136,3.74,3.74,0,0,1-.848-.2c-2.347-.57-4.678-1.183-6.769-.169-2.713,1.316-3.659,4.789-6.084,6.58-2.8,2.066-6.657,1.375-10.126,1.125s-7.754.608-8.826,3.917l1.909,6.553.2.7,1.909,6.553c2.681,2.215,6.757.638,9.548-1.438s5.676-4.731,9.146-4.491c3.008.207,5.672,2.629,8.667,2.282,4.269-.5,6.24-6.125,10.4-7.221,3.362-.886,6.8,1.538,10.259,1.222" transform="translate(-91.389 -134.005)" fill="#40b5ac"/>
              <circle id="Elipse_11490" data-name="Elipse 11490" cx="3.743" cy="3.743" r="3.743" transform="matrix(0.526, -0.851, 0.851, 0.526, 20.89, 49.251)" fill="none" stroke="#230b19" stroke-linecap="round" stroke-linejoin="round" stroke-width="0.98"/>
              <circle id="Elipse_11491" data-name="Elipse 11491" cx="3.743" cy="3.743" r="3.743" transform="matrix(0.526, -0.851, 0.851, 0.526, 25.568, 124.11)" fill="none" stroke="#230b19" stroke-linecap="round" stroke-linejoin="round" stroke-width="0.98"/>
              <circle id="Elipse_11492" data-name="Elipse 11492" cx="3.743" cy="3.743" r="3.743" transform="matrix(0.526, -0.851, 0.851, 0.526, 141.6, 21.179)" fill="none" stroke="#230b19" stroke-linecap="round" stroke-linejoin="round" stroke-width="0.98"/>
              <circle id="Elipse_11493" data-name="Elipse 11493" cx="3.743" cy="3.743" r="3.743" transform="translate(271.929 79.696) rotate(-22.5)" fill="none" stroke="#230b19" stroke-linecap="round" stroke-linejoin="round" stroke-width="0.98"/>
              <circle id="Elipse_11494" data-name="Elipse 11494" cx="3.743" cy="3.743" r="3.743" transform="translate(269.121 2.029) rotate(-22.5)" fill="none" stroke="#230b19" stroke-linecap="round" stroke-linejoin="round" stroke-width="0.98"/>
              <path id="Trazado_873875" data-name="Trazado 873875" d="M69.654,3.832A1.871,1.871,0,1,1,67.782,1.96,1.872,1.872,0,0,1,69.654,3.832Z" transform="translate(-23.962 -0.713)" fill="none" stroke="#230b19" stroke-linecap="round" stroke-linejoin="round" stroke-width="0.98"/>
              <path id="Trazado_873876" data-name="Trazado 873876" d="M459.272,231.722a1.871,1.871,0,1,1-1.872-1.872A1.872,1.872,0,0,1,459.272,231.722Z" transform="translate(-165.61 -83.563)" fill="none" stroke="#230b19" stroke-linecap="round" stroke-linejoin="round" stroke-width="0.98"/>
              <path id="Trazado_873877" data-name="Trazado 873877" d="M18.195,343.461a1.871,1.871,0,1,1-1.872-1.872A1.872,1.872,0,0,1,18.195,343.461Z" transform="translate(-5.254 -124.186)" fill="none" stroke="#230b19" stroke-linecap="round" stroke-linejoin="round" stroke-width="0.98"/>
              <path id="Trazado_873878" data-name="Trazado 873878" d="M22.606,259.657a1.871,1.871,0,1,1-1.872-1.872A1.872,1.872,0,0,1,22.606,259.657Z" transform="translate(-6.858 -93.719)" fill="none" stroke="#230b19" stroke-linecap="round" stroke-linejoin="round" stroke-width="0.98"/>
              <path id="Trazado_873879" data-name="Trazado 873879" d="M25.848,36.879a2.573,2.573,0,1,1-2.573-2.573,2.573,2.573,0,0,1,2.573,2.573" transform="translate(-7.526 -12.472)" fill="#230b19"/>
              <path id="Trazado_873880" data-name="Trazado 873880" d="M39.08,230.219a2.573,2.573,0,1,1-2.573-2.573,2.573,2.573,0,0,1,2.573,2.573" transform="translate(-12.337 -82.762)" fill="#230b19"/>
              <path id="Trazado_873881" data-name="Trazado 873881" d="M226.171,62.241a2.573,2.573,0,1,1-2.573-2.573,2.573,2.573,0,0,1,2.573,2.573" transform="translate(-80.355 -21.693)" fill="#230b19"/>
              <path id="Trazado_873882" data-name="Trazado 873882" d="M444.871,173.981a2.573,2.573,0,1,1-2.573-2.573,2.573,2.573,0,0,1,2.573,2.573" transform="translate(-159.864 -62.316)" fill="#230b19"/>
              <rect id="Rectángulo_401475" data-name="Rectángulo 401475" width="95.032" height="45.015" transform="translate(69.756 130.003)" fill="#2d1a14"/>
              <line id="Línea_678" data-name="Línea 678" y1="43.939" transform="translate(96.193 130.365)" fill="none" stroke="#fff8f3" stroke-linecap="round" stroke-linejoin="round" stroke-width="1.684"/>
              <line id="Línea_679" data-name="Línea 679" x2="67.522" transform="translate(96.908 146.08)" fill="none" stroke="#fff8f3" stroke-linecap="round" stroke-linejoin="round" stroke-width="1.684"/>
              <path id="Trazado_873883" data-name="Trazado 873883" d="M186.506,230.648l3.215,3.215h24.651l2.858-3.215" transform="translate(-67.805 -83.853)" fill="none" stroke="#fff8f3" stroke-linecap="round" stroke-linejoin="round" stroke-width="1.684"/>
              <line id="Línea_680" data-name="Línea 680" x2="67.522" transform="translate(96.729 158.227)" fill="none" stroke="#fff8f3" stroke-linecap="round" stroke-linejoin="round" stroke-width="1.684"/>
              <path id="Trazado_873884" data-name="Trazado 873884" d="M186.225,249.733l3.215,3.215h24.651l2.858-3.215" transform="translate(-67.703 -90.792)" fill="none" stroke="#fff8f3" stroke-linecap="round" stroke-linejoin="round" stroke-width="1.684"/>
              <path id="Trazado_873885" data-name="Trazado 873885" d="M173.651,215.561a2.827,2.827,0,1,1-2.826-2.826,2.826,2.826,0,0,1,2.826,2.826" transform="translate(-61.076 -77.341)" fill="#f3725f"/>
              <path id="Trazado_873886" data-name="Trazado 873886" d="M184.5,216.287a1.556,1.556,0,1,1-1.555-1.555,1.555,1.555,0,0,1,1.555,1.555" transform="translate(-65.946 -78.067)" fill="#ffbd51"/>
              <path id="Trazado_873887" data-name="Trazado 873887" d="M194.025,216.287a1.556,1.556,0,1,1-1.555-1.555,1.555,1.555,0,0,1,1.555,1.555" transform="translate(-69.407 -78.067)" fill="#ffbd51"/>
              <path id="Trazado_873888" data-name="Trazado 873888" d="M203.659,216.287a1.556,1.556,0,1,1-1.555-1.555,1.555,1.555,0,0,1,1.555,1.555" transform="translate(-72.91 -78.067)" fill="#ffbd51"/>
              <path id="Trazado_873889" data-name="Trazado 873889" d="M212.8,216.287a1.556,1.556,0,1,1-1.555-1.555,1.555,1.555,0,0,1,1.555,1.555" transform="translate(-76.232 -78.067)" fill="#ffbd51"/>
              <path id="Trazado_873890" data-name="Trazado 873890" d="M238.066,212.679h-17a.887.887,0,0,1,0-1.774h17a.887.887,0,0,1,0,1.774" transform="translate(-80.048 -76.676)" fill="#8ddae2"/>
              <path id="Trazado_873891" data-name="Trazado 873891" d="M238.066,219.414h-17a.887.887,0,0,1,0-1.774h17a.887.887,0,0,1,0,1.774" transform="translate(-80.048 -79.124)" fill="#8ddae2"/>
              <path id="Trazado_873892" data-name="Trazado 873892" d="M173.514,264.959a2.827,2.827,0,1,1-2.826-2.826,2.826,2.826,0,0,1,2.826,2.826" transform="translate(-61.026 -95.3)" fill="#f3725f"/>
              <path id="Trazado_873893" data-name="Trazado 873893" d="M184.367,265.685a1.556,1.556,0,1,1-1.555-1.555,1.555,1.555,0,0,1,1.555,1.555" transform="translate(-65.896 -96.026)" fill="#ffbd51"/>
              <path id="Trazado_873894" data-name="Trazado 873894" d="M193.889,265.685a1.556,1.556,0,1,1-1.555-1.555,1.555,1.555,0,0,1,1.555,1.555" transform="translate(-69.358 -96.026)" fill="#ffbd51"/>
              <path id="Trazado_873895" data-name="Trazado 873895" d="M203.523,265.685a1.556,1.556,0,1,1-1.555-1.555,1.555,1.555,0,0,1,1.555,1.555" transform="translate(-72.86 -96.026)" fill="#ffbd51"/>
              <path id="Trazado_873896" data-name="Trazado 873896" d="M212.66,265.685a1.556,1.556,0,1,1-1.555-1.555,1.555,1.555,0,0,1,1.555,1.555" transform="translate(-76.182 -96.026)" fill="#ffbd51"/>
              <path id="Trazado_873897" data-name="Trazado 873897" d="M237.93,262.077h-17a.887.887,0,0,1,0-1.774h17a.887.887,0,0,1,0,1.774" transform="translate(-79.998 -94.634)" fill="#8ddae2"/>
              <path id="Trazado_873898" data-name="Trazado 873898" d="M237.93,268.812h-17a.887.887,0,0,1,0-1.774h17a.887.887,0,0,1,0,1.774" transform="translate(-79.998 -97.083)" fill="#8ddae2"/>
              <rect id="Rectángulo_401476" data-name="Rectángulo 401476" width="95.032" height="45.015" transform="translate(69.756 174.777)" fill="#2d1a14"/>
              <line id="Línea_681" data-name="Línea 681" y1="43.939" transform="translate(96.193 175.139)" fill="none" stroke="#fff8f3" stroke-linecap="round" stroke-linejoin="round" stroke-width="1.684"/>
              <line id="Línea_682" data-name="Línea 682" x2="67.522" transform="translate(96.908 190.854)" fill="none" stroke="#fff8f3" stroke-linecap="round" stroke-linejoin="round" stroke-width="1.684"/>
              <path id="Trazado_873899" data-name="Trazado 873899" d="M186.506,301l3.215,3.215h24.651L217.23,301" transform="translate(-67.805 -109.429)" fill="none" stroke="#fff8f3" stroke-linecap="round" stroke-linejoin="round" stroke-width="1.684"/>
              <line id="Línea_683" data-name="Línea 683" x2="67.522" transform="translate(96.729 203.001)" fill="none" stroke="#fff8f3" stroke-linecap="round" stroke-linejoin="round" stroke-width="1.684"/>
              <path id="Trazado_873900" data-name="Trazado 873900" d="M186.225,320.084l3.215,3.215h24.651l2.858-3.215" transform="translate(-67.703 -116.368)" fill="none" stroke="#fff8f3" stroke-linecap="round" stroke-linejoin="round" stroke-width="1.684"/>
              <path id="Trazado_873901" data-name="Trazado 873901" d="M173.651,285.911a2.827,2.827,0,1,1-2.826-2.826,2.826,2.826,0,0,1,2.826,2.826" transform="translate(-61.076 -102.917)" fill="#f3725f"/>
              <path id="Trazado_873902" data-name="Trazado 873902" d="M184.5,286.637a1.556,1.556,0,1,1-1.555-1.555,1.555,1.555,0,0,1,1.555,1.555" transform="translate(-65.946 -103.643)" fill="#ffbd51"/>
              <path id="Trazado_873903" data-name="Trazado 873903" d="M194.025,286.637a1.556,1.556,0,1,1-1.555-1.555,1.555,1.555,0,0,1,1.555,1.555" transform="translate(-69.407 -103.643)" fill="#ffbd51"/>
              <path id="Trazado_873904" data-name="Trazado 873904" d="M203.659,286.637a1.556,1.556,0,1,1-1.555-1.555,1.555,1.555,0,0,1,1.555,1.555" transform="translate(-72.91 -103.643)" fill="#ffbd51"/>
              <path id="Trazado_873905" data-name="Trazado 873905" d="M212.8,286.637a1.556,1.556,0,1,1-1.555-1.555,1.555,1.555,0,0,1,1.555,1.555" transform="translate(-76.232 -103.643)" fill="#ffbd51"/>
              <path id="Trazado_873906" data-name="Trazado 873906" d="M238.066,283.029h-17a.887.887,0,0,1,0-1.774h17a.887.887,0,0,1,0,1.774" transform="translate(-80.048 -102.252)" fill="#8ddae2"/>
              <path id="Trazado_873907" data-name="Trazado 873907" d="M238.066,289.764h-17a.887.887,0,0,1,0-1.774h17a.887.887,0,0,1,0,1.774" transform="translate(-80.048 -104.7)" fill="#8ddae2"/>
              <path id="Trazado_873908" data-name="Trazado 873908" d="M173.514,335.309a2.827,2.827,0,1,1-2.826-2.826,2.826,2.826,0,0,1,2.826,2.826" transform="translate(-61.026 -120.876)" fill="#f3725f"/>
              <path id="Trazado_873909" data-name="Trazado 873909" d="M184.367,336.035a1.556,1.556,0,1,1-1.555-1.555,1.555,1.555,0,0,1,1.555,1.555" transform="translate(-65.896 -121.602)" fill="#ffbd51"/>
              <path id="Trazado_873910" data-name="Trazado 873910" d="M193.889,336.035a1.556,1.556,0,1,1-1.555-1.555,1.555,1.555,0,0,1,1.555,1.555" transform="translate(-69.358 -121.602)" fill="#ffbd51"/>
              <path id="Trazado_873911" data-name="Trazado 873911" d="M203.523,336.035a1.556,1.556,0,1,1-1.555-1.555,1.555,1.555,0,0,1,1.555,1.555" transform="translate(-72.86 -121.602)" fill="#ffbd51"/>
              <path id="Trazado_873912" data-name="Trazado 873912" d="M212.66,336.035a1.556,1.556,0,1,1-1.555-1.555,1.555,1.555,0,0,1,1.555,1.555" transform="translate(-76.182 -121.602)" fill="#ffbd51"/>
              <path id="Trazado_873913" data-name="Trazado 873913" d="M237.93,332.427h-17a.887.887,0,0,1,0-1.774h17a.887.887,0,0,1,0,1.774" transform="translate(-79.998 -120.211)" fill="#8ddae2"/>
              <path id="Trazado_873914" data-name="Trazado 873914" d="M237.93,339.162h-17a.887.887,0,0,1,0-1.774h17a.887.887,0,0,1,0,1.774" transform="translate(-79.998 -122.659)" fill="#8ddae2"/>
              <rect id="Rectángulo_401477" data-name="Rectángulo 401477" width="95.032" height="45.015" transform="translate(69.756 219.265)" fill="#2d1a14"/>
              <line id="Línea_684" data-name="Línea 684" y1="43.939" transform="translate(96.193 219.627)" fill="none" stroke="#fff8f3" stroke-linecap="round" stroke-linejoin="round" stroke-width="1.684"/>
              <line id="Línea_685" data-name="Línea 685" x2="67.522" transform="translate(96.908 235.342)" fill="none" stroke="#fff8f3" stroke-linecap="round" stroke-linejoin="round" stroke-width="1.684"/>
              <path id="Trazado_873915" data-name="Trazado 873915" d="M186.506,370.9l3.215,3.215h24.651l2.858-3.215" transform="translate(-67.805 -134.842)" fill="none" stroke="#fff8f3" stroke-linecap="round" stroke-linejoin="round" stroke-width="1.684"/>
              <line id="Línea_686" data-name="Línea 686" x2="67.522" transform="translate(96.729 247.489)" fill="none" stroke="#fff8f3" stroke-linecap="round" stroke-linejoin="round" stroke-width="1.684"/>
              <path id="Trazado_873916" data-name="Trazado 873916" d="M186.225,389.984l3.215,3.215h24.651l2.858-3.215" transform="translate(-67.703 -141.781)" fill="none" stroke="#fff8f3" stroke-linecap="round" stroke-linejoin="round" stroke-width="1.684"/>
              <path id="Trazado_873917" data-name="Trazado 873917" d="M173.651,355.812a2.827,2.827,0,1,1-2.826-2.826,2.826,2.826,0,0,1,2.826,2.826" transform="translate(-61.076 -128.33)" fill="#f3725f"/>
              <path id="Trazado_873918" data-name="Trazado 873918" d="M184.5,356.538a1.556,1.556,0,1,1-1.555-1.555,1.555,1.555,0,0,1,1.555,1.555" transform="translate(-65.946 -129.056)" fill="#ffbd51"/>
              <path id="Trazado_873919" data-name="Trazado 873919" d="M194.025,356.538a1.556,1.556,0,1,1-1.555-1.555,1.555,1.555,0,0,1,1.555,1.555" transform="translate(-69.407 -129.056)" fill="#ffbd51"/>
              <path id="Trazado_873920" data-name="Trazado 873920" d="M203.659,356.538a1.556,1.556,0,1,1-1.555-1.555,1.555,1.555,0,0,1,1.555,1.555" transform="translate(-72.91 -129.056)" fill="#ffbd51"/>
              <path id="Trazado_873921" data-name="Trazado 873921" d="M212.8,356.538a1.556,1.556,0,1,1-1.555-1.555,1.555,1.555,0,0,1,1.555,1.555" transform="translate(-76.232 -129.056)" fill="#ffbd51"/>
              <path id="Trazado_873922" data-name="Trazado 873922" d="M238.066,352.93h-17a.887.887,0,0,1,0-1.774h17a.887.887,0,0,1,0,1.774" transform="translate(-80.048 -127.665)" fill="#8ddae2"/>
              <path id="Trazado_873923" data-name="Trazado 873923" d="M238.066,359.665h-17a.887.887,0,0,1,0-1.774h17a.887.887,0,0,1,0,1.774" transform="translate(-80.048 -130.113)" fill="#8ddae2"/>
              <path id="Trazado_873924" data-name="Trazado 873924" d="M173.514,405.21a2.827,2.827,0,1,1-2.826-2.826,2.826,2.826,0,0,1,2.826,2.826" transform="translate(-61.026 -146.289)" fill="#f3725f"/>
              <path id="Trazado_873925" data-name="Trazado 873925" d="M184.367,405.936a1.556,1.556,0,1,1-1.555-1.555,1.555,1.555,0,0,1,1.555,1.555" transform="translate(-65.896 -147.015)" fill="#ffbd51"/>
              <path id="Trazado_873926" data-name="Trazado 873926" d="M193.889,405.936a1.556,1.556,0,1,1-1.555-1.555,1.555,1.555,0,0,1,1.555,1.555" transform="translate(-69.358 -147.015)" fill="#ffbd51"/>
              <path id="Trazado_873927" data-name="Trazado 873927" d="M203.523,405.936a1.556,1.556,0,1,1-1.555-1.555,1.555,1.555,0,0,1,1.555,1.555" transform="translate(-72.86 -147.015)" fill="#ffbd51"/>
              <path id="Trazado_873928" data-name="Trazado 873928" d="M212.66,405.936a1.556,1.556,0,1,1-1.555-1.555,1.555,1.555,0,0,1,1.555,1.555" transform="translate(-76.182 -147.015)" fill="#ffbd51"/>
              <path id="Trazado_873929" data-name="Trazado 873929" d="M237.93,402.328h-17a.887.887,0,0,1,0-1.774h17a.887.887,0,0,1,0,1.774" transform="translate(-79.998 -145.623)" fill="#8ddae2"/>
              <path id="Trazado_873930" data-name="Trazado 873930" d="M237.93,409.063h-17a.887.887,0,0,1,0-1.774h17a.887.887,0,0,1,0,1.774" transform="translate(-79.998 -148.072)" fill="#8ddae2"/>
              <path id="Trazado_873931" data-name="Trazado 873931" d="M111.487,295.2h.2a11.062,11.062,0,0,1,11.062,11.063v29.483a6.758,6.758,0,0,1,6.758,6.758v30.409" transform="translate(-40.532 -107.321)" fill="none" stroke="#fff8f3" stroke-linecap="round" stroke-linejoin="round" stroke-width="1.684"/>
              <path id="Trazado_873932" data-name="Trazado 873932" d="M103.456,219.695H94.078a8.361,8.361,0,0,0-8.36,8.361V345.973" transform="translate(-31.163 -79.871)" fill="none" stroke="#2d1a14" stroke-linecap="round" stroke-linejoin="round" stroke-width="1.327"/>
              <path id="Trazado_873933" data-name="Trazado 873933" d="M98.631,241.593H76.2a8.394,8.394,0,0,0-8.395,8.395v82.241a8.612,8.612,0,0,0,8.612,8.612h22.64" transform="translate(-24.649 -87.832)" fill="none" stroke="#2d1a14" stroke-linecap="round" stroke-linejoin="round" stroke-width="1.327"/>
              <path id="Trazado_873934" data-name="Trazado 873934" d="M109.548,253.538h-3.592a6.966,6.966,0,0,0-6.967,6.966v68a6.966,6.966,0,0,0,6.967,6.966H112.5" transform="translate(-35.988 -92.175)" fill="none" stroke="#2d1a14" stroke-linecap="round" stroke-linejoin="round" stroke-width="1.327"/>
              <line id="Línea_687" data-name="Línea 687" y2="155.969" transform="translate(169.975 76.318)" fill="none" stroke="#2d1a14" stroke-linecap="round" stroke-linejoin="round" stroke-width="0.791"/>
              <path id="Trazado_873935" data-name="Trazado 873935" d="M335.681,141.868v13.1a3.528,3.528,0,0,1-3.736,3.274H329.81a3.528,3.528,0,0,1-3.736-3.274,3.528,3.528,0,0,0-3.736-3.275H302.595a3.528,3.528,0,0,0-3.736,3.275,3.528,3.528,0,0,1-3.736,3.274h-3.736a3.528,3.528,0,0,1-3.736-3.274v-13.1a3.528,3.528,0,0,1,3.736-3.275h40.558A3.528,3.528,0,0,1,335.681,141.868Z" transform="translate(-104.577 -50.386)" fill="none" stroke="#2d1a14" stroke-linecap="round" stroke-linejoin="round" stroke-width="0.791"/>
              <path id="Trazado_873936" data-name="Trazado 873936" d="M302.555,150.139a2.881,2.881,0,1,1,2.963-2.88,2.923,2.923,0,0,1-2.963,2.88" transform="translate(-108.918 -52.49)" fill="#ffbd51"/>
              <path id="Trazado_873937" data-name="Trazado 873937" d="M322.871,150.55a2.881,2.881,0,1,1,2.963-2.88,2.923,2.923,0,0,1-2.963,2.88" transform="translate(-116.304 -52.639)" fill="#ffbd51"/>
              <path id="Trazado_873938" data-name="Trazado 873938" d="M343.61,150.139a2.881,2.881,0,1,1,2.963-2.88,2.923,2.923,0,0,1-2.963,2.88" transform="translate(-123.844 -52.49)" fill="#ffbd51"/>
              <path id="Trazado_873939" data-name="Trazado 873939" d="M335.681,187.009v13.1a3.528,3.528,0,0,1-3.736,3.275H329.81a3.528,3.528,0,0,1-3.736-3.275,3.528,3.528,0,0,0-3.736-3.275H302.595a3.528,3.528,0,0,0-3.736,3.275,3.528,3.528,0,0,1-3.736,3.275h-3.736a3.528,3.528,0,0,1-3.736-3.275v-13.1a3.528,3.528,0,0,1,3.736-3.275h40.558A3.528,3.528,0,0,1,335.681,187.009Z" transform="translate(-104.577 -66.797)" fill="none" stroke="#2d1a14" stroke-linecap="round" stroke-linejoin="round" stroke-width="0.791"/>
              <path id="Trazado_873940" data-name="Trazado 873940" d="M302.555,195.279a2.881,2.881,0,1,1,2.963-2.88,2.923,2.923,0,0,1-2.963,2.88" transform="translate(-108.918 -68.901)" fill="#ffbd51"/>
              <path id="Trazado_873941" data-name="Trazado 873941" d="M322.871,195.69a2.881,2.881,0,1,1,2.963-2.88,2.923,2.923,0,0,1-2.963,2.88" transform="translate(-116.304 -69.05)" fill="#ffbd51"/>
              <path id="Trazado_873942" data-name="Trazado 873942" d="M343.61,195.279a2.881,2.881,0,1,1,2.963-2.88,2.923,2.923,0,0,1-2.963,2.88" transform="translate(-123.844 -68.901)" fill="#ffbd51"/>
              <path id="Trazado_873943" data-name="Trazado 873943" d="M335.681,231.11v13.1a3.528,3.528,0,0,1-3.736,3.275H329.81a3.528,3.528,0,0,1-3.736-3.275,3.528,3.528,0,0,0-3.736-3.275H302.595a3.528,3.528,0,0,0-3.736,3.275,3.528,3.528,0,0,1-3.736,3.275h-3.736a3.528,3.528,0,0,1-3.736-3.275v-13.1a3.528,3.528,0,0,1,3.736-3.275h40.558A3.528,3.528,0,0,1,335.681,231.11Z" transform="translate(-104.577 -82.831)" fill="none" stroke="#2d1a14" stroke-linecap="round" stroke-linejoin="round" stroke-width="0.791"/>
              <path id="Trazado_873944" data-name="Trazado 873944" d="M302.555,239.38a2.881,2.881,0,1,1,2.963-2.88,2.923,2.923,0,0,1-2.963,2.88" transform="translate(-108.918 -84.934)" fill="#ffbd51"/>
              <path id="Trazado_873945" data-name="Trazado 873945" d="M322.871,239.791a2.881,2.881,0,1,1,2.963-2.88,2.923,2.923,0,0,1-2.963,2.88" transform="translate(-116.304 -85.083)" fill="#ffbd51"/>
              <path id="Trazado_873946" data-name="Trazado 873946" d="M343.61,239.38a2.881,2.881,0,1,1,2.963-2.88,2.923,2.923,0,0,1-2.963,2.88" transform="translate(-123.844 -84.934)" fill="#ffbd51"/>
              <path id="Trazado_873947" data-name="Trazado 873947" d="M221.007,135.6h0a9.981,9.981,0,0,1,9.98,9.98v10.314A11.517,11.517,0,0,0,242.5,167.407h7.818" transform="translate(-80.348 -49.296)" fill="none" stroke="#2d1a14" stroke-linecap="round" stroke-linejoin="round" stroke-width="0.791"/>
              <line id="Línea_688" data-name="Línea 688" y1="26.206" transform="translate(186.176 240.742)" fill="none" stroke="#2d1a14" stroke-linecap="round" stroke-linejoin="round" stroke-width="1.267"/>
              <path id="Trazado_873948" data-name="Trazado 873948" d="M292.809,324.942h0a1.415,1.415,0,0,1-1.411-1.411V312.243a1.411,1.411,0,1,1,2.822,0v11.289a1.415,1.415,0,0,1-1.411,1.411" transform="translate(-105.939 -113.004)" fill="#bfb8ff"/>
              <path id="Trazado_873949" data-name="Trazado 873949" d="M289.952,366.921h0a5.257,5.257,0,0,1-5.241-5.241V342.327a5.241,5.241,0,0,1,10.482,0v19.352a5.257,5.257,0,0,1-5.241,5.241" transform="translate(-103.508 -122.549)" fill="#f3725f"/>
              <path id="Trazado_873950" data-name="Trazado 873950" d="M292.429,342.271h0a2.021,2.021,0,0,1-2.016-2.016V328.966a2.016,2.016,0,1,1,4.031,0v11.289a2.021,2.021,0,0,1-2.016,2.016" transform="translate(-105.581 -118.864)" fill="#f3725f"/>
              <rect id="Rectángulo_401478" data-name="Rectángulo 401478" width="4.838" height="13.305" transform="translate(183.622 237.92)" fill="#f3725f"/>
              <line id="Línea_689" data-name="Línea 689" x2="10.214" transform="translate(181.321 224.978)" fill="none" stroke="#2d1a14" stroke-linecap="round" stroke-linejoin="round" stroke-width="1.267"/>
              <line id="Línea_690" data-name="Línea 690" x2="10.214" transform="translate(181.321 230.175)" fill="none" stroke="#2d1a14" stroke-linecap="round" stroke-linejoin="round" stroke-width="1.267"/>
              <line id="Línea_691" data-name="Línea 691" x2="10.214" transform="translate(181.321 235.371)" fill="none" stroke="#2d1a14" stroke-linecap="round" stroke-linejoin="round" stroke-width="1.267"/>
              <line id="Línea_692" data-name="Línea 692" y1="49.323" transform="translate(202.779 217.675)" fill="none" stroke="#2d1a14" stroke-linecap="round" stroke-linejoin="round" stroke-width="1.267"/>
              <path id="Trazado_873951" data-name="Trazado 873951" d="M318.9,288.7h0a1.415,1.415,0,0,1-1.411-1.411V276a1.411,1.411,0,1,1,2.822,0v11.289A1.415,1.415,0,0,1,318.9,288.7" transform="translate(-115.424 -99.828)" fill="#bfb8ff"/>
              <path id="Trazado_873952" data-name="Trazado 873952" d="M316.041,330.676h0a5.257,5.257,0,0,1-5.241-5.241V306.082a5.241,5.241,0,0,1,10.482,0v19.352a5.257,5.257,0,0,1-5.241,5.241" transform="translate(-112.993 -109.372)" fill="#2d1a14"/>
              <path id="Trazado_873953" data-name="Trazado 873953" d="M318.517,306.025h0a2.021,2.021,0,0,1-2.016-2.016V292.721a2.016,2.016,0,1,1,4.031,0V304.01a2.021,2.021,0,0,1-2.016,2.016" transform="translate(-115.066 -105.687)" fill="#2d1a14"/>
              <rect id="Rectángulo_401479" data-name="Rectángulo 401479" width="4.838" height="13.305" transform="translate(200.226 214.852)" fill="#2d1a14"/>
              <line id="Línea_693" data-name="Línea 693" x2="10.214" transform="translate(197.925 201.91)" fill="none" stroke="#fff8f3" stroke-linecap="round" stroke-linejoin="round" stroke-width="1.608"/>
              <line id="Línea_694" data-name="Línea 694" x2="10.214" transform="translate(197.925 207.107)" fill="none" stroke="#fff8f3" stroke-linecap="round" stroke-linejoin="round" stroke-width="1.608"/>
              <line id="Línea_695" data-name="Línea 695" x2="10.214" transform="translate(197.925 212.304)" fill="none" stroke="#fff8f3" stroke-linecap="round" stroke-linejoin="round" stroke-width="1.608"/>
              <line id="Línea_696" data-name="Línea 696" y1="62.494" transform="translate(219.041 202.891)" fill="none" stroke="#2d1a14" stroke-linecap="round" stroke-linejoin="round" stroke-width="1.267"/>
              <path id="Trazado_873954" data-name="Trazado 873954" d="M344.449,265.469h0a1.415,1.415,0,0,1-1.411-1.411V252.77a1.411,1.411,0,1,1,2.822,0v11.289a1.415,1.415,0,0,1-1.411,1.411" transform="translate(-124.713 -91.382)" fill="#bfb8ff"/>
              <path id="Trazado_873955" data-name="Trazado 873955" d="M341.592,307.448h0a5.257,5.257,0,0,1-5.241-5.241V282.854a5.241,5.241,0,1,1,10.482,0v19.352a5.257,5.257,0,0,1-5.241,5.241" transform="translate(-122.282 -100.928)" fill="#ffbd51"/>
              <path id="Trazado_873956" data-name="Trazado 873956" d="M344.069,282.8h0a2.021,2.021,0,0,1-2.016-2.016V269.493a2.016,2.016,0,1,1,4.031,0v11.289a2.021,2.021,0,0,1-2.016,2.016" transform="translate(-124.355 -97.243)" fill="#ffbd51"/>
              <rect id="Rectángulo_401480" data-name="Rectángulo 401480" width="4.838" height="13.305" transform="translate(216.488 200.069)" fill="#ffbd51"/>
              <line id="Línea_697" data-name="Línea 697" x2="10.214" transform="translate(214.187 187.127)" fill="none" stroke="#2d1a14" stroke-linecap="round" stroke-linejoin="round" stroke-width="1.267"/>
              <line id="Línea_698" data-name="Línea 698" x2="10.214" transform="translate(214.187 192.323)" fill="none" stroke="#2d1a14" stroke-linecap="round" stroke-linejoin="round" stroke-width="1.267"/>
              <line id="Línea_699" data-name="Línea 699" x2="10.214" transform="translate(214.187 197.52)" fill="none" stroke="#2d1a14" stroke-linecap="round" stroke-linejoin="round" stroke-width="1.267"/>
              <path id="Trazado_873957" data-name="Trazado 873957" d="M127.551,139.738H49.026a17.337,17.337,0,1,1,0-34.674h78.525a17.337,17.337,0,0,1,0,34.674" transform="translate(-11.521 -38.197)" fill="#0b47db"/>
              <path id="Trazado_873958" data-name="Trazado 873958" d="M152.68,65.655a29.574,29.574,0,1,1-41.825,0,29.574,29.574,0,0,1,41.825,0" transform="translate(-37.153 -20.72)" fill="#0b47db"/>
              <path id="Trazado_873959" data-name="Trazado 873959" d="M94.185,96.253A16.827,16.827,0,1,1,77.358,79.426,16.827,16.827,0,0,1,94.185,96.253" transform="translate(-22.006 -28.876)" fill="#0b47db"/>
              <path id="Trazado_873960" data-name="Trazado 873960" d="M135.041,96.8V45.52c-4.71-2.811-9.37-10.336-14.1-13.1H74.3V96.8Z" transform="translate(-27.011 -11.785)" fill="#cac5ff"/>
              <path id="Trazado_873961" data-name="Trazado 873961" d="M148.071,31.926l.3,13.464h13.8Z" transform="translate(-53.832 -11.607)" fill="#a595fa"/>
              <line id="Línea_700" data-name="Línea 700" x2="46.99" transform="translate(53.644 53.655)" fill="none" stroke="#2d1a14" stroke-linecap="round" stroke-linejoin="round" stroke-width="1.47"/>
              <line id="Línea_701" data-name="Línea 701" x2="46.99" transform="translate(53.644 60.308)" fill="none" stroke="#2d1a14" stroke-linecap="round" stroke-linejoin="round" stroke-width="1.47"/>
              <line id="Línea_702" data-name="Línea 702" x2="46.99" transform="translate(53.644 66.962)" fill="none" stroke="#2d1a14" stroke-linecap="round" stroke-linejoin="round" stroke-width="1.47"/>
              <line id="Línea_703" data-name="Línea 703" x2="46.99" transform="translate(53.644 73.615)" fill="none" stroke="#2d1a14" stroke-linecap="round" stroke-linejoin="round" stroke-width="1.47"/>
              <line id="Línea_704" data-name="Línea 704" x2="46.99" transform="translate(53.644 80.269)" fill="none" stroke="#2d1a14" stroke-linecap="round" stroke-linejoin="round" stroke-width="1.47"/>
              <line id="Línea_705" data-name="Línea 705" x2="21.832" transform="translate(54.683 29.536)" fill="none" stroke="#2d1a14" stroke-linecap="round" stroke-linejoin="round" stroke-width="1.47"/>
              <line id="Línea_706" data-name="Línea 706" x2="21.832" transform="translate(54.475 34.526)" fill="none" stroke="#2d1a14" stroke-linecap="round" stroke-linejoin="round" stroke-width="1.47"/>
              <rect id="Rectángulo_401481" data-name="Rectángulo 401481" width="69.861" height="3.119" transform="translate(42.665 83.765)" fill="#3a1d71"/>
              <line id="Línea_707" data-name="Línea 707" y2="1.871" transform="translate(56.45 101.269)" fill="none" stroke="#2d1a14" stroke-linecap="round" stroke-linejoin="round" stroke-width="0.98"/>
              <line id="Línea_708" data-name="Línea 708" y2="12.444" transform="translate(56.45 106.696)" fill="none" stroke="#2d1a14" stroke-linecap="round" stroke-linejoin="round" stroke-width="0.98" stroke-dasharray="5.586 5.586"/>
              <path id="Trazado_873962" data-name="Trazado 873962" d="M88.7,189.989v1.871h1.871" transform="translate(-32.246 -69.071)" fill="none" stroke="#2d1a14" stroke-linecap="round" stroke-linejoin="round" stroke-width="0.98"/>
              <line id="Línea_709" data-name="Línea 709" x2="36.093" transform="translate(62.121 122.789)" fill="none" stroke="#2d1a14" stroke-linecap="round" stroke-linejoin="round" stroke-width="0.98" stroke-dasharray="5.97 5.97"/>
              <path id="Trazado_873963" data-name="Trazado 873963" d="M157.3,192.929h1.871V194.8" transform="translate(-57.188 -70.14)" fill="none" stroke="#2d1a14" stroke-linecap="round" stroke-linejoin="round" stroke-width="0.98"/>
              <line id="Línea_710" data-name="Línea 710" y2="1.871" transform="translate(101.985 129.338)" fill="none" stroke="#2d1a14" stroke-linecap="round" stroke-linejoin="round" stroke-width="0.98"/>
              <line id="Línea_711" data-name="Línea 711" y2="1.871" transform="translate(82.025 101.269)" fill="none" stroke="#2d1a14" stroke-linecap="round" stroke-linejoin="round" stroke-width="0.98"/>
              <line id="Línea_712" data-name="Línea 712" y2="5.458" transform="translate(82.025 106.779)" fill="none" stroke="#2d1a14" stroke-linecap="round" stroke-linejoin="round" stroke-width="0.98" stroke-dasharray="5.717 5.717"/>
              <path id="Trazado_873964" data-name="Trazado 873964" d="M128.88,179.208v1.871h1.871" transform="translate(-46.855 -65.152)" fill="none" stroke="#2d1a14" stroke-linecap="round" stroke-linejoin="round" stroke-width="0.98"/>
              <line id="Línea_713" data-name="Línea 713" x2="20.829" transform="translate(87.683 115.927)" fill="none" stroke="#2d1a14" stroke-linecap="round" stroke-linejoin="round" stroke-width="0.98" stroke-dasharray="5.95 5.95"/>
              <path id="Trazado_873965" data-name="Trazado 873965" d="M173.473,182.148h1.871v1.871" transform="translate(-63.067 -66.221)" fill="none" stroke="#2d1a14" stroke-linecap="round" stroke-linejoin="round" stroke-width="0.98"/>
              <line id="Línea_714" data-name="Línea 714" y2="5.77" transform="translate(112.277 121.645)" fill="none" stroke="#2d1a14" stroke-linecap="round" stroke-linejoin="round" stroke-width="0.98" stroke-dasharray="6.044 6.044"/>
              <line id="Línea_715" data-name="Línea 715" y2="1.871" transform="translate(112.277 129.338)" fill="none" stroke="#2d1a14" stroke-linecap="round" stroke-linejoin="round" stroke-width="0.98"/>
              <line id="Línea_716" data-name="Línea 716" y2="1.871" transform="translate(105.728 100.021)" fill="none" stroke="#2d1a14" stroke-linecap="round" stroke-linejoin="round" stroke-width="0.98"/>
              <line id="Línea_717" data-name="Línea 717" y2="2.807" transform="translate(105.728 103.764)" fill="none" stroke="#2d1a14" stroke-linecap="round" stroke-linejoin="round" stroke-width="0.98" stroke-dasharray="2.94 2.94"/>
              <path id="Trazado_873966" data-name="Trazado 873966" d="M166.122,168.917v1.871h1.871" transform="translate(-60.395 -61.411)" fill="none" stroke="#2d1a14" stroke-linecap="round" stroke-linejoin="round" stroke-width="0.98"/>
              <line id="Línea_718" data-name="Línea 718" x2="5.926" transform="translate(111.549 109.378)" fill="none" stroke="#2d1a14" stroke-linecap="round" stroke-linejoin="round" stroke-width="0.98" stroke-dasharray="6.207 6.207"/>
              <path id="Trazado_873967" data-name="Trazado 873967" d="M187.684,171.857h1.871v1.871" transform="translate(-68.233 -62.48)" fill="none" stroke="#2d1a14" stroke-linecap="round" stroke-linejoin="round" stroke-width="0.98"/>
              <line id="Línea_719" data-name="Línea 719" y2="11.789" transform="translate(121.322 114.617)" fill="none" stroke="#2d1a14" stroke-linecap="round" stroke-linejoin="round" stroke-width="0.98" stroke-dasharray="5.292 5.292"/>
              <line id="Línea_720" data-name="Línea 720" y2="1.871" transform="translate(121.322 128.091)" fill="none" stroke="#2d1a14" stroke-linecap="round" stroke-linejoin="round" stroke-width="0.98"/>
              <path id="Trazado_873968" data-name="Trazado 873968" d="M89.8,157.646a2.573,2.573,0,1,1-2.573-2.573,2.573,2.573,0,0,1,2.573,2.573" transform="translate(-30.776 -56.378)" fill="#230b19"/>
              <path id="Trazado_873969" data-name="Trazado 873969" d="M129.983,155.686a2.573,2.573,0,1,1-2.573-2.573,2.573,2.573,0,0,1,2.573,2.573" transform="translate(-45.385 -55.665)" fill="#230b19"/>
              <path id="Trazado_873970" data-name="Trazado 873970" d="M167.226,156.544a2.573,2.573,0,1,1-2.573-2.573,2.573,2.573,0,0,1,2.573,2.573" transform="translate(-58.925 -55.977)" fill="#230b19"/>
            </g>
          </g>
          <g id="Grupo_1099549" data-name="Grupo 1099549" transform="translate(246.676 89.205)">
            <g id="Grupo_1099548" data-name="Grupo 1099548" clip-path="url(#clip-path-2)">
              <line id="Línea_721" data-name="Línea 721" y2="2.183" transform="translate(6.55 25.265)" fill="none" stroke="#3a1d71" stroke-linecap="round" stroke-linejoin="round" stroke-width="1.96"/>
              <line id="Línea_722" data-name="Línea 722" y2="139.823" transform="translate(6.55 31.887)" fill="none" stroke="#3a1d71" stroke-linecap="round" stroke-linejoin="round" stroke-width="1.96" stroke-dasharray="6.974 6.974"/>
              <line id="Línea_723" data-name="Línea 723" y2="2.183" transform="translate(6.55 173.93)" fill="none" stroke="#3a1d71" stroke-linecap="round" stroke-linejoin="round" stroke-width="1.96"/>
              <line id="Línea_724" data-name="Línea 724" y2="2.183" transform="translate(16.843 41.173)" fill="none" stroke="#3a1d71" stroke-linecap="round" stroke-linejoin="round" stroke-width="1.96"/>
              <line id="Línea_725" data-name="Línea 725" y2="139.823" transform="translate(16.843 47.795)" fill="none" stroke="#3a1d71" stroke-linecap="round" stroke-linejoin="round" stroke-width="1.96" stroke-dasharray="6.974 6.974"/>
              <line id="Línea_726" data-name="Línea 726" y2="2.183" transform="translate(26.201 58.952)" fill="none" stroke="#3a1d71" stroke-linecap="round" stroke-linejoin="round" stroke-width="1.96"/>
              <line id="Línea_727" data-name="Línea 727" y2="139.823" transform="translate(26.201 65.574)" fill="none" stroke="#3a1d71" stroke-linecap="round" stroke-linejoin="round" stroke-width="1.96" stroke-dasharray="6.974 6.974"/>
            </g>
          </g>
          <g id="Grupo_1099551" data-name="Grupo 1099551">
            <g id="Grupo_1099557" data-name="Grupo 1099557">
              <path id="Trazado_873971" data-name="Trazado 873971" d="M399.692,171.769a3.587,3.587,0,1,1-3.586-3.586,3.587,3.587,0,0,1,3.586,3.586" transform="translate(-142.702 -61.144)" fill="#3a1d71"/>
              <path id="Trazado_873972" data-name="Trazado 873972" d="M415.615,201.7a3.587,3.587,0,1,1-3.586-3.586,3.586,3.586,0,0,1,3.586,3.586" transform="translate(-148.491 -72.026)" fill="#3a1d71"/>
              <path id="Trazado_873973" data-name="Trazado 873973" d="M430.953,227.594a3.587,3.587,0,1,1-3.586-3.586,3.586,3.586,0,0,1,3.586,3.586" transform="translate(-154.067 -81.439)" fill="#3a1d71"/>
              <path id="Trazado_873974" data-name="Trazado 873974" d="M314.252,63.015a4.538,4.538,0,0,1-2.886-.99c-6.982-5.783-14.809-7.56-23.264-5.283a34.377,34.377,0,0,0-11.093,5.327,4.7,4.7,0,0,1-5.771-.088,2.987,2.987,0,0,1,.107-4.78,42.449,42.449,0,0,1,14.233-6.888,33.907,33.907,0,0,1,31.561,6.932,2.987,2.987,0,0,1,0,4.78,4.538,4.538,0,0,1-2.886.99" transform="translate(-98.195 -17.819)" fill="#3a1d71"/>
              <path id="Trazado_873975" data-name="Trazado 873975" d="M312.157,80.985a2.922,2.922,0,0,1-2.054-.838c-4.97-4.892-10.541-6.4-16.56-4.47a23.3,23.3,0,0,0-7.9,4.507,2.938,2.938,0,0,1-4.108-.075,2.829,2.829,0,0,1,.076-4.044,28.845,28.845,0,0,1,10.132-5.828c5.682-1.818,14.193-2.278,22.466,5.865a2.828,2.828,0,0,1,0,4.045,2.921,2.921,0,0,1-2.054.838" transform="translate(-102.059 -25.135)" fill="#3a1d71"/>
              <path id="Trazado_873976" data-name="Trazado 873976" d="M311.179,92.41c-2.79-3.091-5.944-4.658-9.376-4.658a12.084,12.084,0,0,0-4.1.742,16.808,16.808,0,0,0-5.986,3.88,2.848,2.848,0,0,0-.065,3.78,2.483,2.483,0,0,0,1.867.869,2.455,2.455,0,0,0,1.8-.8,11.868,11.868,0,0,1,4.014-2.573,7.212,7.212,0,0,1,2.44-.452c2.015,0,3.944,1.006,5.734,2.989a2.439,2.439,0,0,0,3.67,0,2.849,2.849,0,0,0,0-3.78" transform="translate(-105.782 -31.903)" fill="#3a1d71"/>
            </g>
          </g>
        </g>
      </g>
    </g>
  </g>
</svg>
