<svg xmlns="http://www.w3.org/2000/svg" xmlns:xlink="http://www.w3.org/1999/xlink" width="295" height="241" viewBox="0 0 295 241">
  <defs>
    <clipPath id="clip-path">
      <rect id="Rectángulo_383172" data-name="Rectángulo 383172" width="295" height="241" rx="12" transform="translate(1125 168)" fill="#add3fd"/>
    </clipPath>
    <clipPath id="clip-path-2">
      <rect id="Rectángulo_383167" data-name="Rectángulo 383167" width="297.835" height="379.324" fill="none"/>
    </clipPath>
    <clipPath id="clip-path-4">
      <rect id="Rectángulo_383164" data-name="Rectángulo 383164" width="7.557" height="2.888" fill="none"/>
    </clipPath>
    <clipPath id="clip-path-5">
      <rect id="Rectángulo_383165" data-name="Rectángulo 383165" width="2.712" height="2.337" fill="none"/>
    </clipPath>
    <clipPath id="clip-path-6">
      <rect id="Rectángulo_403446" data-name="Rectángulo 403446" width="40" height="87" transform="translate(-0.135)" fill="#fff" stroke="#707070" stroke-width="1"/>
    </clipPath>
    <clipPath id="clip-path-7">
      <rect id="Rectángulo_403447" data-name="Rectángulo 403447" width="40" height="87" fill="#fff" stroke="#707070" stroke-width="1"/>
    </clipPath>
  </defs>
  <g id="Grupo_1102268" data-name="Grupo 1102268" transform="translate(-1125 -1162)">
    <g id="Grupo_1102266" data-name="Grupo 1102266">
      <g id="Grupo_1074223" data-name="Grupo 1074223" transform="translate(0 994)">
        <rect id="Rectángulo_383036" data-name="Rectángulo 383036" width="295" height="241" rx="12" transform="translate(1125 168)" fill="#beb4d0"/>
        <g id="Enmascarar_grupo_169" data-name="Enmascarar grupo 169" clip-path="url(#clip-path)">
          <g id="Grupo_1074112" data-name="Grupo 1074112" transform="translate(1125 174)">
            <g id="Grupo_1074111" data-name="Grupo 1074111" clip-path="url(#clip-path-2)">
              <g id="Grupo_1074110" data-name="Grupo 1074110">
                <g id="Grupo_1074109" data-name="Grupo 1074109" clip-path="url(#clip-path-2)">
                  <path id="Trazado_825453" data-name="Trazado 825453" d="M149.125,242.2H146.38a4.892,4.892,0,0,1-4.892-4.892V197.667h12.529V237.3a4.892,4.892,0,0,1-4.892,4.892" transform="translate(43.728 61.091)" fill="#171612"/>
                  <path id="Trazado_825454" data-name="Trazado 825454" d="M192.185,295.5v7.954h-5.764v-3.593a1.835,1.835,0,0,0-1.835-1.837H159.9a1.544,1.544,0,0,0-1.543,1.543v3.887h-6.7v-3.887a1.544,1.544,0,0,0-1.543-1.543h-24.5a1.835,1.835,0,0,0-1.835,1.837v3.593h-5.764V295.5a3.239,3.239,0,0,1,3.239-3.239h30.4V189.731h6.7V292.258h30.589a3.239,3.239,0,0,1,3.239,3.239" transform="translate(36.474 58.638)" fill="#171612"/>
                  <path id="Trazado_825455" data-name="Trazado 825455" d="M130.885,282.559a8.582,8.582,0,1,1-8.582-8.582,8.582,8.582,0,0,1,8.582,8.582" transform="translate(35.147 84.675)" fill="#171612"/>
                  <path id="Trazado_825456" data-name="Trazado 825456" d="M121.437,286.609a4.915,4.915,0,1,1,4.916-4.916,4.92,4.92,0,0,1-4.916,4.916" transform="translate(36.013 85.541)" fill="#5a554d"/>
                  <path id="Trazado_825457" data-name="Trazado 825457" d="M156.953,282.559a8.582,8.582,0,1,1-8.582-8.582,8.582,8.582,0,0,1,8.582,8.582" transform="translate(43.203 84.675)" fill="#171612"/>
                  <path id="Trazado_825458" data-name="Trazado 825458" d="M147.505,286.609a4.915,4.915,0,1,1,4.916-4.916,4.92,4.92,0,0,1-4.916,4.916" transform="translate(44.069 85.541)" fill="#5a554d"/>
                  <path id="Trazado_825459" data-name="Trazado 825459" d="M183.113,282.559a8.582,8.582,0,1,1-8.582-8.582,8.582,8.582,0,0,1,8.582,8.582" transform="translate(51.288 84.675)" fill="#171612"/>
                  <path id="Trazado_825460" data-name="Trazado 825460" d="M173.665,286.609a4.915,4.915,0,1,1,4.915-4.916,4.92,4.92,0,0,1-4.915,4.916" transform="translate(52.154 85.541)" fill="#5a554d"/>
                  <path id="Trazado_825461" data-name="Trazado 825461" d="M261.141,80.7,224.715,232.435a10.891,10.891,0,0,1-10.59,8.349H128.636A10.891,10.891,0,0,1,118.058,227.3L155.305,75.558a10.891,10.891,0,0,1,10.577-8.294h84.669A10.891,10.891,0,0,1,261.141,80.7" transform="translate(36.389 20.789)" fill="#5a554d"/>
                  <path id="Trazado_825462" data-name="Trazado 825462" d="M253.953,80.7,217.529,232.435a10.891,10.891,0,0,1-10.59,8.349H121.447A10.892,10.892,0,0,1,110.87,227.3L148.117,75.558a10.891,10.891,0,0,1,10.577-8.294h84.67A10.89,10.89,0,0,1,253.953,80.7" transform="translate(34.167 20.789)" fill="#171612"/>
                  <path id="Trazado_825463" data-name="Trazado 825463" d="M205.191,231.642H119.7a3.495,3.495,0,0,1-3.394-4.328l37.247-151.74a3.487,3.487,0,0,1,3.394-2.661h84.67a3.494,3.494,0,0,1,3.4,4.311l-36.425,151.74a3.485,3.485,0,0,1-3.4,2.678M156.947,73.895a2.507,2.507,0,0,0-2.44,1.914L117.26,227.548a2.511,2.511,0,0,0,2.44,3.112h85.491a2.506,2.506,0,0,0,2.445-1.926l36.425-151.74a2.513,2.513,0,0,0-2.444-3.1Z" transform="translate(35.913 22.535)" fill="#5a554d"/>
                  <path id="Trazado_825464" data-name="Trazado 825464" d="M79.9,207.451H223.486a12.307,12.307,0,0,0,11.986-9.518l1.923-8.265H84.04Z" transform="translate(24.695 58.619)" fill="#5a554d"/>
                  <path id="Trazado_825465" data-name="Trazado 825465" d="M83.505,207.451H215.891a12.307,12.307,0,0,0,11.987-9.518l1.923-8.265H83.505a8.892,8.892,0,1,0,0,17.784" transform="translate(23.059 58.619)" fill="#171612"/>
                  <path id="Trazado_825466" data-name="Trazado 825466" d="M52.682,258.381l-3.748,8.963L33.47,263.116l3.747-8.964Z" transform="translate(10.344 78.548)" fill="#eaad8f"/>
                  <path id="Trazado_825467" data-name="Trazado 825467" d="M.14,276.135l56.307,15.4a8.152,8.152,0,0,0,1.585-2.932c1.642-4.677,2.18-12.714,2.732-17.721.062-.586.124-1.132.192-1.622a17.154,17.154,0,0,1,.363-2.008c1.058-3.921-2.585-4.2-2.585-4.2-7.209,4.042-11.394-6.121-15.905-4.4,0,0-1.937.723-7.5,3.531s-13.879,3.392-21.082,4.337c-9.3,1.216-12.614,4.066-13.727,6.349a4.576,4.576,0,0,0-.384,3.261" transform="translate(0 79.879)" fill="#467b6c"/>
                  <path id="Trazado_825468" data-name="Trazado 825468" d="M.14,272.732l56.307,15.4a8.152,8.152,0,0,0,1.585-2.932L.524,269.471a4.576,4.576,0,0,0-.384,3.261" transform="translate(0 83.283)" fill="#253f3d"/>
                  <path id="Trazado_825469" data-name="Trazado 825469" d="M38.966,287.412l1.673.457A12.877,12.877,0,0,1,40.051,278a16.428,16.428,0,0,1,8.978-9.675c.06-.585.124-1.131.192-1.621a17.847,17.847,0,0,0-10.492,10.861,14.246,14.246,0,0,0,.237,9.843" transform="translate(11.735 82.429)" fill="#253f3d"/>
                  <path id="Trazado_825470" data-name="Trazado 825470" d="M27.977,264.932a.957.957,0,0,0,1.089-.461.967.967,0,0,0-.373-1.312l-3.279-1.837a.962.962,0,1,0-.936,1.682l3.282,1.838a.948.948,0,0,0,.217.089" transform="translate(7.412 80.726)" fill="#fff"/>
                  <path id="Trazado_825471" data-name="Trazado 825471" d="M31.086,263.574A.963.963,0,0,0,31.8,261.8l-3.281-1.838a.963.963,0,1,0-.935,1.683l3.281,1.838a1,1,0,0,0,.217.089" transform="translate(8.373 80.307)" fill="#fff"/>
                  <path id="Trazado_825472" data-name="Trazado 825472" d="M24.866,265.763a.963.963,0,0,0,.717-1.772L22.3,262.154a.958.958,0,0,0-1.308.37.969.969,0,0,0,.373,1.313l3.282,1.837a.929.929,0,0,0,.216.089" transform="translate(6.451 80.983)" fill="#fff"/>
                  <path id="Trazado_825473" data-name="Trazado 825473" d="M21.774,266.534a.963.963,0,0,0,.717-1.772l-3.281-1.837a.962.962,0,1,0-.935,1.682l3.281,1.838a.938.938,0,0,0,.217.089" transform="translate(5.495 81.222)" fill="#fff"/>
                  <path id="Trazado_825474" data-name="Trazado 825474" d="M18.469,267.125a.963.963,0,0,0,.717-1.772l-3.281-1.838a.963.963,0,1,0-.935,1.683l3.281,1.838a1.028,1.028,0,0,0,.217.089" transform="translate(4.474 81.404)" fill="#fff"/>
                  <path id="Trazado_825475" data-name="Trazado 825475" d="M14.971,267.443a.963.963,0,0,0,.717-1.772l-3.281-1.837a.962.962,0,1,0-.935,1.682l3.281,1.838a.938.938,0,0,0,.217.089" transform="translate(3.393 81.502)" fill="#fff"/>
                  <path id="Trazado_825476" data-name="Trazado 825476" d="M144.09,151.029s-69.361,17.547-78.667,25.438S35.4,280.583,35.256,286.023c-.013.5,18.091,5.637,18.091,5.637s35.588-74.484,37.546-85.26c0,0,40.759-4.9,59.321-15.676s25.392-21.813,25.392-21.813Z" transform="translate(10.896 46.677)" fill="#314fa5"/>
                  <path id="Trazado_825477" data-name="Trazado 825477" d="M57.806,171.563c1.507,3.143,4.384,5.139,7.479,6.545.569.259,1.068-.585.495-.846-2.953-1.342-5.688-3.189-7.128-6.194-.272-.568-1.117-.072-.846.495" transform="translate(17.849 52.793)" fill="#1c2b74"/>
                  <path id="Trazado_825478" data-name="Trazado 825478" d="M36.841,249.362a94.058,94.058,0,0,1,17.914,5.958c.571.255,1.069-.589.495-.847A95.322,95.322,0,0,0,37.1,248.417c-.614-.137-.876.808-.261.945" transform="translate(11.278 76.772)" fill="#1c2b74"/>
                  <path id="Trazado_825479" data-name="Trazado 825479" d="M49.346,275.113c10.238-21.3,20.1-42.836,28.526-64.929,2.258-5.922,4.4-11.892,6.358-17.92l-.473.36a98.989,98.989,0,0,0,26.787-3.768c7.081-2.152,13.763-5.361,20.493-8.4.575-.258.077-1.1-.494-.846-6.654,3-13.259,6.17-20.26,8.3a97.962,97.962,0,0,1-26.527,3.733.5.5,0,0,0-.473.359c-7.227,22.217-16.626,43.721-26.425,64.906q-4.11,8.887-8.36,17.709c-.272.565.572,1.063.846.495" transform="translate(14.973 55.497)" fill="#1c2b74"/>
                  <path id="Trazado_825480" data-name="Trazado 825480" d="M91.649,95.4s-8.94,44.85-8.04,55.233,19.423,20.717,19.423,20.717l12.894-2.75s-5.976-17.837-10.885-22.977l8.2-39.4Z" transform="translate(25.821 29.486)" fill="#eaad8f"/>
                  <path id="Trazado_825481" data-name="Trazado 825481" d="M97.057,65.08a247.831,247.831,0,0,0-9.629,43.181s11.656,13.993,25.417,10.051Z" transform="translate(27.021 20.114)" fill="#c04d3a"/>
                  <path id="Trazado_825482" data-name="Trazado 825482" d="M192.526,179a.734.734,0,0,1-.034.082,2.783,2.783,0,0,1-.7.906c-2.758,2.508-12.134,5.137-23.492,7.06-.442.077-.885.149-1.333.226h0c-4.193.679-8.632,1.259-13.083,1.7-.363.033-.728.069-1.092.1-19.56,1.844-39.087.941-39.6-6.128-.058-.812-.119-1.619-.177-2.434-.03-.42-.064-.844-.094-1.271-.19-2.625-.387-5.375-.6-8.548v0c-.027-.42-.055-.844-.085-1.28v0c-.275-4.159-.576-9.046-.927-15.253-.025-.45-.048-.908-.08-1.374-.069-1.248-.14-2.542-.213-3.9-.048-.873-.094-1.748-.145-2.622-.022-.378-.043-.759-.071-1.135-.021-.478-.055-.954-.082-1.432-.174-2.774-.372-5.54-.606-8.229-.037-.473-.08-.939-.126-1.406v0c-.643-6.981-1.576-13.4-3.072-18.255v0c-.064-.211-.132-.411-.2-.615s-.14-.424-.209-.637c-1.126-3.4-2.263-6.6-3.37-9.612v0c-.207-.568-.415-1.132-.619-1.686-3.182-8.586-6.024-15.6-7.456-21.356-.1-.418-.2-.83-.291-1.236a23.675,23.675,0,0,1-.643-6.988.334.334,0,0,1,0-.051,5,5,0,0,1,.284-1.216c.766-2.156,2.923-4.574,5.563-6.894.275-.241.552-.482.839-.72a105.383,105.383,0,0,1,14.038-9.578L135.8,45.552a165.165,165.165,0,0,1,16.857,1.868h0c.367.062.729.126,1.094.192A59.452,59.452,0,0,1,163.822,50.2c.351.128.693.266,1.021.408a17.033,17.033,0,0,1,1.539.729c6.8,3.625,10.236,18.615,12.759,34.041.119.715.234,1.431.351,2.147,1.021,6.454,1.9,12.9,2.829,18.525.076.484.156.957.234,1.423.541,3.161,1.1,6.033,1.7,8.458.7,2.756,1.509,5.853,2.369,9.173.122.477.246.954.372,1.443,2.769,10.759,5.875,23.581,6.857,34.609.055.634.1,1.262.147,1.881.42,6.243.085,11.808-1.479,15.963" transform="translate(29.072 14.078)" fill="#c04d3a"/>
                  <path id="Trazado_825483" data-name="Trazado 825483" d="M99.72,70.515a8.772,8.772,0,0,0-4.832,3.946c-.1-.418-.2-.83-.291-1.234a9.571,9.571,0,0,1,4.872-3.6c.573-.186.821.719.25.893" transform="translate(29.236 21.51)" fill="#df7668"/>
                  <path id="Trazado_825484" data-name="Trazado 825484" d="M98.576,65.067a27.6,27.6,0,0,0,12.817,6.68,33.021,33.021,0,0,0,26.9-5.914A43.9,43.9,0,0,0,152.356,47.17c-.367-.065-.73-.132-1.1-.192h0a46.349,46.349,0,0,1-4.748,8.728c-5.351,7.7-13.314,13.66-22.672,15.27-8.623,1.486-17.937-.634-24.423-6.628-.285.236-.564.478-.838.719" transform="translate(30.466 14.519)" fill="#df7668"/>
                  <path id="Trazado_825485" data-name="Trazado 825485" d="M148.352,86.217c-.259-2.777-1.871-5.188-3.362-7.459l-.027-.045c-.009-.014-.018-.026-.03-.042-3.225-4.5-7.582-9.988-13.839-9.1-5.9.843-7.873,7.326-6.967,12.449.919,5.2,3.923,10.529,8.71,13.059a11.246,11.246,0,0,0,12.894-1.577,9.181,9.181,0,0,0,2.621-7.29m-2.113,5.122c-2.245,3.731-7.451,4.969-11.4,3.584-4.574-1.606-7.665-5.989-9.107-10.444-1.508-4.655-1.392-11.56,4.082-13.6,6.238-2.324,11.2,3.97,14.334,8.34,2.422,3.7,4.677,7.826,2.092,12.118" transform="translate(38.298 21.473)" fill="#df7668"/>
                  <path id="Trazado_825486" data-name="Trazado 825486" d="M103.562,102.866q.108.318.212.636l.2.618q4.391-5.7,9.175-11.1c2.139-2.414,4.278-4.922,6.647-7.117,1.225-1.138,3.847-2.534,4.844-.3.6,1.348.012,3.346-.223,4.745a54.852,54.852,0,0,1-5.426,16.175,63.334,63.334,0,0,1-11.945,15.847v0c.046.465.089.933.126,1.4a69.228,69.228,0,0,0,5.819-6.253,59.63,59.63,0,0,0,9.111-15.107,55.406,55.406,0,0,0,2.841-9.059,47.658,47.658,0,0,0,.931-5.494,5.034,5.034,0,0,0-.412-3.125c-1.348-2.245-4.311-1.42-5.947-.056a74.441,74.441,0,0,0-7.675,8.158q-4.3,4.876-8.275,10.016" transform="translate(32.007 25.761)" fill="#df7668"/>
                  <path id="Trazado_825487" data-name="Trazado 825487" d="M106.844,131.7c.027.376.048.755.069,1.134a65.157,65.157,0,0,0,8.712-5.036c7.764-5.3,14.421-12,21.078-18.579,3.415-3.38,6.848-6.748,10.459-9.921,3.464-3.04,7.154-6.049,11.467-7.8,6.782-2.75,14.02-1.2,19.978,2.542-.08-.467-.16-.941-.236-1.423-6.071-3.549-13.311-4.893-20.055-2.169a40.039,40.039,0,0,0-10.776,7.081c-3.784,3.235-7.356,6.71-10.9,10.207-8.847,8.737-18.456,18.4-29.8,23.965" transform="translate(33.021 27.507)" fill="#df7668"/>
                  <path id="Trazado_825488" data-name="Trazado 825488" d="M152.129,128.058c4.038,2.33,8.563,3.635,12.715,5.732a42.076,42.076,0,0,1,10.111,7.179,43.434,43.434,0,0,1,3.77,4.1q-.065-.931-.147-1.882-1.082-1.253-2.261-2.423a43.729,43.729,0,0,0-8.548-6.623c-3.625-2.144-7.59-3.506-11.425-5.2-3.855-1.71-7.61-3.913-9.948-7.538a9.826,9.826,0,0,1,.075-11.415c5.434-7.426,16.332-5.808,23.563-2.293q.854.416,1.686.886c-.124-.487-.25-.967-.37-1.443a32.556,32.556,0,0,0-3.142-1.435c-7.354-2.894-17.339-3.481-22.573,3.579-5.207,7.022-.027,15.014,6.494,18.776" transform="translate(44.351 32.041)" fill="#df7668"/>
                  <path id="Trazado_825489" data-name="Trazado 825489" d="M144.09,150.977c2.842,3.367,5.863,6.609,8.966,9.767h0c.448-.073.89-.147,1.333-.223-3.178-3.228-6.283-6.54-9.23-9.97-3.514-4.088-7.065-9.982-3.68-15.243,3.622-5.632,11.615-1.494,16.094.78a56.954,56.954,0,0,1,20.309,17.371,2.769,2.769,0,0,0,.7-.907,57.767,57.767,0,0,0-24.879-19.419c-2.75-1.11-5.829-2.249-8.831-1.545a7.459,7.459,0,0,0-5.1,4.651c-2.173,5.418.868,10.658,4.311,14.736" transform="translate(42.974 40.602)" fill="#df7668"/>
                  <path id="Trazado_825490" data-name="Trazado 825490" d="M143.252,120.653c-.585,3.566-4.785,5.671-7.451,7.566q-13.81,9.816-27.621,19.625v0c.027.436.056.859.084,1.28q7.238-5.145,14.482-10.288,5.221-3.715,10.445-7.425l5.452-3.872a23.331,23.331,0,0,0,3.762-3.034c1.77-1.923,2.872-5.041,1.172-7.377-1.775-2.435-5.2-1.911-7.7-1.227a75.32,75.32,0,0,0-28.7,15.311c.029.466.054.923.077,1.376a75.406,75.406,0,0,1,28.492-15.51,10.117,10.117,0,0,1,4.985-.533,3.407,3.407,0,0,1,2.525,4.1" transform="translate(33.123 35.645)" fill="#df7668"/>
                  <path id="Trazado_825491" data-name="Trazado 825491" d="M108.465,149.807c.03.427.062.85.092,1.271,3.186-2.509,6.3-5.206,9.946-7.031a20.8,20.8,0,0,1,29.83,15.594l1.1-.1a22.516,22.516,0,0,0-5.043-11.128,22.04,22.04,0,0,0-25.283-5.841c-3.934,1.712-7.254,4.553-10.637,7.24" transform="translate(33.522 43.517)" fill="#df7668"/>
                  <path id="Trazado_825492" data-name="Trazado 825492" d="M121.135,61.995c-6.32.123-11.465-3.875-11.7-4.061a.712.712,0,0,1,.882-1.117c.084.065,5.935,4.587,12.424,3.62,3.71-.554,6.954-2.791,9.639-6.65a.711.711,0,0,1,1.168.812c-2.921,4.2-6.49,6.636-10.607,7.247a14.258,14.258,0,0,1-1.805.149" transform="translate(33.739 16.529)" fill="#df7668"/>
                  <path id="Trazado_825493" data-name="Trazado 825493" d="M104.4,46.423s-5.215-5.9-5.2-20.3c0,0-11.545-5.891-8.926-11.454S101.954,11.4,101.954,11.4s-6.249-6.218-.779-8.836,10.378,2.182,10.378,2.182-1.512-5.782,4.59-4.582,7.992,4.254,7.992,4.254,12.82-2.44,18.882,6.526,4.317,19.144,1.155,25.891-7.2,10.4-4.8,14.955-1.636,6.562-6.327,3.159-28.64-8.525-28.64-8.525" transform="translate(27.783 0)" fill="#171612"/>
                  <path id="Trazado_825494" data-name="Trazado 825494" d="M101.215,29.422s-2.229.545-2.22,3.5,2.2,7.539,5.025,6.5-2.805-10-2.805-10" transform="translate(30.595 9.093)" fill="#c6695d"/>
                  <path id="Trazado_825495" data-name="Trazado 825495" d="M110.416,60.116a17.152,17.152,0,0,0,5.07,2.894,11.806,11.806,0,0,0,5.676.627l.925-.134.963-.257a16.783,16.783,0,0,0,3.024-1.2,16.28,16.28,0,0,0,6.854-6.658,20.922,20.922,0,0,0,2.291-5.416c-.414-.771-.813-1.564-1.206-2.375-1.754-3.616-3.334-7.57-4.905-11.542l.063-.342-.372-.753-.322-.655-.682.568-1.011.834-17.519,14.5.35,3.011.185,1.583.315,2.724v0Z" transform="translate(33.77 10.603)" fill="#eaad8f"/>
                  <path id="Trazado_825496" data-name="Trazado 825496" d="M132.635,43.133h0l-.109.027c-.027.258-.069.513-.113.775-.02.113-.041.226-.062.34q-.139.7-.357,1.423c-2.235,7.439-10.321,15.679-17.854,15.8a12.076,12.076,0,0,1-1.284-.051c-7.358-.711-10.28-8.59-10.3-14.836,0-.236,0-.469.012-.7,0,0-.072-.415-.208-1.147-.113-.583-.263-1.371-.45-2.305-.564-2.787-1.465-6.894-2.595-10.911-1.986-7.041,1.371-18.269,15.662-22.734s21.183,5.569,21.741,13.173a28.65,28.65,0,0,1-.41,6.433c1.4-.084,2.981.48,4.1,2.816,2.063,4.319-2.638,10.69-7.768,11.9" transform="translate(30.532 2.383)" fill="#eaad8f"/>
                  <path id="Trazado_825497" data-name="Trazado 825497" d="M98.683,20.521s-2.5,5.645,4.2,3.519,10.762-8.663,17.133-6.192c4.918,1.91.449,6.109,6.052,7.255s-.206,6.27,2.249,9.394,6.218-7.162,11.045-6.56,1.642-16.893-9.9-20.262S103.9,10.295,98.683,20.521" transform="translate(30.359 2.081)" fill="#171612"/>
                  <path id="Trazado_825498" data-name="Trazado 825498" d="M103.166,31.573c.257,1.008.888,1.719,1.412,1.585s.741-1.058.484-2.067-.888-1.719-1.411-1.585-.742,1.058-.486,2.067" transform="translate(31.851 9.114)" fill="#171612"/>
                  <path id="Trazado_825499" data-name="Trazado 825499" d="M106.64,29.923a.283.283,0,0,0,.117-.124.276.276,0,0,0-.135-.367c-.115-.054-2.847-1.292-4.755.6a.275.275,0,0,0,.387.391c1.638-1.628,4.11-.507,4.135-.495a.28.28,0,0,0,.25-.009" transform="translate(31.458 8.958)" fill="#171612"/>
                  <path id="Trazado_825500" data-name="Trazado 825500" d="M109.9,30.074c.255,1.008.888,1.719,1.412,1.585s.741-1.058.484-2.067-.888-1.719-1.411-1.585-.742,1.058-.486,2.067" transform="translate(33.933 8.651)" fill="#171612"/>
                  <path id="Trazado_825501" data-name="Trazado 825501" d="M113.375,28.424a.275.275,0,0,0-.018-.491c-.115-.052-2.847-1.292-4.754.6a.275.275,0,1,0,.387.391c1.638-1.628,4.11-.507,4.135-.495a.28.28,0,0,0,.25-.009" transform="translate(33.539 8.495)" fill="#171612"/>
                  <g id="Grupo_1074105" data-name="Grupo 1074105" transform="translate(146.467 40.962)" opacity="0.5">
                    <g id="Grupo_1074104" data-name="Grupo 1074104">
                      <g id="Grupo_1074103" data-name="Grupo 1074103" clip-path="url(#clip-path-4)">
                        <path id="Trazado_825502" data-name="Trazado 825502" d="M111.9,33.5c.136.678,1.936.886,4.018.467s3.659-1.31,3.523-1.988-1.936-.886-4.018-.466S111.76,32.817,111.9,33.5" transform="translate(-111.887 -31.291)" fill="#c6695d"/>
                      </g>
                    </g>
                  </g>
                  <g id="Grupo_1074108" data-name="Grupo 1074108" transform="translate(132.438 44.809)" opacity="0.5">
                    <g id="Grupo_1074107" data-name="Grupo 1074107">
                      <g id="Grupo_1074106" data-name="Grupo 1074106" clip-path="url(#clip-path-5)">
                        <path id="Trazado_825503" data-name="Trazado 825503" d="M101.62,36.567c1.416-.462,2.362-1.122,2.254-1.655s-1.225-.771-2.7-.652c.189.935.339,1.723.45,2.307" transform="translate(-101.17 -34.23)" fill="#c6695d"/>
                      </g>
                    </g>
                  </g>
                  <path id="Trazado_825504" data-name="Trazado 825504" d="M107.653,36.85a.569.569,0,0,1-.356-.232c-.046-.016-.09-.034-.134-.054a5.229,5.229,0,0,1-2.169,1.694,5.289,5.289,0,1,1,2.834-6.924,5.237,5.237,0,0,1,.355,2.763c.115-.055.23-.11.347-.162a4.154,4.154,0,0,1,.7-.259,6.3,6.3,0,1,0-1.1,3.263c-.158-.029-.318-.056-.477-.09" transform="translate(29.873 8.372)" fill="#fff"/>
                  <path id="Trazado_825505" data-name="Trazado 825505" d="M115.645,36.623a6.291,6.291,0,1,1,3.37-8.234,6.3,6.3,0,0,1-3.37,8.234m-4.477-10.681a5.289,5.289,0,1,0,6.924,2.834,5.3,5.3,0,0,0-6.924-2.834" transform="translate(33.045 7.581)" fill="#fff"/>
                  <path id="Trazado_825506" data-name="Trazado 825506" d="M98.187,34.525a.5.5,0,0,1-.617-.729,6.443,6.443,0,0,1,3.133-2.25.5.5,0,0,1,.347.939,5.609,5.609,0,0,0-2.638,1.852.5.5,0,0,1-.225.189" transform="translate(30.131 9.74)" fill="#fff"/>
                  <path id="Trazado_825507" data-name="Trazado 825507" d="M115.058,26.671c3.744-2.685,6.376-3.146,8.239-3.076l-.261,1.021c-1.664-.08-3.8.291-7.395,2.868a.5.5,0,1,1-.584-.813" transform="translate(35.495 7.29)" fill="#fff"/>
                  <path id="Trazado_825508" data-name="Trazado 825508" d="M110.334,57.047c7.38-2.659,10.886-8.923,12.242-12.809-3.394,3.435-7.658,5.9-11.758,5.967a10.792,10.792,0,0,1-1.283-.054Z" transform="translate(33.853 13.672)" fill="#171612"/>
                  <path id="Trazado_825509" data-name="Trazado 825509" d="M121.679,34.9a3.9,3.9,0,0,0,1.318.918,5,5,0,0,0,2.325.346c.024-.114.043-.228.06-.339.047-.262.086-.521.114-.778l.109-.026a4.826,4.826,0,0,1-.59.05,4,4,0,0,1-1.005-.089,2.945,2.945,0,0,1-1.529-.839.551.551,0,0,0-.8.758" transform="translate(37.559 10.498)" fill="#c6695d"/>
                  <path id="Trazado_825510" data-name="Trazado 825510" d="M113.46,36.055s.775,4.827-3.18,5.939a4.213,4.213,0,0,1-5.238-2.725Z" transform="translate(32.465 11.143)" fill="#fff"/>
                  <path id="Trazado_825511" data-name="Trazado 825511" d="M110.31,42.193a2.191,2.191,0,0,0,1.06-1,.369.369,0,0,0-.67-.308,1.5,1.5,0,0,1-1.49.762.369.369,0,1,0-.051.736,2.4,2.4,0,0,0,1.151-.186" transform="translate(33.631 12.569)" fill="#c6695d"/>
                  <path id="Trazado_825512" data-name="Trazado 825512" d="M125.246,33.7a.552.552,0,0,0,.347-.528c-.109-3.906,4.007-6.515,4.048-6.541a.551.551,0,1,0-.58-.936c-.192.119-4.7,2.962-4.569,7.509a.551.551,0,0,0,.566.535.563.563,0,0,0,.189-.039" transform="translate(38.475 7.917)" fill="#c6695d"/>
                  <path id="Trazado_825513" data-name="Trazado 825513" d="M129.19,29.861a.569.569,0,0,0,.178-.115.552.552,0,0,0,.014-.779,3.782,3.782,0,0,0-3.6-.889.55.55,0,1,0,.281,1.064,2.677,2.677,0,0,1,2.526.589.549.549,0,0,0,.6.13" transform="translate(38.747 8.636)" fill="#c6695d"/>
                  <path id="Trazado_825514" data-name="Trazado 825514" d="M108.536,38.382a.545.545,0,0,0,.263-.3.55.55,0,0,0-.329-.706l-3.462-1.257,2.3-1.524a.552.552,0,0,0,.242-.393l.854-6.969a.551.551,0,1,0-1.093-.134l-.823,6.718-3,1.987a.551.551,0,0,0,.117.977l4.489,1.63a.552.552,0,0,0,.442-.029" transform="translate(31.908 8.226)" fill="#c6695d"/>
                  <path id="Trazado_825515" data-name="Trazado 825515" d="M108.118,29.233a.5.5,0,0,1-.467-.042,1.251,1.251,0,0,0-1.807.368.5.5,0,1,1-.827-.563,2.236,2.236,0,0,1,3.182-.643.5.5,0,0,1-.081.88" transform="translate(32.43 8.638)" fill="#fff"/>
                  <path id="Trazado_825516" data-name="Trazado 825516" d="M116.191,24.617a1.489,1.489,0,0,0,.408-.6,1.513,1.513,0,0,0-.894-1.945c-.187-.069-4.607-1.653-7.53,1.735a1.515,1.515,0,0,0,2.295,1.979c1.566-1.817,4.158-.884,4.184-.873a1.514,1.514,0,0,0,1.537-.293" transform="translate(33.319 6.688)" fill="#171612"/>
                  <path id="Trazado_825517" data-name="Trazado 825517" d="M100.944,27.734a1.513,1.513,0,0,0,1.075-.741c.639-1.111,2.757-1.067,3.29-.995a1.514,1.514,0,1,0,.41-3c-1.686-.23-4.917.034-6.325,2.486a1.514,1.514,0,0,0,1.551,2.25" transform="translate(30.656 7.087)" fill="#171612"/>
                  <path id="Trazado_825518" data-name="Trazado 825518" d="M190.575,145.716s-29.615,10.857-62.593,10.22c-13.185-.255-17.612-4.905-17.612-4.905-.653,3.21-3.586,5.016-7.687,7.1,0,0,37.5,13.231,67.93,5.955,24.616,2.262,19.962-18.365,19.962-18.365" transform="translate(31.735 45.035)" fill="#314fa5"/>
                  <path id="Trazado_825519" data-name="Trazado 825519" d="M115.9,263l-1.242,9.636-16.033.012,1.244-9.635Z" transform="translate(30.482 81.283)" fill="#eaad8f"/>
                  <path id="Trazado_825520" data-name="Trazado 825520" d="M69.492,296.554l58.374-.046a8.169,8.169,0,0,0,.754-3.248c.344-4.946-1.262-12.837-2.054-17.812-.1-.581-.179-1.124-.243-1.615a17.23,17.23,0,0,1-.182-2.032c-.017-4.061-3.6-3.363-3.6-3.363-5.883,5.807-12.608-2.888-16.5-.031,0,0-1.677,1.208-6.294,5.388s-12.487,6.942-19.184,9.759c-8.648,3.633-11.089,7.257-11.559,9.754a4.58,4.58,0,0,0,.494,3.246" transform="translate(21.296 82.77)" fill="#467b6c"/>
                  <path id="Trazado_825521" data-name="Trazado 825521" d="M69.492,290.546l58.374-.046a8.168,8.168,0,0,0,.754-3.248L69,287.3a4.58,4.58,0,0,0,.494,3.246" transform="translate(21.296 88.778)" fill="#253f3d"/>
                  <path id="Trazado_825522" data-name="Trazado 825522" d="M110.07,295.09H111.8a12.883,12.883,0,0,1-3.176-9.358,16.428,16.428,0,0,1,6.1-11.706c-.1-.581-.179-1.123-.243-1.614a17.847,17.847,0,0,0-7.246,13.25,14.241,14.241,0,0,0,2.833,9.429" transform="translate(33.137 84.191)" fill="#253f3d"/>
                  <path id="Trazado_825523" data-name="Trazado 825523" d="M94.319,275.685a.963.963,0,0,0,.223-1.9l-3.65-.9a.963.963,0,1,0-.456,1.871l3.65.9a.955.955,0,0,0,.233.029" transform="translate(27.723 84.328)" fill="#fff"/>
                  <path id="Trazado_825524" data-name="Trazado 825524" d="M96.959,273.552a.963.963,0,0,0,.223-1.9l-3.65-.9a.963.963,0,1,0-.456,1.871l3.65.9a.953.953,0,0,0,.233.029" transform="translate(28.539 83.669)" fill="#fff"/>
                  <path id="Trazado_825525" data-name="Trazado 825525" d="M91.54,277.308a.963.963,0,0,0,.223-1.9l-3.65-.9a.958.958,0,0,0-1.162.7.968.968,0,0,0,.707,1.166l3.65.9a.955.955,0,0,0,.233.029" transform="translate(26.864 84.83)" fill="#fff"/>
                  <path id="Trazado_825526" data-name="Trazado 825526" d="M88.761,278.869a.963.963,0,0,0,.223-1.9l-3.65-.9a.963.963,0,1,0-.456,1.871l3.65.9a.953.953,0,0,0,.233.029" transform="translate(26.006 85.312)" fill="#fff"/>
                  <path id="Trazado_825527" data-name="Trazado 825527" d="M85.73,280.314a.963.963,0,0,0,.223-1.9l-3.65-.9a.963.963,0,1,0-.456,1.871l3.65.9a.955.955,0,0,0,.233.029" transform="translate(25.069 85.759)" fill="#fff"/>
                  <path id="Trazado_825528" data-name="Trazado 825528" d="M82.442,281.546a.963.963,0,0,0,.221-1.9l-3.65-.9a.958.958,0,0,0-1.162.7.969.969,0,0,0,.707,1.168l3.651.9a.938.938,0,0,0,.233.029" transform="translate(24.052 86.14)" fill="#fff"/>
                  <path id="Trazado_825529" data-name="Trazado 825529" d="M154.65,157.1s-41.8,18.023-55.1,31.518C86.066,202.315,97.7,300.964,97.7,300.964a157.081,157.081,0,0,0,21.407.526c3.832-34.687,12.313-77.968,10.471-93.175,0,0,53.715-6.9,61.89-20.107,7.276-11.757,2.673-39.962,2.673-39.962Z" transform="translate(28.754 45.817)" fill="#314fa5"/>
                  <path id="Trazado_825530" data-name="Trazado 825530" d="M95.6,186.569a36.495,36.495,0,0,0,12.749,1.322c.584-.042.588-.957,0-.914a35.77,35.77,0,0,1-12.505-1.291.458.458,0,0,0-.243.882" transform="translate(29.447 57.382)" fill="#1c2b74"/>
                  <path id="Trazado_825531" data-name="Trazado 825531" d="M96.975,261.514q10.527-.393,21.063-.393a.491.491,0,0,0,0-.98q-10.535,0-21.063.394c-.628.024-.631,1,0,.979" transform="translate(29.825 80.399)" fill="#1c2b74"/>
                  <path id="Trazado_825532" data-name="Trazado 825532" d="M143.53,157.258c-7.847,4.55-16.061,8.446-24.047,12.74-7.544,4.055-15.109,8.309-20.225,15.4a32.665,32.665,0,0,0-5.745,14.222c-.093.618.851.884.945.26,1.452-9.509,6.993-17.438,14.881-22.812,6.983-4.757,14.754-8.417,22.242-12.291,4.18-2.163,8.371-4.313,12.444-6.675a.49.49,0,0,0-.495-.846" transform="translate(28.899 48.581)" fill="#1c2b74"/>
                  <path id="Trazado_825533" data-name="Trazado 825533" d="M182.951,147.069a186.628,186.628,0,0,1,1.864,19.413c-.039,6.808-.59,16.018-6.225,20.78-2.509,2.122-5.944,3.346-9,4.423a110.973,110.973,0,0,1-11.543,3.284c-8.089,1.9-16.3,3.27-24.532,4.409-4.7.649-9.417,1.242-14.144,1.678a.5.5,0,0,0-.49.49,106.212,106.212,0,0,1,.034,20.572c-.518,5.008-1.516,9.938-2.388,14.893-.927,5.27-1.347,10.552-1.824,15.876-.607,6.808-1.3,13.609-1.961,20.413-.723,7.449-1.443,14.9-1.9,22.373-.038.631.941.628.98,0,.821-13.468,2.394-26.884,3.634-40.316.525-5.687.869-11.376,1.826-17.011.8-4.724,1.779-9.416,2.375-14.173a104.856,104.856,0,0,0,.236-22.189,292.194,292.194,0,0,0,36.735-5.684c7.146-1.608,15.057-3.355,21.31-7.362,6.111-3.915,7.375-12.392,7.748-19.043.3-5.393-.893-17.785-1.712-23.147Z" transform="translate(34.258 45.355)" fill="#1c2b74"/>
                  <path id="Trazado_825534" data-name="Trazado 825534" d="M169.144,182.476a11.662,11.662,0,0,1-3.349-.538c-9.949-3-14.686-29.216-14.883-30.33l1.608-.284c.047.263,4.753,26.341,13.745,29.049,2.879.868,5.091.545,6.763-.987,7.252-6.643,1.9-32.863,1.843-33.127l1.6-.333c.233,1.115,5.594,27.4-2.338,34.663a7.132,7.132,0,0,1-4.988,1.886" transform="translate(46.641 45.1)" fill="#fff"/>
                  <path id="Trazado_825535" data-name="Trazado 825535" d="M157.438,155.587,80.482,168.06a.272.272,0,0,1-.312-.224l-1.55-9.564a.271.271,0,0,1,.224-.31L155.8,145.489a.269.269,0,0,1,.31.224l1.55,9.563a.27.27,0,0,1-.224.312" transform="translate(24.298 44.964)" fill="#171612"/>
                  <path id="Trazado_825536" data-name="Trazado 825536" d="M80.918,180a6.523,6.523,0,0,1-7-3.77L50.634,124.309a5.292,5.292,0,0,1,3.982-7.39l34.7-5.622a5.293,5.293,0,0,1,5.647,3l27.38,59Z" transform="translate(15.505 34.376)" fill="#171612"/>
                  <path id="Trazado_825537" data-name="Trazado 825537" d="M86.5,153.074l-1.161-2.816,2.346-.422-1.39-2.512,3.1-.559,1.39,2.512,1.919-.346-1.39-2.512,3.1-.559,1.392,2.512,2.714-.488,1.161,2.814-2.346.423,1.267,2.312,2.714-.488,1.161,2.814-2.346.423,1.39,2.512-3.1.558-1.39-2.511-1.919.346L96.5,159.6l-3.1.559-1.39-2.512-2.714.49-1.162-2.814,2.346-.423-1.266-2.313Zm7.083,1.265,1.919-.346-1.266-2.312-1.919.346Z" transform="translate(26.374 45.08)" fill="#c04d3a"/>
                  <path id="Trazado_825538" data-name="Trazado 825538" d="M85.72,114.445l27.153,58.51,3.965-.643L89.685,113.8a5.3,5.3,0,0,0-5.65-3l-3.965.643a5.3,5.3,0,0,1,5.65,3" transform="translate(24.746 34.224)" fill="#171612"/>
                  <path id="Trazado_825539" data-name="Trazado 825539" d="M100.749,142.424a9.621,9.621,0,0,1,9.415-2.151c5.673,1.725,13.187,11.113,13.187,11.113l-17.153,2.78Z" transform="translate(31.137 43.216)" fill="#eaad8f"/>
                  <path id="Trazado_825540" data-name="Trazado 825540" d="M111.328,172.092a.7.7,0,0,0,.1-.035.59.59,0,0,0,.288-.783l-27-58.408a.589.589,0,1,0-1.07.495l27,58.408a.59.59,0,0,0,.683.323" transform="translate(25.836 34.776)" fill="#5a554d"/>
                  <path id="Trazado_825541" data-name="Trazado 825541" d="M83.621,138.793c1.34,3.281-.335,6.388-3.743,6.939a8.345,8.345,0,0,1-8.6-4.939c-1.342-3.279.334-6.387,3.743-6.939a8.345,8.345,0,0,1,8.6,4.939" transform="translate(21.887 41.343)" fill="#5a554d"/>
                  <path id="Trazado_825542" data-name="Trazado 825542" d="M142.456,73.615l1.164,1.237,1.231,1.337c.826.9,1.653,1.8,2.473,2.716,1.639,1.831,3.277,3.672,4.87,5.543,3.207,3.723,6.3,7.524,9.226,11.361,2.9,3.853,5.671,7.738,8.044,11.653,1.179,1.958,2.292,3.9,3.248,5.819a42.676,42.676,0,0,1,2.333,5.544c.077.22.134.429.2.644l.05.16.013.037-.013-.059-.021-.118-.031-.217-.017-.192c-.027-.471.028-.638.058-.651a2.984,2.984,0,0,1-.162,1.3,20.621,20.621,0,0,1-.838,2.506c-.364.919-.8,1.886-1.275,2.876-.943,1.987-2.06,4.044-3.26,6.1q-.9,1.543-1.867,3.092t-1.952,3.108c-1.329,2.072-2.722,4.131-4.135,6.192s-2.858,4.121-4.333,6.164S154.5,153.86,153,155.9l-2.27,3.042-1.135,1.516-1.114,1.47-.123.162a7.781,7.781,0,0,0,11.494,10.4l1.5-1.394,1.46-1.372q1.441-1.382,2.862-2.779c1.894-1.865,3.749-3.767,5.6-5.689q2.749-2.9,5.44-5.893c1.789-2,3.541-4.053,5.277-6.15q1.3-1.573,2.579-3.194t2.512-3.315c1.657-2.257,3.28-4.594,4.842-7.134.778-1.274,1.532-2.606,2.265-4.029a43.992,43.992,0,0,0,2.088-4.68,27.174,27.174,0,0,0,1.58-6.243,19.447,19.447,0,0,0,.029-4.523c-.02-.209-.058-.448-.09-.672s-.072-.453-.122-.694l-.073-.355-.056-.258-.073-.309c-.1-.41-.191-.831-.3-1.231a65.006,65.006,0,0,0-3.088-8.984c-1.189-2.791-2.47-5.443-3.855-7.977a142.494,142.494,0,0,0-8.963-14.3c-3.177-4.518-6.537-8.817-10.009-13-1.75-2.077-3.516-4.135-5.338-6.151-.912-1.007-1.83-2.011-2.766-3.008l-1.427-1.491-1.526-1.56a12.459,12.459,0,0,0-17.984,17.247Z" transform="translate(42.908 16.184)" fill="#eaad8f"/>
                  <path id="Trazado_825543" data-name="Trazado 825543" d="M170.446,99.261a20.866,20.866,0,0,0-2.326,3.1c-.315.511.49.979.8.47a19.628,19.628,0,0,1,2.182-2.91c.4-.444-.255-1.1-.658-.658" transform="translate(51.937 30.632)" fill="#c6695d"/>
                  <path id="Trazado_825544" data-name="Trazado 825544" d="M166.7,103.757a11.4,11.4,0,0,1,7.59-3.438c.59-.034.615.884.025.918a10.408,10.408,0,0,0-6.947,3.151c-.415.422-1.083-.208-.668-.631" transform="translate(51.48 31.004)" fill="#c6695d"/>
                  <path id="Trazado_825545" data-name="Trazado 825545" d="M163.413,140.075a7.569,7.569,0,0,1-4.6,9.425,18.554,18.554,0,0,0-5.489,3.1c-3.339,3.05-6.438,7.582-8.561,8.646-3.133,1.57-2.074-2.059-1.88-2.49a52.321,52.321,0,0,1,3.6-6.282s-5.715,5.139-6.988,7.887-3.917,3.414-4.194.171,4.841-10.216,6.781-11.765c0,0-4.343,2.261-6.189,5.925s-3,4.728-4.387,5.643-2.936-2.043-.228-7.091a18.127,18.127,0,0,1,7.331-7.865,30.323,30.323,0,0,0-5.6,2.023c-3.385,1.546-5.18,5.951-7.405,5.9-2.276-.059.016-5.041,2.508-7.225s4.122-3.981,8.131-5.349a53.532,53.532,0,0,1,10.483-2.784c2.6-.243,11.716-2.324,14.921-.357a4.644,4.644,0,0,1,1.766,2.5" transform="translate(38.531 42.262)" fill="#eaad8f"/>
                  <path id="Trazado_825546" data-name="Trazado 825546" d="M150.982,137.344s-7.716-1.979-10.3-1.254-6.883.442-6.541,2.22,5.629,1.983,5.629,1.983Z" transform="translate(41.45 42.011)" fill="#eaad8f"/>
                  <path id="Trazado_825547" data-name="Trazado 825547" d="M136.669,72.516c1.331,6.265,12.555,14.3,18.557,21.609.26.314,2.067,2.225,2.314,2.524a38.039,38.039,0,0,1,3.724,5.006c9.9-6.172,14.781-9.979,19.034-16.833.211-.34.416-.683.609-1.025a23.758,23.758,0,0,0,2.766-7.344,81.8,81.8,0,0,0-20.807-20.886q-.538-.371-1.055-.715a58.286,58.286,0,0,0-9.18-5.158,26.959,26.959,0,0,0-8.882,4.665c-.312.251-.614.507-.907.772-5.139,4.6-7.541,10.942-6.172,17.384" transform="translate(42.122 15.358)" fill="#c04d3a"/>
                  <path id="Trazado_825548" data-name="Trazado 825548" d="M160,70.716c3.716,5.348,8.991,9.275,14.358,12.886.211-.34.416-.682.609-1.025-4.939-3.317-9.794-6.907-13.376-11.694-3.489-4.665-5.65-10.746-4.665-16.536-.359-.247-.708-.486-1.055-.715-1.168,5.912.691,12.128,4.13,17.083" transform="translate(48.064 16.576)" fill="#df7668"/>
                  <path id="Trazado_825549" data-name="Trazado 825549" d="M153.427,92.372a9.22,9.22,0,0,1,.922.888c1.74-5.4.622-11.814-.873-17.282-2.208-8.069-5.337-16.244-11.068-22.483q-.385-.42-.785-.83c-.539-.547-1.357.319-.818.869.236.241.469.486.7.733,5.291,5.736,8.285,13.2,10.425,20.609,1.541,5.342,3.068,11.971,1.5,17.5" transform="translate(43.462 16.223)" fill="#df7668"/>
                  <path id="Trazado_825550" data-name="Trazado 825550" d="M140.717,71.074q9.068,12.543,18.861,24.538c.4.49,1.09-.209.694-.7q-9.708-11.891-18.706-24.338c-.368-.508-1.22-.018-.848.495" transform="translate(43.462 21.747)" fill="#7e231a"/>
                  <path id="Trazado_825551" data-name="Trazado 825551" d="M142.076,76.737q2.845,1.217,5.692,2.436c.575.245,1.076-.6.5-.848q-2.847-1.217-5.692-2.436c-.575-.245-1.076.6-.5.848" transform="translate(43.83 23.44)" fill="#7e231a"/>
                  <path id="Trazado_825552" data-name="Trazado 825552" d="M108.443,112.535A102.878,102.878,0,0,0,97.036,79.449c-.305-.555-1.153-.06-.848.495A102.144,102.144,0,0,1,107.5,112.8c.1.623,1.047.359.946-.26" transform="translate(29.708 24.48)" fill="#7e231a"/>
                </g>
              </g>
            </g>
          </g>
        </g>
      </g>
      <g id="logotipo-de-windows" transform="translate(1146.234 1199.566)">
        <g id="Grupo_1099667" data-name="Grupo 1099667" transform="translate(0 0.934)">
          <path id="Trazado_877057" data-name="Trazado 877057" d="M50.161,5.791,41.167,41.749C30.223,37.172,15.6,35.172,2.642,39.182c2.622-11.52,9-33.391,9-33.391C21.169-2.011,39.706.789,50.161,5.791Z" transform="translate(9.426 -0.934)" fill="#fc9a28"/>
          <path id="Trazado_877058" data-name="Trazado 877058" d="M21.263,3.145C31.07,8.887,48.409,10.659,61,6.9L50.721,41.565C40.155,47.156,19.956,46.741,12.2,38.994Z" transform="translate(43.528 6.956)" fill="#80b901"/>
          <path id="Trazado_877059" data-name="Trazado 877059" d="M47.5,15.512,38.512,51.461C27.192,46.253,12.763,42.773,0,48.889c0,0,5.925-23.154,8.98-34.661C18.87,8.094,38.571,9.907,47.5,15.512Z" transform="translate(0 32.814)" fill="#00b2dd"/>
          <path id="Trazado_877060" data-name="Trazado 877060" d="M19.556,12.641c9.807,6.934,26.475,8.058,38.795,3.289L48.087,50.609c-9.94,6.756-29.385,5.719-38.53-1.284Z" transform="translate(34.098 40.837)" fill="#eabe07"/>
        </g>
      </g>
    </g>
    <g id="Enmascarar_grupo_1098744" data-name="Enmascarar grupo 1098744" transform="translate(1380.135 1162)" clip-path="url(#clip-path-6)">
      <g id="Trazado_884186" data-name="Trazado 884186" transform="translate(5.952 5.679)" fill="none">
        <path d="M36.864,0A36.864,36.864,0,1,0,73.728,36.864,36.864,36.864,0,0,0,36.864,0Z" stroke="none"/>
        <path d="M 36.86406707763672 15.99999237060547 C 25.35956573486328 15.99999237060547 15.99999237060547 25.35956573486328 15.99999237060547 36.86406707763672 C 15.99999237060547 48.36856842041016 25.35956573486328 57.72814178466797 36.86406707763672 57.72814178466797 C 48.36856842041016 57.72814178466797 57.72814178466797 48.36856842041016 57.72814178466797 36.86406707763672 C 57.72814178466797 25.35956573486328 48.36856842041016 15.99999237060547 36.86406707763672 15.99999237060547 M 36.86406707763672 -7.62939453125e-06 C 57.22351837158203 -7.62939453125e-06 73.72814178466797 16.50459289550781 73.72814178466797 36.86406707763672 C 73.72814178466797 57.22351837158203 57.22351837158203 73.72814178466797 36.86406707763672 73.72814178466797 C 16.50461578369141 73.72814178466797 -7.62939453125e-06 57.22351837158203 -7.62939453125e-06 36.86406707763672 C -7.62939453125e-06 16.50459289550781 16.50461578369141 -7.62939453125e-06 36.86406707763672 -7.62939453125e-06 Z" stroke="none" fill="#fff"/>
      </g>
    </g>
    <g id="Enmascarar_grupo_1098745" data-name="Enmascarar grupo 1098745" transform="translate(1125 1316)" clip-path="url(#clip-path-7)">
      <g id="Trazado_884187" data-name="Trazado 884187" transform="translate(-39.815 5.679)" fill="none">
        <path d="M36.864,0A36.864,36.864,0,1,1,0,36.864,36.864,36.864,0,0,1,36.864,0Z" stroke="none"/>
        <path d="M 36.86406707763672 15.99999237060547 C 25.35956573486328 15.99999237060547 15.99999237060547 25.35956573486328 15.99999237060547 36.86406707763672 C 15.99999237060547 48.36856842041016 25.35956573486328 57.72814178466797 36.86406707763672 57.72814178466797 C 48.36856842041016 57.72814178466797 57.72814178466797 48.36856842041016 57.72814178466797 36.86406707763672 C 57.72814178466797 25.35956573486328 48.36856842041016 15.99999237060547 36.86406707763672 15.99999237060547 M 36.86406707763672 -7.62939453125e-06 C 57.22351837158203 -7.62939453125e-06 73.72814178466797 16.50459289550781 73.72814178466797 36.86406707763672 C 73.72814178466797 57.22351837158203 57.22351837158203 73.72814178466797 36.86406707763672 73.72814178466797 C 16.50461578369141 73.72814178466797 -7.62939453125e-06 57.22351837158203 -7.62939453125e-06 36.86406707763672 C -7.62939453125e-06 16.50459289550781 16.50461578369141 -7.62939453125e-06 36.86406707763672 -7.62939453125e-06 Z" stroke="none" fill="#fff"/>
      </g>
    </g>
  </g>
</svg>
