<svg xmlns="http://www.w3.org/2000/svg" xmlns:xlink="http://www.w3.org/1999/xlink" width="295" height="132" viewBox="0 0 295 132">
  <defs>
    <linearGradient id="linear-gradient" x1="0.35" y1="0.433" x2="0.935" y2="0.848" gradientUnits="objectBoundingBox">
      <stop offset="0" stop-color="#f0c518"/>
      <stop offset="0.371" stop-color="#d1ae1f"/>
      <stop offset="1" stop-color="#78630c"/>
    </linearGradient>
    <clipPath id="clip-path">
      <rect id="Rectángulo_402716" data-name="Rectángulo 402716" width="171.095" height="61.028" fill="#fff" stroke="#707070" stroke-width="1"/>
    </clipPath>
    <filter id="Trazado_878795" x="80.875" y="47.843" width="146.789" height="146.789" filterUnits="userSpaceOnUse">
      <feOffset dy="1" input="SourceAlpha"/>
      <feGaussianBlur stdDeviation="5.5" result="blur"/>
      <feFlood flood-color="#fff" flood-opacity="0.902"/>
      <feComposite operator="in" in2="blur"/>
      <feComposite in="SourceGraphic"/>
    </filter>
  </defs>
  <g id="Grupo_1102262" data-name="Grupo 1102262" transform="translate(-180 -1975)">
    <rect id="Rectángulo_401328" data-name="Rectángulo 401328" width="295" height="132" transform="translate(180 1975)" fill="#f2e5fd"/>
    <g id="Grupo_1101539" data-name="Grupo 1101539" transform="translate(43.5 -4402.463)">
      <g id="Grupo_1074076" data-name="Grupo 1074076" transform="translate(138.5 6400.722)">
        <rect id="Rectángulo_401407" data-name="Rectángulo 401407" width="291.86" height="86.092" rx="3" transform="translate(0 0)" fill="#a854f3"/>
      </g>
      <circle id="Elipse_11637" data-name="Elipse 11637" cx="12.521" cy="12.521" r="12.521" transform="translate(358.19 6468.481)" fill="url(#linear-gradient)"/>
      <circle id="Elipse_11638" data-name="Elipse 11638" cx="11.431" cy="11.431" r="11.431" transform="translate(188.381 6396.866)" fill="url(#linear-gradient)"/>
      <g id="Enmascarar_grupo_1098713" data-name="Enmascarar grupo 1098713" transform="translate(202.885 6425.729)" clip-path="url(#clip-path)">
        <g transform="matrix(1, 0, 0, 1, -66.38, -48.27)" filter="url(#Trazado_878795)">
          <g id="Trazado_878795-2" data-name="Trazado 878795" transform="translate(97.38 63.34)" fill="none">
            <path d="M56.894,0A56.894,56.894,0,1,1,0,56.894,56.894,56.894,0,0,1,56.894,0Z" stroke="none"/>
            <path d="M 56.89437866210938 13.99999237060547 C 33.24232482910156 13.99999237060547 13.99999237060547 33.24232482910156 13.99999237060547 56.89437866210938 C 13.99999237060547 80.54643249511719 33.24232482910156 99.78876495361328 56.89437866210938 99.78876495361328 C 80.54643249511719 99.78876495361328 99.78876495361328 80.54643249511719 99.78876495361328 56.89437866210938 C 99.78876495361328 33.24232482910156 80.54643249511719 13.99999237060547 56.89437866210938 13.99999237060547 M 56.89437866210938 -7.62939453125e-06 C 88.31626892089844 -7.62939453125e-06 113.7887649536133 25.47248840332031 113.7887649536133 56.89437866210938 C 113.7887649536133 88.31626892089844 88.31626892089844 113.7887649536133 56.89437866210938 113.7887649536133 C 25.47248840332031 113.7887649536133 -7.62939453125e-06 88.31626892089844 -7.62939453125e-06 56.89437866210938 C -7.62939453125e-06 25.47248840332031 25.47248840332031 -7.62939453125e-06 56.89437866210938 -7.62939453125e-06 Z" stroke="none" fill="#fff"/>
          </g>
        </g>
      </g>
      <g id="programador_10_" data-name="programador (10)" transform="translate(214.229 6380.463)">
        <g id="Grupo_1099575" data-name="Grupo 1099575" transform="translate(0 0)">
          <g id="Grupo_1101537" data-name="Grupo 1101537" transform="translate(2.18 73.337)">
            <path id="Trazado_875239" data-name="Trazado 875239" d="M41.692,229.515a5.879,5.879,0,0,0-5.873,5.873v4.735a5.873,5.873,0,0,0,11.746,0v-4.735A5.879,5.879,0,0,0,41.692,229.515Zm2.148,10.608a2.148,2.148,0,0,1-4.3,0v-4.735a2.148,2.148,0,0,1,4.3,0Z" transform="translate(-26.925 -229.515)"/>
            <path id="Trazado_875240" data-name="Trazado 875240" d="M105.8,246a1.862,1.862,0,0,0,1.862-1.862V231.377a1.862,1.862,0,1,0-3.725,0v12.757A1.862,1.862,0,0,0,105.8,246Z" transform="translate(-78.131 -229.515)"/>
            <path id="Trazado_875241" data-name="Trazado 875241" d="M5.873,311.416A5.879,5.879,0,0,0,0,317.289v4.735a5.873,5.873,0,1,0,11.745,0v-4.735A5.879,5.879,0,0,0,5.873,311.416Zm2.148,10.608a2.148,2.148,0,1,1-4.3,0v-4.735a2.148,2.148,0,0,1,4.3,0v4.735Z" transform="translate(0 -291.079)"/>
            <path id="Trazado_875242" data-name="Trazado 875242" d="M69.984,311.416a1.862,1.862,0,0,0-1.862,1.862v12.757a1.862,1.862,0,1,0,3.725,0V313.278A1.862,1.862,0,0,0,69.984,311.416Z" transform="translate(-51.207 -291.079)"/>
            <path id="Trazado_875243" data-name="Trazado 875243" d="M1.862,246a1.862,1.862,0,0,0,1.862-1.862V231.377a1.862,1.862,0,1,0-3.725,0v12.757A1.862,1.862,0,0,0,1.862,246Z" transform="translate(0 -229.515)"/>
          </g>
          <g id="Grupo_1101538" data-name="Grupo 1101538" transform="translate(114.427 48.272)">
            <path id="Trazado_875239-2" data-name="Trazado 875239" d="M41.692,229.515a5.879,5.879,0,0,1,5.873,5.873v4.735a5.873,5.873,0,0,1-11.746,0v-4.735A5.88,5.88,0,0,1,41.692,229.515Zm-2.148,10.608a2.148,2.148,0,0,0,4.3,0v-4.735a2.148,2.148,0,0,0-4.3,0Z" transform="translate(-26.925 -229.515)"/>
            <path id="Trazado_875240-2" data-name="Trazado 875240" d="M105.8,246a1.862,1.862,0,0,1-1.862-1.862V231.377a1.862,1.862,0,1,1,3.725,0v12.757A1.862,1.862,0,0,1,105.8,246Z" transform="translate(-103.94 -229.515)"/>
            <path id="Trazado_875241-2" data-name="Trazado 875241" d="M5.873,311.416a5.879,5.879,0,0,1,5.873,5.873v4.735a5.873,5.873,0,1,1-11.746,0v-4.735A5.879,5.879,0,0,1,5.873,311.416ZM3.724,322.024a2.148,2.148,0,1,0,4.3,0v-4.735a2.148,2.148,0,0,0-4.3,0v4.735Z" transform="translate(17.789 -291.079)"/>
            <path id="Trazado_875242-2" data-name="Trazado 875242" d="M69.984,311.416a1.862,1.862,0,0,1,1.862,1.862v12.757a1.862,1.862,0,0,1-3.725,0V313.278A1.862,1.862,0,0,1,69.984,311.416Z" transform="translate(-59.227 -291.079)"/>
            <path id="Trazado_875243-2" data-name="Trazado 875243" d="M1.862,246A1.862,1.862,0,0,1,0,244.134V231.377a1.862,1.862,0,1,1,3.725,0v12.757A1.862,1.862,0,0,1,1.862,246Z" transform="translate(25.809 -229.515)"/>
          </g>
          <g id="Web_Developer" data-name="Web Developer">
            <path id="Trazado_878796" data-name="Trazado 878796" d="M38.747,47.648V18.56a2.94,2.94,0,0,0-2.94-2.94H5.914A2.94,2.94,0,0,0,3,18.56V56.536a2.927,2.927,0,0,0,2.94,2.927H44.918A1.464,1.464,0,0,0,46.012,57l-6.593-7.45a2.927,2.927,0,0,1-.672-1.9Z" transform="translate(-1.681 5.392)" fill="#619fff"/>
            <path id="Trazado_878797" data-name="Trazado 878797" d="M113.447,107.4H28.82l4.694-30.736a18.79,18.79,0,0,1,14.5-15.493l22.917-5.1,23.313,5.182a18.777,18.777,0,0,1,14.5,15.507Z" transform="translate(6.545 18.279)" fill="#ffab57"/>
            <path id="Trazado_878798" data-name="Trazado 878798" d="M70.25,63.786l-7.635,14.03L54.73,63.786V49.98H70.25Z" transform="translate(14.799 16.338)" fill="#ffbf9d"/>
            <path id="Trazado_878799" data-name="Trazado 878799" d="M95.674,39.3H41.44a5.485,5.485,0,1,1,0-10.957H95.674a5.485,5.485,0,0,1,0,10.957Z" transform="translate(8.732 9.443)" fill="#ffbf9d"/>
            <path id="Trazado_878800" data-name="Trazado 878800" d="M66.472,67.1A24.262,24.262,0,0,1,42.21,42.838V31.722a24.262,24.262,0,1,1,48.524,0V42.838A24.262,24.262,0,0,1,66.472,67.1Z" transform="translate(10.81 2.792)" fill="#fdb"/>
            <path id="Trazado_878801" data-name="Trazado 878801" d="M90.724,37.59V31.722a24.262,24.262,0,1,0-48.524,0V37.59Z" transform="translate(10.807 2.792)" fill="#ffc9a2"/>
            <path id="Trazado_878803" data-name="Trazado 878803" d="M102.4,99.683H37.6l-5.142-38.45a3.956,3.956,0,0,1,3.956-4.483h67.248a3.956,3.956,0,0,1,3.956,4.483Z" transform="translate(7.692 18.495)" fill="#dbecff"/>
            <path id="Trazado_878804" data-name="Trazado 878804" d="M79.207,75.051a4.8,4.8,0,0,0,7.463-3.336l.831-6.276a2.373,2.373,0,0,0-2.36-2.637H70.452a2.637,2.637,0,0,0-1.609,4.826C72.852,70.567,75.594,72.611,79.207,75.051Z" transform="translate(18.922 20.422)" fill="#fff"/>
            <path id="Trazado_878805" data-name="Trazado 878805" d="M41.494,62.75a2.373,2.373,0,0,0-2.36,2.637l2.98,22.337a2.373,2.373,0,0,0,2.36,2.07h4.641a4.892,4.892,0,0,0,4.47-6.9,202.134,202.134,0,0,0-8.676-18.289,3.956,3.956,0,0,0-3.415-1.859Z" transform="translate(9.826 20.407)" fill="#fff"/>
            <path id="Trazado_878806" data-name="Trazado 878806" d="M36.35,89.31h64.809v7.5H36.35Z" transform="translate(8.943 28.868)" fill="#5955a1"/>
            <path id="Trazado_878807" data-name="Trazado 878807" d="M44.78,89.31H87.344v7.5H44.78Z" transform="translate(11.629 28.868)" fill="#b8c4ff"/>
            <path id="Trazado_878808" data-name="Trazado 878808" d="M68.378,81.707a8.544,8.544,0,1,1,0-13.186,8.544,8.544,0,0,0,0,13.186Z" transform="translate(14.693 21.624)" fill="#5955a1"/>
            <path id="Trazado_878809" data-name="Trazado 878809" d="M94.088,37.194H40.672V27.858a26.715,26.715,0,1,1,53.416,0Z" transform="translate(10.318 0.591)" fill="#ff575a"/>
            <path id="Trazado_878810" data-name="Trazado 878810" d="M60.423,31.5H45.51V25.567a7.463,7.463,0,0,1,14.913,0Z" transform="translate(11.862 6.283)" fill="#5955a1"/>
            <path id="Trazado_878811" data-name="Trazado 878811" d="M45.51,24.08H60.423V29.7H45.51Z" transform="translate(11.862 8.087)" fill="#ff7a5a"/>
            <rect id="Rectángulo_402723" data-name="Rectángulo 402723" width="8.755" height="5.617" rx="0.87" transform="translate(60.444 32.167)" fill="#ff985a"/>
            <path id="Trazado_878812" data-name="Trazado 878812" d="M80.049,21.62H92.708a4.43,4.43,0,0,1,0,8.861H56.42l3.547-2.505A34.982,34.982,0,0,1,80.049,21.62Z" transform="translate(15.338 7.303)" fill="#ff985a"/>
            <path id="Trazado_878813" data-name="Trazado 878813" d="M81.525,20.873a38.7,38.7,0,0,0-14.992,3.046,4.391,4.391,0,0,1-5.538-1.846A11.459,11.459,0,0,0,54.27,16.8a4.325,4.325,0,0,1-.91-7.912,22.693,22.693,0,0,1,30.143,8.5,2.334,2.334,0,0,1-1.978,3.481Z" transform="translate(13.664 2.407)" fill="#ff897d"/>
            <g id="Grupo_1101536" data-name="Grupo 1101536" transform="translate(0)">
              <path id="Trazado_878814" data-name="Trazado 878814" d="M108.976,89.527l1.319-9.942a5.274,5.274,0,0,0-5.274-5.973H80.152V69.221A25.62,25.62,0,0,0,96.265,49.745h1.912a6.8,6.8,0,0,0,5.2-11.182,5.749,5.749,0,0,0-1.543-11.274h-2.36a28.018,28.018,0,1,0-56.03.831l0,8.057a6.791,6.791,0,0,0,.514,13.568h1.912A25.62,25.62,0,0,0,61.981,69.221v4.391H37.864a5.274,5.274,0,0,0-5.274,5.973l1.319,9.889c-1.319,2.861-1.042,2.637-6.105,35.694a1.319,1.319,0,0,0,1.319,1.516h84.653a1.319,1.319,0,0,0,1.319-1.516C110.11,92.4,110.413,92.771,108.976,89.527Zm-10.8-42.419H96.634c.119-1.213.092-1.4.092-8.32h1.516a4.167,4.167,0,1,1,0,8.32Zm3.652-17.142a3.112,3.112,0,1,1,0,6.224H69.708a33.413,33.413,0,0,1,19.462-6.224Zm-49.368,3.2H64.75v2.98H52.461Zm.079-2.637a6.158,6.158,0,0,1,12.144,0ZM46.079,28.12a25.381,25.381,0,1,1,50.756-.831H89.171a35.945,35.945,0,0,0-20.834,6.593l-.949.659v-2.69a8.782,8.782,0,0,0-17.564,0v4.3H46.079ZM43.956,47.108a4.167,4.167,0,1,1,0-8.32h1.53c0,6.593,0,7.081.079,8.32Zm4.6,2.637c-.527-2.637-.435-3.956-.435-10.957H94v6.527a22.943,22.943,0,0,1-45.465,4.43Zm16.06,20.333a25.884,25.884,0,0,0,12.9,0v3.534H75.536c-5.433-1.2-5.815-1.319,0,0H67.1c2.466-.554,3.863-.883,3.956-.883h-.211c-4.615,1.029-3.217.857-6.263.857ZM37.864,76.249h67.248a2.637,2.637,0,0,1,2.637,2.993c-1.53,11.472.277-1.965-4.971,37.3H40.225L35.24,79.216a2.637,2.637,0,0,1,2.624-2.967Zm-2.98,20.28c3.336,24.961,2.861,19.4,2.861,27.519H30.7Zm5.5,22.653h8.492v4.866H40.383Zm11.129,4.866v-4.866H91.439v4.866Zm42.564,0v-4.866h8.479v4.866Zm11.116,0c0-8.188-.462-2.637,2.861-27.545l4.206,27.545Z" transform="translate(6.216 0.315)"/>
              <path id="Trazado_878820" data-name="Trazado 878820" d="M69.536,83.062a1.319,1.319,0,0,0,0-2.057,7.239,7.239,0,0,1,0-11.208,1.319,1.319,0,0,0,0-2.044,9.863,9.863,0,1,0,0,15.309ZM66.609,68.98a9.9,9.9,0,0,0,0,12.856,7.226,7.226,0,1,1,0-12.856Z" transform="translate(14.392 21.297)"/>
              <path id="Trazado_878821" data-name="Trazado 878821" d="M21.893,22.533A1.319,1.319,0,1,0,20.034,24.4l2.176,2.189-2.176,2.189a1.319,1.319,0,0,0,.923,2.242c.725,0,.7-.145,4.061-3.507a1.319,1.319,0,0,0,0-1.859Z" transform="translate(3.621 7.472)"/>
              <path id="Trazado_878822" data-name="Trazado 878822" d="M11.748,30.642a1.319,1.319,0,0,0,1.859-1.859l-2.189-2.189,2.189-2.189a1.319,1.319,0,0,0-1.859-1.872L8.623,25.658a1.319,1.319,0,0,0,0,1.859Z" transform="translate(-0.012 7.472)"/>
              <path id="Trazado_878823" data-name="Trazado 878823" d="M15.089,29.533a1.319,1.319,0,0,0,.936-.4L19.8,25.366a1.319,1.319,0,0,0-1.859-1.859l-3.824,3.705a1.319,1.319,0,0,0,.976,2.321Z" transform="translate(1.71 7.803)"/>
              <path id="Trazado_878824" data-name="Trazado 878824" d="M47.32,56.5l-6.593-7.463a1.582,1.582,0,0,1-.409-1.068V18.879a4.259,4.259,0,0,0-4.246-4.259H6.233A4.259,4.259,0,0,0,2,18.879V56.854a4.259,4.259,0,0,0,4.259,4.259H45.223a2.782,2.782,0,0,0,2.1-4.615Zm-42.683.356V18.879a1.635,1.635,0,0,1,1.622-1.622H36.125a1.622,1.622,0,0,1,1.609,1.622V47.967A4.259,4.259,0,0,0,38.8,50.723c6.936,7.912,6.593,7.476,6.593,7.608s2.875.092-39.122.092a1.635,1.635,0,0,1-1.635-1.569Z" transform="translate(-2 5.073)"/>
              <path id="Trazado_878825" data-name="Trazado 878825" d="M24.287,38.284h-.448V36.86c0-3.573-4.879-4.707-4.879-2.242a1.319,1.319,0,0,0,1.319,1.319.923.923,0,0,1,.923.923v5.419a.936.936,0,0,1-.923.936,1.319,1.319,0,0,0-1.318,1.318c0,2.439,4.879,1.319,4.879-2.255V40.921h.448a1.319,1.319,0,1,0,0-2.637Z" transform="translate(3.403 11.025)"/>
              <path id="Trazado_878826" data-name="Trazado 878826" d="M12.2,36.856a.923.923,0,0,1,.936-.923,1.319,1.319,0,0,0,1.319-1.319c0-2.439-4.892-1.319-4.892,2.242v1.4H9.119a1.319,1.319,0,0,0,0,2.637h.448v1.385c0,3.587,4.892,4.707,4.892,2.255a1.319,1.319,0,0,0-1.319-1.319.936.936,0,0,1-.936-.936Z" transform="translate(-0.152 11.028)"/>
              <path id="Trazado_878827" data-name="Trazado 878827" d="M18.305,35.613l-4.879,4.879a1.319,1.319,0,0,0,1.859,1.859l4.879-4.866a1.319,1.319,0,0,0-1.859-1.872Z" transform="translate(1.539 11.639)"/>
            </g>
          </g>
        </g>
      </g>
    </g>
  </g>
</svg>
