<svg xmlns="http://www.w3.org/2000/svg" width="75" height="75" viewBox="0 0 75 75">
  <g id="Grupo_1099336" data-name="Grupo 1099336" transform="translate(6806 9931)">
    <circle id="Elipse_9665" data-name="Elipse 9665" cx="37.5" cy="37.5" r="37.5" transform="translate(-6806 -9931)" fill="#2cfedf"/>
    <g id="computacion-en-la-nube" transform="translate(-6870.855 -9923.531)">
      <g id="Grupo_1099306" data-name="Grupo 1099306" transform="translate(87.525 0.808)">
        <g id="Grupo_1099305" data-name="Grupo 1099305">
          <path id="Trazado_873583" data-name="Trazado 873583" d="M119.574,24.853h21.343a4.134,4.134,0,0,0,4.155-3.947q0-.082,0-.165a4.72,4.72,0,0,0-4.72-4.72h-.005c0-.07.005-.14.005-.21a4.721,4.721,0,0,0-6.963-4.153,7.186,7.186,0,0,0-13.574,4.375,4.719,4.719,0,0,0-4.4,4.708q0,.083,0,.165A4.134,4.134,0,0,0,119.574,24.853Z" transform="translate(-115.416 -7.501)" fill="#ddebfd"/>
        </g>
      </g>
      <g id="Grupo_1099308" data-name="Grupo 1099308" transform="translate(93.176 0.808)">
        <g id="Grupo_1099307" data-name="Grupo 1099307" transform="translate(0)">
          <path id="Trazado_873584" data-name="Trazado 873584" d="M187.089,16.023h-.005c0-.07.005-.14.005-.21a4.721,4.721,0,0,0-6.963-4.153A7.172,7.172,0,0,0,167.8,10.48a7.154,7.154,0,0,1,9.481,1.556,2.576,2.576,0,0,0,2.413.948,4.752,4.752,0,0,1,.735-.057,4.251,4.251,0,0,1,4.535,3.389,2.522,2.522,0,0,0,1.668,1.778,4.722,4.722,0,0,1,3.237,4.482q0,.083,0,.165a4,4,0,0,1-.458,1.729,4.088,4.088,0,0,0,2.4-3.562q0-.082,0-.165A4.719,4.719,0,0,0,187.089,16.023Z" transform="translate(-167.799 -7.501)" fill="#bed9fd"/>
        </g>
      </g>
      <g id="Grupo_1099310" data-name="Grupo 1099310" transform="translate(90.213 40.483)">
        <g id="Grupo_1099309" data-name="Grupo 1099309" transform="translate(0)">
          <path id="Trazado_873585" data-name="Trazado 873585" d="M140.336,375.315h23.981v3.417H140.336Z" transform="translate(-140.336 -375.315)" fill="#62a4fb"/>
        </g>
      </g>
      <g id="Grupo_1099312" data-name="Grupo 1099312" transform="translate(84.962 43.9)">
        <g id="Grupo_1099311" data-name="Grupo 1099311">
          <path id="Trazado_873586" data-name="Trazado 873586" d="M125.289,416.84H92.8a1.15,1.15,0,0,1-1.15-1.15v-7.549a1.15,1.15,0,0,1,1.15-1.15h32.486a1.15,1.15,0,0,1,1.15,1.15v7.549A1.15,1.15,0,0,1,125.289,416.84Z" transform="translate(-91.653 -406.991)" fill="#bed9fd"/>
        </g>
      </g>
      <g id="Grupo_1099314" data-name="Grupo 1099314" transform="translate(101.672 47.141)">
        <g id="Grupo_1099313" data-name="Grupo 1099313">
          <path id="Trazado_873587" data-name="Trazado 873587" d="M261.154,440.516H247.236a.672.672,0,0,1-.672-.672v-2.129a.672.672,0,0,1,.672-.672h13.918a.672.672,0,0,1,.672.672v2.129A.672.672,0,0,1,261.154,440.516Z" transform="translate(-246.564 -437.043)" fill="#80b6fc"/>
        </g>
      </g>
      <g id="Grupo_1099316" data-name="Grupo 1099316" transform="translate(84.962 30.634)">
        <g id="Grupo_1099315" data-name="Grupo 1099315">
          <path id="Trazado_873588" data-name="Trazado 873588" d="M125.289,293.853H92.8a1.15,1.15,0,0,1-1.15-1.15v-7.549A1.15,1.15,0,0,1,92.8,284h32.486a1.15,1.15,0,0,1,1.15,1.15V292.7A1.15,1.15,0,0,1,125.289,293.853Z" transform="translate(-91.653 -284.004)" fill="#bed9fd"/>
        </g>
      </g>
      <g id="Grupo_1099318" data-name="Grupo 1099318" transform="translate(101.672 33.875)">
        <g id="Grupo_1099317" data-name="Grupo 1099317">
          <path id="Trazado_873589" data-name="Trazado 873589" d="M261.154,317.53H247.236a.672.672,0,0,1-.672-.672v-2.129a.672.672,0,0,1,.672-.672h13.918a.672.672,0,0,1,.672.672v2.129A.672.672,0,0,1,261.154,317.53Z" transform="translate(-246.564 -314.057)" fill="#80b6fc"/>
        </g>
      </g>
      <g id="Grupo_1099320" data-name="Grupo 1099320" transform="translate(110.959 40.483)">
        <g id="Grupo_1099319" data-name="Grupo 1099319" transform="translate(0)">
          <path id="Trazado_873590" data-name="Trazado 873590" d="M332.662,375.315H335.9v3.417h-3.236Z" transform="translate(-332.662 -375.315)" fill="#5392f9"/>
        </g>
      </g>
      <g id="Grupo_1099322" data-name="Grupo 1099322" transform="translate(115.362 43.9)">
        <g id="Grupo_1099321" data-name="Grupo 1099321">
          <path id="Trazado_873591" data-name="Trazado 873591" d="M376.724,406.992h-3.236a1.15,1.15,0,0,1,1.15,1.15v7.549a1.15,1.15,0,0,1-1.15,1.15h3.236a1.15,1.15,0,0,0,1.15-1.15v-7.549A1.15,1.15,0,0,0,376.724,406.992Z" transform="translate(-373.488 -406.992)" fill="#97c3fc"/>
        </g>
      </g>
      <g id="Grupo_1099324" data-name="Grupo 1099324" transform="translate(113.026 47.141)">
        <g id="Grupo_1099323" data-name="Grupo 1099323" transform="translate(0)">
          <path id="Trazado_873592" data-name="Trazado 873592" d="M355.064,437.044h-3.236a.672.672,0,0,1,.672.672v2.129a.672.672,0,0,1-.672.672h3.236a.672.672,0,0,0,.672-.672v-2.129A.672.672,0,0,0,355.064,437.044Z" transform="translate(-351.828 -437.044)" fill="#62a4fb"/>
        </g>
      </g>
      <g id="Grupo_1099326" data-name="Grupo 1099326" transform="translate(115.362 30.634)">
        <g id="Grupo_1099325" data-name="Grupo 1099325">
          <path id="Trazado_873593" data-name="Trazado 873593" d="M376.724,284.005h-3.236a1.15,1.15,0,0,1,1.15,1.15V292.7a1.15,1.15,0,0,1-1.15,1.15h3.236a1.15,1.15,0,0,0,1.15-1.15v-7.549A1.15,1.15,0,0,0,376.724,284.005Z" transform="translate(-373.488 -284.005)" fill="#97c3fc"/>
        </g>
      </g>
      <g id="Grupo_1099328" data-name="Grupo 1099328" transform="translate(113.026 33.875)">
        <g id="Grupo_1099327" data-name="Grupo 1099327" transform="translate(0)">
          <path id="Trazado_873594" data-name="Trazado 873594" d="M355.064,314.057h-3.236a.672.672,0,0,1,.672.672v2.129a.672.672,0,0,1-.672.672h3.236a.672.672,0,0,0,.672-.672v-2.129A.672.672,0,0,0,355.064,314.057Z" transform="translate(-351.828 -314.057)" fill="#62a4fb"/>
        </g>
      </g>
      <g id="Grupo_1099330" data-name="Grupo 1099330" transform="translate(94.081 21.357)">
        <g id="Grupo_1099329" data-name="Grupo 1099329">
          <path id="Trazado_873595" data-name="Trazado 873595" d="M179.265,201.835h-2.317a.758.758,0,0,1-.758-.758V198.76a.758.758,0,0,1,.758-.758h2.317a.758.758,0,0,1,.758.758v2.317A.758.758,0,0,1,179.265,201.835Z" transform="translate(-176.19 -198.002)" fill="#ffe07d"/>
        </g>
      </g>
      <g id="Grupo_1099332" data-name="Grupo 1099332" transform="translate(104.73 22.436)">
        <g id="Grupo_1099331" data-name="Grupo 1099331" transform="translate(0)">
          <path id="Trazado_873596" data-name="Trazado 873596" d="M278,211.835h-2.317a.758.758,0,0,1-.758-.758V208.76a.758.758,0,0,1,.758-.758H278a.758.758,0,0,1,.758.758v2.317A.758.758,0,0,1,278,211.835Z" transform="translate(-274.92 -208.002)" fill="#ff8086"/>
        </g>
      </g>
      <g id="Grupo_1099334" data-name="Grupo 1099334" transform="translate(104.73 10.708)">
        <g id="Grupo_1099333" data-name="Grupo 1099333" transform="translate(0)">
          <path id="Trazado_873597" data-name="Trazado 873597" d="M278,103.113h-2.317a.758.758,0,0,1-.758-.758v-2.317a.758.758,0,0,1,.758-.758H278a.758.758,0,0,1,.758.758v2.317A.758.758,0,0,1,278,103.113Z" transform="translate(-274.92 -99.28)" fill="#ffe07d"/>
        </g>
      </g>
      <g id="Grupo_1099335" data-name="Grupo 1099335" transform="translate(84.153 -0.001)">
        <path id="Trazado_873598" data-name="Trazado 873598" d="M123.146,447.321a.732.732,0,1,0-.733-.732A.732.732,0,0,0,123.146,447.321Z" transform="translate(-118.286 -397.763)"/>
        <path id="Trazado_873599" data-name="Trazado 873599" d="M152.384,447.321a.732.732,0,1,0-.733-.732A.732.732,0,0,0,152.384,447.321Z" transform="translate(-144.37 -397.763)"/>
        <path id="Trazado_873600" data-name="Trazado 873600" d="M181.621,447.321a.732.732,0,1,0-.733-.732A.732.732,0,0,0,181.621,447.321Z" transform="translate(-170.454 -397.763)"/>
        <path id="Trazado_873601" data-name="Trazado 873601" d="M210.86,447.321a.732.732,0,1,0-.733-.732A.732.732,0,0,0,210.86,447.321Z" transform="translate(-196.539 -397.763)"/>
        <path id="Trazado_873602" data-name="Trazado 873602" d="M122.413,323.6a.733.733,0,1,0,.733-.733.732.732,0,0,0-.733.733Z" transform="translate(-118.286 -288.043)"/>
        <path id="Trazado_873603" data-name="Trazado 873603" d="M151.65,323.6a.733.733,0,1,0,.733-.733A.732.732,0,0,0,151.65,323.6Z" transform="translate(-144.369 -288.043)"/>
        <path id="Trazado_873604" data-name="Trazado 873604" d="M182.354,323.6a.733.733,0,1,0-.732.732A.732.732,0,0,0,182.354,323.6Z" transform="translate(-170.455 -288.043)"/>
        <path id="Trazado_873605" data-name="Trazado 873605" d="M211.592,323.6a.733.733,0,1,0-.733.732A.732.732,0,0,0,211.592,323.6Z" transform="translate(-196.539 -288.043)"/>
        <path id="Trazado_873606" data-name="Trazado 873606" d="M240.546,434.634h13.918a1.483,1.483,0,0,0,1.481-1.481v-2.129a1.483,1.483,0,0,0-1.481-1.481H240.546a1.483,1.483,0,0,0-1.481,1.481v2.129A1.483,1.483,0,0,0,240.546,434.634Zm.137-3.473h13.644v1.855H240.683Z" transform="translate(-222.355 -383.21)"/>
        <path id="Trazado_873607" data-name="Trazado 873607" d="M118.6,41.292a1.961,1.961,0,0,0,1.959-1.959V31.783a1.961,1.961,0,0,0-1.959-1.959H107.456V27.078h.35a1.568,1.568,0,0,0,1.567-1.567V23.193a1.569,1.569,0,0,0-1.567-1.567h-.35V18.97h5.571a4.986,4.986,0,0,0,3.435-1.364,4.83,4.83,0,0,0,1.529-3.364q0-.1,0-.193a5.537,5.537,0,0,0-4.746-5.473,5.53,5.53,0,0,0-7.383-4.655A8,8,0,0,0,90.992,7.949c0,.237.008.474.028.711a5.544,5.544,0,0,0-4.3,5.391c0,.064,0,.128,0,.192a4.83,4.83,0,0,0,1.529,3.364,4.986,4.986,0,0,0,3.435,1.364h3.56v1.578h-.405a1.569,1.569,0,0,0-1.567,1.567v2.317A1.569,1.569,0,0,0,94.838,26h2.317a1.569,1.569,0,0,0,1.567-1.567V22.115a1.569,1.569,0,0,0-1.567-1.567h-.294V18.97h8.976v2.657h-.35a1.568,1.568,0,0,0-1.567,1.567v2.317a1.569,1.569,0,0,0,1.567,1.567h.35v2.747h-11.5a.809.809,0,1,0,0,1.618H118.6a.341.341,0,0,1,.341.341v7.549a.341.341,0,0,1-.341.341H86.112a.341.341,0,0,1-.341-.341V31.784a.341.341,0,0,1,.341-.341H91.1a.809.809,0,1,0,0-1.618H86.112a1.961,1.961,0,0,0-1.959,1.959v7.549a1.961,1.961,0,0,0,1.959,1.959H89.4v1.8H86.112a1.961,1.961,0,0,0-1.959,1.959V52.6a1.961,1.961,0,0,0,1.959,1.959H118.6a1.961,1.961,0,0,0,1.959-1.959V45.05a1.961,1.961,0,0,0-1.959-1.959H115v-1.8H118.6ZM97.1,24.381H94.89V22.166H97.1Zm-5.421-7.029a3.343,3.343,0,0,1-3.347-3.165q0-.068,0-.137a3.917,3.917,0,0,1,3.647-3.9.809.809,0,0,0,.741-.958,6.426,6.426,0,0,1-.113-1.233,6.408,6.408,0,0,1,6.375-6.34q.158,0,.317.008a6.358,6.358,0,0,1,5.466,3.683.809.809,0,0,0,1.119.37,3.912,3.912,0,0,1,5.769,3.442c0,.059,0,.117,0,.175a.809.809,0,0,0,.808.844h.013a3.915,3.915,0,0,1,3.9,3.911q0,.069,0,.137a3.343,3.343,0,0,1-3.347,3.166h-5.571v-2h.35a1.568,1.568,0,0,0,1.567-1.567V11.466A1.569,1.569,0,0,0,107.805,9.9h-2.317a1.568,1.568,0,0,0-1.567,1.567v2.317a1.569,1.569,0,0,0,1.567,1.567h.35v2H91.683Zm13.856-3.62V11.517h2.215v2.215Zm0,9.512h2.215V25.46h-2.215Zm13.4,21.805V52.6a.341.341,0,0,1-.341.341H86.112a.341.341,0,0,1-.341-.341V45.05a.341.341,0,0,1,.341-.341H118.6a.341.341,0,0,1,.341.341Zm-5.554-1.959H91.022v-1.8h22.363Z" transform="translate(-84.153 0.001)"/>
        <path id="Trazado_873608" data-name="Trazado 873608" d="M254.464,311.648a1.483,1.483,0,0,0,1.481-1.481v-2.129a1.483,1.483,0,0,0-1.481-1.481H240.546a1.483,1.483,0,0,0-1.481,1.481v2.129a1.483,1.483,0,0,0,1.481,1.481Zm-13.781-3.473h13.644v1.855H240.683Z" transform="translate(-222.355 -273.49)"/>
      </g>
    </g>
  </g>
</svg>
