<svg xmlns="http://www.w3.org/2000/svg" xmlns:xlink="http://www.w3.org/1999/xlink" width="400" height="168.042" viewBox="0 0 400 168.042">
  <defs>
    <clipPath id="clip-path">
      <rect id="Rectángulo_403418" data-name="Rectángulo 403418" width="256.891" height="132.769" fill="none"/>
    </clipPath>
    <clipPath id="clip-path-2">
      <rect id="Rectángulo_403390" data-name="Rectángulo 403390" width="44.813" height="45.951" fill="none"/>
    </clipPath>
    <clipPath id="clip-path-3">
      <rect id="Rectángulo_403416" data-name="Rectángulo 403416" width="18.13" height="65.003" fill="none"/>
    </clipPath>
    <clipPath id="clip-path-4">
      <rect id="Rectángulo_403417" data-name="Rectángulo 403417" width="61.4" height="61.4" fill="none"/>
    </clipPath>
    <clipPath id="clip-path-5">
      <rect id="Rectángulo_403423" data-name="Rectángulo 403423" width="61.589" height="56.963" fill="none"/>
    </clipPath>
    <clipPath id="clip-path-6">
      <rect id="Rectángulo_403433" data-name="Rectángulo 403433" width="130.944" height="140.402" fill="none"/>
    </clipPath>
    <clipPath id="clip-path-8">
      <rect id="Rectángulo_403429" data-name="Rectángulo 403429" width="7.642" height="2.562" fill="none"/>
    </clipPath>
    <clipPath id="clip-path-9">
      <rect id="Rectángulo_403430" data-name="Rectángulo 403430" width="8.204" height="10.324" fill="none"/>
    </clipPath>
    <clipPath id="clip-path-11">
      <rect id="Rectángulo_403438" data-name="Rectángulo 403438" width="73" height="157" transform="translate(-0.432)" fill="#fff" stroke="#707070" stroke-width="1"/>
    </clipPath>
    <clipPath id="clip-path-12">
      <rect id="Rectángulo_403439" data-name="Rectángulo 403439" width="40" height="86" transform="translate(-0.003)" fill="#fff" stroke="#707070" stroke-width="1"/>
    </clipPath>
  </defs>
  <g id="Grupo_1102261" data-name="Grupo 1102261" transform="translate(-180 -3206)">
    <rect id="Rectángulo_401331" data-name="Rectángulo 401331" width="400" height="168" rx="11" transform="translate(180 3206)" fill="#0b47db"/>
    <g id="Grupo_1102260" data-name="Grupo 1102260" transform="translate(0 1.041)">
      <g id="Grupo_1102244" data-name="Grupo 1102244" transform="translate(251.591 3208.959)">
        <g id="Grupo_1102237" data-name="Grupo 1102237">
          <g id="Grupo_1102236" data-name="Grupo 1102236">
            <g id="Grupo_1102235" data-name="Grupo 1102235" clip-path="url(#clip-path)">
              <path id="Trazado_884068" data-name="Trazado 884068" d="M100.333,26.413,97.2,25.586a42.3,42.3,0,0,1,5.916-12.226C108.846,5.181,116.7.579,125.837.052A26.754,26.754,0,0,1,148.88,10.326a35.948,35.948,0,0,1,6.175,11.149l-3.105.937A33.284,33.284,0,0,0,146.3,12.293a23.324,23.324,0,0,0-20.274-9c-8.192.473-14.987,4.46-20.2,11.85a39.778,39.778,0,0,0-5.494,11.273" transform="translate(-57.788 0)" fill="#f0c518"/>
              <path id="Trazado_884069" data-name="Trazado 884069" d="M90.7,49.833l1.119,13.949,10.052-9.851-6.65.949Z" transform="translate(-53.926 -29.628)" fill="#f0c518"/>
              <path id="Trazado_884070" data-name="Trazado 884070" d="M215.161,36.884l11.19,8.4-.719-14.056-3.7,5.61Z" transform="translate(-127.922 -18.568)" fill="#f0c518"/>
              <path id="Trazado_884071" data-name="Trazado 884071" d="M441.021,30.653l-3.243-.071a33.274,33.274,0,0,0-2.238-11.372A23.323,23.323,0,0,0,419.052,4.368c-7.934-2.089-15.631-.4-22.874,5.009a39.768,39.768,0,0,0-8.717,9.016l-2.726-1.758a42.277,42.277,0,0,1,9.413-9.791c7.985-6,16.882-7.942,25.729-5.613A26.756,26.756,0,0,1,438.6,18.139a35.941,35.941,0,0,1,2.417,12.514" transform="translate(-228.741 -0.163)" fill="#ff6a81"/>
              <path id="Trazado_884072" data-name="Trazado 884072" d="M377.895,26l-3.258,13.61,12.61-6.253L380.63,32.2Z" transform="translate(-222.737 -15.456)" fill="#ff6a81"/>
              <path id="Trazado_884073" data-name="Trazado 884073" d="M502.451,57l8.036,11.457,3.671-13.588-5.251,4.189Z" transform="translate(-298.728 -32.623)" fill="#ff6a81"/>
              <g id="Grupo_1102228" data-name="Grupo 1102228" transform="translate(80.171 68.697)" opacity="0.2">
                <g id="Grupo_1102227" data-name="Grupo 1102227">
                  <g id="Grupo_1102226" data-name="Grupo 1102226" clip-path="url(#clip-path-2)">
                    <path id="Trazado_884074" data-name="Trazado 884074" d="M197.785,171.5l6.979-.192q.147,1.4.386,2.8l-6.769,1.717.8,3.144a48.667,48.667,0,0,0,3.829,10.163l1.475,2.889,6.212-3.173q.742,1.21,1.566,2.368l-5.361,4.465,2.076,2.492a49.105,49.105,0,0,0,7.793,7.493l2.572,1.977,4.253-5.533q1.188.777,2.423,1.471l-2.93,6.331,2.944,1.362a48.709,48.709,0,0,0,10.3,3.433l3.172.675,1.454-6.828c.526.069,1.053.126,1.583.175V191.237c-.4-.066-.808-.137-1.208-.223-.212-.045-.423-.094-.625-.143l-.222-.056c-.156-.039-.312-.08-.463-.121l-.095-.026c-.1-.028-.2-.055-.3-.084l-.082-.024c-.166-.049-.331-.1-.5-.154-.1-.03-.19-.062-.284-.094l-.089-.03q-.2-.066-.4-.137l-.233-.084c-.135-.05-.27-.1-.42-.159l-.2-.077c-.164-.065-.328-.133-.495-.2l-.106-.044q-.3-.13-.6-.268a24.705,24.705,0,0,1-4.753-2.885c-.314-.243-.63-.5-.925-.752l-.106-.09c-.315-.271-.625-.553-.919-.833l-.135-.127q-.109-.106-.218-.214l-.381-.389c-.108-.112-.215-.225-.322-.341l-.157-.17c-.109-.119-.215-.239-.327-.367l-.2-.23a24.671,24.671,0,0,1-3.23-4.84c-.2-.4-.394-.8-.573-1.207-.071-.162-.142-.324-.21-.488l-.024-.057q-.09-.219-.177-.441l-.025-.065c-.064-.165-.126-.332-.187-.5l-.024-.067c-.068-.189-.133-.38-.2-.57-.048-.145-.093-.292-.139-.439-.04-.129-.078-.258-.117-.39l-.071-.242c-.039-.139-.076-.28-.113-.42a24.775,24.775,0,0,1-.674-3.756H197.728Z" transform="translate(-197.728 -169.431)" fill="#0b0542"/>
                  </g>
                </g>
              </g>
              <rect id="Rectángulo_403391" data-name="Rectángulo 403391" width="75.428" height="80.861" transform="translate(163.196 41.461)" fill="#221276"/>
              <path id="Trazado_884075" data-name="Trazado 884075" d="M477.926,134.682v-4.6H402.5V210.11h7.731v-2.089H470.4v2.089h7.731V134.682Z" transform="translate(-239.301 -77.341)" fill="#221276"/>
              <rect id="Rectángulo_403392" data-name="Rectángulo 403392" width="82.836" height="20.361" rx="7.495" transform="translate(159.492 37.758)" fill="#6258cc"/>
              <path id="Trazado_884076" data-name="Trazado 884076" d="M479.052,116.547A1.149,1.149,0,0,1,477.9,117.7h-21.73a1.149,1.149,0,1,1,0-2.3H477.9a1.149,1.149,0,0,1,1.149,1.149" transform="translate(-270.53 -68.609)" fill="#221276"/>
              <rect id="Rectángulo_403393" data-name="Rectángulo 403393" width="6.895" height="6.895" transform="translate(229.834 44.491)" fill="#221276"/>
              <rect id="Rectángulo_403394" data-name="Rectángulo 403394" width="1.881" height="6.895" transform="translate(226.073 44.491)" fill="#ff6a81"/>
              <rect id="Rectángulo_403395" data-name="Rectángulo 403395" width="1.881" height="6.895" transform="translate(222.626 44.491)" fill="#fdfffe"/>
              <rect id="Rectángulo_403396" data-name="Rectángulo 403396" width="1.881" height="6.895" transform="translate(218.865 44.491)" fill="#221276"/>
              <rect id="Rectángulo_403397" data-name="Rectángulo 403397" width="1.881" height="6.895" transform="translate(214.895 44.491)" fill="#221276"/>
              <path id="Trazado_884077" data-name="Trazado 884077" d="M408.645,104.743a.94.94,0,1,0,.94-.94.94.94,0,0,0-.94.94" transform="translate(-242.956 -61.715)" fill="#221276"/>
              <path id="Trazado_884078" data-name="Trazado 884078" d="M419.106,104.743a.94.94,0,1,0,.94-.94.94.94,0,0,0-.94.94" transform="translate(-249.176 -61.715)" fill="#221276"/>
              <path id="Trazado_884079" data-name="Trazado 884079" d="M429.567,104.743a.94.94,0,1,0,.94-.94.94.94,0,0,0-.94.94" transform="translate(-255.395 -61.715)" fill="#221276"/>
              <path id="Trazado_884080" data-name="Trazado 884080" d="M440.028,104.743a.94.94,0,1,0,.94-.94.94.94,0,0,0-.94.94" transform="translate(-261.614 -61.715)" fill="#221276"/>
              <path id="Trazado_884081" data-name="Trazado 884081" d="M408.645,124.583a.94.94,0,1,0,.94-.94.94.94,0,0,0-.94.94" transform="translate(-242.956 -73.511)" fill="#221276"/>
              <path id="Trazado_884082" data-name="Trazado 884082" d="M419.106,124.583a.94.94,0,1,0,.94-.94.94.94,0,0,0-.94.94" transform="translate(-249.176 -73.511)" fill="#221276"/>
              <path id="Trazado_884083" data-name="Trazado 884083" d="M429.567,124.583a.94.94,0,1,0,.94-.94.94.94,0,0,0-.94.94" transform="translate(-255.395 -73.511)" fill="#221276"/>
              <path id="Trazado_884084" data-name="Trazado 884084" d="M440.028,124.583a.94.94,0,1,0,.94-.94.94.94,0,0,0-.94.94" transform="translate(-261.614 -73.511)" fill="#221276"/>
              <path id="Trazado_884085" data-name="Trazado 884085" d="M414.056,114.663a.94.94,0,1,0,.94-.94.94.94,0,0,0-.94.94" transform="translate(-246.173 -67.613)" fill="#221276"/>
              <path id="Trazado_884086" data-name="Trazado 884086" d="M424.517,114.663a.94.94,0,1,0,.94-.94.94.94,0,0,0-.94.94" transform="translate(-252.393 -67.613)" fill="#221276"/>
              <path id="Trazado_884087" data-name="Trazado 884087" d="M434.978,114.663a.94.94,0,1,0,.94-.94.94.94,0,0,0-.94.94" transform="translate(-258.612 -67.613)" fill="#221276"/>
              <path id="Trazado_884088" data-name="Trazado 884088" d="M445.439,114.663a.94.94,0,1,0,.94-.94.94.94,0,0,0-.94.94" transform="translate(-264.832 -67.613)" fill="#221276"/>
              <rect id="Rectángulo_403398" data-name="Rectángulo 403398" width="82.836" height="20.361" rx="7.495" transform="translate(159.492 60.254)" fill="#6258cc"/>
              <path id="Trazado_884089" data-name="Trazado 884089" d="M479.052,172.031a1.149,1.149,0,0,1-1.149,1.149h-21.73a1.149,1.149,0,1,1,0-2.3H477.9a1.149,1.149,0,0,1,1.149,1.149" transform="translate(-270.53 -101.596)" fill="#221276"/>
              <rect id="Rectángulo_403399" data-name="Rectángulo 403399" width="6.895" height="6.895" transform="translate(229.834 66.987)" fill="#221276"/>
              <rect id="Rectángulo_403400" data-name="Rectángulo 403400" width="1.881" height="6.895" transform="translate(226.073 66.987)" fill="#ff6a81"/>
              <rect id="Rectángulo_403401" data-name="Rectángulo 403401" width="1.881" height="6.895" transform="translate(222.626 66.987)" fill="#fdfffe"/>
              <rect id="Rectángulo_403402" data-name="Rectángulo 403402" width="1.881" height="6.895" transform="translate(218.865 66.987)" fill="#221276"/>
              <rect id="Rectángulo_403403" data-name="Rectángulo 403403" width="1.881" height="6.895" transform="translate(214.895 66.987)" fill="#221276"/>
              <path id="Trazado_884090" data-name="Trazado 884090" d="M408.645,160.226a.94.94,0,1,0,.94-.94.94.94,0,0,0-.94.94" transform="translate(-242.956 -94.702)" fill="#221276"/>
              <path id="Trazado_884091" data-name="Trazado 884091" d="M419.106,160.226a.94.94,0,1,0,.94-.94.94.94,0,0,0-.94.94" transform="translate(-249.176 -94.702)" fill="#221276"/>
              <path id="Trazado_884092" data-name="Trazado 884092" d="M429.567,160.226a.94.94,0,1,0,.94-.94.94.94,0,0,0-.94.94" transform="translate(-255.395 -94.702)" fill="#221276"/>
              <path id="Trazado_884093" data-name="Trazado 884093" d="M440.028,160.226a.94.94,0,1,0,.94-.94.94.94,0,0,0-.94.94" transform="translate(-261.614 -94.702)" fill="#221276"/>
              <path id="Trazado_884094" data-name="Trazado 884094" d="M408.645,180.066a.94.94,0,1,0,.94-.94.94.94,0,0,0-.94.94" transform="translate(-242.956 -106.498)" fill="#221276"/>
              <path id="Trazado_884095" data-name="Trazado 884095" d="M419.106,180.066a.94.94,0,1,0,.94-.94.94.94,0,0,0-.94.94" transform="translate(-249.176 -106.498)" fill="#221276"/>
              <path id="Trazado_884096" data-name="Trazado 884096" d="M429.567,180.066a.94.94,0,1,0,.94-.94.94.94,0,0,0-.94.94" transform="translate(-255.395 -106.498)" fill="#221276"/>
              <path id="Trazado_884097" data-name="Trazado 884097" d="M440.028,180.066a.94.94,0,1,0,.94-.94.94.94,0,0,0-.94.94" transform="translate(-261.614 -106.498)" fill="#221276"/>
              <path id="Trazado_884098" data-name="Trazado 884098" d="M414.056,170.146a.94.94,0,1,0,.94-.94.94.94,0,0,0-.94.94" transform="translate(-246.173 -100.6)" fill="#221276"/>
              <path id="Trazado_884099" data-name="Trazado 884099" d="M424.517,170.146a.94.94,0,1,0,.94-.94.94.94,0,0,0-.94.94" transform="translate(-252.393 -100.6)" fill="#221276"/>
              <path id="Trazado_884100" data-name="Trazado 884100" d="M434.978,170.146a.94.94,0,1,0,.94-.94.94.94,0,0,0-.94.94" transform="translate(-258.612 -100.6)" fill="#221276"/>
              <path id="Trazado_884101" data-name="Trazado 884101" d="M445.439,170.146a.94.94,0,1,0,.94-.94.94.94,0,0,0-.94.94" transform="translate(-264.832 -100.6)" fill="#221276"/>
              <rect id="Rectángulo_403404" data-name="Rectángulo 403404" width="82.836" height="20.361" rx="7.495" transform="translate(159.492 82.751)" fill="#6258cc"/>
              <path id="Trazado_884102" data-name="Trazado 884102" d="M479.052,227.514a1.149,1.149,0,0,1-1.149,1.149h-21.73a1.149,1.149,0,1,1,0-2.3H477.9a1.149,1.149,0,0,1,1.149,1.149" transform="translate(-270.53 -134.583)" fill="#221276"/>
              <rect id="Rectángulo_403405" data-name="Rectángulo 403405" width="6.895" height="6.895" transform="translate(229.834 89.483)" fill="#221276"/>
              <rect id="Rectángulo_403406" data-name="Rectángulo 403406" width="1.881" height="6.895" transform="translate(226.073 89.483)" fill="#ff6a81"/>
              <rect id="Rectángulo_403407" data-name="Rectángulo 403407" width="1.881" height="6.895" transform="translate(222.626 89.483)" fill="#fdfffe"/>
              <rect id="Rectángulo_403408" data-name="Rectángulo 403408" width="1.881" height="6.895" transform="translate(218.865 89.483)" fill="#221276"/>
              <rect id="Rectángulo_403409" data-name="Rectángulo 403409" width="1.881" height="6.895" transform="translate(214.895 89.483)" fill="#221276"/>
              <path id="Trazado_884103" data-name="Trazado 884103" d="M408.645,215.71a.94.94,0,1,0,.94-.94.94.94,0,0,0-.94.94" transform="translate(-242.956 -127.689)" fill="#221276"/>
              <path id="Trazado_884104" data-name="Trazado 884104" d="M419.106,215.71a.94.94,0,1,0,.94-.94.94.94,0,0,0-.94.94" transform="translate(-249.176 -127.689)" fill="#221276"/>
              <path id="Trazado_884105" data-name="Trazado 884105" d="M429.567,215.71a.94.94,0,1,0,.94-.94.94.94,0,0,0-.94.94" transform="translate(-255.395 -127.689)" fill="#221276"/>
              <path id="Trazado_884106" data-name="Trazado 884106" d="M440.028,215.71a.94.94,0,1,0,.94-.94.94.94,0,0,0-.94.94" transform="translate(-261.614 -127.689)" fill="#221276"/>
              <path id="Trazado_884107" data-name="Trazado 884107" d="M408.645,235.55a.94.94,0,1,0,.94-.94.94.94,0,0,0-.94.94" transform="translate(-242.956 -139.485)" fill="#221276"/>
              <path id="Trazado_884108" data-name="Trazado 884108" d="M419.106,235.55a.94.94,0,1,0,.94-.94.94.94,0,0,0-.94.94" transform="translate(-249.176 -139.485)" fill="#221276"/>
              <path id="Trazado_884109" data-name="Trazado 884109" d="M429.567,235.55a.94.94,0,1,0,.94-.94.94.94,0,0,0-.94.94" transform="translate(-255.395 -139.485)" fill="#221276"/>
              <path id="Trazado_884110" data-name="Trazado 884110" d="M440.028,235.55a.94.94,0,1,0,.94-.94.94.94,0,0,0-.94.94" transform="translate(-261.614 -139.485)" fill="#221276"/>
              <path id="Trazado_884111" data-name="Trazado 884111" d="M414.056,225.63a.94.94,0,1,0,.94-.94.94.94,0,0,0-.94.94" transform="translate(-246.173 -133.587)" fill="#221276"/>
              <path id="Trazado_884112" data-name="Trazado 884112" d="M424.517,225.63a.94.94,0,1,0,.94-.94.94.94,0,0,0-.94.94" transform="translate(-252.393 -133.587)" fill="#221276"/>
              <path id="Trazado_884113" data-name="Trazado 884113" d="M434.978,225.63a.94.94,0,1,0,.94-.94.94.94,0,0,0-.94.94" transform="translate(-258.612 -133.587)" fill="#221276"/>
              <path id="Trazado_884114" data-name="Trazado 884114" d="M445.439,225.63a.94.94,0,1,0,.94-.94.94.94,0,0,0-.94.94" transform="translate(-264.832 -133.587)" fill="#221276"/>
              <rect id="Rectángulo_403410" data-name="Rectángulo 403410" width="82.836" height="20.361" rx="7.495" transform="translate(159.492 105.247)" fill="#6258cc"/>
              <path id="Trazado_884115" data-name="Trazado 884115" d="M479.052,283a1.149,1.149,0,0,1-1.149,1.149h-21.73a1.149,1.149,0,1,1,0-2.3H477.9A1.149,1.149,0,0,1,479.052,283" transform="translate(-270.53 -167.57)" fill="#221276"/>
              <rect id="Rectángulo_403411" data-name="Rectángulo 403411" width="6.895" height="6.895" transform="translate(229.834 111.979)" fill="#221276"/>
              <rect id="Rectángulo_403412" data-name="Rectángulo 403412" width="1.881" height="6.895" transform="translate(226.073 111.979)" fill="#ff6a81"/>
              <rect id="Rectángulo_403413" data-name="Rectángulo 403413" width="1.881" height="6.895" transform="translate(222.626 111.979)" fill="#fdfffe"/>
              <rect id="Rectángulo_403414" data-name="Rectángulo 403414" width="1.881" height="6.895" transform="translate(218.865 111.979)" fill="#221276"/>
              <rect id="Rectángulo_403415" data-name="Rectángulo 403415" width="1.881" height="6.895" transform="translate(214.895 111.979)" fill="#221276"/>
              <path id="Trazado_884116" data-name="Trazado 884116" d="M408.645,271.193a.94.94,0,1,0,.94-.94.94.94,0,0,0-.94.94" transform="translate(-242.956 -160.676)" fill="#221276"/>
              <path id="Trazado_884117" data-name="Trazado 884117" d="M419.106,271.193a.94.94,0,1,0,.94-.94.94.94,0,0,0-.94.94" transform="translate(-249.176 -160.676)" fill="#221276"/>
              <path id="Trazado_884118" data-name="Trazado 884118" d="M429.567,271.193a.94.94,0,1,0,.94-.94.94.94,0,0,0-.94.94" transform="translate(-255.395 -160.676)" fill="#221276"/>
              <path id="Trazado_884119" data-name="Trazado 884119" d="M440.028,271.193a.94.94,0,1,0,.94-.94.94.94,0,0,0-.94.94" transform="translate(-261.614 -160.676)" fill="#221276"/>
              <path id="Trazado_884120" data-name="Trazado 884120" d="M408.645,291.033a.94.94,0,1,0,.94-.94.94.94,0,0,0-.94.94" transform="translate(-242.956 -172.472)" fill="#221276"/>
              <path id="Trazado_884121" data-name="Trazado 884121" d="M419.106,291.033a.94.94,0,1,0,.94-.94.94.94,0,0,0-.94.94" transform="translate(-249.176 -172.472)" fill="#221276"/>
              <path id="Trazado_884122" data-name="Trazado 884122" d="M429.567,291.033a.94.94,0,1,0,.94-.94.94.94,0,0,0-.94.94" transform="translate(-255.395 -172.472)" fill="#221276"/>
              <path id="Trazado_884123" data-name="Trazado 884123" d="M440.028,291.033a.94.94,0,1,0,.94-.94.94.94,0,0,0-.94.94" transform="translate(-261.614 -172.472)" fill="#221276"/>
              <path id="Trazado_884124" data-name="Trazado 884124" d="M414.056,281.113a.94.94,0,1,0,.94-.94.94.94,0,0,0-.94.94" transform="translate(-246.173 -166.574)" fill="#221276"/>
              <path id="Trazado_884125" data-name="Trazado 884125" d="M424.517,281.113a.94.94,0,1,0,.94-.94.94.94,0,0,0-.94.94" transform="translate(-252.393 -166.574)" fill="#221276"/>
              <path id="Trazado_884126" data-name="Trazado 884126" d="M434.978,281.113a.94.94,0,1,0,.94-.94.94.94,0,0,0-.94.94" transform="translate(-258.612 -166.574)" fill="#221276"/>
              <path id="Trazado_884127" data-name="Trazado 884127" d="M445.439,281.113a.94.94,0,1,0,.94-.94.94.94,0,0,0-.94.94" transform="translate(-264.832 -166.574)" fill="#221276"/>
              <g id="Grupo_1102231" data-name="Grupo 1102231" transform="translate(159.492 37.758)" opacity="0.2">
                <g id="Grupo_1102230" data-name="Grupo 1102230">
                  <g id="Grupo_1102229" data-name="Grupo 1102229" clip-path="url(#clip-path-3)">
                    <path id="Trazado_884128" data-name="Trazado 884128" d="M393.362,96.163v14.283a3.039,3.039,0,0,0,3.039,3.039h.665v2.136H396.4a3.039,3.039,0,0,0-3.039,3.039v14.283a3.039,3.039,0,0,0,3.039,3.039h.665v2.136H396.4a3.039,3.039,0,0,0-3.039,3.039v8.935c.081-.086.165-.169.244-.257l5.459,4.331,1.89-2.382a48.75,48.75,0,0,0,5.724-9.134l1.32-2.739-6.267-3.019q.59-1.5,1.062-3.036l6.783,1.554.68-2.964a48.708,48.708,0,0,0,1.226-10.721l.009-3.041-6.968-.019q-.109-1.586-.337-3.16l6.8-1.5-.656-2.969a48.463,48.463,0,0,0-3.5-10.234l-1.3-2.75-6.292,2.971q-.788-1.393-1.684-2.726L403.045,94l-.689-.88H396.4a3.039,3.039,0,0,0-3.039,3.039" transform="translate(-393.362 -93.124)" fill="#221276"/>
                    <path id="Trazado_884129" data-name="Trazado 884129" d="M393.362,245.54a3.037,3.037,0,0,0,1.625,2.689l.755-.609-2.379-2.947Z" transform="translate(-393.362 -183.225)" fill="#221276"/>
                  </g>
                </g>
              </g>
              <path id="Trazado_884130" data-name="Trazado 884130" d="M295.662,106.591a45.658,45.658,0,0,0,1.149-10.05l-6.859-.02q0-.891-.034-1.786a39.236,39.236,0,0,0-.875-6.744l6.692-1.478a45.445,45.445,0,0,0-3.277-9.592l-6.191,2.923a38.393,38.393,0,0,0-4.519-7.314l5.4-4.222a45.836,45.836,0,0,0-7.059-7.218L275.741,66.4a38.768,38.768,0,0,0-7.2-4.682l3.067-6.123a45.482,45.482,0,0,0-9.509-3.5l-1.634,6.653a38.72,38.72,0,0,0-8.526-1.1l.124-6.859c-.928-.017-1.87-.005-2.8.034a45.811,45.811,0,0,0-9.982,1.539l1.787,6.613a38.273,38.273,0,0,0-8.008,3.155l-3.208-6.048a45.7,45.7,0,0,0-8.353,5.7l4.468,5.2a39.267,39.267,0,0,0-5.853,6.278l-5.5-4.094a45.7,45.7,0,0,0-5.1,8.728l6.257,2.779a38.271,38.271,0,0,0-2.588,8.208l-6.724-1.323a45.764,45.764,0,0,0-.838,10.071l6.858-.189c.006.2.01.4.018.6a39.082,39.082,0,0,0,1.152,7.908L207,107.629a45.457,45.457,0,0,0,3.574,9.485l6.1-3.114a38.487,38.487,0,0,0,4.742,7.168l-5.267,4.387a45.861,45.861,0,0,0,7.277,7l4.179-5.438a38.643,38.643,0,0,0,7.343,4.459l-2.876,6.214a45.467,45.467,0,0,0,9.615,3.2l1.426-6.7a38.894,38.894,0,0,0,8.551.836l.085,6.859c.464-.006.934-.019,1.4-.039a45.925,45.925,0,0,0,8.616-1.192l-1.582-6.669a38.328,38.328,0,0,0,8.1-2.9l3.019,6.144a45.66,45.66,0,0,0,8.528-5.442l-4.3-5.332a39.3,39.3,0,0,0,4.217-3.965q.954-1.039,1.823-2.134l5.372,4.261a45.762,45.762,0,0,0,5.367-8.563l-6.167-2.971a38.243,38.243,0,0,0,2.843-8.123Zm-16.6-8.993q0,.1-.01.209-.026.525-.071,1.046c0,.054-.01.107-.015.16q-.048.517-.114,1.029c0,.024-.006.049-.009.073-.047.351-.1.7-.163,1.047-.02.118-.039.236-.061.354v0c-.022.116-.046.232-.069.348q-.062.309-.131.616a27.683,27.683,0,0,1-2.148,6.127l0,.009q-.147.3-.3.6h0q-.155.3-.317.592v0q-.162.294-.33.583h0q-.168.288-.342.571l-.006.009q-.174.283-.355.562v0h0q-.182.28-.37.556h0q-.189.276-.384.547v0q-.194.269-.395.535l0,.006a28.048,28.048,0,0,1-4.9,5.022q-.183.145-.368.289l-.224.169c-.121.091-.242.181-.364.27l-.229.165c-.126.09-.252.178-.379.265l-.221.152q-.21.141-.422.278l-.188.122q-.3.19-.6.373l-.018.011q-.315.189-.637.37l-.184.1c-.152.084-.3.167-.457.249l-.24.125c-.137.071-.275.142-.413.21a27.693,27.693,0,0,1-6.059,2.175q-.355.082-.712.156l-.157.033q-.426.085-.857.156l-.226.036q-.341.054-.684.1l-.238.032c-.292.036-.586.069-.881.1q-.336.031-.675.055h0q-.357.024-.717.04t-.71.021h-.011a27.873,27.873,0,0,1-6.341-.615q-.359-.077-.715-.164l-.242-.06c-.178-.045-.355-.091-.532-.139-.149-.041-.3-.081-.445-.124h0q-.325-.095-.647-.2l-.011,0c-.142-.045-.281-.093-.422-.14s-.3-.1-.446-.154l-.264-.095c-.156-.057-.311-.116-.465-.176-.077-.03-.155-.059-.232-.09-.188-.075-.375-.152-.561-.231l-.127-.053q-.341-.146-.677-.3a27.924,27.924,0,0,1-5.378-3.265q-.54-.417-1.059-.86L233,117.5q-.532-.459-1.041-.944l-.094-.089,0,0q-.239-.23-.473-.466l0,0c-.085-.086-.169-.174-.253-.262q-.184-.19-.363-.384l-.179-.194q-.185-.2-.366-.41c-.066-.075-.133-.149-.2-.225h0A27.877,27.877,0,0,1,226.339,109q-.341-.672-.647-1.365-.122-.277-.239-.556h0q-.13-.314-.253-.632l0,0q-.123-.317-.238-.639h0q-.116-.322-.223-.649h0c-.054-.164-.105-.33-.157-.5-.045-.146-.088-.292-.131-.438-.027-.093-.054-.185-.081-.279-.044-.157-.086-.316-.128-.474a27.973,27.973,0,0,1-.885-5.893c-.008-.189-.013-.378-.017-.566,0-.138,0-.276-.006-.414,0-.109,0-.218,0-.327,0-.139,0-.277.005-.415s0-.281.009-.42v-.005q.012-.352.032-.7v0c.01-.17.023-.339.036-.508s.03-.356.047-.534c.008-.086.016-.172.025-.257q.036-.345.082-.689c0-.03.007-.06.011-.09.034-.258.073-.515.115-.771.013-.077.027-.154.04-.231q.046-.27.1-.539a27.686,27.686,0,0,1,1.928-6.1c.136-.3.276-.6.423-.9l.058-.114q.213-.428.44-.847c.031-.056.06-.114.091-.17l0,0q.161-.293.33-.582v0c.091-.157.185-.313.28-.468q.294-.483.608-.952l.092-.138q.312-.463.643-.912a28.054,28.054,0,0,1,4.335-4.681c.249-.214.5-.422.761-.628l.153-.122q.378-.3.768-.584.19-.139.382-.275.329-.234.666-.457l.136-.088q.275-.181.555-.356l.213-.131q.27-.165.544-.324l.168-.1q.352-.2.711-.392a27.667,27.667,0,0,1,5.987-2.342c.155-.041.31-.081.465-.118.178-.043.356-.086.535-.127h0c.108-.024.217-.045.325-.068.156-.033.313-.065.471-.1l.3-.055q.221-.04.442-.077l.314-.049c.146-.023.293-.044.44-.064l.315-.042c.151-.019.3-.036.455-.052s.276-.031.414-.044h0q.71-.066,1.43-.1c.44-.019.877-.026,1.312-.024l.24,0a27.773,27.773,0,0,1,7.443,1.1h0q.328.1.652.2h0q.324.1.645.214h0c.16.056.319.114.478.172s.32.12.479.181l.233.09q.317.126.63.259l.068.028c.23.1.459.2.686.307l.21.1q.237.112.471.227a27.965,27.965,0,0,1,5.338,3.456q.5.414.988.852l.086.077q.505.461.988.946l.033.032q.5.5.969,1.027l.039.045q.452.505.879,1.034a27.831,27.831,0,0,1,3.8,6.2h0c.071.16.139.321.208.483.1.246.2.493.3.743l.011.028c.1.259.2.52.288.783.06.17.12.341.177.513h0c.061.185.12.371.177.558q.146.474.274.956l.052.2c.085.328.166.657.24.989a28.079,28.079,0,0,1,.638,4.878c.019.449.026.9.024,1.34,0,.355-.011.708-.026,1.06" transform="translate(-122.239 -30.191)" fill="#00c0cb"/>
              <g id="Grupo_1102234" data-name="Grupo 1102234" transform="translate(98.247 35.495)" opacity="0.2">
                <g id="Grupo_1102233" data-name="Grupo 1102233">
                  <g id="Grupo_1102232" data-name="Grupo 1102232" clip-path="url(#clip-path-4)">
                    <path id="Trazado_884131" data-name="Trazado 884131" d="M242.31,118.243a30.7,30.7,0,1,0,30.7-30.7,30.7,30.7,0,0,0-30.7,30.7" transform="translate(-242.31 -87.543)" fill="#0b0542"/>
                  </g>
                </g>
              </g>
              <path id="Trazado_884132" data-name="Trazado 884132" d="M249.271,122.381A27.877,27.877,0,1,0,277.148,94.5a27.878,27.878,0,0,0-27.877,27.877" transform="translate(-148.202 -56.186)" fill="#fff"/>
            </g>
          </g>
        </g>
        <g id="Grupo_1102240" data-name="Grupo 1102240" transform="translate(186.893 102.141)">
          <rect id="Rectángulo_403419" data-name="Rectángulo 403419" width="57.83" height="53.204" transform="translate(3.759 3.759)" fill="#0e1165"/>
          <rect id="Rectángulo_403420" data-name="Rectángulo 403420" width="57.83" height="53.204" transform="translate(1.807 1.808)" fill="#e2654d"/>
          <rect id="Rectángulo_403421" data-name="Rectángulo 403421" width="57.83" height="53.204" transform="translate(0 0)" fill="#e8bbc7" opacity="0.72"/>
          <rect id="Rectángulo_403422" data-name="Rectángulo 403422" width="53.107" height="48.859" transform="translate(2.362 2.173)" fill="none" stroke="#fff" stroke-linecap="round" stroke-miterlimit="10" stroke-width="1.075"/>
          <g id="Grupo_1102239" data-name="Grupo 1102239" transform="translate(0 0)">
            <g id="Grupo_1102238" data-name="Grupo 1102238" clip-path="url(#clip-path-5)">
              <path id="Trazado_884133" data-name="Trazado 884133" d="M20.181,74.4h0a3.285,3.285,0,0,0,3.285-3.285V45.52a3.285,3.285,0,0,0-6.569,0v25.6A3.285,3.285,0,0,0,20.181,74.4" transform="translate(-10.692 -26.726)" fill="#fff"/>
              <path id="Trazado_884134" data-name="Trazado 884134" d="M47.233,66.914h0a3.285,3.285,0,0,0,3.285-3.285V33.688a3.285,3.285,0,1,0-6.569,0V63.629a3.285,3.285,0,0,0,3.285,3.285" transform="translate(-27.81 -19.239)" fill="#fff"/>
              <path id="Trazado_884135" data-name="Trazado 884135" d="M74.285,56.128h0a3.285,3.285,0,0,0,3.285-3.285v-36.2a3.285,3.285,0,1,0-6.569,0v36.2a3.285,3.285,0,0,0,3.285,3.285" transform="translate(-44.928 -8.453)" fill="#fff"/>
              <path id="Trazado_884136" data-name="Trazado 884136" d="M101.337,78.791h0a3.285,3.285,0,0,0,3.285-3.285V52.458a3.285,3.285,0,1,0-6.569,0V75.507a3.285,3.285,0,0,0,3.285,3.285" transform="translate(-62.046 -31.116)" fill="#fff"/>
              <path id="Trazado_884137" data-name="Trazado 884137" d="M128.389,56.128h0a3.285,3.285,0,0,0,3.285-3.285v-36.2a3.285,3.285,0,0,0-6.569,0v36.2a3.285,3.285,0,0,0,3.285,3.285" transform="translate(-79.164 -8.453)" fill="#e2654d"/>
            </g>
          </g>
        </g>
        <g id="Grupo_1102243" data-name="Grupo 1102243" transform="translate(154.865 104.85)">
          <g id="Grupo_1102242" data-name="Grupo 1102242" transform="translate(0)">
            <g id="Grupo_1102241" data-name="Grupo 1102241">
              <path id="Trazado_884138" data-name="Trazado 884138" d="M39.057,23.08H15.133a11.54,11.54,0,1,1,0-23.08H39.057a11.54,11.54,0,1,1,0,23.08" transform="translate(-3.593)" fill="#8ea6ff"/>
              <rect id="Rectángulo_403424" data-name="Rectángulo 403424" width="19.008" height="6.475" transform="translate(10.181 8.152)" fill="#3459cc"/>
              <rect id="Rectángulo_403425" data-name="Rectángulo 403425" width="1.986" height="6.475" transform="translate(30.358 8.152)" fill="#3459cc"/>
              <rect id="Rectángulo_403426" data-name="Rectángulo 403426" width="1.986" height="6.475" transform="translate(33.339 8.152)" fill="#3459cc"/>
              <rect id="Rectángulo_403427" data-name="Rectángulo 403427" width="1.986" height="6.475" transform="translate(36.321 8.152)" fill="#3459cc"/>
              <rect id="Rectángulo_403428" data-name="Rectángulo 403428" width="1.986" height="6.475" transform="translate(39.303 8.152)" fill="#3459cc"/>
              <path id="Trazado_884139" data-name="Trazado 884139" d="M22.617,7.287l-7.965,7.965,7.965,7.965Z" transform="translate(-9.455 -3.862)" fill="#3459cc"/>
            </g>
          </g>
        </g>
      </g>
      <g id="Grupo_1102257" data-name="Grupo 1102257" transform="translate(271.823 3232.599)">
        <g id="Grupo_1102256" data-name="Grupo 1102256" clip-path="url(#clip-path-6)">
          <g id="Grupo_1102255" data-name="Grupo 1102255">
            <g id="Grupo_1102254" data-name="Grupo 1102254" clip-path="url(#clip-path-6)">
              <path id="Trazado_884140" data-name="Trazado 884140" d="M113.035,193.207c7.73,0,11.8-10.966,13.315-16.239a17.149,17.149,0,0,1-3.566-1.036c-1.4-1.086-1.4-11.171-1.4-11.171l-7.68,1.078-7.68-1.078s0,10.085-1.4,11.171A18.146,18.146,0,0,1,100.911,177c1.178,5.4,4.49,16.2,12.124,16.2" transform="translate(-57.619 -94.076)" fill="#d18491"/>
              <path id="Trazado_884141" data-name="Trazado 884141" d="M97.9,201.8c-3.833-3.339-21.464-6.776-29.171-8.584-1.512,5.273-5.585,16.239-13.315,16.239-7.633,0-10.945-10.8-12.124-16.2-7.784,1.817-25.209,5.231-29.018,8.548C9.465,205.986,0,250.67,0,250.67H112.176S102.711,205.986,97.9,201.8" transform="translate(0 -110.322)" fill="#f0c518"/>
              <path id="Trazado_884142" data-name="Trazado 884142" d="M263.756,161.135l3.258,46.235H251.708s1.807-49.183,1.963-49.649c0,0,1.837-40.635,4.5-40.34.7.078,1.788,1.951,1.88,3.564a130.821,130.821,0,0,1-.53,13.639s8.424-.912,13.7,5.449-5.586,13.5-5.586,13.5Z" transform="translate(-143.721 -67.022)" fill="#d18491"/>
              <path id="Trazado_884143" data-name="Trazado 884143" d="M54.872,45.467a8.305,8.305,0,0,1-6.657-13.02c-2.4-2.141-3.242-5.843-2.593-8.993a9.418,9.418,0,0,1,6.116-6.9c-.368-2.155.949-4.953,2.586-6.4A8.808,8.808,0,0,1,63.06,8.538c.858-3.233,3.255-6.309,6.521-7.029a9.37,9.37,0,0,1,9.026,3.1C80.879,1.748,84.745-.5,88.345.1s6.729,3.84,6.734,7.49a10.261,10.261,0,0,1,9.437,1.017,8.616,8.616,0,0,1,3.621,8.524,5.1,5.1,0,0,1,2.761.653,9.586,9.586,0,0,1,4.59,12.271,9,9,0,0,1,2.52,7.075,12.047,12.047,0,0,1-1.4,4.182c-1.351,2.59-3.435,5.019-6.259,5.764" transform="translate(-25.929 0)" fill="#0e1165"/>
              <path id="Trazado_884144" data-name="Trazado 884144" d="M123.123,64.516c0,12.707-8.039,31.9-23.008,31.9s-23.008-19.2-23.008-31.9,10.3-27.463,23.008-27.463,23.008,14.756,23.008,27.463" transform="translate(-44.027 -21.157)" fill="#d18491"/>
              <g id="Grupo_1102247" data-name="Grupo 1102247" transform="translate(52.479 62.211)" style="mix-blend-mode: multiply;isolation: isolate">
                <g id="Grupo_1102246" data-name="Grupo 1102246">
                  <g id="Grupo_1102245" data-name="Grupo 1102245" clip-path="url(#clip-path-8)">
                    <path id="Trazado_884145" data-name="Trazado 884145" d="M127.146,145.041a11.212,11.212,0,0,0-4.821.666,5.32,5.32,0,0,0,3.843,1.863,5.11,5.11,0,0,0,3.8-2.019,14.419,14.419,0,0,0-2.821-.51" transform="translate(-122.325 -145.008)" fill="#d18491"/>
                  </g>
                </g>
              </g>
              <path id="Trazado_884146" data-name="Trazado 884146" d="M124.684,141.562a14.418,14.418,0,0,1,2.821.51,11.824,11.824,0,0,0,1.895-3.157,11.3,11.3,0,0,1-5.375,1.182,27.255,27.255,0,0,1-6.011-.664,10.425,10.425,0,0,0,1.85,2.8,11.211,11.211,0,0,1,4.821-.666" transform="translate(-67.384 -79.318)" fill="#0e1165"/>
              <path id="Trazado_884147" data-name="Trazado 884147" d="M102.135,162.914a19.5,19.5,0,0,0,19.229,3,16.958,16.958,0,0,0,5.667-3.77,13.634,13.634,0,0,1-5.348,4.478c-6.33,3.046-14.891,1.667-19.548-3.71" transform="translate(-58.317 -92.582)" fill="#0e1165"/>
              <path id="Trazado_884148" data-name="Trazado 884148" d="M110.279,101.312a2.613,2.613,0,1,1-2.613-2.613,2.613,2.613,0,0,1,2.613,2.613" transform="translate(-59.984 -56.356)" fill="#0e1165"/>
              <path id="Trazado_884149" data-name="Trazado 884149" d="M142.556,101.312a2.613,2.613,0,1,0,2.613-2.613,2.613,2.613,0,0,0-2.613,2.613" transform="translate(-81.397 -56.356)" fill="#0e1165"/>
              <path id="Trazado_884150" data-name="Trazado 884150" d="M93.155,91.343a8.99,8.99,0,0,1,5.277-5.721,7.524,7.524,0,0,1,4.049-.927,4.222,4.222,0,0,1,3.548,2.327l-.163.184a8.6,8.6,0,0,0-1.818-.169c-1.115.012-2.139.208-3.262.236a7.468,7.468,0,0,0-1.7.2,9.16,9.16,0,0,0-5.7,3.961l-.227-.094" transform="translate(-53.19 -48.335)" fill="#0e1165"/>
              <path id="Trazado_884151" data-name="Trazado 884151" d="M151.623,91.436a9.157,9.157,0,0,0-5.7-3.961,7.463,7.463,0,0,0-1.7-.2c-1.122-.027-2.147-.224-3.262-.236a8.6,8.6,0,0,0-1.818.168l-.163-.184a4.224,4.224,0,0,1,3.548-2.328,7.527,7.527,0,0,1,4.05.928,9.684,9.684,0,0,1,4.537,3.906,7.612,7.612,0,0,1,.74,1.815Z" transform="translate(-79.353 -48.335)" fill="#0e1165"/>
              <path id="Trazado_884152" data-name="Trazado 884152" d="M72.486,66.529a3.269,3.269,0,0,0,2.209-1.258c3.12-3.369,4.032-8.246,3.987-12.837a7.861,7.861,0,0,0,6.049-.465,7.484,7.484,0,0,0,3.52-4.753,8.368,8.368,0,0,0,6.061,1.811,7.5,7.5,0,0,0,5.1-3.106c2.512,2.62,6.7,3.929,10.059,2.562a9.375,9.375,0,0,0,6.115,4.762c.428,2.432.209,5.322,1.206,7.582a10.565,10.565,0,0,0,4.838,5.4c1.256-5.463.559-11.375-1.086-16.735a35.5,35.5,0,0,0-3.737-8.8c-4.088-6.4-11.6-10.16-19.167-10.732a17.33,17.33,0,0,0-6.935.687c-3.552,1.22-6.351,4.026-8.493,7.111-5.626,8.1-8.842,18.944-9.729,28.768" transform="translate(-41.388 -17.066)" fill="#0e1165"/>
              <path id="Trazado_884153" data-name="Trazado 884153" d="M188.558,106.181a9.417,9.417,0,0,1-4.76,6.25,5.237,5.237,0,0,1-2.469.706,4.629,4.629,0,0,1-4.127-3.547,8.955,8.955,0,0,1,.692-5.55c.914-2.272,2.541-4.606,5.049-4.974,4.043-.591,6.309,3.865,5.616,7.114" transform="translate(-101.066 -56.535)" fill="#d18491"/>
              <g id="Grupo_1102250" data-name="Grupo 1102250" transform="translate(78.102 44.32)" style="mix-blend-mode: multiply;isolation: isolate">
                <g id="Grupo_1102249" data-name="Grupo 1102249">
                  <g id="Grupo_1102248" data-name="Grupo 1102248" clip-path="url(#clip-path-9)">
                    <path id="Trazado_884154" data-name="Trazado 884154" d="M182.051,113.108a4.778,4.778,0,0,0,2.312-1.217.924.924,0,0,0,.29-.426c.076-.323-.17-.632-.4-.884l-1.39-1.532a.8.8,0,0,1-.218-.341.762.762,0,0,1,.073-.43c.671-1.753,1.453-3.638,3.126-4.573a2.476,2.476,0,0,1,3.444.76,7.045,7.045,0,0,1,.964,2.069s.172,3.877-2.745,5.98a5.1,5.1,0,0,1-5.457.6" transform="translate(-182.051 -103.307)" fill="#d18491"/>
                  </g>
                </g>
              </g>
              <path id="Trazado_884155" data-name="Trazado 884155" d="M190.252,106.039c-.656-1.645-2.1-3.633-4.022-2.61a13.147,13.147,0,0,0-3.063,4.417c-.015.034-.071.148-.086.181-1.438-.9-.514-.079-.788-.347l0,.006c.006-.011.018-.04.024-.052a.742.742,0,0,1,.061-.117c.052-.051-.048.018.133-.126,1.26.44.36.558.635.475-.019.061-.051.16-.069.222,0-.006-.019.1-.019.071,0-.009-.007-.051-.007-.036a2.242,2.242,0,0,0,.288.362c.379.435.783.929,1.154,1.375a1.534,1.534,0,0,1,.453.994c-.006.4-.371.692-.626.882a4.487,4.487,0,0,1-2.269.877A4.766,4.766,0,0,0,184.36,111a.31.31,0,0,0-.031-.316c-.383-.53-1.109-1.134-1.579-1.667a1.437,1.437,0,0,1-.524-.818,1.628,1.628,0,0,1,.069-.47l.021-.075c0-.009,0,0,0,0,.276-.085-.624.03.636.466.181-.147.079-.072.13-.121a.447.447,0,0,0,.034-.059c-.013.034-.03.076-.045.11-.276-.266.647.561-.79-.344.018-.052.076-.175.1-.228.849-1.755,1.785-3.62,3.46-4.74,2.4-1.128,4.133,1.126,4.415,3.3" transform="translate(-103.948 -58.492)" fill="#0e1165"/>
              <path id="Trazado_884156" data-name="Trazado 884156" d="M57.371,106.181a9.417,9.417,0,0,0,4.76,6.25,5.237,5.237,0,0,0,2.469.706,4.629,4.629,0,0,0,4.127-3.547,8.955,8.955,0,0,0-.692-5.55c-.914-2.272-2.541-4.606-5.049-4.974-4.043-.591-6.309,3.865-5.616,7.114" transform="translate(-32.687 -56.535)" fill="#d18491"/>
              <g id="Grupo_1102253" data-name="Grupo 1102253" transform="translate(25.869 44.32)" style="mix-blend-mode: multiply;isolation: isolate">
                <g id="Grupo_1102252" data-name="Grupo 1102252">
                  <g id="Grupo_1102251" data-name="Grupo 1102251" clip-path="url(#clip-path-9)">
                    <path id="Trazado_884157" data-name="Trazado 884157" d="M68.5,113.108a4.78,4.78,0,0,1-2.313-1.217.923.923,0,0,1-.29-.426c-.076-.323.169-.632.4-.884l1.39-1.532a.808.808,0,0,0,.218-.341.766.766,0,0,0-.073-.43c-.671-1.753-1.454-3.638-3.127-4.573a2.475,2.475,0,0,0-3.443.76,7.034,7.034,0,0,0-.964,2.069s-.172,3.877,2.746,5.98a5.1,5.1,0,0,0,5.457.6" transform="translate(-60.299 -103.307)" fill="#d18491"/>
                  </g>
                </g>
              </g>
              <path id="Trazado_884158" data-name="Trazado 884158" d="M60.3,106.09c.8-4.755,4.968-4.515,6.981-.645a18.07,18.07,0,0,1,.951,2.23,1.041,1.041,0,0,1-.02.928,16.843,16.843,0,0,1-1.275,1.359,5.036,5.036,0,0,0-.721.8.3.3,0,0,0-.013.311,4.834,4.834,0,0,0,2.3,1.595c-.889-.045-3.293-.914-2.836-2.131a4.31,4.31,0,0,1,.746-1.048c.317-.4.8-.915,1.084-1.3a10.3,10.3,0,0,0-2.325-4.077c-2.186-2.02-3.968-.277-4.871,1.978" transform="translate(-34.432 -58.544)" fill="#0e1165"/>
              <path id="Trazado_884159" data-name="Trazado 884159" d="M127.868,98.576a8.034,8.034,0,0,0,1.923,4.706c1.213,1.287,2.937,2.517,3.3,4.458a5.13,5.13,0,0,1-4.6,6.307,4.586,4.586,0,0,1-2.666-.629A4.716,4.716,0,0,0,131.886,108c-.322-1.73-1.83-2.7-2.844-4.125a6.787,6.787,0,0,1-1.174-5.3" transform="translate(-71.842 -56.285)" fill="#0e1165"/>
              <path id="Trazado_884160" data-name="Trazado 884160" d="M70.07,65.114a5.317,5.317,0,0,1,4.007-6.724,6.086,6.086,0,0,1,4.2-6.309" transform="translate(-39.885 -29.738)" fill="none" stroke="#fff" stroke-linecap="round" stroke-miterlimit="10" stroke-width="1.045"/>
              <path id="Trazado_884161" data-name="Trazado 884161" d="M85.06,32.941a7.329,7.329,0,0,1,8.458,1.505,5.311,5.311,0,0,1,6.813.717" transform="translate(-48.568 -18.39)" fill="none" stroke="#fff" stroke-linecap="round" stroke-miterlimit="10" stroke-width="1.045"/>
              <path id="Trazado_884162" data-name="Trazado 884162" d="M136.022,17.856a6.207,6.207,0,0,1,7.846,4.64,5.775,5.775,0,0,1,5.687,3.3" transform="translate(-77.666 -10.05)" fill="none" stroke="#fff" stroke-linecap="round" stroke-miterlimit="10" stroke-width="1.045"/>
              <path id="Trazado_884163" data-name="Trazado 884163" d="M141.4,47.733a6.92,6.92,0,0,1,7.449,3.932,5.373,5.373,0,0,1,5.86,3.9" transform="translate(-80.739 -27.19)" fill="none" stroke="#fff" stroke-linecap="round" stroke-miterlimit="10" stroke-width="1.045"/>
              <path id="Trazado_884164" data-name="Trazado 884164" d="M187.465,57.277a5.31,5.31,0,0,1,2.906,6.634c1.543.977,1.734,3.652.905,5.279" transform="translate(-107.04 -32.704)" fill="none" stroke="#fff" stroke-linecap="round" stroke-miterlimit="10" stroke-width="1.045"/>
              <path id="Trazado_884165" data-name="Trazado 884165" d="M257.271,171.644c.97-2.207,1.906-6.923,3.3-8.888s3.678-3.048,5.862-4.055c.38-.175.892-.324,1.161,0a.885.885,0,0,1,.161.488c.242,2.348-1.244,4.519-2.887,6.213a1.242,1.242,0,0,0-.473.87,1.255,1.255,0,0,0,.223.54,11.113,11.113,0,0,1,1.313,8.47,9.23,9.23,0,0,1-5.662,6.291" transform="translate(-146.898 -90.506)" fill="none" stroke="#0e1165" stroke-linecap="round" stroke-miterlimit="10" stroke-width="2.061"/>
              <path id="Trazado_884166" data-name="Trazado 884166" d="M282.658,199.861a4.7,4.7,0,0,1-5.738-.543" transform="translate(-158.117 -113.807)" fill="none" stroke="#0e1165" stroke-linecap="round" stroke-miterlimit="10" stroke-width="2.061"/>
              <path id="Trazado_884167" data-name="Trazado 884167" d="M289.129,166.549a33.858,33.858,0,0,1-6.475,15c-.068.09-.165.19-.275.162s-.063-.251.031-.19" transform="translate(-161.198 -95.097)" fill="none" stroke="#0e1165" stroke-linecap="round" stroke-miterlimit="10" stroke-width="2.061"/>
              <path id="Trazado_884168" data-name="Trazado 884168" d="M282.429,160.792c-.621,4.148-2.553,7.967-4.458,11.7" transform="translate(-158.717 -91.81)" fill="none" stroke="#0e1165" stroke-linecap="round" stroke-miterlimit="10" stroke-width="2.061"/>
              <path id="Trazado_884169" data-name="Trazado 884169" d="M92.125,196.114S95.319,214.4,107.991,214.4s16.32-18.24,16.32-18.24" transform="translate(-52.602 -111.978)" fill="none" stroke="#0e1165" stroke-linecap="round" stroke-miterlimit="10" stroke-width="2.061"/>
              <path id="Trazado_884170" data-name="Trazado 884170" d="M47.466,225.883a211.79,211.79,0,0,0,3.8,43.053" transform="translate(-27.09 -128.976)" fill="none" stroke="#0e1165" stroke-linecap="round" stroke-miterlimit="10" stroke-width="2.061"/>
              <path id="Trazado_884171" data-name="Trazado 884171" d="M196.549,225.883a211.791,211.791,0,0,1-3.8,43.053" transform="translate(-110.06 -128.976)" fill="none" stroke="#0e1165" stroke-linecap="round" stroke-miterlimit="10" stroke-width="2.061"/>
              <path id="Trazado_884172" data-name="Trazado 884172" d="M41.246,260.095h76.785V217.83a3.212,3.212,0,0,0-3.212-3.212H44.458a3.212,3.212,0,0,0-3.212,3.212Z" transform="translate(-23.551 -122.544)" fill="#8ea6ff"/>
              <path id="Trazado_884173" data-name="Trazado 884173" d="M48.643,262.595h70.439V223.823a2.947,2.947,0,0,0-2.946-2.946H51.589a2.947,2.947,0,0,0-2.946,2.946Z" transform="translate(-27.774 -126.117)" fill="none" stroke="#3459cc" stroke-linecap="round" stroke-miterlimit="10" stroke-width="1.933"/>
              <path id="Trazado_884174" data-name="Trazado 884174" d="M128.167,260.762A7.766,7.766,0,1,1,120.4,253a7.766,7.766,0,0,1,7.766,7.766" transform="translate(-64.313 -144.457)" fill="#fdffff"/>
              <path id="Trazado_884175" data-name="Trazado 884175" d="M126.394,209.186h-9.779a2.047,2.047,0,1,1,0-4.094h9.779a2.047,2.047,0,1,1,0,4.094" transform="translate(-65.417 -117.104)" fill="#0e1165"/>
              <path id="Trazado_884176" data-name="Trazado 884176" d="M34.727,321.509h82.379v-.791a3.44,3.44,0,0,0-3.439-3.44h-75.5a3.44,3.44,0,0,0-3.44,3.44Z" transform="translate(-19.829 -181.161)" fill="#fdffff"/>
              <path id="Trazado_884177" data-name="Trazado 884177" d="M121.175,207.946a1.253,1.253,0,1,1-1.253-1.253,1.253,1.253,0,0,1,1.253,1.253" transform="translate(-67.758 -118.018)" fill="#fdffff"/>
              <path id="Trazado_884178" data-name="Trazado 884178" d="M128.957,209.449h4.575a.94.94,0,0,0,0-1.88h-4.575a.94.94,0,0,0,0,1.88" transform="translate(-73.096 -118.519)" fill="#8ea6ff"/>
              <path id="Trazado_884179" data-name="Trazado 884179" d="M127.434,257.816a9.979,9.979,0,1,1-9.979-9.979A9.979,9.979,0,0,1,127.434,257.816Z" transform="translate(-61.368 -141.511)" fill="none" stroke="#3459cc" stroke-linecap="round" stroke-miterlimit="10" stroke-width="1.933"/>
            </g>
          </g>
        </g>
      </g>
      <g id="Grupo_1102258" data-name="Grupo 1102258" transform="translate(404.768 3355.048)">
        <path id="Trazado_884180" data-name="Trazado 884180" d="M19.59,95.308H6.375a6.374,6.374,0,1,1,0-12.749H19.59a6.374,6.374,0,1,1,0,12.749" transform="translate(0 -82.559)" fill="#e2654d"/>
        <rect id="Rectángulo_403434" data-name="Rectángulo 403434" width="15.072" height="1.727" transform="translate(5.557 3.369)" fill="#fdffff"/>
        <rect id="Rectángulo_403435" data-name="Rectángulo 403435" width="15.072" height="1.727" transform="translate(5.557 6.98)" fill="#fdffff"/>
      </g>
      <g id="Grupo_1102259" data-name="Grupo 1102259" transform="translate(404.768 3340.399)">
        <path id="Trazado_884181" data-name="Trazado 884181" d="M19.59,95.308H6.375a6.374,6.374,0,1,1,0-12.749H19.59a6.374,6.374,0,1,1,0,12.749" transform="translate(0 -82.559)" fill="#e2654d"/>
        <rect id="Rectángulo_403436" data-name="Rectángulo 403436" width="15.072" height="1.727" transform="translate(5.557 3.369)" fill="#fdffff"/>
        <rect id="Rectángulo_403437" data-name="Rectángulo 403437" width="15.072" height="1.727" transform="translate(5.557 6.98)" fill="#fdffff"/>
      </g>
    </g>
    <g id="Enmascarar_grupo_1098738" data-name="Enmascarar grupo 1098738" transform="translate(180.432 3212)" clip-path="url(#clip-path-11)">
      <g id="Trazado_884182" data-name="Trazado 884182" transform="translate(-73.829 10.404)" fill="none">
        <path d="M67.53,0A67.53,67.53,0,1,1,0,67.53,67.53,67.53,0,0,1,67.53,0Z" stroke="none"/>
        <path d="M 67.52999114990234 15.99999237060547 C 39.11625671386719 15.99999237060547 15.99999237060547 39.11625671386719 15.99999237060547 67.52999114990234 C 15.99999237060547 95.9437255859375 39.11625671386719 119.0599899291992 67.52999114990234 119.0599899291992 C 95.9437255859375 119.0599899291992 119.0599899291992 95.9437255859375 119.0599899291992 67.52999114990234 C 119.0599899291992 39.11625671386719 95.9437255859375 15.99999237060547 67.52999114990234 15.99999237060547 M 67.52999114990234 -1.52587890625e-05 C 104.8257904052734 -1.52587890625e-05 135.0599975585938 30.23419189453125 135.0599975585938 67.52999114990234 C 135.0599975585938 104.8257904052734 104.8257904052734 135.0599975585938 67.52999114990234 135.0599975585938 C 30.23419189453125 135.0599975585938 -1.52587890625e-05 104.8257904052734 -1.52587890625e-05 67.52999114990234 C -1.52587890625e-05 30.23419189453125 30.23419189453125 -1.52587890625e-05 67.52999114990234 -1.52587890625e-05 Z" stroke="none" fill="#f0c518"/>
      </g>
    </g>
    <g id="Enmascarar_grupo_1098739" data-name="Enmascarar grupo 1098739" transform="translate(540.003 3206)" clip-path="url(#clip-path-12)">
      <g id="Trazado_884183" data-name="Trazado 884183" transform="translate(6.211 5.7)" fill="none">
        <path d="M37,0A37,37,0,1,0,74,37,37,37,0,0,0,37,0Z" stroke="none"/>
        <path d="M 36.99977111816406 15.99999618530273 C 25.42044448852539 15.99999618530273 15.99999618530273 25.42044448852539 15.99999618530273 36.99977111816406 C 15.99999618530273 48.57909393310547 25.42044448852539 57.99954605102539 36.99977111816406 57.99954605102539 C 48.57909393310547 57.99954605102539 57.99954605102539 48.57909393310547 57.99954605102539 36.99977111816406 C 57.99954605102539 25.42044448852539 48.57909393310547 15.99999618530273 36.99977111816406 15.99999618530273 M 36.99977111816406 -7.62939453125e-06 C 57.43417358398438 -7.62939453125e-06 73.99954986572266 16.56537246704102 73.99954986572266 36.99977111816406 C 73.99954986572266 57.43419647216797 57.43417358398438 73.99954986572266 36.99977111816406 73.99954986572266 C 16.56537246704102 73.99954986572266 -7.62939453125e-06 57.43419647216797 -7.62939453125e-06 36.99977111816406 C -7.62939453125e-06 16.56537246704102 16.56537246704102 -7.62939453125e-06 36.99977111816406 -7.62939453125e-06 Z" stroke="none" fill="#f0c518"/>
      </g>
    </g>
  </g>
</svg>
