<svg xmlns="http://www.w3.org/2000/svg" width="75" height="75" viewBox="0 0 75 75">
  <g id="Grupo_1099382" data-name="Grupo 1099382" transform="translate(6490 9931)">
    <circle id="Elipse_9665" data-name="Elipse 9665" cx="37.5" cy="37.5" r="37.5" transform="translate(-6490 -9931)" fill="#2cfedf"/>
    <g id="programacion" transform="translate(-6482 -9923)">
      <g id="Grupo_1099380" data-name="Grupo 1099380" transform="translate(1.919 1.919)">
        <g id="Grupo_1099367" data-name="Grupo 1099367" transform="translate(0 6.435)">
          <path id="Trazado_873629" data-name="Trazado 873629" d="M19.468,15.435v6.435H13.952v2.455a1.228,1.228,0,0,1-1.223,1.223,1.241,1.241,0,0,1-.984-.487l-2.39-3.19H2.919A.922.922,0,0,1,2,20.952V9.919A.922.922,0,0,1,2.919,9H20.157a10.173,10.173,0,0,0-.69,3.677Z" transform="translate(-2 -9)" fill="#ffeaa7"/>
        </g>
        <g id="Grupo_1099368" data-name="Grupo 1099368" transform="translate(16.971 51.484)">
          <path id="Trazado_873630" data-name="Trazado 873630" d="M41.486,59.434a2.587,2.587,0,0,1-2.565,2.243h-15.7a2.587,2.587,0,0,1-2.565-2.243L20.46,58H41.679Z" transform="translate(-20.46 -58)" fill="#aab2bd"/>
        </g>
        <g id="Grupo_1099369" data-name="Grupo 1099369" transform="translate(15.629 38.613)">
          <path id="Trazado_873631" data-name="Trazado 873631" d="M20.039,54.582l-1.02-7.649c-.009-.12-.018-.23-.018-.349A2.586,2.586,0,0,1,21.583,44H40.32A2.574,2.574,0,0,1,42.9,46.583c0,.12-.009.23-.018.349l-1.02,7.649-.3,2.289H20.342Z" transform="translate(-19 -44)" fill="#ccd1d9"/>
        </g>
        <g id="Grupo_1099370" data-name="Grupo 1099370" transform="translate(11.032 25.797)">
          <path id="Trazado_873632" data-name="Trazado 873632" d="M39.742,42.876H21.18A2.586,2.586,0,0,0,18.6,45.459c0,.12.009.23.018.349l1.02,7.649-1.545-.892A8.118,8.118,0,0,1,14,45.514a8.4,8.4,0,0,1,.156-1.59l1.5-7.484.009-.037a8.112,8.112,0,0,1,6.307-6.344,13.916,13.916,0,0,0,6.739,6.38v.919a1.839,1.839,0,0,0,3.677,0V36.44a13.917,13.917,0,0,0,6.739-6.38A8.081,8.081,0,0,1,44.973,34.9c.083.193.156.4.221.6a7.342,7.342,0,0,1,.239.91l1.508,7.52a8.4,8.4,0,0,1,.156,1.59,8.118,8.118,0,0,1-4.091,7.051l-1.545.892,1.02-7.649c.009-.12.018-.23.018-.349a2.574,2.574,0,0,0-2.583-2.583Z" transform="translate(-14 -30.06)" fill="#ff826e"/>
        </g>
        <g id="Grupo_1099371" data-name="Grupo 1099371" transform="translate(17.468)">
          <path id="Trazado_873633" data-name="Trazado 873633" d="M41.161,11.01a9.911,9.911,0,0,0-1.5-4.3A10.112,10.112,0,0,0,21,12.113v9.331a13.949,13.949,0,0,0,8.274,12.733h3.677A13.916,13.916,0,0,0,39.69,27.8a10.325,10.325,0,0,0,.45-.975,13.809,13.809,0,0,0,1.085-5.378V12.113a8.88,8.88,0,0,0-.064-1.1Z" transform="translate(-21 -2)" fill="#aab2bd"/>
        </g>
        <g id="Grupo_1099372" data-name="Grupo 1099372" transform="translate(25.742 29.419)">
          <path id="Trazado_873634" data-name="Trazado 873634" d="M33.135,34.542a1.8,1.8,0,0,1,.542,1.3v1.839a1.839,1.839,0,0,1-3.677,0V35.839A1.844,1.844,0,0,1,31.839,34,1.8,1.8,0,0,1,33.135,34.542Z" transform="translate(-30 -34)" fill="#fcd770"/>
        </g>
        <g id="Grupo_1099374" data-name="Grupo 1099374" transform="translate(36.134 3.677)">
          <g id="Grupo_1099373" data-name="Grupo 1099373">
            <path id="Trazado_873635" data-name="Trazado 873635" d="M46.541,6A13.724,13.724,0,0,0,41.3,7.036a9.9,9.9,0,0,1,1.495,4.3,8.88,8.88,0,0,1,.064,1.1v9.331a13.809,13.809,0,0,1-1.085,5.378,10.324,10.324,0,0,1-.45.975,8.081,8.081,0,0,1,5.847,4.836c.081.188.152.385.215.582A13.782,13.782,0,0,0,46.541,6Z" transform="translate(-41.304 -6)" fill="#69d6f4"/>
          </g>
        </g>
        <g id="Grupo_1099375" data-name="Grupo 1099375" transform="translate(21.145 17.468)">
          <path id="Trazado_873636" data-name="Trazado 873636" d="M28.622,26.792l-.735,3.668A10.591,10.591,0,0,1,25,23.188V21a6.4,6.4,0,0,0,1.885,4.551Z" transform="translate(-25 -21)" fill="#e6e9ed"/>
        </g>
        <g id="Grupo_1099376" data-name="Grupo 1099376" transform="translate(30.394 17.468)">
          <path id="Trazado_873637" data-name="Trazado 873637" d="M38.682,21v2.188A10.591,10.591,0,0,1,35.8,30.46l-.735-3.668A6.447,6.447,0,0,0,38.682,21Z" transform="translate(-35.06 -21)" fill="#e6e9ed"/>
        </g>
        <g id="Grupo_1099377" data-name="Grupo 1099377" transform="translate(21.145 5.516)">
          <path id="Trazado_873638" data-name="Trazado 873638" d="M32.346,13.516a.607.607,0,0,1,.009.129,1.936,1.936,0,0,1-1.692,1.921L25,16.274V14.435a6.435,6.435,0,1,1,12.871,0v2.758a8.573,8.573,0,0,0-5.056-3.558l-.46-.12Z" transform="translate(-25 -8)" fill="#b27946"/>
        </g>
        <g id="Grupo_1099378" data-name="Grupo 1099378" transform="translate(24.032 23.26)">
          <path id="Trazado_873639" data-name="Trazado 873639" d="M34.5,27.3l.735,3.668v.009a10.658,10.658,0,0,1-3.549,2.482,10.658,10.658,0,0,1-3.549-2.482v-.009l.735-3.668a6.471,6.471,0,0,0,5.626,0Z" transform="translate(-28.14 -27.3)" fill="#f0d0b4"/>
        </g>
        <g id="Grupo_1099379" data-name="Grupo 1099379" transform="translate(21.145 11.032)">
          <path id="Trazado_873640" data-name="Trazado 873640" d="M37.871,17.677v2.758a6.442,6.442,0,0,1-9.249,5.792l-1.738-1.241A6.4,6.4,0,0,1,25,20.435V16.758l5.663-.708a1.936,1.936,0,0,0,1.692-1.921A.607.607,0,0,0,32.346,14h.009l.46.12A8.573,8.573,0,0,1,37.871,17.677Z" transform="translate(-25 -14)" fill="#f0d0b4"/>
        </g>
      </g>
      <g id="Grupo_1099381" data-name="Grupo 1099381" transform="translate(1 1)">
        <ellipse id="Elipse_11477" data-name="Elipse 11477" cx="1" cy="0.5" rx="1" ry="0.5" transform="translate(25 16)"/>
        <ellipse id="Elipse_11478" data-name="Elipse 11478" cx="1" cy="0.5" rx="1" ry="0.5" transform="translate(30 16)"/>
        <path id="Trazado_873641" data-name="Trazado 873641" d="M29.751,21.553l-1.645.823.1.194a3.895,3.895,0,0,0,6.967,0l.1-.194-1.645-.823-.1.195a2.056,2.056,0,0,1-3.677,0Z" transform="translate(-3.186 -2.657)"/>
        <path id="Trazado_873642" data-name="Trazado 873642" d="M5,47.355h5.516V40H5Zm1.839-5.516H8.677v3.677H6.839Z" transform="translate(-1.323 -4.145)"/>
        <path id="Trazado_873643" data-name="Trazado 873643" d="M1,40H2.839v7.355H1Z" transform="translate(-1 -4.145)"/>
        <path id="Trazado_873644" data-name="Trazado 873644" d="M6.516,30H1v7.355H6.516ZM4.677,35.516H2.839V31.839H4.677Z" transform="translate(-1 -3.339)"/>
        <path id="Trazado_873645" data-name="Trazado 873645" d="M9,30h1.839v7.355H9Z" transform="translate(-1.645 -3.339)"/>
        <path id="Trazado_873646" data-name="Trazado 873646" d="M58,19.387A14.676,14.676,0,0,0,38.393,5.531a11,11,0,0,0-18.909,1.9H2.839A1.841,1.841,0,0,0,1,9.274V20.306a1.841,1.841,0,0,0,1.839,1.839H8.815l2.115,2.819a2.145,2.145,0,0,0,3.861-1.286V22.145H18.5a14.8,14.8,0,0,0,1.147,4.983,8.964,8.964,0,0,0-2.1,1.045v-.512H12.032v7.355h1.453L12.208,41.4a9.039,9.039,0,0,0,4.379,9.621l1.153.659.437,3.276A3.515,3.515,0,0,0,21.651,58h15.7a3.515,3.515,0,0,0,3.474-3.043l.437-3.276,1.153-.659A9.037,9.037,0,0,0,46.792,41.4L45.3,33.948A14.722,14.722,0,0,0,58,19.387ZM40.609,27.661h5.5a16.971,16.971,0,0,1-2,3.274A8.977,8.977,0,0,0,40.609,27.661ZM46.1,11.113H40.485a16.323,16.323,0,0,1,2.8-4.229A16.446,16.446,0,0,1,46.1,11.113Zm10.017,7.355H49.692a21.738,21.738,0,0,0-.907-5.516H54.42A12.748,12.748,0,0,1,56.114,18.468Zm-8.261,0H40.532V12.952h6.3A19.549,19.549,0,0,1,47.853,18.468ZM39.84,25.823a14.79,14.79,0,0,0,.692-4.458V20.306H47.86a19.612,19.612,0,0,1-1.013,5.516ZM49.7,20.306h6.418a12.784,12.784,0,0,1-1.7,5.516h-5.64A21.578,21.578,0,0,0,49.7,20.306Zm3.436-9.194H48.118A18.949,18.949,0,0,0,45.58,6.732,12.858,12.858,0,0,1,53.135,11.113ZM41.015,6.725a18.048,18.048,0,0,0-1.127,1.628,11.01,11.01,0,0,0-.518-1.22A12.678,12.678,0,0,1,41.015,6.725ZM20.306,12.032a9.194,9.194,0,1,1,18.387,0v9.332A13.021,13.021,0,0,1,32.2,32.617a2.749,2.749,0,0,0-.686-1.31,11.52,11.52,0,0,0,5.341-9.728V13.871a7.355,7.355,0,1,0-14.71,0v7.708a11.52,11.52,0,0,0,5.341,9.728,2.746,2.746,0,0,0-.686,1.31,13.021,13.021,0,0,1-6.493-11.252Zm14.71,2.179a9.482,9.482,0,0,0-3.83-2.012,2.883,2.883,0,0,0-2.737-2.006,2.63,2.63,0,0,0-2.627,2.627v.131h1.839V12.82a.789.789,0,0,1,.788-.788A1.052,1.052,0,0,1,29.5,13.083a1.018,1.018,0,0,1-.89,1.008l-4.626.577v-.8a5.516,5.516,0,0,1,11.032,0Zm-11.032,2.31,4.854-.607a2.862,2.862,0,0,0,2.31-1.808,7.624,7.624,0,0,1,3.868,2.823v2.457a5.516,5.516,0,0,1-11.032,0ZM33.554,26.7l-.21-1.05a7.415,7.415,0,0,0,1.09-.82A9.765,9.765,0,0,1,33.554,26.7Zm-7.9-1.05-.21,1.05a9.706,9.706,0,0,1-.88-1.87,7.311,7.311,0,0,0,1.089.82Zm1.718.781a7.3,7.3,0,0,0,4.251,0l.423,2.113A9.649,9.649,0,0,1,29.5,30.329a9.656,9.656,0,0,1-2.548-1.791Zm1.206,6.752a.91.91,0,0,1,.792-.894l.128.055.128-.055a.91.91,0,0,1,.792.894v1.839a.919.919,0,0,1-1.839,0ZM12.952,20.306v3.371a.319.319,0,0,1-.553.184L9.734,20.306h-6.9V9.274H18.831a10.964,10.964,0,0,0-.363,2.758v.539L16.36,10.463l-1.3,1.3,3.027,3.027L15.06,17.818l1.3,1.3,2.108-2.108v3.3Zm.919,9.194H15.71v.312a8.978,8.978,0,0,0-1.8,3.366h-.037Zm6.264,11.952h18.73a1.668,1.668,0,0,1,1.667,1.667,1.627,1.627,0,0,1-.015.221L39.3,52.484H19.7l-1.22-9.145a1.766,1.766,0,0,1-.014-.221A1.668,1.668,0,0,1,20.135,41.452Zm17.214,14.71h-15.7A1.671,1.671,0,0,1,20,54.715l-.052-.393H39.053L39,54.715A1.671,1.671,0,0,1,37.349,56.161Zm4.218-6.778.774-5.8a3.579,3.579,0,0,0,.03-.464A3.511,3.511,0,0,0,39.613,39.7V37.071l.823-1.645L38.791,34.6l-1.017,2.035v2.975H21.226V36.638L20.21,34.605l-1.645.823.822,1.644V39.7a3.51,3.51,0,0,0-2.758,3.422,3.554,3.554,0,0,0,.03.463l.774,5.8a7.193,7.193,0,0,1-3.423-7.621l1.5-7.518A7.156,7.156,0,0,1,20.473,28.8a14.844,14.844,0,0,0,6.268,5.872v.346a2.758,2.758,0,0,0,5.516,0V34.67A14.833,14.833,0,0,0,38.525,28.8a7.155,7.155,0,0,1,4.959,5.446l1.5,7.518a7.178,7.178,0,0,1-3.421,7.62Zm4-17.335a19.143,19.143,0,0,0,2.546-4.386h5.01A12.832,12.832,0,0,1,45.571,32.048Z" transform="translate(-1 -1)"/>
        <path id="Trazado_873647" data-name="Trazado 873647" d="M7.913,11.293,3.586,15.62l4.327,4.327,1.3-1.3L6.186,15.62l3.027-3.027Z" transform="translate(-1.209 -1.83)"/>
        <path id="Trazado_873648" data-name="Trazado 873648" d="M0,0H7.581V1.838H0Z" transform="translate(9.217 17.243) rotate(-75.992)"/>
      </g>
    </g>
  </g>
</svg>
