<svg xmlns="http://www.w3.org/2000/svg" xmlns:xlink="http://www.w3.org/1999/xlink" width="295" height="242" viewBox="0 0 295 242">
  <defs>
    <clipPath id="clip-path">
      <rect id="Rectángulo_401365" data-name="Rectángulo 401365" width="294.586" height="195.978" fill="none"/>
    </clipPath>
    <clipPath id="clip-path-3">
      <rect id="Rectángulo_401352" data-name="Rectángulo 401352" width="275.293" height="195.978" fill="none"/>
    </clipPath>
  </defs>
  <g id="Grupo_1099415" data-name="Grupo 1099415" transform="translate(-178 -2515)">
    <rect id="Rectángulo_401229" data-name="Rectángulo 401229" width="295" height="242" transform="translate(178 2515)" fill="#aec4fa"/>
    <g id="Grupo_1099414" data-name="Grupo 1099414" transform="translate(178.414 2537.606)">
      <g id="Grupo_1099413" data-name="Grupo 1099413" clip-path="url(#clip-path)">
        <g id="Grupo_1099396" data-name="Grupo 1099396">
          <g id="Grupo_1099395" data-name="Grupo 1099395" clip-path="url(#clip-path)">
            <path id="Trazado_873695" data-name="Trazado 873695" d="M293.517,105.8a115.025,115.025,0,0,0-10.954-38.888C265.317,30.371,229.871-1.55,187.375.059,160.126,1.09,133.1,4.618,105.994,7.414,82.859,9.8,59.844,11.986,41.625,28.052A67.674,67.674,0,0,0,23.481,53.512c-10.857,27.187-2.743,59.281,14.8,82.716s43.248,39.428,69.675,52.021c10.776,5.135,22.867,9.893,34.366,6.69,7.081-1.973,13.014-6.758,19.734-9.737,22.612-10.023,48.832,1.769,73.435-.772a63.51,63.51,0,0,0,38.82-18.91c12.181-12.633,18.638-30.168,19.456-47.7a90.549,90.549,0,0,0-.251-12.018" transform="translate(-10.921 0)" fill="#d6e1fd"/>
          </g>
        </g>
        <line id="Línea_602" data-name="Línea 602" x2="3.909" y2="3.909" transform="translate(84.723 19.58)" fill="none" stroke="#263238" stroke-linecap="round" stroke-linejoin="round" stroke-width="1"/>
        <line id="Línea_603" data-name="Línea 603" x1="3.909" y2="3.909" transform="translate(84.723 19.58)" fill="none" stroke="#263238" stroke-linecap="round" stroke-linejoin="round" stroke-width="1"/>
        <line id="Línea_604" data-name="Línea 604" x2="3.909" y2="3.909" transform="translate(279.453 91.778)" fill="none" stroke="#263238" stroke-linecap="round" stroke-linejoin="round" stroke-width="1"/>
        <line id="Línea_605" data-name="Línea 605" x1="3.909" y2="3.909" transform="translate(279.453 91.778)" fill="none" stroke="#263238" stroke-linecap="round" stroke-linejoin="round" stroke-width="1"/>
        <line id="Línea_606" data-name="Línea 606" x2="3.909" y2="3.909" transform="translate(53.808 154.621)" fill="none" stroke="#263238" stroke-linecap="round" stroke-linejoin="round" stroke-width="1"/>
        <line id="Línea_607" data-name="Línea 607" x1="3.909" y2="3.909" transform="translate(53.808 154.621)" fill="none" stroke="#263238" stroke-linecap="round" stroke-linejoin="round" stroke-width="1"/>
        <line id="Línea_608" data-name="Línea 608" x2="3.909" y2="3.909" transform="translate(170.763 5.24)" fill="none" stroke="#263238" stroke-linecap="round" stroke-linejoin="round" stroke-width="1"/>
        <line id="Línea_609" data-name="Línea 609" x1="3.909" y2="3.909" transform="translate(170.763 5.24)" fill="none" stroke="#263238" stroke-linecap="round" stroke-linejoin="round" stroke-width="1"/>
        <line id="Línea_610" data-name="Línea 610" x2="3.909" y2="3.909" transform="translate(173.281 184.258)" fill="none" stroke="#263238" stroke-linecap="round" stroke-linejoin="round" stroke-width="1"/>
        <line id="Línea_611" data-name="Línea 611" x1="3.909" y2="3.909" transform="translate(173.281 184.258)" fill="none" stroke="#263238" stroke-linecap="round" stroke-linejoin="round" stroke-width="1"/>
        <line id="Línea_612" data-name="Línea 612" x2="3.087" y2="3.087" transform="translate(214.923 169.918)" fill="none" stroke="#263238" stroke-linecap="round" stroke-linejoin="round" stroke-width="1"/>
        <line id="Línea_613" data-name="Línea 613" x1="3.087" y2="3.087" transform="translate(214.923 169.918)" fill="none" stroke="#263238" stroke-linecap="round" stroke-linejoin="round" stroke-width="1"/>
        <line id="Línea_614" data-name="Línea 614" x2="3.087" y2="3.087" transform="translate(266.492 14.708)" fill="none" stroke="#263238" stroke-linecap="round" stroke-linejoin="round" stroke-width="1"/>
        <line id="Línea_615" data-name="Línea 615" x1="3.087" y2="3.087" transform="translate(266.492 14.708)" fill="none" stroke="#263238" stroke-linecap="round" stroke-linejoin="round" stroke-width="1"/>
        <g id="Grupo_1099398" data-name="Grupo 1099398">
          <g id="Grupo_1099397" data-name="Grupo 1099397" clip-path="url(#clip-path)">
            <path id="Trazado_873697" data-name="Trazado 873697" d="M322.541,56.77a2.461,2.461,0,1,0-2.461,2.461A2.461,2.461,0,0,0,322.541,56.77Z" transform="translate(-186.797 -31.94)" fill="none" stroke="#263238" stroke-linecap="round" stroke-linejoin="round" stroke-width="1"/>
            <path id="Trazado_873698" data-name="Trazado 873698" d="M35.484,36.29a2.461,2.461,0,1,0-2.461,2.461A2.461,2.461,0,0,0,35.484,36.29Z" transform="translate(-17.974 -19.895)" fill="none" stroke="#263238" stroke-linecap="round" stroke-linejoin="round" stroke-width="1"/>
            <path id="Trazado_873699" data-name="Trazado 873699" d="M626.5,399.809a2.461,2.461,0,1,0-2.461,2.461A2.461,2.461,0,0,0,626.5,399.809Z" transform="translate(-365.56 -233.687)" fill="none" stroke="#263238" stroke-linecap="round" stroke-linejoin="round" stroke-width="1"/>
            <path id="Trazado_873700" data-name="Trazado 873700" d="M133.957,456.129a2.461,2.461,0,1,0-2.461,2.461A2.461,2.461,0,0,0,133.957,456.129Z" transform="translate(-75.888 -266.81)" fill="none" stroke="#263238" stroke-linecap="round" stroke-linejoin="round" stroke-width="1"/>
            <path id="Trazado_873701" data-name="Trazado 873701" d="M35.822,226.753a2.461,2.461,0,1,0-2.461,2.461A2.461,2.461,0,0,0,35.822,226.753Z" transform="translate(-18.173 -131.91)" fill="none" stroke="#263238" stroke-linecap="round" stroke-linejoin="round" stroke-width="1"/>
            <path id="Trazado_873702" data-name="Trazado 873702" d="M326.468,346.561a2.461,2.461,0,1,0-2.461,2.461A2.461,2.461,0,0,0,326.468,346.561Z" transform="translate(-189.107 -202.371)" fill="none" stroke="#263238" stroke-linecap="round" stroke-linejoin="round" stroke-width="1"/>
          </g>
        </g>
        <g id="Grupo_1099400" data-name="Grupo 1099400">
          <g id="Grupo_1099399" data-name="Grupo 1099399" clip-path="url(#clip-path)">
            <line id="Línea_616" data-name="Línea 616" x2="4.547" y2="0.776" transform="translate(289.833 142.655)" fill="none" stroke="#263238" stroke-linecap="round" stroke-linejoin="round" stroke-width="1"/>
          </g>
        </g>
        <path id="Trazado_873703" data-name="Trazado 873703" d="M147.283,330.587l138.864-21.621,87.406,14.9" transform="translate(-86.62 -181.708)" fill="none" stroke="#263238" stroke-linecap="round" stroke-linejoin="round" stroke-width="1"/>
        <g id="Grupo_1099402" data-name="Grupo 1099402">
          <g id="Grupo_1099401" data-name="Grupo 1099401" clip-path="url(#clip-path)">
            <line id="Línea_617" data-name="Línea 617" y1="8.474" x2="54.422" transform="translate(0.206 149.819)" fill="none" stroke="#263238" stroke-linecap="round" stroke-linejoin="round" stroke-width="1"/>
          </g>
        </g>
        <path id="Trazado_873704" data-name="Trazado 873704" d="M451.459,66.585,367.476,76.7l.167,104.8,84.637,13.5,36.987-7.664L489.432,71.2Z" transform="translate(-216.119 -39.16)" fill="#dbdbdb"/>
        <path id="Trazado_873705" data-name="Trazado 873705" d="M451.459,66.585,367.476,76.7l.167,104.8,84.637,13.5,36.987-7.664L489.432,71.2Z" transform="translate(-216.119 -39.16)" fill="none" stroke="#263238" stroke-linecap="round" stroke-linejoin="round" stroke-width="1"/>
        <line id="Línea_618" data-name="Línea 618" x1="26.911" y1="4.066" transform="translate(242.419 140.856)" fill="none" stroke="#263238" stroke-linecap="round" stroke-linejoin="round" stroke-width="1"/>
        <g id="Grupo_1099404" data-name="Grupo 1099404">
          <g id="Grupo_1099403" data-name="Grupo 1099403" clip-path="url(#clip-path)">
            <path id="Trazado_873706" data-name="Trazado 873706" d="M609.346,123.781c0,9.2-5.429,16.65-12.125,16.65s-12.125-7.454-12.125-16.65,5.429-16.65,12.125-16.65,12.125,7.454,12.125,16.65" transform="translate(-344.104 -63.006)" fill="#fff"/>
            <path id="Trazado_873707" data-name="Trazado 873707" d="M609.835,126.023c0,8.328-4.917,15.079-10.982,15.079s-10.982-6.752-10.982-15.079,4.917-15.079,10.982-15.079,10.982,6.751,10.982,15.079" transform="translate(-345.738 -65.248)" fill="#a854f3"/>
            <path id="Trazado_873708" data-name="Trazado 873708" d="M612.81,139.655c0,3.055-1.8,5.532-4.029,5.532s-4.029-2.477-4.029-5.532,1.8-5.532,4.029-5.532,4.029,2.477,4.029,5.532" transform="translate(-355.665 -78.88)" fill="#263238"/>
            <ellipse id="Elipse_11485" data-name="Elipse 11485" cx="4.029" cy="5.532" rx="4.029" ry="5.532" transform="translate(249.087 55.243)" fill="none" stroke="#263238" stroke-linecap="round" stroke-linejoin="round" stroke-width="1"/>
            <path id="Trazado_873709" data-name="Trazado 873709" d="M478.752,143.589l-51.265,1.4v45.789l52.43,5.709V144.637Z" transform="translate(-251.413 -84.447)" fill="#263238"/>
            <path id="Trazado_873710" data-name="Trazado 873710" d="M478.752,143.589l-51.265,1.4v45.789l52.43,5.709V144.637Z" transform="translate(-251.413 -84.447)" fill="none" stroke="#263238" stroke-linecap="round" stroke-linejoin="round" stroke-width="1"/>
            <path id="Trazado_873711" data-name="Trazado 873711" d="M412.474,169.568c0,9.2-5.429,16.65-12.125,16.65s-12.125-7.454-12.125-16.65,5.429-16.65,12.125-16.65,12.125,7.454,12.125,16.65" transform="translate(-228.321 -89.934)" fill="#fff"/>
            <path id="Trazado_873712" data-name="Trazado 873712" d="M412.963,171.81c0,8.328-4.917,15.079-10.982,15.079S391,180.138,391,171.81s4.917-15.079,10.982-15.079,10.982,6.752,10.982,15.079" transform="translate(-229.954 -92.176)" fill="#a854f3"/>
            <path id="Trazado_873713" data-name="Trazado 873713" d="M415.938,185.442c0,3.055-1.8,5.532-4.029,5.532s-4.029-2.477-4.029-5.532,1.8-5.532,4.029-5.532,4.029,2.477,4.029,5.532" transform="translate(-239.881 -105.808)" fill="#263238"/>
            <ellipse id="Elipse_11486" data-name="Elipse 11486" cx="4.029" cy="5.532" rx="4.029" ry="5.532" transform="translate(167.999 74.102)" fill="none" stroke="#263238" stroke-linecap="round" stroke-linejoin="round" stroke-width="1"/>
            <path id="Trazado_873714" data-name="Trazado 873714" d="M609.346,205.947c0,9.2-5.429,16.65-12.125,16.65s-12.125-7.454-12.125-16.65,5.429-16.65,12.125-16.65,12.125,7.454,12.125,16.65" transform="translate(-344.104 -111.329)" fill="#fff"/>
            <path id="Trazado_873715" data-name="Trazado 873715" d="M609.835,208.189c0,8.328-4.917,15.079-10.982,15.079s-10.982-6.752-10.982-15.079,4.917-15.079,10.982-15.079,10.982,6.752,10.982,15.079" transform="translate(-345.738 -113.571)" fill="#a854f3"/>
            <path id="Trazado_873716" data-name="Trazado 873716" d="M612.81,221.821c0,3.055-1.8,5.532-4.029,5.532s-4.029-2.477-4.029-5.532,1.8-5.532,4.029-5.532,4.029,2.477,4.029,5.532" transform="translate(-355.665 -127.203)" fill="#263238"/>
            <ellipse id="Elipse_11487" data-name="Elipse 11487" cx="4.029" cy="5.532" rx="4.029" ry="5.532" transform="translate(249.087 89.086)" fill="none" stroke="#263238" stroke-linecap="round" stroke-linejoin="round" stroke-width="1"/>
            <path id="Trazado_873717" data-name="Trazado 873717" d="M609.346,288.114c0,9.2-5.429,16.65-12.125,16.65s-12.125-7.454-12.125-16.65,5.429-16.65,12.125-16.65,12.125,7.454,12.125,16.65" transform="translate(-344.104 -159.653)" fill="#fff"/>
            <path id="Trazado_873718" data-name="Trazado 873718" d="M609.835,290.356c0,8.328-4.917,15.079-10.982,15.079s-10.982-6.751-10.982-15.079,4.917-15.079,10.982-15.079,10.982,6.752,10.982,15.079" transform="translate(-345.738 -161.895)" fill="#a854f3"/>
            <path id="Trazado_873719" data-name="Trazado 873719" d="M612.81,303.988c0,3.056-1.8,5.533-4.029,5.533s-4.029-2.477-4.029-5.533,1.8-5.532,4.029-5.532,4.029,2.477,4.029,5.532" transform="translate(-355.665 -175.527)" fill="#263238"/>
            <ellipse id="Elipse_11488" data-name="Elipse 11488" cx="4.029" cy="5.532" rx="4.029" ry="5.532" transform="translate(249.087 122.929)" fill="none" stroke="#263238" stroke-linecap="round" stroke-linejoin="round" stroke-width="1"/>
            <path id="Trazado_873720" data-name="Trazado 873720" d="M492.785,136.053a1.449,1.449,0,0,1-.65-.154c-1.984-.992-4.93-4.023-7.005-7.206-1.993-3.059-4.056-7.538-2.56-11.5.727-1.928,3.651-5.187,20.564-11.212,9.059-3.227,17.949-5.729,18.038-5.754a1.456,1.456,0,0,1,.786,2.8c-14.365,4.03-35.237,11.408-36.664,15.191-1.122,2.973.944,6.843,2.275,8.886a20.532,20.532,0,0,0,5.868,6.192,1.456,1.456,0,0,1-.652,2.758" transform="translate(-283.506 -58.911)" fill="#fff"/>
            <path id="Trazado_873721" data-name="Trazado 873721" d="M492.785,136.053a1.449,1.449,0,0,1-.65-.154c-1.984-.992-4.93-4.023-7.005-7.206-1.993-3.059-4.056-7.538-2.56-11.5.727-1.928,3.651-5.187,20.564-11.212,9.059-3.227,17.949-5.729,18.038-5.754a1.456,1.456,0,0,1,.786,2.8c-14.365,4.03-35.237,11.408-36.664,15.191-1.122,2.973.944,6.843,2.275,8.886a20.532,20.532,0,0,0,5.868,6.192,1.456,1.456,0,0,1-.652,2.758Z" transform="translate(-283.506 -58.911)" fill="none" stroke="#263238" stroke-linecap="round" stroke-linejoin="round" stroke-width="1"/>
            <path id="Trazado_873722" data-name="Trazado 873722" d="M497.357,139.785a1.445,1.445,0,0,1-.813-.25c-4.137-2.792-5.682-8.629-4.592-17.348a18.994,18.994,0,0,1,5.749-11.076c4.522-4.626,11.87-8.977,21.84-12.933,22.233-8.823,32.675-5.88,33.11-5.751a1.455,1.455,0,0,1-.827,2.791c-.141-.04-10.121-2.7-31.21,5.665-16.331,6.481-24.762,13.567-25.774,21.664-.943,7.543.178,12.447,3.331,14.575a1.456,1.456,0,0,1-.816,2.662" transform="translate(-289.127 -54.021)" fill="#fff"/>
            <path id="Trazado_873723" data-name="Trazado 873723" d="M497.357,139.785a1.445,1.445,0,0,1-.813-.25c-4.137-2.792-5.682-8.629-4.592-17.348a18.994,18.994,0,0,1,5.749-11.076c4.522-4.626,11.87-8.977,21.84-12.933,22.233-8.823,32.675-5.88,33.11-5.751a1.455,1.455,0,0,1-.827,2.791c-.141-.04-10.121-2.7-31.21,5.665-16.331,6.481-24.762,13.567-25.774,21.664-.943,7.543.178,12.447,3.331,14.575a1.456,1.456,0,0,1-.816,2.662Z" transform="translate(-289.127 -54.021)" fill="none" stroke="#263238" stroke-linecap="round" stroke-linejoin="round" stroke-width="1"/>
            <path id="Trazado_873724" data-name="Trazado 873724" d="M501.579,188.784v2.526h9.155L512,189.731h3.946V156.74L512,155.951l-1.894-1.736h-7.261L501.579,158Z" transform="translate(-294.987 -90.696)" fill="#fff"/>
            <path id="Trazado_873725" data-name="Trazado 873725" d="M501.579,188.784v2.526h9.155L512,189.731h3.946V156.74L512,155.951l-1.894-1.736h-7.261L501.579,158Z" transform="translate(-294.987 -90.696)" fill="none" stroke="#263238" stroke-linecap="round" stroke-linejoin="round" stroke-width="1"/>
            <rect id="Rectángulo_401357" data-name="Rectángulo 401357" width="6.472" height="30.781" transform="translate(206.592 67.307)" fill="#a854f3"/>
            <rect id="Rectángulo_401358" data-name="Rectángulo 401358" width="6.472" height="30.781" transform="translate(206.592 67.307)" fill="none" stroke="#fff" stroke-linecap="round" stroke-linejoin="round" stroke-width="1"/>
            <path id="Trazado_873726" data-name="Trazado 873726" d="M542.252,199.009l-15-1.105v14.049L541.621,214Z" transform="translate(-310.088 -116.391)" fill="#fff"/>
            <path id="Trazado_873727" data-name="Trazado 873727" d="M542.252,199.009l-15-1.105v14.049L541.621,214Z" transform="translate(-310.088 -116.391)" fill="none" stroke="#263238" stroke-linecap="round" stroke-linejoin="round" stroke-width="1"/>
            <line id="Línea_619" data-name="Línea 619" x2="14.648" y2="1.247" transform="translate(217.338 83.224)" fill="none" stroke="#263238" stroke-linecap="round" stroke-linejoin="round" stroke-width="1"/>
            <line id="Línea_620" data-name="Línea 620" x2="14.726" y2="1.636" transform="translate(217.182 85.64)" fill="none" stroke="#263238" stroke-linecap="round" stroke-linejoin="round" stroke-width="1"/>
            <line id="Línea_621" data-name="Línea 621" x2="14.492" y2="1.714" transform="translate(217.26 87.977)" fill="none" stroke="#263238" stroke-linecap="round" stroke-linejoin="round" stroke-width="1"/>
            <line id="Línea_622" data-name="Línea 622" x2="14.57" y2="1.87" transform="translate(217.182 90.314)" fill="none" stroke="#263238" stroke-linecap="round" stroke-linejoin="round" stroke-width="1"/>
            <line id="Línea_623" data-name="Línea 623" x2="14.492" y2="2.026" transform="translate(217.026 92.34)" fill="none" stroke="#263238" stroke-linecap="round" stroke-linejoin="round" stroke-width="1"/>
            <line id="Línea_624" data-name="Línea 624" x2="14.336" y2="2.26" transform="translate(217.104 94.21)" fill="none" stroke="#263238" stroke-linecap="round" stroke-linejoin="round" stroke-width="1"/>
            <path id="Trazado_873728" data-name="Trazado 873728" d="M527.256,185.774v-8.5l.949.545v7.947Z" transform="translate(-310.088 -104.26)" fill="#263238"/>
            <path id="Trazado_873729" data-name="Trazado 873729" d="M527.256,185.774v-8.5l.949.545v7.947Z" transform="translate(-310.088 -104.26)" fill="none" stroke="#263238" stroke-linecap="round" stroke-linejoin="round" stroke-width="1"/>
            <path id="Trazado_873730" data-name="Trazado 873730" d="M387.293,247.407v34.6l2.4.252V247.785Z" transform="translate(-227.774 -145.504)" fill="#263238"/>
            <path id="Trazado_873731" data-name="Trazado 873731" d="M387.293,247.407v34.6l2.4.252V247.785Z" transform="translate(-227.774 -145.504)" fill="none" stroke="#263238" stroke-linecap="round" stroke-linejoin="round" stroke-width="1"/>
            <path id="Trazado_873732" data-name="Trazado 873732" d="M393.11,246.244l28.243-1.458v4.035l42.239,4.665v14.878l-7.565,2.143-35.052-4.539v8.826l41.1,6.052V292.32l-68.969-11.6Z" transform="translate(-231.195 -143.963)" fill="#ababab"/>
            <path id="Trazado_873733" data-name="Trazado 873733" d="M393.11,246.244l28.243-1.458v4.035l42.239,4.665v14.878l-7.565,2.143-35.052-4.539v8.826l41.1,6.052V292.32l-68.969-11.6Z" transform="translate(-231.195 -143.963)" fill="none" stroke="#263238" stroke-linecap="round" stroke-linejoin="round" stroke-width="1"/>
            <path id="Trazado_873734" data-name="Trazado 873734" d="M421.173,254.581,392.8,256.544l55.6,4.09,15-1.387Z" transform="translate(-231.015 -149.724)" fill="#ababab"/>
            <path id="Trazado_873735" data-name="Trazado 873735" d="M421.173,254.581,392.8,256.544l55.6,4.09,15-1.387Z" transform="translate(-231.015 -149.724)" fill="none" stroke="#263238" stroke-linecap="round" stroke-linejoin="round" stroke-width="1"/>
            <path id="Trazado_873736" data-name="Trazado 873736" d="M527.8,267.295v14.5l7.439,1.135,7.565-2.143V265.908Z" transform="translate(-310.41 -156.385)" fill="#263238"/>
            <path id="Trazado_873737" data-name="Trazado 873737" d="M527.8,267.295v14.5l7.439,1.135,7.565-2.143V265.908Z" transform="translate(-310.41 -156.385)" fill="none" stroke="#263238" stroke-linecap="round" stroke-linejoin="round" stroke-width="1"/>
            <path id="Trazado_873738" data-name="Trazado 873738" d="M392.8,259.346v12.6l27.991,2.585,27.613,3.4v-14.5Z" transform="translate(-231.015 -152.526)" fill="#263238"/>
            <path id="Trazado_873739" data-name="Trazado 873739" d="M392.8,259.346v12.6l27.991,2.585,27.613,3.4v-14.5Z" transform="translate(-231.015 -152.526)" fill="none" stroke="#263238" stroke-linecap="round" stroke-linejoin="round" stroke-width="1"/>
            <path id="Trazado_873740" data-name="Trazado 873740" d="M421.36,283.058l3.148-5.9,22.629,2.263,1.574,1.673" transform="translate(-247.809 -162.999)" fill="none" stroke="#fff" stroke-linecap="round" stroke-linejoin="round" stroke-width="1"/>
            <path id="Trazado_873741" data-name="Trazado 873741" d="M491.372,272.948s-2.9,1.513-2.269,7.313,6.3,13.239,10.591,15.887,14.374,4.161,15.887,4.035,2.4-.252,2.4-.252v-5.8a16.327,16.327,0,0,1-7.565,0c-3.909-1.009-11.474-11.726-12.356-14s1.135-4.665,1.135-4.665v-1.891Z" transform="translate(-287.597 -160.525)" fill="#fff"/>
            <path id="Trazado_873742" data-name="Trazado 873742" d="M491.372,272.948s-2.9,1.513-2.269,7.313,6.3,13.239,10.591,15.887,14.374,4.161,15.887,4.035,2.4-.252,2.4-.252v-5.8a16.327,16.327,0,0,1-7.565,0c-3.909-1.009-11.474-11.726-12.356-14s1.135-4.665,1.135-4.665v-1.891Z" transform="translate(-287.597 -160.525)" fill="none" stroke="#263238" stroke-linecap="round" stroke-linejoin="round" stroke-width="1"/>
            <path id="Trazado_873743" data-name="Trazado 873743" d="M501.526,274.173s-2.522,1.261-1.387,6.808,5.926,12.23,11.347,15.761a16.055,16.055,0,0,0,10.339,2.774" transform="translate(-293.968 -161.246)" fill="none" stroke="#263238" stroke-linecap="round" stroke-linejoin="round" stroke-width="1"/>
            <path id="Trazado_873744" data-name="Trazado 873744" d="M510.273,274.479a7.3,7.3,0,0,0-2.4,5.789c.2,3.68,5.928,9.71,8.432,12.368" transform="translate(-298.68 -161.426)" fill="none" stroke="#263238" stroke-linecap="round" stroke-linejoin="round" stroke-width="1"/>
            <path id="Trazado_873745" data-name="Trazado 873745" d="M505.1,276.747a9.977,9.977,0,0,0-.511,6.184c.715,3.935,7.206,11.652,11.5,14.412" transform="translate(-296.625 -162.76)" fill="none" stroke="#263238" stroke-linecap="round" stroke-linejoin="round" stroke-width="1"/>
            <path id="Trazado_873746" data-name="Trazado 873746" d="M496.666,273.149s-1.482.767-1.329,5.06S498.915,289.5,503.412,294" transform="translate(-291.31 -160.644)" fill="none" stroke="#263238" stroke-linecap="round" stroke-linejoin="round" stroke-width="1"/>
            <path id="Trazado_873747" data-name="Trazado 873747" d="M491.857,287.418s-.511,4.344,4.344,11.09" transform="translate(-289.26 -169.035)" fill="none" stroke="#263238" stroke-linecap="round" stroke-linejoin="round" stroke-width="1"/>
            <path id="Trazado_873748" data-name="Trazado 873748" d="M537.665,327.744a62.841,62.841,0,0,0,8.484,1.227" transform="translate(-316.21 -192.752)" fill="none" stroke="#263238" stroke-linecap="round" stroke-linejoin="round" stroke-width="1"/>
            <path id="Trazado_873749" data-name="Trazado 873749" d="M387.293,245.433,406.8,244.05l11.133.3-28.243,1.458Z" transform="translate(-227.774 -143.53)" fill="#fff"/>
            <path id="Trazado_873750" data-name="Trazado 873750" d="M387.293,245.433,406.8,244.05l11.133.3-28.243,1.458Z" transform="translate(-227.774 -143.53)" fill="none" stroke="#263238" stroke-linecap="round" stroke-linejoin="round" stroke-width="1"/>
            <path id="Trazado_873751" data-name="Trazado 873751" d="M393.283,300.479l21.436-2.864V303.1L393.2,307.516l-.091,2.446,27.865-5.926V295.21l-8.055-.7-19.8,1.309Z" transform="translate(-231.195 -173.204)" fill="#263238"/>
            <path id="Trazado_873752" data-name="Trazado 873752" d="M393.283,300.479l21.436-2.864V303.1L393.2,307.516l-.091,2.446,27.865-5.926V295.21l-8.055-.7-19.8,1.309Z" transform="translate(-231.195 -173.204)" fill="none" stroke="#263238" stroke-linecap="round" stroke-linejoin="round" stroke-width="1"/>
            <path id="Trazado_873753" data-name="Trazado 873753" d="M396.995,336.873v5.116c0,1.3,8.171,2.362,18.251,2.362s18.251-1.057,18.251-2.362v-5.116Z" transform="translate(-233.48 -198.121)" fill="#fff"/>
            <path id="Trazado_873754" data-name="Trazado 873754" d="M433.5,333.5c0,1.3-8.171,2.361-18.251,2.361s-18.251-1.057-18.251-2.361,8.171-2.361,18.251-2.361S433.5,332.2,433.5,333.5" transform="translate(-233.48 -194.749)" fill="#a854f3"/>
            <path id="Trazado_873755" data-name="Trazado 873755" d="M435.541,334.745c0,.408-2.158.738-4.821.738s-4.821-.33-4.821-.738,2.159-.738,4.821-.738,4.821.33,4.821.738" transform="translate(-250.479 -196.435)" fill="#263238"/>
            <path id="Trazado_873756" data-name="Trazado 873756" d="M435.541,334.745c0,.408-2.158.738-4.821.738s-4.821-.33-4.821-.738,2.159-.738,4.821-.738S435.541,334.337,435.541,334.745Z" transform="translate(-250.479 -196.435)" fill="none" stroke="#263238" stroke-linecap="round" stroke-linejoin="round" stroke-width="1"/>
            <path id="Trazado_873757" data-name="Trazado 873757" d="M491.576,344.2l-.147,5.114c-.037,1.3,8.1,4.172,18.176,4.461s18.274-.532,18.312-1.836l.147-6.691Z" transform="translate(-289.018 -202.431)" fill="#fff"/>
            <path id="Trazado_873758" data-name="Trazado 873758" d="M528.273,342.547c-.038,1.3-8.236,2.125-18.311,1.836s-18.213-1.581-18.176-2.885,8.236-2.126,18.312-1.836,18.213,1.581,18.176,2.885" transform="translate(-289.228 -199.727)" fill="#a854f3"/>
            <path id="Trazado_873759" data-name="Trazado 873759" d="M530.347,343.361c-.012.407-2.179.676-4.84.6s-4.81-.469-4.8-.876,2.179-.675,4.84-.6,4.809.469,4.8.876" transform="translate(-306.238 -201.414)" fill="#263238"/>
            <path id="Trazado_873760" data-name="Trazado 873760" d="M530.347,343.361c-.012.407-2.179.676-4.84.6s-4.81-.469-4.8-.876,2.179-.675,4.84-.6S530.359,342.954,530.347,343.361Z" transform="translate(-306.238 -201.414)" fill="none" stroke="#263238" stroke-linecap="round" stroke-linejoin="round" stroke-width="1"/>
            <path id="Trazado_873761" data-name="Trazado 873761" d="M392.433,75.98v5.69l21.7,2.647,67.75-5.822V69.761l-15.747-3.176Z" transform="translate(-230.796 -39.16)" fill="#263238"/>
            <path id="Trazado_873762" data-name="Trazado 873762" d="M392.433,93.007l66.294-7.145,23.157,3.97-67.75,5.822Z" transform="translate(-230.796 -50.497)" fill="#fff"/>
            <path id="Trazado_873763" data-name="Trazado 873763" d="M478.973,198.154h-5.561a2.928,2.928,0,0,1-2.929-2.928V186.4a2.929,2.929,0,0,1,2.929-2.928h5.561A2.929,2.929,0,0,1,481.9,186.4v8.823a2.929,2.929,0,0,1-2.929,2.928" transform="translate(-276.7 -107.904)" fill="#fff"/>
            <path id="Rectángulo_401359" data-name="Rectángulo 401359" d="M5.71,0h0a5.709,5.709,0,0,1,5.709,5.709V8.972A5.709,5.709,0,0,1,5.71,14.68h0A5.71,5.71,0,0,1,0,8.971V5.71A5.71,5.71,0,0,1,5.71,0Z" transform="translate(193.784 75.57)" fill="none" stroke="#263238" stroke-linecap="round" stroke-linejoin="round" stroke-width="1"/>
            <path id="Trazado_873764" data-name="Trazado 873764" d="M480.645,199.207H477.21a2.076,2.076,0,0,1-2.076-2.076v-5.6a2.076,2.076,0,0,1,2.076-2.076h3.435a2.076,2.076,0,0,1,2.076,2.076v5.6a2.076,2.076,0,0,1-2.076,2.076" transform="translate(-279.434 -111.42)" fill="#a854f3"/>
            <path id="Trazado_873765" data-name="Trazado 873765" d="M571.749,59.581l.5,133.619,38.319-8.33L610.9,65.579Zm36.487,121.956L576.747,187.7l.333-122.623,31.156,5.165Z" transform="translate(-336.255 -35.041)" fill="#263238"/>
            <path id="Trazado_873766" data-name="Trazado 873766" d="M571.749,59.581l.5,133.619,38.319-8.33L610.9,65.579Zm36.487,121.956L576.747,187.7l.333-122.623,31.156,5.165Z" transform="translate(-336.255 -35.041)" fill="none" stroke="#263238" stroke-linecap="round" stroke-linejoin="round" stroke-width="1"/>
            <path id="Trazado_873767" data-name="Trazado 873767" d="M448.52,59.581l-86.3,11.329V178.872l86.8,14.328ZM366.549,175.873l-.666-101.964,76.806-8.33.5,123.123Z" transform="translate(-213.026 -35.041)" fill="#707070"/>
            <path id="Trazado_873768" data-name="Trazado 873768" d="M448.52,59.581l-86.3,11.329V178.872l86.8,14.328ZM366.549,175.873l-.666-101.964,76.806-8.33.5,123.123Z" transform="translate(-213.026 -35.041)" fill="none" stroke="#263238" stroke-linecap="round" stroke-linejoin="round" stroke-width="1"/>
            <line id="Línea_625" data-name="Línea 625" y2="11.036" transform="translate(183.951 46.958)" fill="none" stroke="#263238" stroke-linecap="round" stroke-linejoin="round" stroke-width="1"/>
          </g>
        </g>
        <g id="Grupo_1099406" data-name="Grupo 1099406">
          <g id="Grupo_1099405" data-name="Grupo 1099405" clip-path="url(#clip-path)">
            <path id="Trazado_873769" data-name="Trazado 873769" d="M216.885,389.95s21.907,5.744,23.911,5.61,91.368-19.1,92.036-19.5a9.477,9.477,0,0,0,1.736-2.538l-3.206-1.2s-29.387-5.744-30.857-5.477-96.577,14.961-97.512,15.9-2.271,1.87-1.87,2.271,15.762,4.943,15.762,4.943" transform="translate(-118.241 -215.74)" fill="#263238"/>
            <path id="Trazado_873770" data-name="Trazado 873770" d="M216.885,389.95s21.907,5.744,23.911,5.61,91.368-19.1,92.036-19.5a9.477,9.477,0,0,0,1.736-2.538l-3.206-1.2s-29.387-5.744-30.857-5.477-96.577,14.961-97.512,15.9-2.271,1.87-1.87,2.271S216.885,389.95,216.885,389.95Z" transform="translate(-118.241 -215.74)" fill="none" stroke="#263238" stroke-linecap="round" stroke-linejoin="round" stroke-width="1"/>
            <path id="Trazado_873771" data-name="Trazado 873771" d="M214.849,392.579l31.364,7.34,92.971-18.851" transform="translate(-126.356 -224.113)" fill="none" stroke="#b8b8b8" stroke-linecap="round" stroke-linejoin="round" stroke-width="1"/>
            <path id="Trazado_873772" data-name="Trazado 873772" d="M295.13,402.663l1.363.908,92.083-19.189" transform="translate(-173.571 -226.062)" fill="none" stroke="#b8b8b8" stroke-linecap="round" stroke-linejoin="round" stroke-width="1"/>
            <path id="Trazado_873773" data-name="Trazado 873773" d="M228.58,407.689l1.155-1.05,23.311,5.67.105,1.68" transform="translate(-134.432 -239.152)" fill="none" stroke="#b8b8b8" stroke-linecap="round" stroke-linejoin="round" stroke-width="1"/>
            <path id="Trazado_873774" data-name="Trazado 873774" d="M287.982,419.516l4.185-.623,1.3,1.6" transform="translate(-169.367 -246.358)" fill="none" stroke="#b8b8b8" stroke-linecap="round" stroke-linejoin="round" stroke-width="1"/>
            <path id="Trazado_873775" data-name="Trazado 873775" d="M302.267,416.319l.4-1.4,3.547-.849,1.2,1.349.5-1.5,8.493-1.7,1.249,1.5" transform="translate(-177.768 -242.435)" fill="none" stroke="#b8b8b8" stroke-linecap="round" stroke-linejoin="round" stroke-width="1"/>
            <path id="Trazado_873776" data-name="Trazado 873776" d="M342.778,411.338l.65-1.349,3.1-.8,1.3,1.4" transform="translate(-201.594 -240.651)" fill="none" stroke="#b8b8b8" stroke-linecap="round" stroke-linejoin="round" stroke-width="1"/>
            <path id="Trazado_873777" data-name="Trazado 873777" d="M356.241,407.964l.4-1.549,2.448-.5,1.3.949.75-1.349,2.747-.45.949.8" transform="translate(-209.512 -238.226)" fill="none" stroke="#b8b8b8" stroke-linecap="round" stroke-linejoin="round" stroke-width="1"/>
            <path id="Trazado_873778" data-name="Trazado 873778" d="M231.385,395.656l3.767-.548,1.149.4.449-.949,1-.1H239.5l1.3-.3,1.049-.65h2.648l2.148-.05.45-.549,3.147-.45,2.1.35,1.049-1.3,3.147-.15,1.1.05.749-.549,8.143-1.249,1.648.2.849-.949,7.394-.9,2.947.45.6.749" transform="translate(-136.081 -228.168)" fill="none" stroke="#b8b8b8" stroke-linecap="round" stroke-linejoin="round" stroke-width="1"/>
            <line id="Línea_626" data-name="Línea 626" y1="1.049" x2="5.046" transform="translate(138.087 161.344)" fill="none" stroke="#b8b8b8" stroke-linecap="round" stroke-linejoin="round" stroke-width="1"/>
            <path id="Trazado_873779" data-name="Trazado 873779" d="M343.714,391.6l6.843,1.762-4.745,1.136-6.794-1.4" transform="translate(-199.382 -230.308)" fill="none" stroke="#b8b8b8" stroke-linecap="round" stroke-linejoin="round" stroke-width="1"/>
            <line id="Línea_627" data-name="Línea 627" y2="2.448" transform="translate(146.43 164.192)" fill="none" stroke="#b8b8b8" stroke-linecap="round" stroke-linejoin="round" stroke-width="1"/>
            <path id="Trazado_873780" data-name="Trazado 873780" d="M364.241,403.639l-4.346-1-2.7.3-.35.8" transform="translate(-209.868 -236.8)" fill="none" stroke="#b8b8b8" stroke-linecap="round" stroke-linejoin="round" stroke-width="1"/>
            <path id="Trazado_873781" data-name="Trazado 873781" d="M353.453,405.63l-4.846-1.049-1.7.7-.25.4" transform="translate(-203.876 -237.941)" fill="none" stroke="#b8b8b8" stroke-linecap="round" stroke-linejoin="round" stroke-width="1"/>
            <line id="Línea_628" data-name="Línea 628" x1="2.698" y1="0.599" transform="translate(144.431 167.589)" fill="none" stroke="#b8b8b8" stroke-linecap="round" stroke-linejoin="round" stroke-width="1"/>
            <line id="Línea_629" data-name="Línea 629" x1="3.247" y1="0.6" transform="translate(148.378 166.69)" fill="none" stroke="#b8b8b8" stroke-linecap="round" stroke-linejoin="round" stroke-width="1"/>
            <path id="Trazado_873782" data-name="Trazado 873782" d="M338.434,408.42l-4.146-1.4,3.4-.5,3.447.749" transform="translate(-196.6 -239.082)" fill="none" stroke="#b8b8b8" stroke-linecap="round" stroke-linejoin="round" stroke-width="1"/>
            <path id="Trazado_873783" data-name="Trazado 873783" d="M333.438,401.57l3.247,1,3.347-.749-3.1-1Z" transform="translate(-196.101 -235.73)" fill="none" stroke="#b8b8b8" stroke-linecap="round" stroke-linejoin="round" stroke-width="1"/>
            <path id="Trazado_873784" data-name="Trazado 873784" d="M331.8,402.64l-1.149,1.249,1.4.5" transform="translate(-194.46 -236.8)" fill="none" stroke="#b8b8b8" stroke-linecap="round" stroke-linejoin="round" stroke-width="1"/>
            <line id="Línea_630" data-name="Línea 630" x2="0.799" y2="0.549" transform="translate(143.932 166.09)" fill="none" stroke="#b8b8b8" stroke-linecap="round" stroke-linejoin="round" stroke-width="1"/>
            <line id="Línea_631" data-name="Línea 631" x1="20.882" y1="4.796" transform="translate(117.754 164.991)" fill="none" stroke="#b8b8b8" stroke-linecap="round" stroke-linejoin="round" stroke-width="1"/>
            <line id="Línea_632" data-name="Línea 632" x2="20.632" y2="4.746" transform="translate(101.268 167.639)" fill="none" stroke="#b8b8b8" stroke-linecap="round" stroke-linejoin="round" stroke-width="1"/>
            <line id="Línea_633" data-name="Línea 633" x2="22.331" y2="5.246" transform="translate(101.918 166.89)" fill="none" stroke="#b8b8b8" stroke-linecap="round" stroke-linejoin="round" stroke-width="1"/>
            <line id="Línea_634" data-name="Línea 634" x2="22.481" y2="4.896" transform="translate(105.165 166.44)" fill="none" stroke="#b8b8b8" stroke-linecap="round" stroke-linejoin="round" stroke-width="1"/>
            <path id="Trazado_873785" data-name="Trazado 873785" d="M268.184,402.155l17.935,4,4.1-.8" transform="translate(-157.724 -236.514)" fill="none" stroke="#b8b8b8" stroke-linecap="round" stroke-linejoin="round" stroke-width="1"/>
            <path id="Trazado_873786" data-name="Trazado 873786" d="M358.694,388.094l.855-1.827,10.535-2.1,3.188.777,41.826-7.539,3.976.686,1.417,1.325" transform="translate(-210.954 -221.959)" fill="none" stroke="#b8b8b8" stroke-linecap="round" stroke-linejoin="round" stroke-width="1"/>
            <path id="Trazado_873787" data-name="Trazado 873787" d="M446.357,379.071l-41.272,8.364.457,1.325" transform="translate(-238.237 -222.938)" fill="none" stroke="#b8b8b8" stroke-linecap="round" stroke-linejoin="round" stroke-width="1"/>
            <path id="Trazado_873788" data-name="Trazado 873788" d="M410.3,392.942l3.839,1.234,1.052,1.1" transform="translate(-241.304 -231.096)" fill="none" stroke="#b8b8b8" stroke-linecap="round" stroke-linejoin="round" stroke-width="1"/>
            <path id="Trazado_873789" data-name="Trazado 873789" d="M423.838,390.278l4.388,1.325.823.96" transform="translate(-249.266 -229.529)" fill="none" stroke="#b8b8b8" stroke-linecap="round" stroke-linejoin="round" stroke-width="1"/>
            <path id="Trazado_873790" data-name="Trazado 873790" d="M477.879,380.846l3.7.868.869.732" transform="translate(-281.049 -223.982)" fill="none" stroke="#b8b8b8" stroke-linecap="round" stroke-linejoin="round" stroke-width="1"/>
            <path id="Trazado_873791" data-name="Trazado 873791" d="M489.531,378.849l3.062.914.594.777" transform="translate(-287.902 -222.808)" fill="none" stroke="#b8b8b8" stroke-linecap="round" stroke-linejoin="round" stroke-width="1"/>
            <path id="Trazado_873792" data-name="Trazado 873792" d="M371.239,399.673l.914-1.005,3.931,1.143,7.5-1.417-3.793-1.234" transform="translate(-218.332 -233.576)" fill="none" stroke="#b8b8b8" stroke-linecap="round" stroke-linejoin="round" stroke-width="1"/>
            <line id="Línea_635" data-name="Línea 635" x2="0.594" y2="1.28" transform="translate(165.248 164.817)" fill="none" stroke="#b8b8b8" stroke-linecap="round" stroke-linejoin="round" stroke-width="1"/>
            <line id="Línea_636" data-name="Línea 636" x1="3.154" y1="1.051" transform="translate(163.693 163.446)" fill="none" stroke="#b8b8b8" stroke-linecap="round" stroke-linejoin="round" stroke-width="1"/>
            <line id="Línea_637" data-name="Línea 637" y1="1.28" x2="6.627" transform="translate(153.821 163.811)" fill="none" stroke="#b8b8b8" stroke-linecap="round" stroke-linejoin="round" stroke-width="1"/>
            <line id="Línea_638" data-name="Línea 638" x2="2.422" y2="0.731" transform="translate(148.931 164.543)" fill="none" stroke="#b8b8b8" stroke-linecap="round" stroke-linejoin="round" stroke-width="1"/>
            <path id="Trazado_873793" data-name="Trazado 873793" d="M266.745,404.518l.582-.776,1.942-.437" transform="translate(-156.877 -237.19)" fill="none" stroke="#b8b8b8" stroke-linecap="round" stroke-linejoin="round" stroke-width="1"/>
            <path id="Trazado_873794" data-name="Trazado 873794" d="M278.294,407.325l.485-.776,1.748-.534" transform="translate(-163.669 -238.784)" fill="none" stroke="#b8b8b8" stroke-linecap="round" stroke-linejoin="round" stroke-width="1"/>
            <path id="Trazado_873795" data-name="Trazado 873795" d="M291.493,409.953l.485-.485,2.233-.388" transform="translate(-171.432 -240.587)" fill="none" stroke="#b8b8b8" stroke-linecap="round" stroke-linejoin="round" stroke-width="1"/>
            <line id="Línea_639" data-name="Línea 639" y1="0.582" x2="1.942" transform="translate(113.023 171.017)" fill="none" stroke="#b8b8b8" stroke-linecap="round" stroke-linejoin="round" stroke-width="1"/>
            <line id="Línea_640" data-name="Línea 640" y1="0.485" x2="1.311" transform="translate(109.237 170.143)" fill="none" stroke="#b8b8b8" stroke-linecap="round" stroke-linejoin="round" stroke-width="1"/>
            <line id="Línea_641" data-name="Línea 641" y1="0.194" x2="2.281" transform="translate(99.723 168.007)" fill="none" stroke="#b8b8b8" stroke-linecap="round" stroke-linejoin="round" stroke-width="1"/>
            <line id="Línea_642" data-name="Línea 642" y1="0.291" x2="2.379" transform="translate(103.266 168.784)" fill="none" stroke="#b8b8b8" stroke-linecap="round" stroke-linejoin="round" stroke-width="1"/>
            <path id="Trazado_873796" data-name="Trazado 873796" d="M296.324,401.565l1.116-.971,2.621.68v.582" transform="translate(-174.273 -235.596)" fill="none" stroke="#b8b8b8" stroke-linecap="round" stroke-linejoin="round" stroke-width="1"/>
            <path id="Trazado_873797" data-name="Trazado 873797" d="M306.341,398.9l2.815-.631,1.019.728.631-1.262,2.961-.631,1.165,1.116.68-1.262,3.009-.485,1.165,1.068" transform="translate(-180.165 -233.171)" fill="none" stroke="#b8b8b8" stroke-linecap="round" stroke-linejoin="round" stroke-width="1"/>
            <path id="Trazado_873798" data-name="Trazado 873798" d="M301.51,396.72l11.164-2.136,2.087.437" transform="translate(-177.323 -232.062)" fill="none" stroke="#b8b8b8" stroke-linecap="round" stroke-linejoin="round" stroke-width="1"/>
            <line id="Línea_643" data-name="Línea 643" x1="2.087" y1="0.825" transform="translate(126.905 164.269)" fill="none" stroke="#b8b8b8" stroke-linecap="round" stroke-linejoin="round" stroke-width="1"/>
            <line id="Línea_644" data-name="Línea 644" x1="1.942" y1="0.534" transform="translate(128.701 164.027)" fill="none" stroke="#b8b8b8" stroke-linecap="round" stroke-linejoin="round" stroke-width="1"/>
            <line id="Línea_645" data-name="Línea 645" x1="2.573" y1="0.534" transform="translate(132.875 163.25)" fill="none" stroke="#b8b8b8" stroke-linecap="round" stroke-linejoin="round" stroke-width="1"/>
            <line id="Línea_646" data-name="Línea 646" x2="4.14" y2="1.075" transform="translate(121.551 163.243)" fill="none" stroke="#b8b8b8" stroke-linecap="round" stroke-linejoin="round" stroke-width="1"/>
            <line id="Línea_647" data-name="Línea 647" x2="4.708" y2="1.262" transform="translate(122.633 162.813)" fill="none" stroke="#b8b8b8" stroke-linecap="round" stroke-linejoin="round" stroke-width="1"/>
            <line id="Línea_648" data-name="Línea 648" x2="4.029" y2="1.213" transform="translate(126.322 162.328)" fill="none" stroke="#b8b8b8" stroke-linecap="round" stroke-linejoin="round" stroke-width="1"/>
            <path id="Trazado_873799" data-name="Trazado 873799" d="M310.348,393.287l3.883,1.408,1.893.534" transform="translate(-182.521 -231.299)" fill="none" stroke="#b8b8b8" stroke-linecap="round" stroke-linejoin="round" stroke-width="1"/>
            <line id="Línea_649" data-name="Línea 649" x2="1.844" y2="0.534" transform="translate(132.535 161.843)" fill="none" stroke="#b8b8b8" stroke-linecap="round" stroke-linejoin="round" stroke-width="1"/>
            <path id="Trazado_873800" data-name="Trazado 873800" d="M322.765,390.147l4.06.856.291,1.019" transform="translate(-189.824 -229.452)" fill="none" stroke="#b8b8b8" stroke-linecap="round" stroke-linejoin="round" stroke-width="1"/>
            <line id="Línea_650" data-name="Línea 650" y1="7.232" x2="44.365" transform="translate(141.418 152.183)" fill="none" stroke="#b8b8b8" stroke-linecap="round" stroke-linejoin="round" stroke-width="1"/>
            <line id="Línea_651" data-name="Línea 651" y1="7.642" x2="45.205" transform="translate(145.317 153.107)" fill="none" stroke="#b8b8b8" stroke-linecap="round" stroke-linejoin="round" stroke-width="1"/>
            <line id="Línea_652" data-name="Línea 652" y1="8.147" x2="46.647" transform="translate(148.778 153.828)" fill="none" stroke="#b8b8b8" stroke-linecap="round" stroke-linejoin="round" stroke-width="1"/>
            <line id="Línea_653" data-name="Línea 653" y1="7.138" x2="39.942" transform="translate(160.314 154.694)" fill="none" stroke="#b8b8b8" stroke-linecap="round" stroke-linejoin="round" stroke-width="1"/>
            <line id="Línea_654" data-name="Línea 654" x2="18.197" y2="3.321" transform="translate(179.264 153.184)" fill="none" stroke="#b8b8b8" stroke-linecap="round" stroke-linejoin="round" stroke-width="1"/>
            <line id="Línea_655" data-name="Línea 655" x2="16.367" y2="3.321" transform="translate(183.741 152.558)" fill="none" stroke="#b8b8b8" stroke-linecap="round" stroke-linejoin="round" stroke-width="1"/>
            <line id="Línea_656" data-name="Línea 656" x1="14.057" y1="3.996" transform="translate(176.616 153.906)" fill="none" stroke="#b8b8b8" stroke-linecap="round" stroke-linejoin="round" stroke-width="1"/>
            <line id="Línea_657" data-name="Línea 657" x1="12.757" y1="3.996" transform="translate(173.342 154.772)" fill="none" stroke="#b8b8b8" stroke-linecap="round" stroke-linejoin="round" stroke-width="1"/>
            <line id="Línea_658" data-name="Línea 658" x1="12.275" y1="4.525" transform="translate(166.748 155.591)" fill="none" stroke="#b8b8b8" stroke-linecap="round" stroke-linejoin="round" stroke-width="1"/>
            <line id="Línea_659" data-name="Línea 659" x1="11.938" y1="4.573" transform="translate(163.185 156.265)" fill="none" stroke="#b8b8b8" stroke-linecap="round" stroke-linejoin="round" stroke-width="1"/>
            <line id="Línea_660" data-name="Línea 660" x1="11.602" y1="4.766" transform="translate(159.093 156.89)" fill="none" stroke="#b8b8b8" stroke-linecap="round" stroke-linejoin="round" stroke-width="1"/>
            <line id="Línea_661" data-name="Línea 661" x1="11.024" y1="4.91" transform="translate(154.761 157.516)" fill="none" stroke="#b8b8b8" stroke-linecap="round" stroke-linejoin="round" stroke-width="1"/>
            <line id="Línea_662" data-name="Línea 662" x1="9.146" y1="4.236" transform="translate(150.284 158.238)" fill="none" stroke="#b8b8b8" stroke-linecap="round" stroke-linejoin="round" stroke-width="1"/>
            <line id="Línea_663" data-name="Línea 663" x1="9.002" y1="4.14" transform="translate(146.144 158.864)" fill="none" stroke="#b8b8b8" stroke-linecap="round" stroke-linejoin="round" stroke-width="1"/>
            <line id="Línea_664" data-name="Línea 664" y1="1.204" x2="1.059" transform="translate(112.014 162.523)" fill="none" stroke="#b8b8b8" stroke-linecap="round" stroke-linejoin="round" stroke-width="1"/>
            <line id="Línea_665" data-name="Línea 665" x2="2.07" y2="0.77" transform="translate(116.779 161.897)" fill="none" stroke="#b8b8b8" stroke-linecap="round" stroke-linejoin="round" stroke-width="1"/>
            <line id="Línea_666" data-name="Línea 666" x2="2.214" y2="0.722" transform="translate(121.208 161.271)" fill="none" stroke="#b8b8b8" stroke-linecap="round" stroke-linejoin="round" stroke-width="1"/>
            <line id="Línea_667" data-name="Línea 667" x2="2.792" y2="0.963" transform="translate(126.503 160.26)" fill="none" stroke="#b8b8b8" stroke-linecap="round" stroke-linejoin="round" stroke-width="1"/>
            <line id="Línea_668" data-name="Línea 668" x2="3.033" y2="0.722" transform="translate(131.702 159.394)" fill="none" stroke="#b8b8b8" stroke-linecap="round" stroke-linejoin="round" stroke-width="1"/>
            <line id="Línea_669" data-name="Línea 669" x2="3.081" y2="0.963" transform="translate(135.939 158.672)" fill="none" stroke="#b8b8b8" stroke-linecap="round" stroke-linejoin="round" stroke-width="1"/>
            <line id="Línea_670" data-name="Línea 670" x2="2.407" y2="0.722" transform="translate(140.56 157.901)" fill="none" stroke="#b8b8b8" stroke-linecap="round" stroke-linejoin="round" stroke-width="1"/>
            <line id="Línea_671" data-name="Línea 671" x2="2.022" y2="0.626" transform="translate(151.15 156.265)" fill="none" stroke="#b8b8b8" stroke-linecap="round" stroke-linejoin="round" stroke-width="1"/>
            <line id="Línea_672" data-name="Línea 672" x2="2.311" y2="0.577" transform="translate(155.387 155.543)" fill="none" stroke="#b8b8b8" stroke-linecap="round" stroke-linejoin="round" stroke-width="1"/>
            <line id="Línea_673" data-name="Línea 673" x2="2.311" y2="0.433" transform="translate(159.142 154.869)" fill="none" stroke="#b8b8b8" stroke-linecap="round" stroke-linejoin="round" stroke-width="1"/>
            <line id="Línea_674" data-name="Línea 674" x2="2.455" y2="0.722" transform="translate(164.389 154.147)" fill="none" stroke="#b8b8b8" stroke-linecap="round" stroke-linejoin="round" stroke-width="1"/>
            <line id="Línea_675" data-name="Línea 675" x2="2.792" y2="0.577" transform="translate(169.106 153.425)" fill="none" stroke="#b8b8b8" stroke-linecap="round" stroke-linejoin="round" stroke-width="1"/>
            <line id="Línea_676" data-name="Línea 676" x2="2.792" y2="0.674" transform="translate(172.62 152.751)" fill="none" stroke="#b8b8b8" stroke-linecap="round" stroke-linejoin="round" stroke-width="1"/>
            <line id="Línea_677" data-name="Línea 677" x2="2.359" y2="0.626" transform="translate(176.568 152.173)" fill="none" stroke="#b8b8b8" stroke-linecap="round" stroke-linejoin="round" stroke-width="1"/>
          </g>
        </g>
        <g id="Grupo_1099408" data-name="Grupo 1099408">
          <g id="Grupo_1099407" data-name="Grupo 1099407" clip-path="url(#clip-path)">
            <path id="Trazado_873801" data-name="Trazado 873801" d="M194.308,416.219a23.481,23.481,0,0,0-12.69-7.881c-7.881-1.6-12.155,1.2-16.029,3.339s-7.614,3.874-7.213,5.477a5.8,5.8,0,0,0,2.939,3.607c1.2.534,12.824,4.675,18.3,5.209s12.022-.935,14.026-2.939.668-6.813.668-6.813" transform="translate(-93.126 -239.872)" fill="#a3a3a3"/>
            <path id="Trazado_873802" data-name="Trazado 873802" d="M194.308,416.219a23.481,23.481,0,0,0-12.69-7.881c-7.881-1.6-12.155,1.2-16.029,3.339s-7.614,3.874-7.213,5.477a5.8,5.8,0,0,0,2.939,3.607c1.2.534,12.824,4.675,18.3,5.209s12.022-.935,14.026-2.939S194.308,416.219,194.308,416.219Z" transform="translate(-93.126 -239.872)" fill="none" stroke="#263238" stroke-linecap="round" stroke-linejoin="round" stroke-width="1"/>
            <path id="Trazado_873803" data-name="Trazado 873803" d="M200.346,414.863a23.029,23.029,0,0,0-11.48-6.525c-7.881-1.6-12.155,1.2-16.029,3.34-.736.406-1.468.8-2.167,1.177.824-.194,6.524-1.46,9.247.025a30.816,30.816,0,0,0,14.026,3.874,9.769,9.769,0,0,0,6.4-1.891" transform="translate(-100.373 -239.872)" fill="#707070"/>
            <path id="Trazado_873804" data-name="Trazado 873804" d="M200.346,414.863a23.029,23.029,0,0,0-11.48-6.525c-7.881-1.6-12.155,1.2-16.029,3.34-.736.406-1.468.8-2.167,1.177.824-.194,6.524-1.46,9.247.025a30.816,30.816,0,0,0,14.026,3.874A9.769,9.769,0,0,0,200.346,414.863Z" transform="translate(-100.373 -239.872)" fill="none" stroke="#263238" stroke-linecap="round" stroke-linejoin="round" stroke-width="1"/>
            <path id="Trazado_873805" data-name="Trazado 873805" d="M194.728,429.422a15.309,15.309,0,0,1-8.659,2.234c-7.614-.267-10.686-5.21-15.5-7.881s-12.155,2.271-12.155,2.271a5.794,5.794,0,0,0,2.939,3.607c1.2.534,12.824,4.675,18.3,5.21s12.022-.935,14.025-2.939a4.172,4.172,0,0,0,1.046-2.5" transform="translate(-93.168 -248.764)" fill="#263238"/>
            <path id="Trazado_873806" data-name="Trazado 873806" d="M194.728,429.422a15.309,15.309,0,0,1-8.659,2.234c-7.614-.267-10.686-5.21-15.5-7.881s-12.155,2.271-12.155,2.271a5.794,5.794,0,0,0,2.939,3.607c1.2.534,12.824,4.675,18.3,5.21s12.022-.935,14.025-2.939A4.172,4.172,0,0,0,194.728,429.422Z" transform="translate(-93.168 -248.764)" fill="none" stroke="#263238" stroke-linecap="round" stroke-linejoin="round" stroke-width="1"/>
          </g>
        </g>
        <path id="Trazado_873807" data-name="Trazado 873807" d="M51.489,73.6l-2.024,1.221L60.626,182l1.853-.776Z" transform="translate(-29.091 -43.288)" fill="#a3a3a3"/>
        <path id="Trazado_873808" data-name="Trazado 873808" d="M51.489,73.6l-2.024,1.221L60.626,182l1.853-.776Z" transform="translate(-29.091 -43.288)" fill="none" stroke="#263238" stroke-linecap="round" stroke-linejoin="round" stroke-width="1"/>
        <g id="Grupo_1099410" data-name="Grupo 1099410">
          <g id="Grupo_1099409" data-name="Grupo 1099409" clip-path="url(#clip-path)">
            <path id="Trazado_873809" data-name="Trazado 873809" d="M196.67,319.747l-8.728,25.348,20.207-4.3s-3.587-2.511-3.109-6.337,5.38-15.543,5.38-15.543Z" transform="translate(-110.532 -187.556)" fill="#a3a3a3"/>
            <path id="Trazado_873810" data-name="Trazado 873810" d="M196.67,319.747l-8.728,25.348,20.207-4.3s-3.587-2.511-3.109-6.337,5.38-15.543,5.38-15.543Z" transform="translate(-110.532 -187.556)" fill="none" stroke="#263238" stroke-linecap="round" stroke-linejoin="round" stroke-width="1"/>
            <path id="Trazado_873811" data-name="Trazado 873811" d="M215.6,334.453c.478-3.826,5.38-15.543,5.38-15.543l-9.676.589c-.772,2.231-5.176,14.408-5.389,17.824a6.418,6.418,0,0,0,2.526,5.654l10.267-2.187s-3.587-2.511-3.108-6.337" transform="translate(-121.096 -187.556)" fill="#263238"/>
            <path id="Trazado_873812" data-name="Trazado 873812" d="M215.6,334.453c.478-3.826,5.38-15.543,5.38-15.543l-9.676.589c-.772,2.231-5.176,14.408-5.389,17.824a6.418,6.418,0,0,0,2.526,5.654l10.267-2.187S215.126,338.279,215.6,334.453Z" transform="translate(-121.096 -187.556)" fill="none" stroke="#263238" stroke-linecap="round" stroke-linejoin="round" stroke-width="1"/>
            <path id="Trazado_873813" data-name="Trazado 873813" d="M54.379,73.6l10.99,107.619L190.2,169.611l-10.99-81.492Z" transform="translate(-31.981 -43.288)" fill="#263238"/>
            <path id="Trazado_873814" data-name="Trazado 873814" d="M54.379,73.6l10.99,107.619L190.2,169.611l-10.99-81.492Z" transform="translate(-31.981 -43.288)" fill="none" stroke="#263238" stroke-linecap="round" stroke-linejoin="round" stroke-width="1"/>
            <path id="Trazado_873815" data-name="Trazado 873815" d="M64.951,84.176l10.576,98.5,116.95-10.161-9.331-74.234Z" transform="translate(-38.199 -49.505)" fill="#a854f3"/>
            <path id="Trazado_873816" data-name="Trazado 873816" d="M64.951,84.176l10.576,98.5,116.95-10.161-9.331-74.234Z" transform="translate(-38.199 -49.505)" fill="none" stroke="#263238" stroke-linecap="round" stroke-linejoin="round" stroke-width="1"/>
            <path id="Trazado_873817" data-name="Trazado 873817" d="M228.83,156.019c2.064,6.078-.608,12.087-5.969,13.422s-11.38-2.51-13.445-8.588.608-12.087,5.969-13.422,11.38,2.51,13.445,8.588" transform="translate(-122.751 -86.551)" fill="#fff"/>
            <path id="Trazado_873818" data-name="Trazado 873818" d="M228.83,156.019c2.064,6.078-.608,12.087-5.969,13.422s-11.38-2.51-13.445-8.588.608-12.087,5.969-13.422S226.766,149.942,228.83,156.019Z" transform="translate(-122.751 -86.551)" fill="none" stroke="#263238" stroke-linecap="round" stroke-linejoin="round" stroke-width="1"/>
            <path id="Trazado_873819" data-name="Trazado 873819" d="M229.707,161.147c1.805-.362,2.655-2.335,1.9-4.406s-2.836-3.456-4.641-3.093-2.654,2.335-1.9,4.406,2.836,3.456,4.642,3.093" transform="translate(-132.202 -90.329)" fill="#fff"/>
            <path id="Trazado_873820" data-name="Trazado 873820" d="M229.707,161.147c1.805-.362,2.655-2.335,1.9-4.406s-2.836-3.456-4.641-3.093-2.654,2.335-1.9,4.406S227.9,161.51,229.707,161.147Z" transform="translate(-132.202 -90.329)" fill="none" stroke="#263238" stroke-linecap="round" stroke-linejoin="round" stroke-width="1"/>
            <path id="Trazado_873821" data-name="Trazado 873821" d="M233.2,177.533c-3.03-3.446-7.264-5.514-11.1-5.035-3.79.473-6.216,3.311-6.65,7.113,2.808,3.706,7.281,5.706,11.372,4.688a8.754,8.754,0,0,0,6.378-6.766" transform="translate(-126.707 -101.409)" fill="#fff"/>
            <path id="Trazado_873822" data-name="Trazado 873822" d="M233.2,177.533c-3.03-3.446-7.264-5.514-11.1-5.035-3.79.473-6.216,3.311-6.65,7.113,2.808,3.706,7.281,5.706,11.372,4.688A8.754,8.754,0,0,0,233.2,177.533Z" transform="translate(-126.707 -101.409)" fill="none" stroke="#263238" stroke-linecap="round" stroke-linejoin="round" stroke-width="1"/>
            <path id="Trazado_873823" data-name="Trazado 873823" d="M232.179,220.284H196.936l-.97-6.135h35.243Z" transform="translate(-115.251 -125.944)" fill="#fff"/>
            <path id="Trazado_873824" data-name="Trazado 873824" d="M232.179,220.284H196.936l-.97-6.135h35.243Z" transform="translate(-115.251 -125.944)" fill="none" stroke="#263238" stroke-linecap="round" stroke-linejoin="round" stroke-width="1"/>
            <path id="Trazado_873825" data-name="Trazado 873825" d="M76.562,319.086l126.1-11.728.584-.66L78.415,318.31Z" transform="translate(-45.027 -180.374)" fill="#fff"/>
            <path id="Trazado_873826" data-name="Trazado 873826" d="M76.562,319.086l126.1-11.728.584-.66L78.415,318.31Z" transform="translate(-45.027 -180.374)" fill="none" stroke="#263238" stroke-linecap="round" stroke-linejoin="round" stroke-width="1"/>
            <path id="Trazado_873827" data-name="Trazado 873827" d="M170.993,384.454a22.959,22.959,0,0,1,5.238-3.7,88.678,88.678,0,0,1,25.945-6.286c12.448-.986,41.906-1.54,43.878-1.6s4.252-.246,4.5-.924a24.868,24.868,0,0,0,.356-3.686l-8.728,3.228-.872-.837s-9.614-.924-27.239.493-28.348,4.129-35.558,6.409-7.519,6.9-7.519,6.9" transform="translate(-100.564 -216.579)" fill="#263238"/>
            <path id="Trazado_873828" data-name="Trazado 873828" d="M170.993,384.454a22.959,22.959,0,0,1,5.238-3.7,88.678,88.678,0,0,1,25.945-6.286c12.448-.986,41.906-1.54,43.878-1.6s4.252-.246,4.5-.924a24.868,24.868,0,0,0,.356-3.686l-8.728,3.228-.872-.837s-9.614-.924-27.239.493-28.348,4.129-35.558,6.409S170.993,384.454,170.993,384.454Z" transform="translate(-100.564 -216.579)" fill="none" stroke="#263238" stroke-linecap="round" stroke-linejoin="round" stroke-width="1"/>
            <path id="Trazado_873829" data-name="Trazado 873829" d="M145.561,378.725l11.12,3.826s4.185-6.1,24.511-9.326,46.032-2.631,46.032-2.631l8.728-3.228s-33.358-1.913-55,.956-32.641,7.054-35.391,10.4" transform="translate(-85.607 -215.687)" fill="#707070"/>
            <path id="Trazado_873830" data-name="Trazado 873830" d="M145.561,378.725l11.12,3.826s4.185-6.1,24.511-9.326,46.032-2.631,46.032-2.631l8.728-3.228s-33.358-1.913-55,.956S148.311,375.378,145.561,378.725Z" transform="translate(-85.607 -215.687)" fill="none" stroke="#263238" stroke-linecap="round" stroke-linejoin="round" stroke-width="1"/>
            <path id="Trazado_873831" data-name="Trazado 873831" d="M141.574,395.836s-3.587,4.424-2.63,4.782,11.837.479,12.674.12a1.976,1.976,0,0,0,1.076-1.076Z" transform="translate(-81.62 -232.798)" fill="#263238"/>
            <path id="Trazado_873832" data-name="Trazado 873832" d="M141.574,395.836s-3.587,4.424-2.63,4.782,11.837.479,12.674.12a1.976,1.976,0,0,0,1.076-1.076Z" transform="translate(-81.62 -232.798)" fill="none" stroke="#263238" stroke-linecap="round" stroke-linejoin="round" stroke-width="1"/>
          </g>
        </g>
        <g id="Grupo_1099412" data-name="Grupo 1099412">
          <g id="Grupo_1099411" data-name="Grupo 1099411" clip-path="url(#clip-path)">
            <path id="Trazado_873833" data-name="Trazado 873833" d="M44.705,407.983,46.894,426.4c0,3.4,5.7,6.154,12.74,6.154s12.74-2.755,12.74-6.154l2.189-18.413Z" transform="translate(-26.292 -239.942)" fill="#fff"/>
            <path id="Trazado_873834" data-name="Trazado 873834" d="M44.705,407.983,46.894,426.4c0,3.4,5.7,6.154,12.74,6.154s12.74-2.755,12.74-6.154l2.189-18.413Z" transform="translate(-26.292 -239.942)" fill="none" stroke="#263238" stroke-linecap="round" stroke-linejoin="round" stroke-width="1"/>
            <path id="Trazado_873835" data-name="Trazado 873835" d="M74.562,401.946c0,2.335-6.684,4.228-14.928,4.228s-14.928-1.893-14.928-4.228,6.684-4.228,14.928-4.228,14.928,1.893,14.928,4.228" transform="translate(-26.292 -233.905)" fill="#fff"/>
            <ellipse id="Elipse_11489" data-name="Elipse 11489" cx="14.928" cy="4.228" rx="14.928" ry="4.228" transform="translate(18.413 163.813)" fill="none" stroke="#263238" stroke-linecap="round" stroke-linejoin="round" stroke-width="1"/>
            <path id="Trazado_873836" data-name="Trazado 873836" d="M75.972,403.279c0,1.82-5.208,3.295-11.633,3.295s-11.632-1.475-11.632-3.295,5.208-3.295,11.632-3.295,11.633,1.475,11.633,3.295" transform="translate(-30.998 -235.238)" fill="#263238"/>
            <path id="Trazado_873837" data-name="Trazado 873837" d="M14.067,300.195a15.51,15.51,0,0,0,4.554-.154c.033-.006-.985-1.982-1.063-2.1-.909-1.358-3.465-3.448-5.225-2.945A2.166,2.166,0,0,0,11,297.932a4.527,4.527,0,0,0,3.066,2.262" transform="translate(-6.371 -173.447)" fill="#263238"/>
            <path id="Trazado_873838" data-name="Trazado 873838" d="M89.526,287c.03.014.272-2.2.271-2.338-.009-1.634-.988-4.787-2.733-5.338a2.166,2.166,0,0,0-2.73,1.715,4.527,4.527,0,0,0,1.309,3.578A15.5,15.5,0,0,0,89.526,287" transform="translate(-49.567 -164.22)" fill="#263238"/>
            <path id="Trazado_873839" data-name="Trazado 873839" d="M56.487,266.785c-1.829.068-3.611,2.846-4.055,4.419-.038.136-.394,2.331-.36,2.326l.038-.006c-.285.437-.585.908-.9,1.429-.579.968-1.224,2.066-1.846,3.309a38.525,38.525,0,0,0-1.816,4.106,28.255,28.255,0,0,0-1.359,4.835c0,.02,0,.04-.008.06-.068-.532-.306-2.013-.338-2.125-.441-1.574-2.217-4.356-4.046-4.428a2.167,2.167,0,0,0-2.18,2.375,4.528,4.528,0,0,0,2.207,3.106,15.075,15.075,0,0,0,4.331,1.267,38.339,38.339,0,0,0-.478,5.094c-.033.994-.034,2-.023,3-.073-.458-.142-.867-.158-.923-.441-1.574-2.217-4.356-4.046-4.427a2.166,2.166,0,0,0-2.18,2.375,4.527,4.527,0,0,0,2.207,3.106,14.35,14.35,0,0,0,4.2,1.246c.008.386.012.771.022,1.156.046,1.85.1,3.695.1,5.506,0,.639-.025,1.267-.046,1.9-.065-.407-.124-.749-.138-.8-.441-1.574-2.217-4.357-4.046-4.427a2.166,2.166,0,0,0-2.18,2.375,4.528,4.528,0,0,0,2.207,3.105,13.82,13.82,0,0,0,4.083,1.225c-.042.643-.082,1.288-.152,1.91-.057.424-.082.835-.163,1.257l-.212,1.247c-.164.788-.327,1.6-.507,2.365-.12.533-.245,1.037-.369,1.547.008-.635,0-1.88-.016-1.984a8.411,8.411,0,0,0-1.7-3.888,2.581,2.581,0,0,0-.1-.47,2.166,2.166,0,0,0-2.885-1.438c-1.683.72-2.348,3.953-2.2,5.581.009.1.222,1.126.367,1.775-.143-.368-.278-.727-.43-1.1-.3-.748-.613-1.485-.951-2.28l-.536-1.145c-.171-.386-.4-.772-.6-1.164-.484-.9-1.017-1.781-1.574-2.661a14.229,14.229,0,0,0,3.819-2.1,4.529,4.529,0,0,0,1.5-3.5,2.166,2.166,0,0,0-2.634-1.859c-1.773.457-2.919,3.553-3.017,5.184-.006.1.056,1.281.1,1.927-.339-.526-.675-1.053-1.035-1.574-1.04-1.5-2.139-2.994-3.23-4.486-.334-.457-.661-.916-.991-1.374a15.038,15.038,0,0,0,3.961-2.155,4.527,4.527,0,0,0,1.5-3.5,2.166,2.166,0,0,0-2.634-1.859c-1.773.457-2.919,3.552-3.017,5.184-.007.123.084,1.819.129,2.249-.726-1.01-1.439-2.022-2.1-3.05a38.079,38.079,0,0,1-2.43-4.31,15.285,15.285,0,0,0,3.986-2.164,4.528,4.528,0,0,0,1.5-3.5,2.166,2.166,0,0,0-2.634-1.859c-1.773.457-2.919,3.552-3.017,5.184-.006.108.062,1.4.109,2.014l-.1.026a27.893,27.893,0,0,1-1.623-4.7c-.231-.885-.4-1.744-.552-2.583a14.563,14.563,0,0,0,4.1-1.686,4.527,4.527,0,0,0,1.875-3.317,2.166,2.166,0,0,0-2.413-2.137c-1.812.259-3.292,3.21-3.568,4.821-.015.088-.069,1-.1,1.657-.061-.38-.131-.771-.182-1.136-.2-1.37-.291-2.637-.367-3.76-.038-.639-.059-1.217-.073-1.758a14.488,14.488,0,0,0,2.844-3.37,4.527,4.527,0,0,0,.136-3.807,2.166,2.166,0,0,0-3.127-.785c-1.489,1.065-1.442,4.366-.945,5.923.043.135.958,2.162.982,2.139l.029-.026c0,.521.013,1.08.035,1.69.051,1.126.119,2.4.286,3.779a38.489,38.489,0,0,0,.75,4.426,28.241,28.241,0,0,0,1.533,4.782c.008.019.019.036.026.054-.35-.407-1.366-1.51-1.454-1.586-1.236-1.07-4.252-2.41-5.817-1.461a2.166,2.166,0,0,0-.509,3.183,4.529,4.529,0,0,0,3.554,1.373,15.081,15.081,0,0,0,4.311-1.332,38.4,38.4,0,0,0,2.412,4.512c.521.847,1.073,1.684,1.636,2.516-.314-.341-.6-.645-.641-.683-1.236-1.07-4.253-2.41-5.817-1.461a2.166,2.166,0,0,0-.508,3.183,4.527,4.527,0,0,0,3.555,1.373,14.365,14.365,0,0,0,4.193-1.279c.22.317.435.636.656.952,1.059,1.517,2.122,3.027,3.12,4.539.352.533.679,1.07,1.008,1.607-.279-.3-.517-.556-.557-.591-1.236-1.07-4.252-2.411-5.817-1.461a2.167,2.167,0,0,0-.508,3.184,4.528,4.528,0,0,0,3.554,1.372,13.8,13.8,0,0,0,4.082-1.231c.32.56.642,1.12.927,1.677.186.385.392.742.558,1.139l.511,1.157c.3.747.61,1.516.882,2.252.193.51.368,1,.545,1.494-.344-.535-1.04-1.566-1.108-1.646-1.059-1.245-3.838-3.027-5.528-2.325a2.166,2.166,0,0,0-.985,3.069,4.527,4.527,0,0,0,3.305,1.9,14.862,14.862,0,0,0,4.438-.657c.291.817.566,1.615.813,2.371.856,2.6,1.472,4.793,1.884,6.345l1.228-.178-.029-.1c-.451-1.564-1.126-3.787-2.056-6.415-.292-.831-.62-1.713-.966-2.615a23.582,23.582,0,0,0,2.308-1.524,15.859,15.859,0,0,0,3.948,1.8c-.208.842-.419,1.659-.63,2.426-.718,2.638-1.416,4.81-1.929,6.331l1.347-.2c.462-1.5,1.042-3.5,1.631-5.862.215-.854.428-1.771.637-2.715a14.885,14.885,0,0,0,4.478-.3,4.526,4.526,0,0,0,2.829-2.552,2.166,2.166,0,0,0-1.613-2.791c-1.8-.328-4.139,2-4.91,3.443-.046.085-.437,1.062-.673,1.683.084-.386.169-.76.25-1.158.166-.787.308-1.577.464-2.426q.091-.619.185-1.251c.071-.416.092-.865.141-1.3.091-1.014.134-2.047.155-3.087a14.234,14.234,0,0,0,4.343.357,4.527,4.527,0,0,0,3.183-2.094,2.166,2.166,0,0,0-1.171-3c-1.73-.6-4.395,1.352-5.376,2.66-.061.082-.66,1.1-.978,1.664.008-.626.018-1.251,0-1.884-.037-1.828-.132-3.678-.219-5.524-.027-.565-.047-1.129-.069-1.693a15.053,15.053,0,0,0,4.493.388,4.528,4.528,0,0,0,3.183-2.094,2.167,2.167,0,0,0-1.171-3c-1.73-.6-4.395,1.352-5.376,2.66-.074.1-.933,1.563-1.133,1.947-.048-1.242-.085-2.481-.071-3.7a38.1,38.1,0,0,1,.351-4.936,15.274,15.274,0,0,0,4.518.394,4.529,4.529,0,0,0,3.183-2.094,2.167,2.167,0,0,0-1.171-3c-1.731-.6-4.395,1.352-5.376,2.66-.064.086-.72,1.2-1.019,1.739l-.1-.034a27.9,27.9,0,0,1,1.241-4.818c.3-.866.626-1.677.965-2.459a14.581,14.581,0,0,0,4.348.855,4.529,4.529,0,0,0,3.394-1.732,2.166,2.166,0,0,0-.834-3.114c-1.655-.783-4.517.862-5.635,2.053-.061.065-.606.792-1,1.327.159-.351.316-.715.474-1.048.592-1.251,1.211-2.36,1.768-3.338.321-.553.622-1.047.909-1.507a14.491,14.491,0,0,0,4.231-1.242,4.527,4.527,0,0,0,2.214-3.1,2.166,2.166,0,0,0-2.175-2.379" transform="translate(-8.709 -156.9)" fill="#263238"/>
          </g>
        </g>
      </g>
    </g>
  </g>
</svg>
